<svg xmlns="http://www.w3.org/2000/svg" width="800" height="600"><path d="m49.64 264.69 3.82-3.83m-3.82 7.71 7.71-7.71m-7.71 11.59 11.59-11.59m-11.59 15.47 7.63-7.63m-7.63 11.51 7.63-7.63m-7.63 11.51 7.63-7.63m-7.63 11.51 7.63-7.63m.21-11.85 7.63-7.63m-3.75 7.63 7.63-7.63m-3.75 7.63 7.63-7.63m-3.75 7.63 7.63-7.63m-27.11 30.99 7.63-7.63m-7.63 11.51 7.63-7.63M73 268.49l7.15-7.15m-3.27 7.15 3.27-3.27m-30.51 34.39 7.63-7.63m-7.63 11.51 7.63-7.62m-7.63 11.5 7.63-7.62m-7.63 11.5 7.63-7.62m-7.63 11.5 7.63-7.62m42.49-46.38.27-.27m-.27 4.15 4.15-4.15m-54.27 58.16 7.63-7.63m-7.63 11.51 7.63-7.63m-7.63 11.51 7.63-7.63m-7.63 11.51 7.63-7.63m-7.63 11.51 7.63-7.63m-7.63 11.51 7.63-7.63m42.9-62.3 7.62-7.63m-3.74 7.63 7.62-7.63m-3.74 7.63 7.62-7.63m-3.74 7.63 7.63-7.63m-3.75 7.63 7.63-7.63m-3.75 7.63 7.63-7.63M49.64 342.3l7.63-7.63m65.37-65.37 8.44-8.44m-81.44 85.32 7.63-7.63m-7.63 11.51 7.63-7.63m65.37-69.25 4.36-4.36m-4.36 8.24 4.36-4.36m.33-4.21 4.03-4.03m-.15 4.03.15-.15m-81.72 85.6 7.63-7.63m-7.63 11.51 7.63-7.63m65.37-69.25 4.36-4.36m-4.36 8.24 4.36-4.36m-76.98 80.86 7.25-7.24m-3.37 7.24 3.37-3.36m65.37-69.26 4.36-4.36m-4.36 8.24 4.36-4.36m21.79-25.67 1.69-1.69m-1.69 5.57 5.57-5.57m-31.72 35.6 4.36-4.36m-4.36 8.24 4.36-4.35m-4.36 8.23 4.36-4.35m23.62-31.38 7.62-7.63m-3.74 7.63 7.62-7.63m-3.74 7.63 7.62-7.63m-43.36 47.24 4.36-4.35m34.87-34.87 8.01-8.02m-47.24 51.13 4.36-4.36m-4.36 8.24 4.36-4.36m-4.36 8.24 4.36-4.36m34.87-42.63 2.18-2.18m-2.18 6.06 2.18-2.18m-2.18 6.06 2.18-2.18m2.09-9.85 7.62-7.63m-3.74 7.63 7.63-7.63m-3.75 7.63 7.63-7.63M49.64 396.63l2.62-2.62m70.38-70.38 4.36-4.36m34.87-34.87 2.18-2.18m13.73-13.73 7.63-7.63M49.64 400.51l6.5-6.5m66.5-66.5 4.36-4.36m34.87-34.87 2.18-2.18m17.61-17.61 4.18-4.18M49.64 404.39l7.63-7.63m65.37-65.37 4.36-4.36m34.87-34.87 2.18-2.17m21.49-21.5.3-.3M49.64 408.27l7.63-7.63m65.37-65.37 4.36-4.36m34.87-34.86 2.18-2.18M49.64 412.15l7.63-7.63m65.37-65.37 5.29-5.29m33.94-33.93 2.18-2.18m-112 115.87 7.63-7.63m62.96-62.96 4.36-4.36m2.63-2.63.43-.43m31.81-31.8 2.18-2.18M55.93 413.62l7.63-7.63m-3.75 7.63 7.63-7.63m55.2-59.08 4.36-4.36m-4.36 8.24 4.36-4.36m34.87-38.74 2.18-2.18m-2.18 6.06 2.18-2.18M63.7 413.62l7.62-7.63m51.32-51.32 4.36-4.36m16.14-16.13.31-.32m18.42-18.41 2.18-2.18M67.58 413.62l7.62-7.63m-3.74 7.63 7.62-7.63m43.56-47.44 4.36-4.35m-4.36 8.23 4.36-4.35m18.15-22.04 2.18-2.18m1.7 2.18 2.18-2.18m10.66-14.53 2.18-2.18m-2.18 6.06 2.18-2.18m54.47-58.36 1.81-1.81m-1.81 5.69 5.69-5.69M75.34 413.62l7.62-7.63m-3.74 7.63 7.62-7.63m35.8-39.68 4.36-4.35m-4.36 8.24 4.36-4.36m25.91-29.8 2.18-2.18m1.7 2.18 2.18-2.18m2.9-6.77 2.18-2.18m-2.18 6.06 2.18-2.18m56.42-60.3 7.62-7.63m-3.74 7.63 7.62-7.63M83.1 413.62l7.63-7.63m32.68-32.68 3.59-3.59m.99-.99 2.18-2.18m30.51-30.51 3.37-3.37m64.18-64.18 7.63-7.63M86.98 413.62l7.63-7.63m-3.75 7.63 7.63-7.63m-3.75 7.63 7.63-7.63m-3.75 7.63 7.63-7.63m25.62-37.26 2.18-2.18m1.7 2.18 2.18-2.18m1.7 2.18 2.18-2.18m1.7 2.18 2.18-2.18m16.18-27.82 2.18-2.18m-2.18 6.06 2.18-2.18m-2.18 6.06 2.18-2.18m-2.18 6.06 2.18-2.17m68.06-79.71 7.63-7.63m-3.75 7.63 7.63-7.63m-3.75 7.63 7.63-7.63m-3.75 7.63 7.63-7.63M102.5 413.62l7.63-7.63m51.74-51.74 2.18-2.17m83.58-83.59 5.76-5.76M106.38 413.62l7.63-7.63m-3.75 7.63 7.63-7.63m43.98-47.85 2.18-2.18m-2.18 6.06 2.18-2.18m87.16-91.05 2.18-2.18m-2.18 6.06 2.18-2.18M114.14 413.62l7.63-7.63m.87-.87 1.31-1.31m35.74-35.73 1.52-1.53m.66-.65 2.18-2.18m87.16-87.17 2.18-2.18M118.02 413.62l8.98-8.98m35.91-35.91 2.18-2.18m86.12-86.12 2.18-2.18M121.9 413.62l7.63-7.63m-3.74 7.63 7.62-7.63m33.39-37.26 2.17-2.18m1.71 2.18 2.17-2.18m78.36-82.24 2.18-2.18m-2.18 6.06 2.18-2.17m-123.72 127.6 7.62-7.63m36.53-36.53 2.92-2.91m74.47-74.47 2.18-2.18M133.55 413.62l7.62-7.63m32.69-32.68 2.14-2.14m2.44-2.44 2.18-2.18m70.59-70.59 2.18-2.18m32.69-32.69.22-.23M137.43 413.62l7.62-7.63m37.27-37.26 2.18-2.18m66.71-66.71 2.18-2.18m32.69-32.69 4.1-4.11M141.31 413.62l7.63-7.63m-3.75 7.63 7.63-7.63m-3.75 7.63 7.63-7.63m-3.75 7.63 7.63-7.63m-3.75 7.63 7.63-7.63m-3.75 7.63 7.63-7.63m17.86-37.26 2.18-2.18m1.7 2.18 2.18-2.18m1.7 2.18 2.18-2.18m1.7 2.18 2.18-2.18m1.7 2.18 2.18-2.18m1.7 2.18 2.18-2.18m43.43-62.83 2.18-2.18m-2.18 6.06 2.18-2.18m-2.18 6.06 2.18-2.18m-2.18 6.06 2.18-2.18m-2.18 6.06 2.18-2.18m-2.18 6.06 2.18-2.18m33.05-52.45 7.63-7.63m-3.75 7.63 7.63-7.63m-3.75 7.63 7.63-7.63m-3.75 7.63 7.63-7.63m-3.75 7.63 7.63-7.63m-3.75 7.63 7.63-7.63M164.59 413.62l7.63-7.63m1.6-1.6.58-.58m35.08-35.08 2.18-2.18M251.21 327l2.18-2.18m56.33-56.33 7.63-7.63M167.28 414.81l8.82-8.82m75.11-75.11 2.18-2.18m60.21-60.21 7.63-7.63M167.28 418.69l12.7-12.7m71.23-71.23 2.18-2.18m64.09-64.09 5.64-5.64m-155.6 159.49 8.48-8.49m.23-.23 7.63-7.63m67.35-67.35 2.18-2.18m67.97-67.97 1.76-1.76M171.4 422.34l4.6-4.61m-.72 4.61.72-.73m4.11-7.99 4.44-4.43m-.55 4.43.33-.33m66.88-70.77 2.18-2.18m-2.18 6.06 2.18-2.17m-19.61 23.49 1.17-1.17m16.26-16.26 2.18-2.18m-16.74 20.62 2.18-2.18m1.7 2.18 2.18-2.18m1.7 2.18 2.18-2.18m4.62-12.38 2.18-2.18m-2.18 6.06 2.18-2.18m-2.18 6.06 2.18-2.18m-5.1 8.98 2.18-2.18m.74-.74 2.18-2.18m102.42-102.42.35-.35M252.17 368.73l2.18-2.18m1.7 2.18 2.18-2.18m97.58-101.46 4.23-4.23m-4.23 8.11 8.11-8.11M259.93 368.73l2.18-2.18m1.7 2.18 2.18-2.18m1.7 2.18 2.18-2.18m85.94-93.7 2.18-2.18m-2.18 6.06 2.18-2.18m-2.18 6.06 2.18-2.18m2.18-9.94 7.63-7.63m-3.75 7.63 7.63-7.63m-3.75 7.63 7.63-7.63M234.18 406.12l.13-.13m-.13 4.01 4.01-4.01m33.38-37.26 2.18-2.18m1.7 2.18 2.18-2.18m78.18-82.06 2.18-2.18m-2.18 6.06 2.18-2.18m13.82-17.7 7.63-7.63m-3.75 7.63 7.63-7.63M234.44 413.62l7.63-7.63m37.26-37.26 2.18-2.18m74.3-74.3 2.18-2.17m21.58-21.59 7.63-7.63M238.32 413.62l7.63-7.63m37.26-37.26 2.18-2.18m70.42-70.41 2.18-2.18m25.46-25.47 7.22-7.22M240.72 415.1l9.11-9.11m37.27-37.26 2.17-2.18m66.54-66.53 2.18-2.18m29.35-29.35 3.33-3.34M240.72 418.99l12.99-13m37.27-37.26 2.18-2.18m62.65-62.65 2.18-2.18M241.25 422.34l8.19-8.19m-4.31 8.19 4.31-4.31m.53-4.41 6-6.01m-2.12 6.01 2.12-2.13m38.89-42.76 2.18-2.18m1.7 2.18 2.18-2.18m54.89-58.77 2.18-2.18m-2.18 6.06 2.18-2.18M249.01 422.34l.43-.43m53.18-53.18 2.18-2.18m51.01-51.01 2.18-2.18m-51.49 55.37 2.18-2.18m1.7 2.18 2.18-2.18m1.7 2.18 2.18-2.18m39.37-47.13 2.18-2.18m-2.18 6.06 2.18-2.18m-2.18 6.06 2.18-2.18m-2.18 6.06 2.18-2.18m-2.18 6.06 2.18-2.18m65.37-69.25 2.65-2.65m-2.65 6.53 6.53-6.53m-74.08 77.96 2.18-2.18m-2.18 6.06 2.18-2.18m-2.18 6.06 2.18-2.18m68.15-75.91 7.63-7.63m-3.75 7.63 7.63-7.63m-3.75 7.63 7.63-7.63M338.38 367.9l1.34-1.35m16.09-16.09 2.18-2.17m79.79-79.8 7.63-7.63M341.42 368.73l2.18-2.18m12.21-12.2 2.18-2.18m83.67-83.68 7.63-7.63M305.44 408.59l2.6-2.6m-2.6 6.48 6.48-6.48m33.39-37.26 2.17-2.18m1.71 2.18 2.18-2.18m4.44-8.32 2.18-2.18m-2.18 6.06 2.18-2.18m87.56-91.44 7.62-7.63m-3.74 7.63 7.62-7.63M308.18 413.62l7.62-7.63m37.27-37.26 2.18-2.18m.56-.56 2.18-2.18m93.7-93.7 9.24-9.25M311.98 413.7l7.7-7.71m-7.7 11.59 11.58-11.59m33.39-37.26 2.18-2.18m1.7 2.18 2.18-2.18m88.68-92.56 2.18-2.18m-2.18 6.06 2.18-2.18m3.32-7.2 7.62-7.63m-3.74 7.63 7.62-7.63m-156.71 160.6 15.25-15.25m37.48-37.48 2.18-2.18m84.8-84.8 2.18-2.18m11.08-11.08 6.35-6.35m-156.32 160.2 5.71-5.72m3.01-3 3.53-3.53m41.36-41.36 2.18-2.18m80.92-80.92 2.18-2.18m14.96-14.96 2.47-2.47M318.86 422.34l1.83-1.84m51.78-51.77 2.18-2.18m77.04-77.04 2.18-2.18m-77.52 81.4 2.18-2.18m1.7 2.18 2.18-2.18m1.7 2.18 2.18-2.18m1.7 2.18 2.18-2.18m1.7 2.18 2.18-2.18m1.7 2.18 2.18-2.18m53.76-73.16 2.18-2.18m-2.18 6.06 2.18-2.18m-2.18 6.06 2.18-2.18m-2.18 6.06 2.18-2.18m-2.18 6.06 2.18-2.18m-2.18 6.06 2.18-2.18m-54.24 58.12 2.18-2.18m1.71 2.18 2.17-2.18m46-49.88 2.18-2.18m-2.18 6.06 2.18-2.17m50.12-54.01 3.51-3.51m-3.51 7.4 7.39-7.4M407.4 368.73l2.18-2.18m42.11-42.12 2.18-2.17m53.77-53.77 7.62-7.63M411.28 368.73l1.19-1.19m39.22-39.22 2.18-2.18m57.65-57.65 7.62-7.63M376.7 407.19l1.19-1.2m-1.19 5.08 5.07-5.08m69.92-73.79 2.18-2.18m-2.18 6.06 2.18-2.18m61.53-65.41 7.62-7.63m-3.74 7.63 7.62-7.63M378.03 413.62l7.63-7.63m-3.75 7.63 7.63-7.63m62.15-66.03 2.18-2.18m-2.18 6.06 2.18-2.18m69.29-73.17 7.63-7.63m-3.75 7.63 7.63-7.63M383.24 416.17l10.18-10.18m58.27-58.27 2.18-2.18m74.09-74.09 2.18-2.18m.78-.78 7.63-7.63M383.24 420.05l14.06-14.06m37.26-37.26 2.18-2.18m14.95-14.95 2.18-2.18m74.09-74.09 2.18-2.18m4.66-4.66 7.63-7.63m-157.6 161.48 7.12-7.12m-3.23 7.12 3.23-3.24m1.6-5.48 4.94-4.94m-1.06 4.94 1.06-1.06m39.95-43.83 2.18-2.18m1.7 2.18 2.18-2.18m7.19-11.07 2.18-2.18m-2.18 6.06 2.18-2.18m74.09-77.97 2.18-2.18m-2.18 6.06 2.18-2.18m8.54-12.42 4.53-4.53m-.65 4.53.65-.65M446.2 368.73l2.18-2.18m3.31-3.31 2.18-2.18m74.09-74.09 2.18-2.18m-80.06 83.94 3.79-3.79m74.09-74.09 2.18-2.18m-76.18 80.06 2.18-2.18m1.7 2.18 2.18-2.18m1.71 2.18 2.17-2.18m1.71 2.18 2.17-2.18m60.18-71.82 2.18-2.18m-2.18 6.06 2.18-2.18m-2.18 6.06 2.18-2.17m-2.18 6.06 2.18-2.18m-60.65 64.53 2.18-2.18m1.7 2.18 2.18-2.18m52.41-56.29 2.18-2.18m-2.18 6.06 2.18-2.18m45.76-49.65 1.45-1.45m-1.45 5.34 5.33-5.34M477.25 368.73l2.18-2.18m1.7 2.18 2.18-2.18m1.7 2.18 2.18-2.18m40.77-48.53 2.18-2.18m-2.18 6.06 2.18-2.18m-2.18 6.06 2.18-2.18m47.35-55.11 7.62-7.63m-3.74 7.63 7.63-7.63m-3.75 7.63 7.63-7.63m-144.92 148.8 3.67-3.67m37.26-37.26 2.18-2.18m36.89-36.89 2.18-2.18m58.99-58.99 7.63-7.63m-148.8 152.68 7.55-7.55m37.26-37.26.32-.32m34.87-34.87 2.18-2.18m62.87-62.87 7.63-7.63M451.76 413.62l7.63-7.63m68.57-68.57 2.18-2.18m66.75-66.75 7.63-7.63M454.49 414.77l8.78-8.78m64.69-64.69 2.18-2.18m70.63-70.63 7.63-7.63M454.49 418.65l12.66-12.66m60.81-60.81 2.18-2.18m74.51-74.51 6.12-6.12M454.69 422.34l8.52-8.53m.19-.19 6.35-6.34m58.21-58.22 2.18-2.18m78.39-78.39 2.24-2.23m-152.2 156.08 4.64-4.65m4.07-4.07 2.47-2.46m58.21-58.22 2.18-2.18m78.45-78.44 2.18-2.18m-148.32 152.2.76-.77m52.84-52.84 2.18-2.18m9.73-9.73 2.18-2.18m78.45-78.44 2.18-2.18m-90.83 94.71 2.17-2.18m1.71 2.18 2.17-2.18m1.97-5.85 2.18-2.17m-2.18 6.06 2.18-2.18m78.45-82.33 2.18-2.18m-2.18 6.06 2.18-2.18m-83.07 86.95 2.44-2.44m78.45-78.45 2.18-2.18m-79.19 83.07 2.18-2.18m1.7 2.18 2.18-2.18m70.95-74.83 2.18-2.18m-2.18 6.06 2.18-2.18m-71.43 75.31 2.18-2.18m67.07-67.07 2.18-2.18m32.68-32.69 3.76-3.75M543.22 368.73l2.18-2.18m1.7 2.18 2.18-2.18m1.7 2.18 2.18-2.18m1.7 2.18 2.18-2.18m51.55-63.19 2.18-2.18m-2.18 6.06 2.18-2.18m-2.18 6.06 2.18-2.18m-2.18 6.06 2.18-2.18m32.69-44.33 7.63-7.63m-3.75 7.63 7.63-7.63m-3.75 7.63 7.63-7.63m-3.75 7.63 7.63-7.63m-143.52 147.4 2.27-2.27m-2.27 6.15 6.15-6.15m33.38-37.26 2.18-2.18m1.7 2.18 2.18-2.18m43.79-47.67 2.18-2.18m-2.18 6.06 2.18-2.18m48.21-52.09 7.63-7.63m-3.75 7.63 7.63-7.63M521.61 413.62l7.63-7.63m37.26-37.26 2.18-2.18m43.58-43.58 2.18-2.18m52.3-52.3 7.63-7.63M525.49 413.62l7.63-7.63m37.26-37.26 1.16-1.16m44.61-44.6 2.17-2.18m52.3-52.3 7.63-7.63m-152.5 156.38L537 405.99m83.03-83.02 2.18-2.18m52.29-52.3 7.63-7.63M525.75 421.12l15.13-15.13m83.03-83.02 2.18-2.18m52.29-52.3 7.13-7.13M528.42 422.34l6.05-6.05m2.67-2.67 3.86-3.87m86.79-86.78 2.18-2.18m52.3-52.3 3.24-3.25M532.3 422.34l2.17-2.17m97.2-97.2 2.18-2.18m-1.29 5.17 2.18-2.18m-41.07 44.95 2.18-2.18m1.7 2.18 2.18-2.18m32.83-36.71 2.18-2.18m-2.18 6.06 2.18-2.18m-33.31 37.19 2.18-2.18m1.7 2.18 2.18-2.18m25.07-28.95 2.18-2.18m-2.18 6.06 2.18-2.18m72.56-76.44 2-2m-2 5.88 5.88-5.88M609.19 368.73l2.18-2.18m1.7 2.18 2.18-2.18m1.7 2.18 2.18-2.18m13.43-21.19 2.18-2.18m-2.18 6.06 2.18-2.18m-2.18 6.06 2.18-2.18m74.69-82.45 7.63-7.63m-3.75 7.63 7.63-7.63m-3.75 7.63 7.63-7.63M620.83 368.73l2.18-2.18m9.55-9.55 2.18-2.18m85.64-85.64 8.32-8.32M624.71 368.73l2.18-2.18m5.67-5.67 2.18-2.18m85.64-85.63 4.36-4.36m.21-.22 7.63-7.63M590.47 406.85l.86-.86m37.26-37.26 2.18-2.18m1.79-1.79 2.18-2.17m85.64-85.64 4.36-4.36m4.09-4.1 7.63-7.63M590.47 410.73l4.74-4.74m37.26-37.26 2.27-2.26m1-1.01 2.18-2.18m82.46-82.45 4.36-4.36m7.97-7.98 7.63-7.63M591.46 413.62l7.63-7.63m-3.74 7.63 7.62-7.63m36.65-40.53 2.18-2.18m1.7 2.18 2.18-2.18m74.7-78.57 4.36-4.36m-4.36 8.24 4.36-4.36m11.85-15.74 5.58-5.57m-1.69 5.57 1.69-1.69M597.01 415.84l9.84-9.85m-9.84 13.73 13.72-13.73m36.65-40.53 2.18-2.18m1.71 2.18 2.17-2.18m66.94-70.81 4.36-4.36m-4.36 8.24 4.36-4.36M598.27 422.34l7.45-7.46m1.27-1.26 5.27-5.28m42.89-42.88 1.38-1.38m63.85-63.85 4.36-4.36M602.15 422.34l3.57-3.58m5.15-5.14 1.39-1.39m108.12-108.12 4.36-4.36m-4.36 8.24 4.36-4.36m-4.36 8.24 4.36-4.36m39.22-43.1 3.55-3.55m-3.55 7.43 7.43-7.43m-51.01 54.89 4.36-4.36m-4.36 8.24 4.36-4.36m42.9-46.78 7.63-7.63m-3.75 7.63 7.63-7.63m-100.72 104.6 2.18-2.18m1.7 2.18 2.18-2.18m1.7 2.18 2.18-2.18m1.7 2.18 2.18-2.18m28.13-39.77 4.36-4.35m-4.36 8.23 4.36-4.35m-4.36 8.23 4.36-4.35m-4.36 8.24 4.36-4.36m50.66-62.31 7.63-7.63m-3.75 7.63 7.63-7.63m-3.75 7.63 7.63-7.63m-3.75 7.63 7.63-7.63m-100.72 104.6 2.18-2.18m1.7 2.18 2.18-2.18m1.7 2.18 2.18-2.18m16.49-24.24 4.36-4.36m-4.36 8.24 4.36-4.36m-4.36 8.24 4.36-4.36m65.37-73.14 7.63-7.62m-7.63 11.5 7.63-7.62m-7.63 11.51 7.63-7.63M661.73 409.33l3.33-3.34m-3.33 7.22 7.21-7.22m36.65-40.53 2.18-2.18m1.71 2.18 2.17-2.18m8.73-12.6 4.36-4.36m-4.36 8.24 4.36-4.36m65.37-69.25 7.63-7.63m-7.63 11.51 7.63-7.63M665.2 413.62l7.62-7.63m-3.74 7.63 7.62-7.63m36.66-40.53 2.18-2.18m1.7 2.18 2.18-2.18m.96-4.84 4.36-4.36m-4.36 8.24 4.36-4.36m65.37-69.25 7.63-7.63m-7.63 11.51 7.63-7.63m-127.3 131.17 10.15-10.14m-10.15 14.02 14.03-14.02m35.91-39.79 4.36-4.36m-4.36 8.24 4.36-4.36m65.37-69.25 7.63-7.63m-7.63 11.51 7.63-7.63M672 422.34l7.16-7.16m1.56-1.56 7.63-7.63m32.55-32.56 3.84-3.83m65.37-65.37 7.63-7.63M675.88 422.34l3.28-3.28m5.44-5.44 7.63-7.63m97.88-97.88 7.63-7.63M688.48 413.62l7.63-7.63m-3.75 7.63 7.63-7.63m-3.75 7.63 7.63-7.63m-3.75 7.63 7.63-7.63m-3.75 7.63 7.63-7.63m78.48-94 7.63-7.63m-7.63 11.51 7.63-7.62m-7.63 11.5 7.63-7.62m-7.63 11.5 7.63-7.62m-7.63 11.5 7.63-7.62m-89.86 93.73 7.63-7.63m4.87-4.86 1.54-1.55m68.19-68.19 7.63-7.62m-85.97 89.85 7.62-7.63m.99-.98 4.36-4.36m65.37-65.37 7.63-7.63m-82.09 85.97 9.09-9.09m65.37-65.37 7.63-7.63m-78.21 82.09 7.62-7.63m-3.74 7.63 7.62-7.63m-3.74 7.63 7.62-7.63m-3.74 7.63 7.63-7.63m-3.75 7.63 7.63-7.63m-3.75 7.63 7.63-7.63m-3.75 7.63 7.63-7.63m-3.75 7.63 7.63-7.63m-3.75 7.63 7.63-7.63m-3.75 7.63 7.63-7.63m-3.75 7.63 7.63-7.63m-3.75 7.63 7.63-7.63m-3.75 7.63 7.63-7.63m-3.74 7.63 7.62-7.63m-3.74 7.63 7.62-7.63m-3.74 7.63 7.62-7.63m-3.74 7.63 7.62-7.63m.87-62.95 7.63-7.63m-7.63 11.51 7.63-7.63m-7.63 11.51 7.63-7.63m-7.63 11.51 7.63-7.63m-7.63 11.51 7.63-7.63m-7.63 11.51 7.63-7.63m-7.63 11.51 7.63-7.63m-7.63 11.51 7.63-7.63m-7.63 11.51 7.63-7.63m-7.63 11.51 7.63-7.62m-7.63 11.5 7.63-7.62m-7.63 11.5 7.63-7.62m-7.63 11.5 7.63-7.62m-7.63 11.51 7.63-7.63m-7.63 11.51 7.63-7.63m-7.63 11.51 7.63-7.63m-7.63 11.51 7.63-7.63m-12.24 16.12 12.24-12.24m-8.36 12.24 8.36-8.36m-4.48 8.36 4.48-4.48m-.6 4.48.6-.6" fill="none" stroke="gray" stroke-width=".5"/><path d="M612.26 411.88h49.47M612.26 418.52h49.47" fill="none" stroke="#0ff" stroke-width=".5"/><path d="M643.45 268.49h42.06M707.3 268.49h13.08M643.45 260.86h42.06" fill="none" stroke="#000" stroke-width=".5"/><path d="M612.26 413.62h49.47M612.26 409.81h49.47M2.26 177.66v.08m0 .07v.14m0 .07v.14m0 .07v.14m0 .07v.13m0 .07v.14m0 .07v.14m0 .07v.14m0 .07v.13m0 .07v.14m0 .07v.14m0 .07v.14m0 .07v.13m0 .07v.14m0 .07v.14m0 .07v.14m0 .07v.13m0 .07v.14m0 .07v.14m0 .07v.14m0 .07v.13m0 .07v.14m0 .07v.14m0 .07v.14m0 .07v.14m0 .06v.14m0 .07v.14m0 .07v.14m0 .07v.14m0 .06v.14m0 .07v.14m0 .07v.14m0 .07v.14m0 .06v.14m0 .07v.14m0 .07v.14m0 .07v.14m0 .07v.13m0 .07v.14m0 .07v.14m0 .07v.14m0 .07v.13m0 .07v.14m0 .07v.14m0 .07v.14m0 .07v.13m0 .07v.14m0 .07v.14m0 .07v.14m0 .07v.13m0 .07v.14m0 .07v.14m0 .07v.14m0 .07v.13m0 .07v.14m0 .07v.14m0 .07v.14m0 .07v.13m0 .07v.14m0 .07v.14m0 .07v.14m0 .07v.13m0 .07v.14m0 .07v.14m0 .07v.14m0 .07v.14m0 .06v.14m0 .07v.14m0 .07v.14m0 .07v.14m0 .06v.14m0 .07v.14m0 .07v.14m0 .07v.14m0 .06v.14m0 .07v.14m0 .07v.14m0 .07v.14m0 .07v.13m0 .07v.14m0 .07v.14m0 .07v.14m0 .07v.13m0 .07v.14m0 .07v.14m0 .07v.14m0 .07v.13m0 .07v.14m0 .07v.14m0 .07v.14m0 .07v.13m0 .07v.14m0 .07v.14m0 .07v.14m0 .07v.13m0 .07v.14m0 .07v.14m0 .07v.14m0 .07v.13m0 .07v.14m0 .07v.14m0 .07v.14m0 .07v.13m0 .07v.14m0 .07v.14m0 .07v.14m0 .07v.14m0 .06v.14m0 .07v.14m0 .07v.14m0 .07v.14m0 .06v.14m0 .07v.14m0 .07v.14m0 .07v.14m0 .06v.14m0 .07v.14m0 .07v.14m0 .07v.14m0 .07v.13m0 .07v.14m0 .07v.14m0 .07v.14m0 .07v.13m0 .07v.14m0 .07v.14m0 .07v.14m0 .07v.13m0 .07v.14m0 .07v.14m0 .07v.14m0 .07v.13m0 .07v.14m0 .07v.14m0 .07v.14m0 .07v.13m0 .07v.14m0 .07v.14m0 .07v.14m0 .07v.13m0 .07v.14m0 .07v.14m0 .07v.14m0 .07v.14m0 .06v.14m0 .07v.14m0 .07v.14m0 .07v.14m0 .06v.14m0 .07v.14m0 .07v.14m0 .07v.14m0 .06v.14m0 .07v.14m0 .07v.14m0 .07v.14m0 .06v.14m0 .07v.14m0 .07v.14m0 .07v.14m0 .07v.13m0 .07v.14m0 .07v.14m0 .07v.14m0 .07v.13m0 .07v.14m0 .07v.14m0 .07v.14m0 .07v.13m0 .07v.14m0 .07v.14m0 .07v.14m0 .07v.13m0 .07v.14m0 .07v.14m0 .07v.14m0 .07v.13m0 .07v.14m0 .07v.14m0 .07v.14m0 .07v.13m0 .07v.14m0 .07v.14m0 .07v.14m0 .07v.14m0 .06v.14m0 .07v.14m0 .07v.14m0 .07v.14m0 .06v.14m0 .07v.14m0 .07v.14m0 .07v.14m0 .06v.14m0 .07v.14m0 .07v.14m0 .07v.14m0 .06v.14m0 .07v.14m0 .07v.14m0 .07v.14m0 .07v.13m0 .07v.14m0 .07v.14m0 .07v.14m0 .07v.13m0 .07v.14m0 .07v.14m0 .07v.14m0 .07v.13m0 .07v.14m0 .07v.14m0 .07v.14m0 .07v.13m0 .07v.14m0 .07v.14m0 .07v.14m0 .07v.13m0 .07v.14m0 .07v.14m0 .07v.14m0 .07v.13m0 .07v.14m0 .07v.14m0 .07v.14m0 .07v.14m0 .06v.14m0 .07v.14m0 .07v.14m0 .07v.14m0 .06v.14m0 .07v.14m0 .07v.14m0 .07v.14m0 .06v.14m0 .07v.14m0 .07v.14m0 .07v.14m0 .07v.13m0 .07v.14m0 .07v.14m0 .07v.14m0 .07v.13m0 .07v.14m0 .07v.14m0 .07v.14m0 .07v.13m0 .07v.14m0 .07v.14m0 .07v.14m0 .07v.13m0 .07v.14m0 .07v.14m0 .07v.14m0 .07v.13m0 .07v.14m0 .07v.14m0 .07v.14m0 .07v.13m0 .07v.14m0 .07v.14m0 .07v.14m0 .07v.13m0 .07v.14m0 .07v.14m0 .07v.14m0 .07v.14m0 .06v.14m0 .07v.14m0 .07v.14m0 .07v.14m0 .06v.14m0 .07v.14m0 .07v.14m0 .07v.14m0 .06v.14m0 .07v.14m0 .07v.14m0 .07v.14m0 .07v.13m0 .07v.14m0 .07v.14m0 .07v.14m0 .07v.13m0 .07v.14m0 .07v.14m0 .07v.14m0 .07v.13m0 .07v.14m0 .07v.14m0 .07v.14m0 .07v.13m0 .07v.14m0 .07v.14m0 .07v.14m0 .07v.13m0 .07v.14m0 .07v.14m0 .07v.14m0 .07v.13m0 .07v.14m0 .07v.14m0 .07v.14m0 .07v.13m0 .07v.14m0 .07v.14m0 .07v.14m0 .07v.14m0 .06v.14m0 .07v.14m0 .07v.14m0 .07v.14m0 .06v.14m0 .07v.14m0 .07v.14m0 .07v.14m0 .06v.14m0 .07v.14m0 .07v.14m0 .07v.14m0 .07v.13m0 .07v.14m0 .07v.14m0 .07v.14m0 .07v.13m0 .07v.14m0 .07v.14m0 .07v.14m0 .07v.13m0 .07v.14m0 .07v.14m0 .07v.14m0 .07v.13m0 .07v.14m0 .07v.14m0 .07v.14m0 .07v.13m0 .07v.14m0 .07v.14m0 .07v.14m0 .07v.13m0 .07v.14m0 .07v.14m0 .07v.14m0 .07v.14m0 .06v.14m0 .07v.14m0 .07v.14m0 .07v.14m0 .06v.14m0 .07v.14m0 .07v.14m0 .07v.14m0 .06v.14m0 .07v.14m0 .07v.14m0 .07v.14m0 .06v.14m0 .07v.14m0 .07v.14m0 .07v.14m0 .07v.13m0 .07v.14m0 .07v.14m0 .07v.14m0 .07v.13m0 .07v.14m0 .07v.14m0 .07v.14m0 .07v.13m0 .07v.14m0 .07v.14m0 .07v.14m0 .07v.13m0 .07v.14m0 .07v.14m0 .07v.14m0 .07v.13m0 .07v.14m0 .07v.14m0 .07v.14m0 .07v.13m0 .07v.14m0 .07v.14m0 .07v.14m0 .07v.14m0 .06v.14m0 .07v.14m0 .07v.14m0 .07v.14m0 .06v.14m0 .07v.14m0 .07v.14m0 .07v.14m0 .06v.14m0 .07v.14m0 .07v.14m0 .07v.14m0 .06v.14m0 .07v.14m0 .07v.14m0 .07v.14m0 .07v.13m0 .07v.14m0 .07v.14m0 .07v.14m0 .07v.13m0 .07v.14m0 .07v.14m0 .07v.14m0 .07v.13m0 .07v.14m0 .07v.14m0 .07v.14m0 .07v.13m0 .07v.14m0 .07v.14m0 .07v.14m0 .07v.13m0 .07v.14m0 .07v.14m0 .07v.14m0 .07v.13m0 .07v.14m0 .07v.14m0 .07v.14m0 .07v.14m0 .06v.14m0 .07v.14m0 .07v.14m0 .07v.14m0 .06v.14m0 .07v.14m0 .07v.14m0 .07v.14m0 .06v.14m0 .07v.14m0 .07v.14m0 .07v.14m0 .07v.13m0 .07v.14m0 .07v.14m0 .07v.14m0 .07v.13m0 .07v.14m0 .07v.14m0 .07v.14m0 .07v.13m0 .07v.14m0 .07v.14m0 .07v.14m0 .07v.13m0 .07v.14m0 .07v.14m0 .07v.14m0 .07v.13m0 .07v.14m0 .07v.14m0 .07v.14m0 .07v.13m0 .07v.14m0 .07v.14m0 .07v.14m0 .07v.13m0 .07v.14m0 .07v.14m0 .07v.14m0 .07v.14m0 .06v.14m0 .07v.14m0 .07v.14m0 .07v.14m0 .06v.14m0 .07v.14m0 .07v.14m0 .07v.14m0 .06v.14m0 .07v.14m0 .07v.14m0 .07v.14m0 .07v.13m0 .07v.14m0 .07v.14m0 .07v.14m0 .07v.13m0 .07v.14m0 .07v.14m0 .07v.14m0 .07v.13m0 .07v.14m0 .07v.14m0 .07v.14m0 .07v.13m0 .07v.14m0 .07v.14m0 .07v.14m0 .07v.13m0 .07v.14m0 .07v.14m0 .07v.14m0 .07v.13m0 .07v.14m0 .07v.14m0 .07v.14m0 .07v.13m0 .07v.14m0 .07v.14m0 .07v.14m0 .07v.14m0 .06v.14m0 .07v.14m0 .07v.14m0 .07v.14m0 .06v.14m0 .07v.14m0 .07v.14m0 .07v.14m0 .06v.14m0 .07v.14m0 .07v.14m0 .07v.14m0 .07v.13m0 .07v.14m0 .07v.14m0 .07v.14m0 .07v.13m0 .07v.14m0 .07v.14m0 .07v.14m0 .07v.13m0 .07v.14m0 .07v.14m0 .07v.14m0 .07v.13m0 .07v.14m0 .07v.14m0 .07v.14m0 .07v.13m0 .07v.14m0 .07v.14m0 .07v.14m0 .07v.13m0 .07v.14m0 .07v.14m0 .07v.14m0 .07v.13m0 .07v.14m0 .07v.14m0 .07v.14m0 .07v.14m0 .06v.14m0 .07v.14m0 .07v.14m0 .07v.14m0 .06v.14m0 .07v.14m0 .07v.14m0 .07v.14m0 .06v.14m0 .07v.14m0 .07v.14m0 .07v.14m0 .07v.13m0 .07v.14m0 .07v.14m0 .07v.14m0 .07v.13m0 .07v.14m0 .07v.14m0 .07v.14m0 .07v.13m0 .07v.14m0 .07v.14m0 .07v.14m0 .07v.13m0 .07v.14m0 .07v.14m0 .07v.14m0 .07v.13m0 .07v.14m0 .07v.14m0 .07v.14m0 .07v.13m0 .07v.14m0 .07v.14m0 .07v.14m0 .07v.14m0 .06v.14m0 .07v.14m0 .07v.14m0 .07v.14m0 .06v.14m0 .07v.14m0 .07v.14m0 .07v.14m0 .06v.14m0 .07v.14m0 .07v.14m0 .07v.14m0 .06v.14m0 .07v.14m0 .07v.14m0 .07v.14m0 .07v.13m0 .07v.14m0 .07v.14m0 .07v.14m0 .07v.13m0 .07v.14m0 .07v.14m0 .07v.14m0 .07v.13m0 .07v.14m0 .07v.14m0 .07v.14m0 .07v.13m0 .07v.14m0 .07v.14m0 .07v.14m0 .07v.13m0 .07v.14m0 .07v.14m0 .07v.14m0 .07v.13m0 .07v.14m0 .07v.14m0 .07v.14m0 .07v.14m0 .06v.14m0 .07v.14m0 .07v.14m0 .07v.14m0 .06v.14m0 .07v.14m0 .07v.14m0 .07v.14m0 .06v.14m0 .07v.14m0 .07v.14m0 .07v.14m0 .07v.13m0 .07v.14m0 .07v.14m0 .07v.14m0 .07v.13m0 .07v.14m0 .07v.14m0 .07v.14m0 .07v.13m0 .07v.14m0 .07v.14m0 .07v.14m0 .07v.13m0 .07v.14m0 .07v.14m0 .07v.14m0 .07v.13m0 .07v.14m0 .07v.14m0 .07v.14m0 .07v.13m0 .07v.14m0 .07v.14m0 .07v.14m0 .07v.13m0 .07v.14m0 .07v.14m0 .07v.14m0 .07v.14m0 .06v.14m0 .07v.14m0 .07v.14m0 .07v.14m0 .06v.14m0 .07v.14m0 .07v.14m0 .07v.14m0 .06v.14m0 .07v.14m0 .07v.14m0 .07v.14m0 .07v.13m0 .07v.14m0 .07v.14m0 .07v.14m0 .07v.13m0 .07v.14m0 .07v.14m0 .07v.14m0 .07v.13m0 .07v.14m0 .07v.14m0 .07v.14m0 .07v.13m0 .07v.14m0 .07v.14m0 .07v.14m0 .07v.13m0 .07v.14m0 .07v.14m0 .07v.14m0 .07v.13m0 .07v.14m0 .07v.14m0 .07v.14m0 .07v.13m0 .07v.14m0 .07v.14m0 .07v.14m0 .07v.14m0 .06v.14m0 .07v.14m0 .07v.14m0 .07v.14m0 .06v.14m0 .07v.14m0 .07v.14m0 .07v.14m0 .06v.14m0 .07v.14m0 .07v.14m0 .07v.14m0 .07v.13m0 .07v.14m0 .07v.14m0 .07v.14m0 .07v.13m0 .07v.14m0 .07v.14m0 .07v.14m0 .07v.13m0 .07v.14m0 .07v.14m0 .07v.14m0 .07v.13m0 .07v.14m0 .07v.14m0 .07v.14m0 .07v.13m0 .07v.14m0 .07v.14m0 .07v.14m0 .07v.13m0 .07v.14m0 .07v.14m0 .07v.14m0 .07v.13m0 .07v.14m0 .07v.14m0 .07v.14m0 .07v.14m0 .06v.14m0 .07v.14m0 .07v.14m0 .07v.14m0 .06v.14m0 .07v.14m0 .07v.14m0 .07v.14m0 .06v.14m0 .07v.14m0 .07v.14m0 .07v.14m0 .07v.13m0 .07v.14m0 .07v.14m0 .07v.14m0 .07v.13m0 .07v.14m0 .07v.14m0 .07v.14m0 .07v.13m0 .07v.14m0 .07v.14m0 .07v.14m0 .07v.13m0 .07v.14m0 .07v.14m0 .07v.14m0 .07v.13m0 .07v.14m0 .07v.14m0 .07v.14m0 .07v.13m0 .07v.14m0 .07v.14m0 .07v.14m0 .07v.14m0 .06v.14m0 .07v.14m0 .07v.14m0 .07v.14m0 .06v.14m0 .07v.14m0 .07v.14m0 .07v.14m0 .06v.14m0 .07v.14m0 .07v.14m0 .07v.14m0 .06v.14m0 .07v.14m0 .07v.14m0 .07v.14m0 .07v.13m0 .07v.14m0 .07v.14m0 .07v.14m0 .07v.13m0 .07v.14m0 .07v.14m0 .07v.14m0 .07v.13m0 .07v.14m0 .07v.14m0 .07v.14m0 .07v.13m0 .07v.14m0 .07v.14m0 .07v.14m0 .07v.13m0 .07v.14m0 .07v.14m0 .07v.14m0 .07v.13m0 .07v.14m0 .07v.14m0 .07v.14m0 .07v.14m0 .06v.14m0 .07v.14m0 .07v.14m0 .07v.14m0 .06v.14m0 .07v.14m0 .07v.14m0 .07v.14m0 .06v.14m0 .07v.14m0 .07v.14m0 .07v.14m0 .07v.13m0 .07v.14m0 .07v.14m0 .07v.14m0 .07v.13m0 .07v.14m0 .07v.14m0 .07v.14m0 .07v.13m0 .07v.14m0 .07v.14m0 .07v.14m0 .07v.13m0 .07v.14m0 .07v.14m0 .07v.14m0 .07v.13m0 .07v.14m0 .07v.14m0 .07v.14m0 .07v.13m0 .07v.14m0 .07v.14m0 .07v.14m0 .07v.13m0 .07v.14m0 .07v.14m0 .07v.14m0 .07v.14m0 .06v.14m0 .07v.14m0 .07v.14m0 .07v.14m0 .06v.14m0 .07v.14m0 .07v.14m0 .07v.14m0 .06v.14m0 .07v.14m0 .07v.14m0 .07v.14m0 .07v.13m0 .07v.14m0 .07v.14m0 .07v.14m0 .07v.13m0 .07v.14m0 .07v.14m0 .07v.14m0 .07v.13m0 .07v.14m0 .07v.14m0 .07v.14m0 .07v.13m0 .07v.14m0 .07v.14m0 .07v.14m0 .07v.08" fill="none" stroke="#0ff" stroke-width=".5"/><path d="M608.59 268.49v54.48M610.77 257.59v63.2M530.14 268.49v98.06M527.96 268.49v98.06M453.87 268.49v98.06M451.69 268.49v98.06M357.99 268.49v98.06M355.81 257.59v108.96M253.39 257.59v108.96M251.21 268.49v98.06M164.05 268.49v98.06M161.87 268.49v65.37M49.64 260.86v100.46M57.27 268.49v92.83M57.27 394.01v11.98M122.64 268.49v104.82M127 268.49v65.37" fill="none" stroke="#000" stroke-width=".5"/><path d="M80.15 268.49v95.88" fill="none" stroke="#0ff" stroke-width=".5"/><path d="M99.76 257.59v10.9" fill="none" stroke="#000" stroke-width=".5"/><path d="M98.67 300.09v63.19M81.24 300.09v63.19M111.2 325.15v-41.41M68.71 356.71v-72.97" fill="none" stroke="#0ff" stroke-width=".5"/><path d="M49.64 413.62h117.64M57.27 405.99h65.37" fill="none" stroke="#000" stroke-width=".5"/><path d="M57.27 312.07h22.88M57.27 318.61h22.88M57.27 325.15h22.88M57.27 331.68h22.88M57.27 338.22h22.88M57.27 344.76h22.88M57.27 351.3h22.88M57.27 357.83h22.88M57.27 364.37h65.37M68.71 356.71l10.35-5.41" fill="none" stroke="#0ff" stroke-width=".5"/><path d="M47.46 361.32h9.81M47.46 394.01h9.81" fill="none" stroke="#000" stroke-width=".5"/><path d="M53.41 361.32v32.69" fill="none" stroke="#0ff" stroke-width=".5"/><path d="M49.64 394.01v19.61" fill="none" stroke="#000" stroke-width=".5"/><path d="M47.46 361.32v32.69M58.36 351.3l10.35 5.41M327.23 411.88h49.47M327.23 418.52h49.47" fill="none" stroke="#0ff" stroke-width=".5"/><path d="M338.38 368.73h74.09M357.99 366.55h54.48" fill="none" stroke="#000" stroke-width=".5"/><path d="M327.23 413.62h49.47M327.23 409.81h49.47" fill="none" stroke="#0ff" stroke-width=".5"/><path d="M122.64 403.81H127M173.82 403.81H176M173.82 373.31H176M122.64 373.31H127M176 373.31v-4.58M173.82 373.31v-4.58M176 405.99h7.44M176 368.73h35.99M173.82 405.99v-2.18M176 405.99v-2.18M133.79 295.28l2.1 7.26m0 0 2.05-7.27m0 0 2.1 7.25m0 0 2.05-7.26m9.35 1.53-1.04-1.04m0 0-1.04-.51m0 0h-1.56m0 0-1.04.52m0 0-1.03 1.04m0 0-.52 1.56m0 0 .01 1.04m0 0 .52 1.55m0 0 1.04 1.04m0 0 1.04.51m0 0h1.56m0 0 1.03-.52m0 0 1.04-1.04M159.69 366.55v2.18M161.87 336.04v30.51M127 336.04v30.51M146.61 366.55v2.18M127 333.86h3.06M127 336.04h3.06M295.84 322.31l-.52-1.03m0 0-1.56-.52m0 0h-1.55m0 0-1.56.53m0 0-.51 1.04m0 0 .52 1.03m0 0 1.04.52m0 0 2.59.51m0 0 1.04.52m0 0 .52 1.03m0 0v.52m0 0-.51 1.04m0 0-1.56.52m0 0-1.55.01m0 0-1.56-.52m0 0-.52-1.03m10.35-9.37.02 8.82m0 0 .53 1.56m0 0 1.04.51m0 0h1.03m-4.17-7.25 3.63-.01m3.64-.01.01 5.19m0 0 .52 1.55m0 0 1.04.52m0 0 1.56-.01m0 0 1.04-.52m0 0 1.55-1.56m-.02-5.19.02 7.27m10.35-10.93.03 10.9m-.02-5.71-1.04-1.03m0 0-1.03-.52m0 0-1.56.01m0 0-1.04.52m0 0-1.03 1.04m0 0-.52 1.55m0 0 .01 1.04m0 0 .52 1.56m0 0 1.04 1.03m0 0 1.04.52m0 0 1.55-.01m0 0 1.04-.52m0 0 1.04-1.04m3.6-8.83.52.52m0 0 .52-.52m0 0-.52-.52m0 0-.52.52m.53 3.11.02 7.27m6.21-7.28-1.04.52m0 0-1.03 1.04m0 0-.52 1.56m0 0v1.04m0 0 .53 1.55m0 0 1.04 1.04m0 0 1.04.51m0 0h1.55m0 0 1.04-.52m0 0 1.03-1.04m0 0 .52-1.56m0 0v-1.04m0 0-.53-1.55m0 0-1.04-1.04m0 0-1.04-.52m0 0-1.55.01M185.27 322.31l-.52-1.03m0 0-1.56-.52m0 0h-1.56m0 0-1.55.53m0 0-.52 1.04m0 0 .52 1.03m0 0 1.04.52m0 0 2.6.51m0 0 1.04.52m0 0 .52 1.03m0 0v.52m0 0-.52 1.04m0 0-1.55.52m0 0-1.56.01m0 0-1.56-.52m0 0-.52-1.03m10.35-9.37.03 8.82m0 0 .52 1.56m0 0 1.04.51m0 0h1.04m-4.17-7.25 3.63-.01m3.63-.01.01 5.19m0 0 .53 1.55m0 0 1.04.52m0 0 1.55-.01m0 0 1.04-.52m0 0 1.55-1.56m-.01-5.19.02 7.27m10.34-10.93.03 10.9m-.01-5.71-1.04-1.03m0 0-1.04-.52m0 0-1.56.01m0 0-1.03.52m0 0-1.04 1.04m0 0-.51 1.55m0 0v1.04m0 0 .52 1.56m0 0 1.04 1.03m0 0 1.04.52m0 0 1.56-.01m0 0 1.03-.52m0 0 1.04-1.04m3.61-8.83.52.52m0 0 .52-.52m0 0-.52-.52m0 0-.52.52m.53 3.11.01 7.27m6.21-7.28-1.04.52m0 0-1.03 1.04m0 0-.51 1.56m0 0v1.04m0 0 .52 1.55m0 0 1.04 1.04m0 0 1.04.51m0 0h1.56m0 0 1.03-.52m0 0 1.04-1.04m0 0 .51-1.56m0 0v-1.04m0 0-.52-1.55m0 0-1.04-1.04m0 0-1.04-.52m0 0-1.56.01" fill="none" stroke="#000" stroke-width=".5"/><path d="M255.97 411.88h49.47M184.72 411.88h49.46M184.72 418.52h49.46M255.97 418.52h49.47" fill="none" stroke="#0ff" stroke-width=".5"/><path d="M338.38 366.55h17.43M316.58 366.55v2.18M338.38 366.55v2.18M253.39 366.55h63.19M233.78 368.73h82.8M233.78 366.55h17.43M211.99 366.55v2.18M233.78 366.55v2.18M159.69 366.55h2.18M159.69 368.73h14.13M164.05 366.55h47.94M130.06 333.86v2.18M143.14 333.86v2.18" fill="none" stroke="#000" stroke-width=".5"/><path d="M184.72 413.62h49.46M255.97 413.62h49.47" fill="none" stroke="#0ff" stroke-width=".5"/><path d="M127 403.81v2.18M122.64 403.81v2.18M127 368.73v4.58M127 368.73h19.61M127 366.55h19.61M327.23 405.99v7.63M327.23 405.99v7.63M327.23 405.99v7.63M327.23 405.99v7.63M305.44 413.62h6.54M305.44 405.99h21.79M305.44 405.99v7.63M311.98 422.34h8.71M311.98 413.62v8.72M320.69 413.62v8.72M306.75 405.99h7.44M306.75 405.99h7.44M305.44 405.99h8.75M320.69 413.62h6.54M327.23 405.99v7.63M255.97 405.99v7.63M234.18 413.62h6.54M234.18 405.99v7.63M255.97 405.99v7.63M249.44 413.62h6.53M249.44 413.62v8.72M240.72 413.62v8.72M240.72 422.34h8.72M255.97 405.99v7.63M255.97 405.99v7.63M255.97 405.99v7.63M255.97 405.99v7.63M234.18 405.99v7.63M305.44 405.99v7.63M305.44 405.99v7.63M234.18 405.99v7.63" fill="none" stroke="#000" stroke-width=".5"/><path d="M255.97 409.81h49.47" fill="none" stroke="#0ff" stroke-width=".5"/><path d="M240.1 405.99h1.39M234.18 405.99h21.79M167.28 422.34H176M167.28 413.62v8.72M176 413.62v8.72M176 413.62h8.72M177.77 405.99h6.95M179.08 405.99h5.64M179.08 405.99h5.64M181.2 413.62h3.11M184.72 405.99l-.41 7.63M184.72 405.99v7.63M122.42 405.99h.22M127 405.99h46.82" fill="none" stroke="#000" stroke-width=".5"/><path d="M99.76 312.07h22.88M99.76 318.61h22.88M99.76 325.15h22.88M99.76 331.68h22.88M99.76 338.22h22.88M99.76 344.76h22.88M99.76 351.3h22.88M99.76 357.83h22.88M81.24 363.28h17.43M99.76 335.56l.05-.01m.05-.02.05-.02m.05-.02.06-.02m.05-.02.05-.02m.05-.02.05-.02m.05-.02.06-.02m.05-.02.05-.02m.05-.02.05-.02m.05-.02.06-.02m.05-.02.05-.02m.05-.02.05-.02m.05-.02.06-.02m.05-.02.05-.02m.05-.02.05-.02m.05-.02.06-.02m.05-.02.05-.02m.05-.02.05-.02m.05-.02.06-.02m.05-.02.05-.02m.05-.02.05-.02m.05-.02.06-.02m.05-.02.05-.02m.05-.02.05-.02m.05-.02.06-.02m.05-.02.05-.02m.05-.02.05-.02m.05-.02.06-.02m.05-.02.05-.02m.05-.02.05-.02m.05-.02.06-.01m.05-.02.05-.02m.05-.02.05-.02m.05-.02.06-.02m.05-.02.05-.02m.05-.02.05-.02m.05-.02.06-.02m.05-.02.05-.02m.05-.02.05-.02m.05-.02.06-.02m.05-.02.05-.02m.05-.02.05-.02m.05-.02.06-.02m.05-.02.05-.02m.05-.02.05-.02m.05-.02.06-.02m.05-.02.05-.02m.05-.02.05-.02m.05-.02.06-.02m.05-.02.05-.02m.05-.02.05-.02m.05-.02.06-.02m.05-.02.05-.02m.05-.02.05-.02m.05-.02.06-.02m.05-.02.05-.02m.05-.02.05-.02m.05-.02.06-.02m.05-.02.05-.02m.05-.02.05-.02m.05-.02.06-.02m.05-.02.05-.02m.05-.02.05-.02m.05-.02.06-.02m.05-.01.05-.02m.05-.02.05-.02m.05-.02.06-.02m.05-.02.05-.02m.05-.02.05-.02m.05-.02.06-.02m.05-.02.05-.02m.05-.02.05-.02m.05-.02.06-.02m.05-.02.05-.02m.05-.02.05-.02m.05-.02.06-.02m.05-.02.05-.02m.05-.02.05-.02m.05-.02.06-.02m.05-.02.05-.02m.05-.02.05-.02m.05-.02.06-.02m.05-.02.05-.02m.05-.02.05-.02m.05-.02.06-.02m.05-.02.05-.02m.05-.02.05-.02m.05-.02.06-.02m.05-.02.05-.02m.05-.02.05-.02m.05-.02.06-.02m.05-.02.05-.02m.05-.02.05-.02m.05-.02.06-.02m.05-.02.05-.02m.05-.02.05-.02m.05-.02.06-.02m.05-.02.05-.02m.05-.01.05-.02m.05-.02.06-.02m.05-.02.05-.02m.05-.02.05-.02m.05-.02.06-.02m.05-.02.05-.02m.05-.02.05-.02m.05-.02.06-.02m.05-.02.05-.02m.05-.02.05-.02m.05-.02.06-.02m.05-.02.05-.02m.05-.02.05-.02m.05-.02.06-.02m.05-.02.05-.02m.05-.02.05-.02m.05-.02.06-.02m.05-.02.05-.02m.05-.02.05-.02m.05-.02.06-.02m.05-.02.05-.02m.05-.02.05-.02m.05-.02.06-.02m.05-.02.05-.02m.05-.02.05-.02m.05-.02.06-.02m.05-.02.05-.02m.05-.02.05-.02m.05-.02.06-.02m.05-.02.05-.02m.05-.02.05-.02m.05-.02.06-.02m.05-.02.05-.02m.05-.02.05-.01m.05-.02.06-.02m.05-.02.05-.02m.05-.02.05-.02m.05-.02.06-.02m.05-.02.05-.02m.05-.02.05-.02m.05-.02.06-.02m.05-.02.05-.02m.05-.02.05-.02m.05-.02.06-.02m.05-.02.05-.02m.05-.02.05-.02m.05-.02.06-.02m.05-.02.05-.02m.05-.02.05-.02m.05-.02.06-.02m.05-.02.05-.02m.05-.02.05-.02m.05-.02.06-.02m.05-.02.05-.02m.05-.02.05-.02m.05-.02.06-.02m.05-.02.05-.02m.05-.02.05-.02m.05-.02.06-.02m.05-.02.05-.02m.05-.02.05-.02m.05-.02.06-.02m.05-.02.05-.02m.05-.02.05-.02m.05-.02.06-.02m.05-.02.05-.02m.05-.02.05-.02m.05-.01.06-.02m.05-.02.05-.02m.05-.02.05-.02m.05-.02.06-.02m.05-.02.05-.02m.05-.02.05-.02m.05-.02.06-.02m.05-.02.05-.02m.05-.02.05-.02m.05-.02.06-.02m.05-.02.05-.02m.05-.02.05-.02m.05-.02.06-.02m.05-.02.05-.02m.05-.02.05-.02m.05-.02.06-.02m.05-.02.05-.02m.05-.02.05-.02m.05-.02.06-.02m.05-.02.05-.02m.05-.02.05-.02m.05-.02.06-.02m.05-.02.05-.02m.05-.02.05-.02m.05-.02.06-.02m.05-.02.05-.02m.05-.02.05-.02m.05-.02.06-.02m.05-.02.05-.02m.05-.02.05-.02m.05-.02.06-.02m.05-.02.05-.02m.05-.02.05-.02m.05-.02.06-.01m.05-.02.05-.02m.05-.02.05-.02m.05-.02.06-.02m.05-.02.05-.02m.05-.02.05-.02m.05-.02.06-.02m.05-.02.05-.02m.05-.02.05-.02m.05-.02.06-.02m.05-.02.05-.02m.05-.02.05-.02m.05-.02.06-.02m.05-.02.05-.02m.05-.02.05-.02m.05-.02.06-.02m.05-.02.05-.02m.05-.02.05-.02m.05-.02.06-.02m.05-.02.05-.02m.05-.02.05-.02m.05-.02.06-.02m.05-.02.05-.02m.05-.02.05-.02m.05-.02.05-.02M99.76 337.22l.05-.01m.05-.02.05-.02m.05-.02.06-.02m.05-.02.05-.02m.05-.02.05-.02m.05-.02.06-.02m.05-.02.05-.02m.05-.02.05-.02m.05-.02.06-.02m.05-.02.05-.02m.05-.02.05-.02m.05-.02.06-.02m.05-.02.05-.02m.05-.02.05-.02m.05-.02.06-.02m.05-.02.05-.02m.05-.02.05-.02m.05-.02.06-.02m.05-.02.05-.02m.05-.02.05-.02m.05-.02.06-.02m.05-.02.05-.02m.05-.02.05-.02m.05-.02.06-.02m.05-.02.05-.02m.05-.02.05-.02m.05-.02.06-.02m.05-.02.05-.02m.05-.02.05-.02m.05-.02.06-.02m.05-.02.05-.02m.05-.02.05-.02m.05-.02.06-.02m.05-.01.05-.02m.05-.02.05-.02m.05-.02.06-.02m.05-.02.05-.02m.05-.02.05-.02m.05-.02.06-.02m.05-.02.05-.02m.05-.02.05-.02m.05-.02.06-.02m.05-.02.05-.02m.05-.02.05-.02m.05-.02.06-.02m.05-.02.05-.02m.05-.02.05-.02m.05-.02.06-.02m.05-.02.05-.02m.05-.02.05-.02m.05-.02.06-.02m.05-.02.05-.02m.05-.02.05-.02m.05-.02.06-.02m.05-.02.05-.02m.05-.02.05-.02m.05-.02.06-.02m.05-.02.05-.02m.05-.02.05-.02m.05-.02.06-.02m.05-.02.05-.02m.05-.02.05-.02m.05-.02.06-.02m.05-.02.05-.02m.05-.02.05-.02m.05-.02.06-.02m.05-.02.05-.01m.05-.02.05-.02m.05-.02.06-.02m.05-.02.05-.02m.05-.02.05-.02m.05-.02.06-.02m.05-.02.05-.02m.05-.02.05-.02m.05-.02.06-.02m.05-.02.05-.02m.05-.02.05-.02m.05-.02.06-.02m.05-.02.05-.02m.05-.02.05-.02m.05-.02.06-.02m.05-.02.05-.02m.05-.02.05-.02m.05-.02.06-.02m.05-.02.05-.02m.05-.02.05-.02m.05-.02.06-.02m.05-.02.05-.02m.05-.02.05-.02m.05-.02.06-.02m.05-.02.05-.02m.05-.02.05-.02m.05-.02.06-.02m.05-.02.05-.02m.05-.02.05-.02m.05-.02.06-.02m.05-.02.05-.02m.05-.02.05-.02m.05-.02.06-.02m.05-.02.05-.02m.05-.02.05-.01m.05-.02.06-.02m.05-.02.05-.02m.05-.02.05-.02m.05-.02.06-.02m.05-.02.05-.02m.05-.02.05-.02m.05-.02.06-.02m.05-.02.05-.02m.05-.02.05-.02m.05-.02.06-.02m.05-.02.05-.02m.05-.02.05-.02m.05-.02.06-.02m.05-.02.05-.02m.05-.02.05-.02m.05-.02.06-.02m.05-.02.05-.02m.05-.02.05-.02m.05-.02.06-.02m.05-.02.05-.02m.05-.02.05-.02m.05-.02.06-.02m.05-.02.05-.02m.05-.02.05-.02m.05-.02.06-.02m.05-.02.05-.02m.05-.02.05-.02m.05-.02.06-.02m.05-.02.05-.02m.05-.02.05-.02m.05-.02.06-.02m.05-.02.05-.02m.05-.02.05-.02m.05-.01.06-.02m.05-.02.05-.02m.05-.02.05-.02m.05-.02.06-.02m.05-.02.05-.02m.05-.02.05-.02m.05-.02.06-.02m.05-.02.05-.02m.05-.02.05-.02m.05-.02.06-.02m.05-.02.05-.02m.05-.02.05-.02m.05-.02.06-.02m.05-.02.05-.02m.05-.02.05-.02m.05-.02.06-.02m.05-.02.05-.02m.05-.02.05-.02m.05-.02.06-.02m.05-.02.05-.02m.05-.02.05-.02m.05-.02.06-.02m.05-.02.05-.02m.05-.02.05-.02m.05-.02.06-.02m.05-.02.05-.02m.05-.02.05-.02m.05-.02.06-.02m.05-.02.05-.02m.05-.02.05-.02m.05-.02.06-.02m.05-.02.05-.02m.05-.02.05-.02m.05-.02.06-.01m.05-.02.05-.02m.05-.02.05-.02m.05-.02.06-.02m.05-.02.05-.02m.05-.02.05-.02m.05-.02.06-.02m.05-.02.05-.02m.05-.02.05-.02m.05-.02.06-.02m.05-.02.05-.02m.05-.02.05-.02m.05-.02.06-.02m.05-.02.05-.02m.05-.02.05-.02m.05-.02.06-.02m.05-.02.05-.02m.05-.02.05-.02m.05-.02.06-.02m.05-.02.05-.02m.05-.02.05-.02m.05-.02.06-.02m.05-.02.05-.02m.05-.02.05-.02m.05-.02.06-.02m.05-.02.05-.02m.05-.02.05-.02m.05-.02.06-.02m.05-.02.05-.02m.05-.02.05-.02m.05-.02.06-.02m.05-.02.05-.02m.05-.02.05-.02m.05-.02.06-.02m.05-.01.05-.02m.05-.02.05-.02m.05-.02.06-.02m.05-.02.05-.02m.05-.02.05-.02m.05-.02.06-.02m.05-.02.05-.02m.05-.02.05-.02m.05-.02.06-.02m.05-.02.05-.02m.05-.02.05-.02m.05-.02.06-.02m.05-.02.05-.02m.05-.02.05-.02m.05-.02.06-.02m.05-.02.05-.02m.05-.02.05-.02m.05-.02.06-.02m.05-.02.05-.02m.05-.02.05-.02m.05-.02.05-.02" fill="none" stroke="#0ff" stroke-width=".5"/><path d="M112.83 314.76v10.39" fill="none" stroke="#000" stroke-width=".5"/><path d="M109.75 314.76v10.39M184.72 409.81h49.46" fill="none" stroke="#0ff" stroke-width=".5"/><path d="m557.28 322.31-.52-1.03m0 0-1.55-.52m0 0h-1.56m0 0-1.56.53m0 0-.51 1.04m0 0 .52 1.03m0 0 1.04.52m0 0 2.59.51m0 0 1.04.52m0 0 .52 1.03m0 0 .01.52m0 0-.52 1.04m0 0-1.56.52m0 0-1.55.01m0 0-1.56-.52m0 0-.52-1.03m10.35-9.37.02 8.82m0 0 .53 1.56m0 0 1.04.51m0 0h1.03m-4.17-7.25 3.64-.01m3.63-.01.01 5.19m0 0 .52 1.55m0 0 1.04.52m0 0 1.56-.01m0 0 1.04-.52m0 0 1.55-1.56m-.02-5.19.02 7.27m10.35-10.93.03 10.9m-.01-5.71-1.04-1.03m0 0-1.04-.52m0 0-1.56.01m0 0-1.04.52m0 0-1.03 1.04m0 0-.52 1.55m0 0 .01 1.04m0 0 .52 1.56m0 0 1.04 1.03m0 0 1.04.52m0 0 1.56-.01m0 0 1.03-.52m0 0 1.04-1.04m3.61-8.83.52.52m0 0 .51-.52m0 0-.52-.52m0 0-.51.52m.52 3.11.02 7.27m6.21-7.28-1.04.52m0 0-1.03 1.04m0 0-.52 1.56m0 0v1.04m0 0 .53 1.55m0 0 1.04 1.04m0 0 1.04.51m0 0h1.55m0 0 1.04-.52m0 0 1.03-1.04m0 0 .52-1.56m0 0v-1.04m0 0-.53-1.55m0 0-1.04-1.04m0 0-1.04-.52m0 0-1.55.01M475.85 322.31l-.52-1.03m0 0-1.56-.52m0 0h-1.55m0 0-1.56.53m0 0-.51 1.04m0 0 .52 1.03m0 0 1.04.52m0 0 2.59.51m0 0 1.04.52m0 0 .52 1.03m0 0v.52m0 0-.51 1.04m0 0-1.56.52m0 0-1.55.01m0 0-1.56-.52m0 0-.52-1.03m10.35-9.37.02 8.82m0 0 .52 1.56m0 0 1.04.51m0 0h1.04m-4.17-7.25 3.63-.01m3.64-.01.01 5.19m0 0 .52 1.55m0 0 1.04.52m0 0 1.56-.01m0 0 1.03-.52m0 0 1.56-1.56m-.02-5.19.02 7.27m10.35-10.93.03 10.9m-.02-5.71-1.04-1.03m0 0-1.04-.52m0 0-1.55.01m0 0-1.04.52m0 0-1.03 1.04m0 0-.52 1.55m0 0v1.04m0 0 .53 1.56m0 0 1.04 1.03m0 0 1.04.52m0 0 1.55-.01m0 0 1.04-.52m0 0 1.03-1.04m3.61-8.83.52.52m0 0 .52-.52m0 0-.52-.52m0 0-.52.52m.53 3.11.02 7.27m6.21-7.28-1.04.52m0 0-1.04 1.04m0 0-.51 1.56m0 0v1.04m0 0 .53 1.55m0 0 1.04 1.04m0 0 1.03.51m0 0h1.56m0 0 1.04-.52m0 0 1.03-1.04m0 0 .52-1.56m0 0-.01-1.04m0 0-.52-1.55m0 0-1.04-1.04m0 0-1.04-.52m0 0-1.55.01M395.28 322.31l-.52-1.03m0 0-1.56-.52m0 0h-1.56m0 0-1.55.53m0 0-.52 1.04m0 0 .52 1.03m0 0 1.04.52m0 0 2.6.51m0 0 1.04.52m0 0 .52 1.03m0 0v.52m0 0-.52 1.04m0 0-1.55.52m0 0-1.56.01m0 0-1.56-.52m0 0-.52-1.03m10.35-9.37.03 8.82m0 0 .52 1.56m0 0 1.04.51m0 0h1.04m-4.17-7.25 3.63-.01m3.63-.01.01 5.19m0 0 .53 1.55m0 0 1.04.52m0 0 1.55-.01m0 0 1.04-.52m0 0 1.55-1.56m-.01-5.19.02 7.27m10.34-10.93.03 10.9m-.01-5.71-1.04-1.03m0 0-1.04-.52m0 0-1.56.01m0 0-1.03.52m0 0-1.04 1.04m0 0-.51 1.55m0 0v1.04m0 0 .52 1.56m0 0 1.04 1.03m0 0 1.04.52m0 0 1.56-.01m0 0 1.03-.52m0 0 1.04-1.04m3.61-8.83.52.52m0 0 .52-.52m0 0-.52-.52m0 0-.52.52m.52 3.11.02 7.27m6.21-7.28-1.04.52m0 0-1.03 1.04m0 0-.52 1.56m0 0 .01 1.04m0 0 .52 1.55m0 0 1.04 1.04m0 0 1.04.51m0 0h1.56m0 0 1.03-.52m0 0 1.04-1.04m0 0 .51-1.56m0 0v-1.04m0 0-.52-1.55m0 0-1.04-1.04m0 0-1.04-.52m0 0-1.56.01" fill="none" stroke="#000" stroke-width=".5"/><path d="M541 411.88h49.47M469.75 411.88h49.46M398.49 411.88h49.47M541 418.52h49.47M469.75 418.52h49.46M398.49 418.52h49.47" fill="none" stroke="#0ff" stroke-width=".5"/><path d="M656.53 363.28v2.18M634.74 365.46v3.27M634.74 363.28h21.79M634.74 365.46h21.79M610.77 320.79h23.97M608.59 322.97h23.97M453.87 366.55h39.22M434.26 368.73h58.83M434.26 366.55h17.43M514.89 366.55h13.07M514.89 368.73h56.65M530.14 366.55h41.4M593.33 368.73h41.41M593.33 366.55h39.23M571.54 366.55v2.18M493.09 366.55v2.18M412.47 366.55v2.18M434.26 366.55v2.18M514.89 366.55v2.18M593.33 366.55v2.18" fill="none" stroke="#000" stroke-width=".5"/><path d="M541 413.62h49.47M469.75 413.62h49.46M398.49 413.62h49.47" fill="none" stroke="#0ff" stroke-width=".5"/><path d="M634.74 320.79v42.49M632.56 322.97v43.58M612.26 405.99v7.63M605.72 413.62h6.54M605.72 413.62v8.72M590.47 413.62h6.54M597.01 413.62v8.72M590.47 405.99v7.63M519.21 413.62h6.54M534.47 413.62v8.72M534.47 413.62H541M525.75 413.62v8.72M525.75 422.34h8.72M519.21 405.99v7.63M541 405.99v7.63M469.75 405.99v7.63M447.96 413.62h6.53M447.96 405.99h21.79M447.96 405.99h7.3M447.96 405.99v7.63M469.75 405.99v7.63M454.49 422.34h8.72M454.49 413.62v8.72M463.21 413.62h6.54M463.21 413.62v8.72M469.75 405.99v7.63M449.26 405.99h13.85M449.26 405.99h13.85M447.96 405.99v7.63M590.47 405.99v7.63M519.21 405.99v7.63M447.96 405.99v7.63" fill="none" stroke="#000" stroke-width=".5"/><path d="M469.75 409.81h49.46M541 409.81h49.47" fill="none" stroke="#0ff" stroke-width=".5"/><path d="M519.21 405.99H541M524.93 405.99h.5M524.93 405.99h8.35M524.93 405.99h8.35M398.49 405.99v7.63M391.95 413.62h6.54M391.95 413.62v8.72M383.24 413.62v8.72M383.24 422.34h8.71M376.7 405.99v7.63M376.7 413.62h6.54M398.49 405.99v7.63M398.49 405.99v7.63M398.49 405.99v7.63M376.7 405.99v7.63M376.7 405.99v7.63M383.92 405.99h.09M376.7 405.99h21.79" fill="none" stroke="#000" stroke-width=".5"/><path d="M398.49 409.81h49.47" fill="none" stroke="#0ff" stroke-width=".5"/><path d="M597.01 422.34h8.71M590.47 405.99h21.79M39.66 238.81l-1.04-1.04m0 0-1.56-.51m0 0h-2.07m0 0-1.56.53m0 0-1.03 1.04m0 0v1.03m0 0 .52 1.04m0 0 .52.52m0 0 1.04.51m0 0 3.12 1.03m0 0 1.03.52m0 0 .52.52m0 0 .53 1.03m0 0v1.56m0 0-1.04 1.04m0 0-1.55.52m0 0-2.08.01m0 0-1.55-.52m0 0-1.04-1.03m16.59-4.2-1.04-1.03m0 0-1.04-.52m0 0-1.56.01m0 0-1.03.52m0 0-1.04 1.04m0 0-.51 1.56m0 0v1.03m0 0 .52 1.56m0 0 1.04 1.03m0 0 1.04.52m0 0h1.56m0 0 1.03-.52m0 0 1.04-1.05m9.32-5.73.02 7.27m-.01-5.71-1.04-1.04m0 0-1.04-.51m0 0h-1.56m0 0-1.04.52m0 0-1.03 1.04m0 0-.51 1.56m0 0V245m0 0 .52 1.56m0 0 1.04 1.03m0 0 1.04.52m0 0 1.56-.01m0 0 1.03-.52m0 0 1.04-1.04m3.63 1.55-.02-10.9m10.38 3.61.02 7.26m-.01-5.71-1.04-1.03m0 0-1.04-.52m0 0-1.56.01m0 0-1.04.52m0 0-1.03 1.04m0 0-.52 1.56m0 0 .01 1.03m0 0 .52 1.56m0 0 1.04 1.03m0 0 1.04.52m0 0h1.56m0 0 1.03-.53m0 0 1.04-1.04m13.49 1.52-.02-7.26m.01 2.08 1.55-1.56m0 0 1.04-.53m0 0h1.55m0 0 1.04.52m0 0 .52 1.55m0 0 .02 5.19m6.72-7.28-1.03.52m0 0-1.04 1.04m0 0-.51 1.56m0 0v1.04m0 0 .52 1.55m0 0 1.04 1.04m0 0 1.04.51m0 0h1.56m0 0 1.04-.52m0 0 1.03-1.04m0 0 .52-1.56m0 0-.01-1.04m0 0-.52-1.55m0 0-1.04-1.04m0 0-1.04-.52m0 0-1.56.01m7.29 7.24-.02-7.26m0 2.07 1.56-1.56m0 0 1.03-.52m0 0h1.56m0 0 1.04.51m0 0 .52 1.56m0 0 .01 5.19m20.22-7.32.02 7.27m-.02-5.71-1.04-1.04m0 0-1.04-.51m0 0h-1.55m0 0-1.04.52m0 0-1.03 1.04m0 0-.52 1.56m0 0v1.04m0 0 .53 1.55m0 0 1.04 1.04m0 0 1.04.51m0 0h1.55m0 0 1.04-.52m0 0 1.03-1.04m9.85-5.73.02 8.3m0 0-.52 1.56m0 0-.51.52m0 0-1.04.52m0 0h-1.56m0 0-1.04-.52m4.65-8.83-1.04-1.03m0 0-1.04-.52m0 0-1.55.01m0 0-1.04.52m0 0-1.04 1.04m0 0-.51 1.56m0 0v1.03m0 0 .53 1.56m0 0 1.04 1.03m0 0 1.03.52m0 0 1.56-.01m0 0 1.04-.52m0 0 1.03-1.04m3.61-8.83.52.52m0 0 .52-.52m0 0-.52-.52m0 0-.52.52m.53 3.11.02 7.27m3.63-.01-.03-10.9m.01 5.19 1.04-1.04m0 0 1.04-.52m0 0h1.55m0 0 1.04.51m0 0 1.04 1.04m0 0 .52 1.55m0 0 .01 1.04m0 0-.52 1.56m0 0-1.03 1.04m0 0-1.04.52m0 0h-1.56m0 0-1.03-.51m0 0-1.05-1.04m9.84-8.84.52.51m0 0 .52-.52m0 0-.52-.51m0 0-.52.52m.53 3.11.02 7.26m3.63-.01-.03-10.89m4.17 6.73 6.22-.02m0 0v-1.03m0 0-.52-1.04m0 0-.52-.52m0 0-1.04-.51m0 0h-1.56m0 0-1.03.52m0 0-1.04 1.04m0 0-.51 1.56m0 0v1.04m0 0 .52 1.55m0 0 1.04 1.04m0 0 1.04.51m0 0h1.56m0 0 1.04-.52m0 0 1.03-1.04M57.27 268.49h22.88" fill="none" stroke="#000" stroke-width=".5"/><path d="M57.27 299h65.37M57.27 305.53h22.88M111.2 283.74H68.71" fill="none" stroke="#0ff" stroke-width=".5"/><path d="M57.27 268.49h22.88M99.76 268.49h22.88M49.64 260.86h30.51" fill="none" stroke="#000" stroke-width=".5"/><path d="M2.26 269.58h47.38M2.26 263.04h47.38M321.95 184.59h61.45M321.95 195.49h61.45M321.95 190.04h61.45" fill="none" stroke="gray" stroke-width=".5"/><path d="M357.99 268.49h32.68M423.36 268.49h28.33M355.81 260.86h34.86" fill="none" stroke="#000" stroke-width=".5"/><path d="M238.71 195.49v65.37M249.61 195.49v65.37M311.06 195.49h10.89M311.06 184.59h10.89M249.61 184.59h61.45M249.61 195.49h61.45M321.95 184.59v10.9M311.06 184.59v10.9M238.71 184.59h10.9M249.61 190.04h61.45M238.71 195.49h10.9M249.61 184.59v10.9M244.16 195.49v65.37M238.71 184.59v10.9" fill="none" stroke="gray" stroke-width=".5"/><path d="M185.84 264.47h32.68M185.84 262.87h32.68M131.36 264.47h17.43M131.36 262.87h17.43M323.12 264.47h32.69M323.12 262.87h32.69M253.39 264.47h32.69M253.39 262.87h32.69M80.15 264.47h19.61M80.15 262.87h19.61M253.39 257.59h32.69" fill="none" stroke="#0ff" stroke-width=".5"/><path d="M286.08 268.49h37.04" fill="none" stroke="#000" stroke-width=".5"/><path d="M185.84 257.59h32.68" fill="none" stroke="#0ff" stroke-width=".5"/><path d="M218.52 260.86h34.87M218.52 257.59v10.9M185.84 257.59v10.9M164.05 268.49h21.79M218.52 268.49h32.69M148.79 260.86h37.05" fill="none" stroke="#000" stroke-width=".5"/><path d="M131.36 257.59h17.43" fill="none" stroke="#0ff" stroke-width=".5"/><path d="M148.79 257.59v10.9M131.36 257.59v10.9M99.76 260.86h31.6M286.08 260.86h37.04" fill="none" stroke="#000" stroke-width=".5"/><path d="M323.12 257.59h32.69" fill="none" stroke="#0ff" stroke-width=".5"/><path d="M323.12 257.59v10.9M286.08 257.59v10.9" fill="none" stroke="#000" stroke-width=".5"/><path d="M80.15 257.59h19.61" fill="none" stroke="#0ff" stroke-width=".5"/><path d="M122.42 268.49h.22M127 268.49h4.36M148.79 268.49h13.08" fill="none" stroke="#000" stroke-width=".5"/><path d="M86.69 268.49V299M93.22 268.49V299M99.76 305.53h22.88M81.24 300.09h17.43" fill="none" stroke="#0ff" stroke-width=".5"/><path d="m374.25 222.1.03 10.9m-3.66-10.89 7.26-.02m2.1 6.74 6.22-.02m0 0v-1.03m0 0-.52-1.04m0 0-.52-.52m0 0-1.04-.51m0 0h-1.56m0 0-1.03.52m0 0-1.04 1.04m0 0-.51 1.56m0 0v1.04m0 0 .52 1.55m0 0 1.04 1.04m0 0 1.04.51m0 0h1.56m0 0 1.03-.52m0 0 1.04-1.04m3.12 1.55-.02-7.27m0 3.12.52-1.56m0 0 1.03-1.04m0 0 1.04-.52m0 0 1.56-.01m2.61 7.26-.02-7.26m.01 3.11.51-1.56m0 0 1.04-1.04m0 0 1.04-.52m0 0 1.55-.01m8.82-.02.02 7.27m-.01-5.71-1.04-1.04m0 0-1.04-.51m0 0h-1.56m0 0-1.04.52m0 0-1.03 1.04m0 0-.52 1.56m0 0 .01 1.04m0 0 .52 1.55m0 0 1.04 1.04m0 0 1.04.51m0 0h1.56m0 0 1.03-.52m0 0 1.04-1.04m3.61-5.72 5.71-.01m0 0-5.69 7.28m0 0 5.71-.02m3.09-7.27 5.71-.02m0 0-5.69 7.28m0 0 5.71-.01m5.69-7.28-1.04.52m0 0-1.03 1.04m0 0-.52 1.56m0 0 .01 1.04m0 0 .52 1.55m0 0 1.04 1.04m0 0 1.04.51m0 0h1.55m0 0 1.04-.52m0 0 1.04-1.04m0 0 .51-1.56m0 0v-1.04m0 0-.53-1.55m0 0-1.04-1.04m0 0-1.03-.51m0 0h-1.56" fill="none" stroke="#000" stroke-width=".5"/><path d="M539.66 195.49h54.48M539.66 184.59h54.48M394.3 195.49h61.45M466.65 195.49h62.12M466.65 184.59h62.12M394.3 184.59h61.45M594.14 184.59h10.9M594.14 195.49h10.9M605.04 195.49v65.37M594.14 195.49v65.37M528.77 184.59h10.89M528.77 195.49h10.89M455.75 195.49h10.9M455.75 184.59h10.9M383.4 184.59h10.9M383.4 195.49h10.9M394.3 190.04h61.45M466.65 190.04h62.12M466.65 184.59v10.9M455.75 184.59v10.9M394.3 184.59v10.9M383.4 184.59v10.9M539.66 190.04h54.48M594.14 184.59v10.9M599.59 195.49v65.37M605.04 184.59v10.9M539.66 184.59v10.9M528.77 184.59v10.9" fill="none" stroke="gray" stroke-width=".5"/><path d="M390.67 264.47h32.69M390.67 262.87h32.69M610.77 262.87h32.68M610.77 264.47h32.68M471.3 264.47h32.69M471.3 262.87h32.69M543.21 264.47h32.69M543.21 262.87h32.69" fill="none" stroke="#0ff" stroke-width=".5"/><path d="M530.14 268.49h13.07M575.9 268.49h32.69" fill="none" stroke="#000" stroke-width=".5"/><path d="M543.21 257.59h32.69M610.77 257.59h32.68" fill="none" stroke="#0ff" stroke-width=".5"/><path d="M575.9 260.86h34.87M643.45 257.59v10.9M575.9 257.59v10.9M543.21 257.59v10.9" fill="none" stroke="#000" stroke-width=".5"/><path d="M471.3 257.59h32.69" fill="none" stroke="#0ff" stroke-width=".5"/><path d="M453.87 268.49h17.43M423.36 260.86h47.94" fill="none" stroke="#000" stroke-width=".5"/><path d="M390.67 257.59h32.69" fill="none" stroke="#0ff" stroke-width=".5"/><path d="M471.3 257.59v10.9M390.67 257.59v10.9M503.99 257.59v10.9M423.36 257.59v10.9M503.99 260.86h39.22M501.5 268.49h26.46" fill="none" stroke="#000" stroke-width=".5"/><path d="M749.8 301.44v56.66M765.05 301.44v56.66" fill="none" stroke="#0ff" stroke-width=".5"/><path d="M790.11 268.49v137.5M797.74 260.86v152.76M724.74 268.49v104.94M720.38 268.49v94.79" fill="none" stroke="#000" stroke-width=".5"/><path d="M766.14 300.35v58.84M748.71 300.35v57.75M778.12 284.42v73.56M736.72 358.1v-73.68" fill="none" stroke="#0ff" stroke-width=".5"/><path d="M720.38 399.58v6.41M724.74 399.58v6.41M720.38 373.43h4.36M720.38 399.58h4.36M678.32 363.28h42.06M678.32 365.46h42.06M678.32 363.28v2.18M720.38 365.46v7.97" fill="none" stroke="#000" stroke-width=".5"/><path d="m778.12 357.98 10.9-5.33M767.23 352.65l10.89 5.33M737.7 358.1v-10.57M735.81 358.1v-10.57M724.74 358.1h40.31" fill="none" stroke="#0ff" stroke-width=".5"/><path d="M661.73 405.99h58.65M675.92 405.99h13.85M670.44 422.34h8.72M670.44 413.62v8.72M661.73 413.62h8.71M675.92 405.99h13.85M679.16 413.62v8.72M661.73 405.99v7.63" fill="none" stroke="#000" stroke-width=".5"/><path d="M724.74 326.5h23.97M724.74 333.04h23.97M724.74 339.57h23.97M724.74 346.11h23.97M724.74 352.65h23.97M724.74 319.96h23.97M724.74 313.42h23.97" fill="none" stroke="#0ff" stroke-width=".5"/><path d="M679.16 413.62h118.58M724.74 405.99h65.37" fill="none" stroke="#000" stroke-width=".5"/><path d="M766.14 313.42h23.97M766.14 319.96h23.97M724.74 359.19h65.37M766.14 352.65h23.97M766.14 346.11h23.97M766.14 339.57h23.97M766.14 333.04h23.97M766.14 326.5h23.97M685.51 262.87h21.79M685.51 264.47h21.79M742.17 262.87h21.79M742.17 264.47h21.79M685.51 257.59h21.79" fill="none" stroke="#0ff" stroke-width=".5"/><path d="M707.3 260.86h34.87" fill="none" stroke="#000" stroke-width=".5"/><path d="M742.17 257.59h21.79" fill="none" stroke="#0ff" stroke-width=".5"/><path d="M763.96 260.86h33.78M763.96 257.59v10.9M742.17 257.59v10.9M685.51 257.59v10.9M707.3 257.59v10.9" fill="none" stroke="#000" stroke-width=".5"/><path d="M766.14 306.89h23.97M736.72 284.42h41.4M749.8 301.44h15.25" fill="none" stroke="#0ff" stroke-width=".5"/><path d="M724.74 268.49h17.43M763.96 268.49h26.15" fill="none" stroke="#000" stroke-width=".5"/><path d="M724.74 300.35h65.37M724.74 306.89h23.97" fill="none" stroke="#0ff" stroke-width=".5"/><path d="M143.14 336.04h18.73M143.14 333.86h18.73" fill="none" stroke="#000" stroke-width=".5"/><path d="M99.76 299v64.28" fill="none" stroke="#0ff" stroke-width=".5"/><path d="M80.15 257.59v10.9" fill="none" stroke="#000" stroke-width=".5"/><path d="M185.84 268.49h32.68M131.36 268.49h17.43M80.15 268.49h19.61M323.12 268.49h32.69M253.39 268.49h32.69M390.67 268.49h32.69M610.77 268.49h32.68M471.3 268.49h32.69M543.21 268.49h32.69M685.51 268.49h21.79M742.17 268.49h21.79M661.73 413.62v4.9M612.26 413.62v4.9M590.47 413.62v4.9M541 413.62v4.9M519.21 413.62v4.9M469.75 413.62v4.9M376.7 413.62v4.9M327.23 413.62v4.9M447.96 413.62v4.9M398.49 413.62v4.9M305.44 413.62v4.9M255.97 413.62v4.9M234.18 413.62v4.9M184.72 413.62v4.9" fill="none" stroke="#0ff" stroke-width=".5"/><path d="m62.16 405.99-4.89-4.89m9.78 4.89-9.78-9.78m14.67 9.78-14.67-14.67m19.57 14.67-19.57-19.57m24.46 19.57-24.46-24.46m29.35 24.46-29.35-29.35m34.24 29.35-34.24-34.24m39.14 34.24-39.14-39.14m44.03 39.14-44.03-44.03m48.92 44.03-48.92-48.92m53.81 48.92-53.81-53.81m58.71 53.81-58.71-58.7m63.6 58.7-63.6-63.6m65.15 60.27L57.27 337.5m65.15 60.26-65.15-65.15m65.15 60.26-65.15-65.15m65.15 60.26-65.15-65.16m65.15 60.27-65.15-65.16m65.15 60.27-65.15-65.16m65.15 60.26-65.15-65.15m65.15 60.26-65.15-65.16m65.15 60.27-65.15-65.16m65.15 60.27-65.15-65.16m65.15 60.26-65.15-65.15m65.15 60.26-65.15-65.15m65.15 60.26-65.15-65.16m65.15 60.27L57.27 273.9m65.15 60.26-65.15-65.15m65.15 60.26-60.78-60.78m60.78 55.89-55.89-55.89m55.89 51-50.99-51m50.99 46.11-46.1-46.11m46.1 41.21-41.21-41.21m41.21 36.32L86.1 268.49m36.32 31.43-31.43-31.43m31.43 26.54-26.53-26.54m26.53 21.64-21.64-21.64m21.64 16.75-16.75-16.75m16.75 11.86-11.86-11.86m11.86 6.97-6.96-6.97m6.96 2.07-2.07-2.07" fill="none" stroke="silver" stroke-width=".5"/><path d="M57.27 361.32v32.69" fill="none" stroke="#0ff" stroke-width=".5"/><path d="m659.56 322.31-.52-1.03m0 0-1.55-.52m0 0h-1.56m0 0-1.56.53m0 0-.51 1.04m0 0 .52 1.03m0 0 1.04.52m0 0 2.59.51m0 0 1.04.52m0 0 .52 1.03m0 0 .01.52m0 0-.52 1.04m0 0-1.56.52m0 0-1.55.01m0 0-1.56-.52m0 0-.52-1.03m10.35-9.37.02 8.82m0 0 .53 1.56m0 0 1.04.51m0 0h1.03m-4.17-7.25 3.64-.01m3.63-.01.01 5.19m0 0 .52 1.55m0 0 1.04.52m0 0 1.56-.01m0 0 1.04-.52m0 0 1.55-1.56m-.02-5.19.02 7.27m10.35-10.93.03 10.9m-.01-5.71-1.04-1.03m0 0-1.04-.52m0 0-1.56.01m0 0-1.04.52m0 0-1.03 1.04m0 0-.52 1.55m0 0 .01 1.04m0 0 .52 1.56m0 0 1.04 1.03m0 0 1.04.52m0 0 1.56-.01m0 0 1.03-.52m0 0 1.04-1.04m3.61-8.83.52.52m0 0 .51-.52m0 0-.52-.52m0 0-.51.52m.52 3.11.02 7.27m6.21-7.28-1.04.52m0 0-1.03 1.04m0 0-.52 1.56m0 0 .01 1.04m0 0 .52 1.55m0 0 1.04 1.04m0 0 1.04.51m0 0h1.55m0 0 1.04-.52m0 0 1.04-1.04m0 0 .51-1.56m0 0v-1.04m0 0-.53-1.55m0 0-1.04-1.04m0 0-1.04-.52m0 0-1.55.01" fill="none" stroke="#000" stroke-width=".5"/><path d="m711.73 374.74.38 2.1m0 0 .72 2.01m0 0 1.04 1.86m0 0 1.33 1.67m0 0 1.59 1.43m0 0 1.79 1.16m0 0 1.96.85m0 0 2.07.52m0 0 2.13.17M724.74 374.74h-13.01M724.74 373.43h-13.01M711.73 374.74v-1.31M724.74 374.74v-1.31M724.74 398.28h-13.01M724.74 399.58h-13.01M711.73 398.28v1.3M724.74 399.58v-1.3M726.04 386.51H716M724.74 386.51l-2.13.17m0 0-2.07.52m0 0-1.96.85m0 0-1.79 1.15m0 0-1.59 1.44m0 0-1.33 1.67m0 0-1.04 1.86m0 0-.72 2.01m0 0-.38 2.1M658.71 341.6l2.87.48m0 0 2.78.87m0 0 2.64 1.22m0 0 2.45 1.57m0 0 2.23 1.88m0 0 1.95 2.16m0 0 1.65 2.4m0 0 1.31 2.59m0 0 .96 2.75m0 0 .58 2.86m0 0 .19 2.9M658.71 363.28V341.6M656.53 363.28V341.6M658.71 341.6h-2.18M658.71 363.28h-2.18M667.42 365.46v-16.74M591.15 344.87l-2.87.48m0 0-2.78.86m0 0-2.64 1.23m0 0-2.45 1.57m0 0-2.22 1.88m0 0-1.96 2.15m0 0-1.64 2.4m0 0-1.32 2.6m0 0-.95 2.75m0 0-.58 2.86m0 0-.2 2.9M591.15 366.55v-21.68M593.33 366.55v-21.68M591.15 344.87h2.18M591.15 366.55h2.18M582.44 368.73v-16.74M512.71 344.87l-2.87.48m0 0-2.79.86m0 0-2.64 1.23m0 0-2.45 1.57m0 0-2.22 1.88m0 0-1.96 2.15m0 0-1.64 2.4m0 0-1.32 2.6m0 0-.95 2.75m0 0-.58 2.86m0 0-.2 2.9M512.71 366.55v-21.68M514.89 366.55v-21.68M512.71 344.87h2.18M512.71 366.55h2.18M503.99 368.73v-16.74M432.08 344.87l-2.87.48m0 0-2.78.86m0 0-2.64 1.23m0 0-2.46 1.57m0 0-2.22 1.88m0 0-1.95 2.15m0 0-1.65 2.4m0 0-1.31 2.6m0 0-.96 2.75m0 0-.58 2.86m0 0-.19 2.9M432.08 366.55v-21.68M434.26 366.55v-21.68M432.08 344.87h2.18M432.08 366.55h2.18M423.36 368.73v-16.74M336.2 344.87l-2.87.48m0 0-2.78.86m0 0-2.65 1.23m0 0-2.45 1.57m0 0-2.22 1.88m0 0-1.96 2.15m0 0-1.64 2.4m0 0-1.32 2.6m0 0-.95 2.75m0 0-.58 2.86m0 0-.2 2.9M336.2 366.55v-21.68M338.38 366.55v-21.68M336.2 344.87h2.18M336.2 366.55h2.18M327.48 368.73v-16.74M231.6 344.87l-2.87.48m0 0-2.78.86m0 0-2.64 1.23m0 0-2.46 1.57m0 0-2.22 1.88m0 0-1.95 2.15m0 0-1.65 2.4m0 0-1.31 2.6m0 0-.96 2.75m0 0-.58 2.86m0 0-.19 2.9M231.6 366.55v-21.68M233.78 366.55v-21.68M231.6 344.87h2.18M231.6 366.55h2.18M222.88 368.73v-16.74M158.38 353.54l-2.1.39m0 0-2.01.72m0 0-1.86 1.04m0 0-1.67 1.33m0 0-1.43 1.58m0 0-1.16 1.79m0 0-.85 1.96m0 0-.51 2.07m0 0-.18 2.13M158.38 366.55v-13.01M159.69 366.55v-13.01M158.38 353.54h1.31M158.38 366.55h1.31M153.15 367.86v-10.05M131.37 320.85l2.1.39m0 0 2.01.72m0 0 1.86 1.04m0 0 1.67 1.33m0 0 1.43 1.58m0 0 1.16 1.8m0 0 .85 1.96m0 0 .51 2.07m0 0 .18 2.12M131.37 333.86v-13.01M130.06 333.86v-13.01M131.37 320.85h-1.31M131.37 333.86h-1.31M136.6 335.17v-10.04" fill="none" stroke="#0ff" stroke-width=".5"/></svg>