<svg xmlns="http://www.w3.org/2000/svg" xmlns:xlink="http://www.w3.org/1999/xlink" width="500" zoomAndPan="magnify" viewBox="0 0 375 374.999991" height="500" preserveAspectRatio="xMidYMid meet" version="1.0"><defs><clipPath id="e5270f1699"><path d="M 18.6875 149.285156 L 360.488281 149.285156 L 360.488281 359.359375 L 18.6875 359.359375 Z M 18.6875 149.285156 " clip-rule="nonzero"/></clipPath><clipPath id="ab542b0fbe"><path d="M 0.6875 0.285156 L 342.488281 0.285156 L 342.488281 210.359375 L 0.6875 210.359375 Z M 0.6875 0.285156 " clip-rule="nonzero"/></clipPath><clipPath id="affc8ca88b"><rect x="0" width="343" y="0" height="211"/></clipPath><clipPath id="f1f87c87cf"><path d="M 14.511719 145.390625 L 360.261719 145.390625 L 360.261719 360.640625 L 14.511719 360.640625 Z M 14.511719 145.390625 " clip-rule="nonzero"/></clipPath><clipPath id="78838a655a"><path d="M 227.667969 145.390625 L 233 145.390625 L 233 151 L 227.667969 151 Z M 227.667969 145.390625 " clip-rule="nonzero"/></clipPath><clipPath id="f76ac50852"><path d="M 227.667969 145.390625 L 242 145.390625 L 242 160 L 227.667969 160 Z M 227.667969 145.390625 " clip-rule="nonzero"/></clipPath><clipPath id="88cd701fb2"><path d="M 227.667969 145.390625 L 250 145.390625 L 250 168 L 227.667969 168 Z M 227.667969 145.390625 " clip-rule="nonzero"/></clipPath><clipPath id="9bf0b59703"><path d="M 227.667969 145.390625 L 259 145.390625 L 259 177 L 227.667969 177 Z M 227.667969 145.390625 " clip-rule="nonzero"/></clipPath><clipPath id="4ae0978954"><path d="M 227.667969 145.390625 L 267 145.390625 L 267 185 L 227.667969 185 Z M 227.667969 145.390625 " clip-rule="nonzero"/></clipPath><clipPath id="d49d043bbc"><path d="M 227.667969 145.390625 L 276 145.390625 L 276 193 L 227.667969 193 Z M 227.667969 145.390625 " clip-rule="nonzero"/></clipPath><clipPath id="c480f8291e"><path d="M 227.667969 145.390625 L 284 145.390625 L 284 202 L 227.667969 202 Z M 227.667969 145.390625 " clip-rule="nonzero"/></clipPath><clipPath id="d174a7b8f4"><path d="M 227.667969 145.390625 L 293 145.390625 L 293 210 L 227.667969 210 Z M 227.667969 145.390625 " clip-rule="nonzero"/></clipPath><clipPath id="a8752a3bcb"><path d="M 227.667969 145.390625 L 301 145.390625 L 301 219 L 227.667969 219 Z M 227.667969 145.390625 " clip-rule="nonzero"/></clipPath><clipPath id="273eda5d33"><path d="M 227.667969 145.390625 L 310 145.390625 L 310 227 L 227.667969 227 Z M 227.667969 145.390625 " clip-rule="nonzero"/></clipPath><clipPath id="6ab316b177"><path d="M 227.667969 145.390625 L 318 145.390625 L 318 236 L 227.667969 236 Z M 227.667969 145.390625 " clip-rule="nonzero"/></clipPath><clipPath id="ccf8ee1248"><path d="M 227.667969 145.390625 L 327 145.390625 L 327 244 L 227.667969 244 Z M 227.667969 145.390625 " clip-rule="nonzero"/></clipPath><clipPath id="7b35034f73"><path d="M 227.667969 145.390625 L 335 145.390625 L 335 253 L 227.667969 253 Z M 227.667969 145.390625 " clip-rule="nonzero"/></clipPath><clipPath id="e6e1dbf4f3"><path d="M 227.667969 145.390625 L 343 145.390625 L 343 261 L 227.667969 261 Z M 227.667969 145.390625 " clip-rule="nonzero"/></clipPath><clipPath id="1446df6cfc"><path d="M 227.667969 145.390625 L 352 145.390625 L 352 270 L 227.667969 270 Z M 227.667969 145.390625 " clip-rule="nonzero"/></clipPath><clipPath id="6ad85b1342"><path d="M 227.667969 145.390625 L 360 145.390625 L 360 278 L 227.667969 278 Z M 227.667969 145.390625 " clip-rule="nonzero"/></clipPath><clipPath id="55b56d3014"><path d="M 227.667969 152 L 360.417969 152 L 360.417969 278.140625 L 227.667969 278.140625 Z M 227.667969 152 " clip-rule="nonzero"/></clipPath><clipPath id="9b36ae6c39"><path d="M 227.667969 160 L 360.417969 160 L 360.417969 278.140625 L 227.667969 278.140625 Z M 227.667969 160 " clip-rule="nonzero"/></clipPath><clipPath id="19a02a29a2"><path d="M 227.667969 168 L 360.417969 168 L 360.417969 278.140625 L 227.667969 278.140625 Z M 227.667969 168 " clip-rule="nonzero"/></clipPath><clipPath id="ee508db179"><path d="M 227.667969 177 L 360.417969 177 L 360.417969 278.140625 L 227.667969 278.140625 Z M 227.667969 177 " clip-rule="nonzero"/></clipPath><clipPath id="66e3cf3e10"><path d="M 227.667969 185 L 360.417969 185 L 360.417969 278.140625 L 227.667969 278.140625 Z M 227.667969 185 " clip-rule="nonzero"/></clipPath><clipPath id="7c8c528bce"><path d="M 227.667969 194 L 360.417969 194 L 360.417969 278.140625 L 227.667969 278.140625 Z M 227.667969 194 " clip-rule="nonzero"/></clipPath><clipPath id="6721fb527e"><path d="M 227.667969 202 L 360.417969 202 L 360.417969 278.140625 L 227.667969 278.140625 Z M 227.667969 202 " clip-rule="nonzero"/></clipPath><clipPath id="7ebb544677"><path d="M 227.667969 211 L 360.417969 211 L 360.417969 278.140625 L 227.667969 278.140625 Z M 227.667969 211 " clip-rule="nonzero"/></clipPath><clipPath id="1c21b9d581"><path d="M 227.667969 219 L 360.417969 219 L 360.417969 278.140625 L 227.667969 278.140625 Z M 227.667969 219 " clip-rule="nonzero"/></clipPath><clipPath id="aea3d5a02d"><path d="M 227.667969 228 L 360.417969 228 L 360.417969 278.140625 L 227.667969 278.140625 Z M 227.667969 228 " clip-rule="nonzero"/></clipPath><clipPath id="b94709537c"><path d="M 227.667969 236 L 360.417969 236 L 360.417969 278.140625 L 227.667969 278.140625 Z M 227.667969 236 " clip-rule="nonzero"/></clipPath><clipPath id="dde773406b"><path d="M 227.667969 245 L 360.417969 245 L 360.417969 278.140625 L 227.667969 278.140625 Z M 227.667969 245 " clip-rule="nonzero"/></clipPath><clipPath id="fbe20b9ce8"><path d="M 227.667969 253 L 360.417969 253 L 360.417969 278.140625 L 227.667969 278.140625 Z M 227.667969 253 " clip-rule="nonzero"/></clipPath><clipPath id="9f70578641"><path d="M 227.667969 262 L 360.417969 262 L 360.417969 278.140625 L 227.667969 278.140625 Z M 227.667969 262 " clip-rule="nonzero"/></clipPath><clipPath id="fcafbcc729"><path d="M 227.667969 270 L 360.417969 270 L 360.417969 278.140625 L 227.667969 278.140625 Z M 227.667969 270 " clip-rule="nonzero"/></clipPath><clipPath id="3da2d5ab7f"><path d="M 227.667969 308.941406 L 276.417969 308.941406 L 276.417969 357.691406 L 227.667969 357.691406 Z M 227.667969 308.941406 " clip-rule="nonzero"/></clipPath><clipPath id="f74343f7f9"><path d="M 0.667969 47 L 3 47 L 3 49.550781 L 0.667969 49.550781 Z M 0.667969 47 " clip-rule="nonzero"/></clipPath><clipPath id="2d1727cf62"><path d="M 0.667969 44 L 6 44 L 6 49.550781 L 0.667969 49.550781 Z M 0.667969 44 " clip-rule="nonzero"/></clipPath><clipPath id="1d7914c8a0"><path d="M 0.667969 41 L 9 41 L 9 49.550781 L 0.667969 49.550781 Z M 0.667969 41 " clip-rule="nonzero"/></clipPath><clipPath id="2b6b0d852c"><path d="M 0.667969 38 L 12 38 L 12 49.550781 L 0.667969 49.550781 Z M 0.667969 38 " clip-rule="nonzero"/></clipPath><clipPath id="5dbba814b2"><path d="M 0.667969 35 L 15 35 L 15 49.550781 L 0.667969 49.550781 Z M 0.667969 35 " clip-rule="nonzero"/></clipPath><clipPath id="15a407adc9"><path d="M 0.667969 32 L 19 32 L 19 49.550781 L 0.667969 49.550781 Z M 0.667969 32 " clip-rule="nonzero"/></clipPath><clipPath id="6da60360be"><path d="M 0.667969 29 L 22 29 L 22 49.550781 L 0.667969 49.550781 Z M 0.667969 29 " clip-rule="nonzero"/></clipPath><clipPath id="ad96eceada"><path d="M 0.667969 25 L 25 25 L 25 49.550781 L 0.667969 49.550781 Z M 0.667969 25 " clip-rule="nonzero"/></clipPath><clipPath id="35c89936a0"><path d="M 0.667969 22 L 28 22 L 28 49.550781 L 0.667969 49.550781 Z M 0.667969 22 " clip-rule="nonzero"/></clipPath><clipPath id="3ede84d5ad"><path d="M 0.667969 19 L 31 19 L 31 49.550781 L 0.667969 49.550781 Z M 0.667969 19 " clip-rule="nonzero"/></clipPath><clipPath id="2e27643e1b"><path d="M 0.667969 16 L 34 16 L 34 49.550781 L 0.667969 49.550781 Z M 0.667969 16 " clip-rule="nonzero"/></clipPath><clipPath id="7ff34ce048"><path d="M 0.667969 13 L 37 13 L 37 49.550781 L 0.667969 49.550781 Z M 0.667969 13 " clip-rule="nonzero"/></clipPath><clipPath id="4bfbb2c414"><path d="M 0.667969 10 L 40 10 L 40 49.550781 L 0.667969 49.550781 Z M 0.667969 10 " clip-rule="nonzero"/></clipPath><clipPath id="b872900e5a"><path d="M 0.667969 7 L 43 7 L 43 49.550781 L 0.667969 49.550781 Z M 0.667969 7 " clip-rule="nonzero"/></clipPath><clipPath id="44ad37dad8"><path d="M 0.667969 4 L 46 4 L 46 49.550781 L 0.667969 49.550781 Z M 0.667969 4 " clip-rule="nonzero"/></clipPath><clipPath id="d966e002a6"><path d="M 0.667969 1 L 49.417969 1 L 49.417969 49.550781 L 0.667969 49.550781 Z M 0.667969 1 " clip-rule="nonzero"/></clipPath><clipPath id="e640f1c200"><path d="M 0.667969 0.941406 L 49.417969 0.941406 L 49.417969 48 L 0.667969 48 Z M 0.667969 0.941406 " clip-rule="nonzero"/></clipPath><clipPath id="e7b294fe0c"><path d="M 0.667969 0.941406 L 49.417969 0.941406 L 49.417969 45 L 0.667969 45 Z M 0.667969 0.941406 " clip-rule="nonzero"/></clipPath><clipPath id="9b4180d8fb"><path d="M 0.667969 0.941406 L 49.417969 0.941406 L 49.417969 41 L 0.667969 41 Z M 0.667969 0.941406 " clip-rule="nonzero"/></clipPath><clipPath id="db652fae77"><path d="M 0.667969 0.941406 L 49.417969 0.941406 L 49.417969 38 L 0.667969 38 Z M 0.667969 0.941406 " clip-rule="nonzero"/></clipPath><clipPath id="8cf12a54a5"><path d="M 0.667969 0.941406 L 49.417969 0.941406 L 49.417969 35 L 0.667969 35 Z M 0.667969 0.941406 " clip-rule="nonzero"/></clipPath><clipPath id="bd44d8b30a"><path d="M 0.667969 0.941406 L 49.417969 0.941406 L 49.417969 32 L 0.667969 32 Z M 0.667969 0.941406 " clip-rule="nonzero"/></clipPath><clipPath id="04e282d996"><path d="M 0.667969 0.941406 L 49.417969 0.941406 L 49.417969 29 L 0.667969 29 Z M 0.667969 0.941406 " clip-rule="nonzero"/></clipPath><clipPath id="7468367361"><path d="M 0.667969 0.941406 L 49.417969 0.941406 L 49.417969 26 L 0.667969 26 Z M 0.667969 0.941406 " clip-rule="nonzero"/></clipPath><clipPath id="8ba696e65e"><path d="M 0.667969 0.941406 L 49.417969 0.941406 L 49.417969 23 L 0.667969 23 Z M 0.667969 0.941406 " clip-rule="nonzero"/></clipPath><clipPath id="cfd0302886"><path d="M 0.667969 0.941406 L 49.417969 0.941406 L 49.417969 20 L 0.667969 20 Z M 0.667969 0.941406 " clip-rule="nonzero"/></clipPath><clipPath id="a3a61fb9e3"><path d="M 0.667969 0.941406 L 49.417969 0.941406 L 49.417969 17 L 0.667969 17 Z M 0.667969 0.941406 " clip-rule="nonzero"/></clipPath><clipPath id="4fa69788bc"><path d="M 0.667969 0.941406 L 49.417969 0.941406 L 49.417969 14 L 0.667969 14 Z M 0.667969 0.941406 " clip-rule="nonzero"/></clipPath><clipPath id="d75a6a78b5"><path d="M 0.667969 0.941406 L 49.417969 0.941406 L 49.417969 10 L 0.667969 10 Z M 0.667969 0.941406 " clip-rule="nonzero"/></clipPath><clipPath id="b443a06c44"><path d="M 0.667969 0.941406 L 49.417969 0.941406 L 49.417969 7 L 0.667969 7 Z M 0.667969 0.941406 " clip-rule="nonzero"/></clipPath><clipPath id="d1091ab087"><path d="M 0.667969 0.941406 L 49.417969 0.941406 L 49.417969 4 L 0.667969 4 Z M 0.667969 0.941406 " clip-rule="nonzero"/></clipPath><clipPath id="062933e896"><path d="M 1 0.941406 L 49.417969 0.941406 L 49.417969 1 L 1 1 Z M 1 0.941406 " clip-rule="nonzero"/></clipPath><clipPath id="24fc3acfda"><rect x="0" width="50" y="0" height="50"/></clipPath><clipPath id="5942fbe8a5"><path d="M 227.667969 308.941406 L 230 308.941406 L 230 311 L 227.667969 311 Z M 227.667969 308.941406 " clip-rule="nonzero"/></clipPath><clipPath id="94daa09e26"><path d="M 227.667969 308.941406 L 233 308.941406 L 233 314 L 227.667969 314 Z M 227.667969 308.941406 " clip-rule="nonzero"/></clipPath><clipPath id="edc11ab585"><path d="M 227.667969 308.941406 L 236 308.941406 L 236 318 L 227.667969 318 Z M 227.667969 308.941406 " clip-rule="nonzero"/></clipPath><clipPath id="f04ad2220c"><path d="M 227.667969 308.941406 L 239 308.941406 L 239 321 L 227.667969 321 Z M 227.667969 308.941406 " clip-rule="nonzero"/></clipPath><clipPath id="f85557995c"><path d="M 227.667969 308.941406 L 242 308.941406 L 242 324 L 227.667969 324 Z M 227.667969 308.941406 " clip-rule="nonzero"/></clipPath><clipPath id="5bbb3c44fa"><path d="M 227.667969 308.941406 L 246 308.941406 L 246 327 L 227.667969 327 Z M 227.667969 308.941406 " clip-rule="nonzero"/></clipPath><clipPath id="1c5a0dc267"><path d="M 227.667969 308.941406 L 249 308.941406 L 249 330 L 227.667969 330 Z M 227.667969 308.941406 " clip-rule="nonzero"/></clipPath><clipPath id="15b035063b"><path d="M 227.667969 308.941406 L 252 308.941406 L 252 333 L 227.667969 333 Z M 227.667969 308.941406 " clip-rule="nonzero"/></clipPath><clipPath id="19994b9011"><path d="M 227.667969 308.941406 L 255 308.941406 L 255 336 L 227.667969 336 Z M 227.667969 308.941406 " clip-rule="nonzero"/></clipPath><clipPath id="09703f0eca"><path d="M 227.667969 308.941406 L 258 308.941406 L 258 339 L 227.667969 339 Z M 227.667969 308.941406 " clip-rule="nonzero"/></clipPath><clipPath id="219e87bbdc"><path d="M 227.667969 308.941406 L 261 308.941406 L 261 342 L 227.667969 342 Z M 227.667969 308.941406 " clip-rule="nonzero"/></clipPath><clipPath id="e9425db583"><path d="M 227.667969 308.941406 L 264 308.941406 L 264 345 L 227.667969 345 Z M 227.667969 308.941406 " clip-rule="nonzero"/></clipPath><clipPath id="50edfff813"><path d="M 227.667969 308.941406 L 267 308.941406 L 267 349 L 227.667969 349 Z M 227.667969 308.941406 " clip-rule="nonzero"/></clipPath><clipPath id="20842aff45"><path d="M 227.667969 308.941406 L 270 308.941406 L 270 352 L 227.667969 352 Z M 227.667969 308.941406 " clip-rule="nonzero"/></clipPath><clipPath id="76bfdb26c8"><path d="M 227.667969 308.941406 L 273 308.941406 L 273 355 L 227.667969 355 Z M 227.667969 308.941406 " clip-rule="nonzero"/></clipPath><clipPath id="e70ad94705"><path d="M 227.667969 308.941406 L 276.417969 308.941406 L 276.417969 357.691406 L 227.667969 357.691406 Z M 227.667969 308.941406 " clip-rule="nonzero"/></clipPath><clipPath id="184fae9c72"><path d="M 227.667969 311 L 276.417969 311 L 276.417969 357.691406 L 227.667969 357.691406 Z M 227.667969 311 " clip-rule="nonzero"/></clipPath><clipPath id="b03006ebda"><path d="M 227.667969 314 L 276.417969 314 L 276.417969 357.691406 L 227.667969 357.691406 Z M 227.667969 314 " clip-rule="nonzero"/></clipPath><clipPath id="02ab74dd85"><path d="M 227.667969 317 L 276.417969 317 L 276.417969 357.691406 L 227.667969 357.691406 Z M 227.667969 317 " clip-rule="nonzero"/></clipPath><clipPath id="ccb79df632"><path d="M 227.667969 320 L 276.417969 320 L 276.417969 357.691406 L 227.667969 357.691406 Z M 227.667969 320 " clip-rule="nonzero"/></clipPath><clipPath id="21d0ed3bd3"><path d="M 227.667969 323 L 276.417969 323 L 276.417969 357.691406 L 227.667969 357.691406 Z M 227.667969 323 " clip-rule="nonzero"/></clipPath><clipPath id="66d5147549"><path d="M 227.667969 326 L 276.417969 326 L 276.417969 357.691406 L 227.667969 357.691406 Z M 227.667969 326 " clip-rule="nonzero"/></clipPath><clipPath id="83c74ab528"><path d="M 227.667969 329 L 276.417969 329 L 276.417969 357.691406 L 227.667969 357.691406 Z M 227.667969 329 " clip-rule="nonzero"/></clipPath><clipPath id="e2b263bc3d"><path d="M 227.667969 333 L 276.417969 333 L 276.417969 357.691406 L 227.667969 357.691406 Z M 227.667969 333 " clip-rule="nonzero"/></clipPath><clipPath id="e1e7958155"><path d="M 227.667969 336 L 276.417969 336 L 276.417969 357.691406 L 227.667969 357.691406 Z M 227.667969 336 " clip-rule="nonzero"/></clipPath><clipPath id="ebf4adbbe3"><path d="M 227.667969 339 L 276.417969 339 L 276.417969 357.691406 L 227.667969 357.691406 Z M 227.667969 339 " clip-rule="nonzero"/></clipPath><clipPath id="3b97c4a354"><path d="M 227.667969 342 L 276.417969 342 L 276.417969 357.691406 L 227.667969 357.691406 Z M 227.667969 342 " clip-rule="nonzero"/></clipPath><clipPath id="fc447ff033"><path d="M 227.667969 345 L 276.417969 345 L 276.417969 357.691406 L 227.667969 357.691406 Z M 227.667969 345 " clip-rule="nonzero"/></clipPath><clipPath id="63e76236fc"><path d="M 227.667969 348 L 276.417969 348 L 276.417969 357.691406 L 227.667969 357.691406 Z M 227.667969 348 " clip-rule="nonzero"/></clipPath><clipPath id="b12e0a1c35"><path d="M 227.667969 351 L 276.417969 351 L 276.417969 357.691406 L 227.667969 357.691406 Z M 227.667969 351 " clip-rule="nonzero"/></clipPath><clipPath id="c48d14c549"><path d="M 227.667969 354 L 276.417969 354 L 276.417969 357.691406 L 227.667969 357.691406 Z M 227.667969 354 " clip-rule="nonzero"/></clipPath><clipPath id="cf561257ad"><path d="M 228 357 L 276.417969 357 L 276.417969 357.691406 L 228 357.691406 Z M 228 357 " clip-rule="nonzero"/></clipPath></defs><g clip-path="url(#e5270f1699)"><g transform="matrix(1, 0, 0, 1, 18, 149)"><g clip-path="url(#affc8ca88b)"><g clip-path="url(#ab542b0fbe)"><path fill="#e9e4da" d="M 0.6875 0.285156 L 342.875 0.285156 L 342.875 210.359375 L 0.6875 210.359375 Z M 0.6875 0.285156 " fill-opacity="1" fill-rule="nonzero"/></g></g></g></g><g clip-path="url(#f1f87c87cf)"><path fill="#c49a6c" d="M 14.835938 358.105469 L 14.835938 148.078125 C 14.835938 146.601562 16.03125 145.40625 17.503906 145.40625 L 227.535156 145.40625 C 227.699219 145.40625 227.863281 145.40625 228.027344 145.40625 L 357.558594 145.40625 C 359.035156 145.40625 360.230469 146.601562 360.230469 148.078125 L 360.230469 358.105469 C 360.230469 359.582031 359.035156 360.777344 357.558594 360.777344 L 228.027344 360.777344 C 227.941406 360.777344 227.859375 360.773438 227.78125 360.765625 C 227.699219 360.773438 227.617188 360.777344 227.535156 360.777344 L 17.503906 360.777344 C 16.03125 360.777344 14.835938 359.582031 14.835938 358.105469 Z M 180.167969 150.746094 L 20.175781 150.746094 C 20.175781 166.929688 20.175781 253.011719 20.175781 309.054688 C 38.738281 226.355469 103.511719 168.066406 180.167969 150.746094 Z M 354.886719 241.378906 L 354.886719 150.746094 L 266.796875 150.746094 C 313.375 164.269531 343.363281 201.625 354.886719 241.378906 Z M 308.558594 355.433594 L 354.886719 355.433594 L 354.886719 308.1875 C 347.230469 329.019531 331.484375 346.902344 308.558594 355.433594 Z M 230.695312 331.496094 L 230.695312 355.433594 L 255.875 355.433594 C 245.878906 350.644531 236.367188 342.648438 230.695312 331.496094 Z M 20.191406 355.433594 C 44.453125 355.433594 224.863281 355.433594 224.863281 355.433594 L 224.863281 150.769531 C 118.332031 152.363281 21.59375 234.34375 20.191406 355.433594 Z M 230.203125 280.773438 L 230.203125 292.554688 C 233.109375 287.898438 237.167969 283.792969 241.988281 280.773438 Z M 354.855469 275.429688 C 353.546875 217.792969 309.882812 151.945312 230.203125 150.765625 L 230.203125 275.429688 Z M 280.226562 355.398438 C 327.140625 354.070312 353.628906 317.832031 354.84375 280.773438 L 280.226562 280.773438 Z M 260.105469 280.773438 C 245.164062 280.773438 232.425781 292.921875 230.859375 305.90625 L 265.953125 305.90625 C 273.304688 305.90625 274.882812 298.726562 274.882812 296.933594 C 274.882812 296.816406 274.882812 296.683594 274.882812 296.535156 C 274.875 294.460938 274.640625 287.773438 269.855469 283.777344 C 267.679688 281.960938 264.546875 280.773438 260.105469 280.773438 Z M 274.882812 311.246094 L 230.765625 311.246094 C 232.261719 339.101562 256.972656 353.960938 274.882812 355.332031 Z M 274.882812 280.773438 L 274.464844 280.773438 C 274.605469 280.917969 274.746094 281.066406 274.882812 281.21875 Z M 274.882812 280.773438 " fill-opacity="1" fill-rule="evenodd"/></g><g clip-path="url(#78838a655a)"><path fill="#c49a6c" d="M 227.707031 149.296875 L 227.707031 150.625 L 232.941406 145.390625 L 231.613281 145.390625 Z M 227.707031 149.296875 " fill-opacity="1" fill-rule="nonzero"/></g><g clip-path="url(#f76ac50852)"><path fill="#c49a6c" d="M 227.707031 157.761719 L 227.707031 159.085938 L 241.40625 145.390625 L 240.078125 145.390625 Z M 227.707031 157.761719 " fill-opacity="1" fill-rule="nonzero"/></g><g clip-path="url(#88cd701fb2)"><path fill="#c49a6c" d="M 227.707031 166.226562 L 227.707031 167.550781 L 249.871094 145.390625 L 248.542969 145.390625 Z M 227.707031 166.226562 " fill-opacity="1" fill-rule="nonzero"/></g><g clip-path="url(#9bf0b59703)"><path fill="#c49a6c" d="M 227.707031 174.6875 L 227.707031 176.015625 L 258.332031 145.390625 L 257.007812 145.390625 Z M 227.707031 174.6875 " fill-opacity="1" fill-rule="nonzero"/></g><g clip-path="url(#4ae0978954)"><path fill="#c49a6c" d="M 227.707031 183.152344 L 227.707031 184.480469 L 266.796875 145.390625 L 265.472656 145.390625 Z M 227.707031 183.152344 " fill-opacity="1" fill-rule="nonzero"/></g><g clip-path="url(#d49d043bbc)"><path fill="#c49a6c" d="M 227.707031 191.617188 L 227.707031 192.925781 L 275.242188 145.390625 L 273.933594 145.390625 Z M 227.707031 191.617188 " fill-opacity="1" fill-rule="nonzero"/></g><g clip-path="url(#c480f8291e)"><path fill="#c49a6c" d="M 227.707031 200.082031 L 227.707031 201.390625 L 283.707031 145.390625 L 282.398438 145.390625 Z M 227.707031 200.082031 " fill-opacity="1" fill-rule="nonzero"/></g><g clip-path="url(#d174a7b8f4)"><path fill="#c49a6c" d="M 227.707031 208.546875 L 227.707031 209.855469 L 292.171875 145.390625 L 290.863281 145.390625 Z M 227.707031 208.546875 " fill-opacity="1" fill-rule="nonzero"/></g><g clip-path="url(#a8752a3bcb)"><path fill="#c49a6c" d="M 227.707031 217.011719 L 227.707031 218.320312 L 300.636719 145.390625 L 299.328125 145.390625 Z M 227.707031 217.011719 " fill-opacity="1" fill-rule="nonzero"/></g><g clip-path="url(#273eda5d33)"><path fill="#c49a6c" d="M 227.707031 225.476562 L 227.707031 226.78125 L 309.101562 145.390625 L 307.792969 145.390625 Z M 227.707031 225.476562 " fill-opacity="1" fill-rule="nonzero"/></g><g clip-path="url(#6ab316b177)"><path fill="#c49a6c" d="M 227.707031 233.917969 L 227.707031 235.246094 L 317.566406 145.390625 L 316.238281 145.390625 Z M 227.707031 233.917969 " fill-opacity="1" fill-rule="nonzero"/></g><g clip-path="url(#ccf8ee1248)"><path fill="#c49a6c" d="M 227.707031 242.382812 L 227.707031 243.710938 L 326.027344 145.390625 L 324.703125 145.390625 Z M 227.707031 242.382812 " fill-opacity="1" fill-rule="nonzero"/></g><g clip-path="url(#7b35034f73)"><path fill="#c49a6c" d="M 227.707031 250.847656 L 227.707031 252.175781 L 334.492188 145.390625 L 333.164062 145.390625 Z M 227.707031 250.847656 " fill-opacity="1" fill-rule="nonzero"/></g><g clip-path="url(#e6e1dbf4f3)"><path fill="#c49a6c" d="M 227.707031 259.3125 L 227.707031 260.640625 L 342.957031 145.390625 L 341.628906 145.390625 Z M 227.707031 259.3125 " fill-opacity="1" fill-rule="nonzero"/></g><g clip-path="url(#1446df6cfc)"><path fill="#c49a6c" d="M 227.707031 267.777344 L 227.707031 269.105469 L 351.421875 145.390625 L 350.09375 145.390625 Z M 227.707031 267.777344 " fill-opacity="1" fill-rule="nonzero"/></g><g clip-path="url(#6ad85b1342)"><path fill="#c49a6c" d="M 227.707031 276.242188 L 227.707031 277.570312 L 359.886719 145.390625 L 358.558594 145.390625 Z M 227.707031 276.242188 " fill-opacity="1" fill-rule="nonzero"/></g><g clip-path="url(#55b56d3014)"><path fill="#c49a6c" d="M 227.707031 284.707031 L 227.707031 286.03125 L 360.367188 153.355469 L 360.367188 152.046875 Z M 227.707031 284.707031 " fill-opacity="1" fill-rule="nonzero"/></g><g clip-path="url(#9b36ae6c39)"><path fill="#c49a6c" d="M 227.707031 293.167969 L 227.707031 294.496094 L 360.367188 161.820312 L 360.367188 160.511719 Z M 227.707031 293.167969 " fill-opacity="1" fill-rule="nonzero"/></g><g clip-path="url(#19a02a29a2)"><path fill="#c49a6c" d="M 227.707031 301.632812 L 227.707031 302.941406 L 360.367188 170.285156 L 360.367188 168.957031 Z M 227.707031 301.632812 " fill-opacity="1" fill-rule="nonzero"/></g><g clip-path="url(#ee508db179)"><path fill="#c49a6c" d="M 227.707031 310.097656 L 227.707031 311.40625 L 360.367188 178.746094 L 360.367188 177.421875 Z M 227.707031 310.097656 " fill-opacity="1" fill-rule="nonzero"/></g><g clip-path="url(#66e3cf3e10)"><path fill="#c49a6c" d="M 227.707031 318.5625 L 227.707031 319.871094 L 360.367188 187.210938 L 360.367188 185.886719 Z M 227.707031 318.5625 " fill-opacity="1" fill-rule="nonzero"/></g><g clip-path="url(#7c8c528bce)"><path fill="#c49a6c" d="M 227.707031 327.027344 L 227.707031 328.335938 L 360.367188 195.675781 L 360.367188 194.347656 Z M 227.707031 327.027344 " fill-opacity="1" fill-rule="nonzero"/></g><g clip-path="url(#6721fb527e)"><path fill="#c49a6c" d="M 227.707031 335.492188 L 227.707031 336.800781 L 360.367188 204.140625 L 360.367188 202.8125 Z M 227.707031 335.492188 " fill-opacity="1" fill-rule="nonzero"/></g><g clip-path="url(#7ebb544677)"><path fill="#c49a6c" d="M 227.707031 343.9375 L 227.707031 345.261719 L 360.367188 212.605469 L 360.367188 211.277344 Z M 227.707031 343.9375 " fill-opacity="1" fill-rule="nonzero"/></g><g clip-path="url(#1c21b9d581)"><path fill="#c49a6c" d="M 227.707031 352.402344 L 227.707031 353.726562 L 360.367188 221.070312 L 360.367188 219.742188 Z M 227.707031 352.402344 " fill-opacity="1" fill-rule="nonzero"/></g><g clip-path="url(#aea3d5a02d)"><path fill="#c49a6c" d="M 227.707031 360.863281 L 227.707031 362.191406 L 360.367188 229.515625 L 360.367188 228.207031 Z M 227.707031 360.863281 " fill-opacity="1" fill-rule="nonzero"/></g><g clip-path="url(#b94709537c)"><path fill="#c49a6c" d="M 227.707031 369.328125 L 227.707031 370.65625 L 360.367188 237.980469 L 360.367188 236.671875 Z M 227.707031 369.328125 " fill-opacity="1" fill-rule="nonzero"/></g><g clip-path="url(#dde773406b)"><path fill="#c49a6c" d="M 227.707031 377.792969 L 227.707031 379.121094 L 360.367188 246.441406 L 360.367188 245.136719 Z M 227.707031 377.792969 " fill-opacity="1" fill-rule="nonzero"/></g><g clip-path="url(#fbe20b9ce8)"><path fill="#c49a6c" d="M 227.707031 386.257812 L 227.707031 387.585938 L 360.367188 254.90625 L 360.367188 253.597656 Z M 227.707031 386.257812 " fill-opacity="1" fill-rule="nonzero"/></g><g clip-path="url(#9f70578641)"><path fill="#c49a6c" d="M 227.707031 394.722656 L 227.707031 396.050781 L 360.367188 263.371094 L 360.367188 262.0625 Z M 227.707031 394.722656 " fill-opacity="1" fill-rule="nonzero"/></g><g clip-path="url(#fcafbcc729)"><path fill="#c49a6c" d="M 227.707031 403.1875 L 227.707031 404.496094 L 360.367188 271.835938 L 360.367188 270.507812 Z M 227.707031 403.1875 " fill-opacity="1" fill-rule="nonzero"/></g><g clip-path="url(#3da2d5ab7f)"><g transform="matrix(1, 0, 0, 1, 227, 308)"><g clip-path="url(#24fc3acfda)"><g clip-path="url(#f74343f7f9)"><path fill="#c49a6c" d="M 0.683594 48.125 L 0.683594 47.636719 L 2.597656 49.550781 L 2.113281 49.550781 Z M 0.683594 48.125 " fill-opacity="1" fill-rule="nonzero"/></g><g clip-path="url(#2d1727cf62)"><path fill="#c49a6c" d="M 0.683594 45.027344 L 0.683594 44.539062 L 5.695312 49.550781 L 5.210938 49.550781 Z M 0.683594 45.027344 " fill-opacity="1" fill-rule="nonzero"/></g><g clip-path="url(#1d7914c8a0)"><path fill="#c49a6c" d="M 0.683594 41.929688 L 0.683594 41.441406 L 8.792969 49.550781 L 8.308594 49.550781 Z M 0.683594 41.929688 " fill-opacity="1" fill-rule="nonzero"/></g><g clip-path="url(#2b6b0d852c)"><path fill="#c49a6c" d="M 0.683594 38.832031 L 0.683594 38.34375 L 11.890625 49.550781 L 11.40625 49.550781 Z M 0.683594 38.832031 " fill-opacity="1" fill-rule="nonzero"/></g><g clip-path="url(#5dbba814b2)"><path fill="#c49a6c" d="M 0.683594 35.734375 L 0.683594 35.246094 L 14.988281 49.550781 L 14.503906 49.550781 Z M 0.683594 35.734375 " fill-opacity="1" fill-rule="nonzero"/></g><g clip-path="url(#15a407adc9)"><path fill="#c49a6c" d="M 0.683594 32.636719 L 0.683594 32.15625 L 18.078125 49.550781 L 17.601562 49.550781 Z M 0.683594 32.636719 " fill-opacity="1" fill-rule="nonzero"/></g><g clip-path="url(#6da60360be)"><path fill="#c49a6c" d="M 0.683594 29.539062 L 0.683594 29.058594 L 21.175781 49.550781 L 20.699219 49.550781 Z M 0.683594 29.539062 " fill-opacity="1" fill-rule="nonzero"/></g><g clip-path="url(#ad96eceada)"><path fill="#c49a6c" d="M 0.683594 26.441406 L 0.683594 25.960938 L 24.273438 49.550781 L 23.796875 49.550781 Z M 0.683594 26.441406 " fill-opacity="1" fill-rule="nonzero"/></g><g clip-path="url(#35c89936a0)"><path fill="#c49a6c" d="M 0.683594 23.34375 L 0.683594 22.863281 L 27.371094 49.550781 L 26.894531 49.550781 Z M 0.683594 23.34375 " fill-opacity="1" fill-rule="nonzero"/></g><g clip-path="url(#3ede84d5ad)"><path fill="#c49a6c" d="M 0.683594 20.246094 L 0.683594 19.765625 L 30.46875 49.550781 L 29.988281 49.550781 Z M 0.683594 20.246094 " fill-opacity="1" fill-rule="nonzero"/></g><g clip-path="url(#2e27643e1b)"><path fill="#c49a6c" d="M 0.683594 17.15625 L 0.683594 16.667969 L 33.566406 49.550781 L 33.082031 49.550781 Z M 0.683594 17.15625 " fill-opacity="1" fill-rule="nonzero"/></g><g clip-path="url(#7ff34ce048)"><path fill="#c49a6c" d="M 0.683594 14.058594 L 0.683594 13.570312 L 36.664062 49.550781 L 36.179688 49.550781 Z M 0.683594 14.058594 " fill-opacity="1" fill-rule="nonzero"/></g><g clip-path="url(#4bfbb2c414)"><path fill="#c49a6c" d="M 0.683594 10.960938 L 0.683594 10.472656 L 39.761719 49.550781 L 39.277344 49.550781 Z M 0.683594 10.960938 " fill-opacity="1" fill-rule="nonzero"/></g><g clip-path="url(#b872900e5a)"><path fill="#c49a6c" d="M 0.683594 7.863281 L 0.683594 7.378906 L 42.859375 49.550781 L 42.375 49.550781 Z M 0.683594 7.863281 " fill-opacity="1" fill-rule="nonzero"/></g><g clip-path="url(#44ad37dad8)"><path fill="#c49a6c" d="M 0.683594 4.765625 L 0.683594 4.28125 L 45.957031 49.550781 L 45.46875 49.550781 Z M 0.683594 4.765625 " fill-opacity="1" fill-rule="nonzero"/></g><g clip-path="url(#d966e002a6)"><path fill="#c49a6c" d="M 0.683594 1.667969 L 0.683594 1.183594 L 49.054688 49.550781 L 48.566406 49.550781 Z M 0.683594 1.667969 " fill-opacity="1" fill-rule="nonzero"/></g><g clip-path="url(#e640f1c200)"><path fill="#c49a6c" d="M 0.683594 -1.429688 L 0.683594 -1.914062 L 49.230469 46.636719 L 49.230469 47.117188 Z M 0.683594 -1.429688 " fill-opacity="1" fill-rule="nonzero"/></g><g clip-path="url(#e7b294fe0c)"><path fill="#c49a6c" d="M 0.683594 -4.527344 L 0.683594 -5.011719 L 49.230469 43.539062 L 49.230469 44.019531 Z M 0.683594 -4.527344 " fill-opacity="1" fill-rule="nonzero"/></g><g clip-path="url(#9b4180d8fb)"><path fill="#c49a6c" d="M 0.683594 -7.625 L 0.683594 -8.101562 L 49.230469 40.441406 L 49.230469 40.929688 Z M 0.683594 -7.625 " fill-opacity="1" fill-rule="nonzero"/></g><g clip-path="url(#db652fae77)"><path fill="#c49a6c" d="M 0.683594 -10.722656 L 0.683594 -11.199219 L 49.230469 37.34375 L 49.230469 37.832031 Z M 0.683594 -10.722656 " fill-opacity="1" fill-rule="nonzero"/></g><g clip-path="url(#8cf12a54a5)"><path fill="#c49a6c" d="M 0.683594 -13.820312 L 0.683594 -14.296875 L 49.230469 34.246094 L 49.230469 34.734375 Z M 0.683594 -13.820312 " fill-opacity="1" fill-rule="nonzero"/></g><g clip-path="url(#bd44d8b30a)"><path fill="#c49a6c" d="M 0.683594 -16.917969 L 0.683594 -17.394531 L 49.230469 31.148438 L 49.230469 31.636719 Z M 0.683594 -16.917969 " fill-opacity="1" fill-rule="nonzero"/></g><g clip-path="url(#04e282d996)"><path fill="#c49a6c" d="M 0.683594 -20.015625 L 0.683594 -20.492188 L 49.230469 28.054688 L 49.230469 28.539062 Z M 0.683594 -20.015625 " fill-opacity="1" fill-rule="nonzero"/></g><g clip-path="url(#7468367361)"><path fill="#c49a6c" d="M 0.683594 -23.105469 L 0.683594 -23.589844 L 49.230469 24.957031 L 49.230469 25.441406 Z M 0.683594 -23.105469 " fill-opacity="1" fill-rule="nonzero"/></g><g clip-path="url(#8ba696e65e)"><path fill="#c49a6c" d="M 0.683594 -26.203125 L 0.683594 -26.6875 L 49.230469 21.859375 L 49.230469 22.34375 Z M 0.683594 -26.203125 " fill-opacity="1" fill-rule="nonzero"/></g><g clip-path="url(#cfd0302886)"><path fill="#c49a6c" d="M 0.683594 -29.300781 L 0.683594 -29.785156 L 49.230469 18.765625 L 49.230469 19.246094 Z M 0.683594 -29.300781 " fill-opacity="1" fill-rule="nonzero"/></g><g clip-path="url(#a3a61fb9e3)"><path fill="#c49a6c" d="M 0.683594 -32.398438 L 0.683594 -32.882812 L 49.230469 15.667969 L 49.230469 16.148438 Z M 0.683594 -32.398438 " fill-opacity="1" fill-rule="nonzero"/></g><g clip-path="url(#4fa69788bc)"><path fill="#c49a6c" d="M 0.683594 -35.496094 L 0.683594 -35.980469 L 49.230469 12.574219 L 49.230469 13.050781 Z M 0.683594 -35.496094 " fill-opacity="1" fill-rule="nonzero"/></g><g clip-path="url(#d75a6a78b5)"><path fill="#c49a6c" d="M 0.683594 -38.59375 L 0.683594 -39.078125 L 49.230469 9.476562 L 49.230469 9.953125 Z M 0.683594 -38.59375 " fill-opacity="1" fill-rule="nonzero"/></g><g clip-path="url(#b443a06c44)"><path fill="#c49a6c" d="M 0.683594 -41.691406 L 0.683594 -42.175781 L 49.230469 6.378906 L 49.230469 6.855469 Z M 0.683594 -41.691406 " fill-opacity="1" fill-rule="nonzero"/></g><g clip-path="url(#d1091ab087)"><path fill="#c49a6c" d="M 0.683594 -44.789062 L 0.683594 -45.265625 L 49.230469 3.28125 L 49.230469 3.765625 Z M 0.683594 -44.789062 " fill-opacity="1" fill-rule="nonzero"/></g><g clip-path="url(#062933e896)"><path fill="#c49a6c" d="M 1.429688 -47.140625 L 1.910156 -47.140625 L 49.230469 0.183594 L 49.230469 0.667969 Z M 1.429688 -47.140625 " fill-opacity="1" fill-rule="nonzero"/></g></g></g></g><g clip-path="url(#5942fbe8a5)"><path fill="#c49a6c" d="M 227.683594 310.371094 L 227.683594 310.859375 L 229.597656 308.941406 L 229.113281 308.941406 Z M 227.683594 310.371094 " fill-opacity="1" fill-rule="nonzero"/></g><g clip-path="url(#94daa09e26)"><path fill="#c49a6c" d="M 227.683594 313.46875 L 227.683594 313.957031 L 232.695312 308.941406 L 232.210938 308.941406 Z M 227.683594 313.46875 " fill-opacity="1" fill-rule="nonzero"/></g><g clip-path="url(#edc11ab585)"><path fill="#c49a6c" d="M 227.683594 316.566406 L 227.683594 317.054688 L 235.792969 308.941406 L 235.308594 308.941406 Z M 227.683594 316.566406 " fill-opacity="1" fill-rule="nonzero"/></g><g clip-path="url(#f04ad2220c)"><path fill="#c49a6c" d="M 227.683594 319.664062 L 227.683594 320.148438 L 238.890625 308.941406 L 238.40625 308.941406 Z M 227.683594 319.664062 " fill-opacity="1" fill-rule="nonzero"/></g><g clip-path="url(#f85557995c)"><path fill="#c49a6c" d="M 227.683594 322.761719 L 227.683594 323.246094 L 241.988281 308.941406 L 241.503906 308.941406 Z M 227.683594 322.761719 " fill-opacity="1" fill-rule="nonzero"/></g><g clip-path="url(#5bbb3c44fa)"><path fill="#c49a6c" d="M 227.683594 325.859375 L 227.683594 326.339844 L 245.078125 308.941406 L 244.601562 308.941406 Z M 227.683594 325.859375 " fill-opacity="1" fill-rule="nonzero"/></g><g clip-path="url(#1c5a0dc267)"><path fill="#c49a6c" d="M 227.683594 328.957031 L 227.683594 329.4375 L 248.175781 308.941406 L 247.699219 308.941406 Z M 227.683594 328.957031 " fill-opacity="1" fill-rule="nonzero"/></g><g clip-path="url(#15b035063b)"><path fill="#c49a6c" d="M 227.683594 332.054688 L 227.683594 332.535156 L 251.273438 308.941406 L 250.796875 308.941406 Z M 227.683594 332.054688 " fill-opacity="1" fill-rule="nonzero"/></g><g clip-path="url(#19994b9011)"><path fill="#c49a6c" d="M 227.683594 335.152344 L 227.683594 335.628906 L 254.371094 308.941406 L 253.894531 308.941406 Z M 227.683594 335.152344 " fill-opacity="1" fill-rule="nonzero"/></g><g clip-path="url(#09703f0eca)"><path fill="#c49a6c" d="M 227.683594 338.25 L 227.683594 338.726562 L 257.46875 308.941406 L 256.988281 308.941406 Z M 227.683594 338.25 " fill-opacity="1" fill-rule="nonzero"/></g><g clip-path="url(#219e87bbdc)"><path fill="#c49a6c" d="M 227.683594 341.339844 L 227.683594 341.824219 L 260.566406 308.941406 L 260.082031 308.941406 Z M 227.683594 341.339844 " fill-opacity="1" fill-rule="nonzero"/></g><g clip-path="url(#e9425db583)"><path fill="#c49a6c" d="M 227.683594 344.4375 L 227.683594 344.921875 L 263.664062 308.941406 L 263.179688 308.941406 Z M 227.683594 344.4375 " fill-opacity="1" fill-rule="nonzero"/></g><g clip-path="url(#50edfff813)"><path fill="#c49a6c" d="M 227.683594 347.535156 L 227.683594 348.019531 L 266.761719 308.941406 L 266.277344 308.941406 Z M 227.683594 347.535156 " fill-opacity="1" fill-rule="nonzero"/></g><g clip-path="url(#20842aff45)"><path fill="#c49a6c" d="M 227.683594 350.632812 L 227.683594 351.117188 L 269.859375 308.941406 L 269.375 308.941406 Z M 227.683594 350.632812 " fill-opacity="1" fill-rule="nonzero"/></g><g clip-path="url(#76bfdb26c8)"><path fill="#c49a6c" d="M 227.683594 353.730469 L 227.683594 354.214844 L 272.957031 308.941406 L 272.46875 308.941406 Z M 227.683594 353.730469 " fill-opacity="1" fill-rule="nonzero"/></g><g clip-path="url(#e70ad94705)"><path fill="#c49a6c" d="M 227.683594 356.828125 L 227.683594 357.3125 L 276.054688 308.941406 L 275.566406 308.941406 Z M 227.683594 356.828125 " fill-opacity="1" fill-rule="nonzero"/></g><g clip-path="url(#184fae9c72)"><path fill="#c49a6c" d="M 227.683594 359.925781 L 227.683594 360.410156 L 276.230469 311.859375 L 276.230469 311.378906 Z M 227.683594 359.925781 " fill-opacity="1" fill-rule="nonzero"/></g><g clip-path="url(#b03006ebda)"><path fill="#c49a6c" d="M 227.683594 363.023438 L 227.683594 363.507812 L 276.230469 314.953125 L 276.230469 314.476562 Z M 227.683594 363.023438 " fill-opacity="1" fill-rule="nonzero"/></g><g clip-path="url(#02ab74dd85)"><path fill="#c49a6c" d="M 227.683594 366.121094 L 227.683594 366.597656 L 276.230469 318.050781 L 276.230469 317.566406 Z M 227.683594 366.121094 " fill-opacity="1" fill-rule="nonzero"/></g><g clip-path="url(#ccb79df632)"><path fill="#c49a6c" d="M 227.683594 369.21875 L 227.683594 369.695312 L 276.230469 321.148438 L 276.230469 320.664062 Z M 227.683594 369.21875 " fill-opacity="1" fill-rule="nonzero"/></g><g clip-path="url(#21d0ed3bd3)"><path fill="#c49a6c" d="M 227.683594 372.316406 L 227.683594 372.792969 L 276.230469 324.246094 L 276.230469 323.761719 Z M 227.683594 372.316406 " fill-opacity="1" fill-rule="nonzero"/></g><g clip-path="url(#66d5147549)"><path fill="#c49a6c" d="M 227.683594 375.414062 L 227.683594 375.890625 L 276.230469 327.34375 L 276.230469 326.859375 Z M 227.683594 375.414062 " fill-opacity="1" fill-rule="nonzero"/></g><g clip-path="url(#83c74ab528)"><path fill="#c49a6c" d="M 227.683594 378.511719 L 227.683594 378.988281 L 276.230469 330.441406 L 276.230469 329.957031 Z M 227.683594 378.511719 " fill-opacity="1" fill-rule="nonzero"/></g><g clip-path="url(#e2b263bc3d)"><path fill="#c49a6c" d="M 227.683594 381.601562 L 227.683594 382.085938 L 276.230469 333.539062 L 276.230469 333.054688 Z M 227.683594 381.601562 " fill-opacity="1" fill-rule="nonzero"/></g><g clip-path="url(#e1e7958155)"><path fill="#c49a6c" d="M 227.683594 384.699219 L 227.683594 385.183594 L 276.230469 336.636719 L 276.230469 336.152344 Z M 227.683594 384.699219 " fill-opacity="1" fill-rule="nonzero"/></g><g clip-path="url(#ebf4adbbe3)"><path fill="#c49a6c" d="M 227.683594 387.796875 L 227.683594 388.28125 L 276.230469 339.726562 L 276.230469 339.25 Z M 227.683594 387.796875 " fill-opacity="1" fill-rule="nonzero"/></g><g clip-path="url(#3b97c4a354)"><path fill="#c49a6c" d="M 227.683594 390.894531 L 227.683594 391.378906 L 276.230469 342.824219 L 276.230469 342.347656 Z M 227.683594 390.894531 " fill-opacity="1" fill-rule="nonzero"/></g><g clip-path="url(#fc447ff033)"><path fill="#c49a6c" d="M 227.683594 393.992188 L 227.683594 394.476562 L 276.230469 345.921875 L 276.230469 345.445312 Z M 227.683594 393.992188 " fill-opacity="1" fill-rule="nonzero"/></g><g clip-path="url(#63e76236fc)"><path fill="#c49a6c" d="M 227.683594 397.089844 L 227.683594 397.574219 L 276.230469 349.019531 L 276.230469 348.542969 Z M 227.683594 397.089844 " fill-opacity="1" fill-rule="nonzero"/></g><g clip-path="url(#b12e0a1c35)"><path fill="#c49a6c" d="M 227.683594 400.1875 L 227.683594 400.671875 L 276.230469 352.117188 L 276.230469 351.640625 Z M 227.683594 400.1875 " fill-opacity="1" fill-rule="nonzero"/></g><g clip-path="url(#c48d14c549)"><path fill="#c49a6c" d="M 227.683594 403.28125 L 227.683594 403.761719 L 276.230469 355.214844 L 276.230469 354.730469 Z M 227.683594 403.28125 " fill-opacity="1" fill-rule="nonzero"/></g><g clip-path="url(#cf561257ad)"><path fill="#c49a6c" d="M 228.429688 405.632812 L 228.910156 405.632812 L 276.230469 358.3125 L 276.230469 357.828125 Z M 228.429688 405.632812 " fill-opacity="1" fill-rule="nonzero"/></g></svg>