<svg xmlns="http://www.w3.org/2000/svg" width="1587" viewBox="0 0 1190.25 1683.75" height="2245" version="1.0"><defs><clipPath id="b"><path d="M279 .25h472v410.637H279zm0 0"/></clipPath><clipPath id="c"><path d="M0 0h805v170H0z"/></clipPath><clipPath id="d"><path d="M0 0h718v170H0z"/></clipPath><clipPath id="e"><path d="M263 1104h503v55.762H263zm0 0"/></clipPath><clipPath id="f"><path d="M0 0h503v56H0z"/></clipPath><clipPath id="a"><path d="M0 0h1030v1160H0z"/></clipPath></defs><g clip-path="url(#a)" transform="translate(80 309)"><g clip-path="url(#b)"><path fill="#ff914d" d="m554.852 22.918 188.906 320.258c8.496 14.418 8.496 30.918 0 45.336-8.5 14.418-23.11 22.668-40.106 22.668H325.88c-17.016 0-31.606-8.25-40.102-22.668-8.5-14.418-8.5-30.918 0-45.336L474.684 22.918C483.18 8.5 497.789.25 514.785.25s31.606 8.25 40.106 22.668zm0 0" fill-rule="evenodd"/></g><path fill="#fff" d="M517.172 126.195h-20.145c-5.484 0-10.199 2.121-13.847 6.207-3.649 4.086-5.211 9.032-4.582 14.477l15.316 132.34v.058l.035.325.02.132.039.286.039.23.039.172.055.324.02.094a18.445 18.445 0 0 0 17.609 14.781h5.937c8.672-.246 15.906-6.375 17.61-14.781l.015-.094.059-.324.039-.172.039-.23.035-.286.02-.132.038-.325v-.058l15.317-132.34c.629-5.445-.938-10.39-4.582-14.477-3.649-4.086-8.367-6.207-13.848-6.207h-15.316zM504.34 314.91h20.816c6.95 0 12.64 5.692 12.64 12.64v20.817c0 6.953-5.69 12.645-12.64 12.645H504.34c-6.953 0-12.64-5.692-12.64-12.645v-20.816c0-6.95 5.687-12.64 12.64-12.64zm0 0" fill-rule="evenodd"/><path fill="#fff" d="m539.25 41.805 178.477 309.14v.02c2.597 4.488 3.898 9.32 3.898 14.133 0 4.812-1.3 9.644-3.898 14.132v.016c-2.579 4.469-6.11 7.984-10.329 10.43-4.222 2.426-9.035 3.722-14.171 3.722H336.25c-5.137 0-9.969-1.296-14.172-3.722-4.2-2.426-7.754-5.961-10.332-10.43-2.598-4.484-3.894-9.316-3.894-14.148 0-4.813 1.296-9.645 3.894-14.133v-.02l89.242-154.57 89.239-154.57v-.02c2.578-4.469 6.113-7.98 10.332-10.426 4.218-2.425 9.03-3.722 14.168-3.722 5.14 0 9.968 1.297 14.171 3.722 4.2 2.426 7.754 5.957 10.332 10.426v.02zm80.684 159.5L530.69 46.735c-1.714-2.962-3.988-5.274-6.683-6.82-2.672-1.548-5.824-2.368-9.262-2.368-3.437 0-6.566.82-9.262 2.367-2.671 1.547-4.964 3.86-6.683 6.82l-89.238 154.57v.02L320.32 355.891c-1.68 2.921-2.52 6.054-2.52 9.207 0 3.132.84 6.261 2.54 9.183 1.719 2.961 3.992 5.274 6.683 6.82 2.676 1.547 5.825 2.368 9.262 2.368h356.98c3.438 0 6.57-.82 9.262-2.367 2.672-1.547 4.965-3.86 6.684-6.82 1.68-2.923 2.52-6.052 2.52-9.204 0-3.133-.84-6.281-2.52-9.203l-89.238-154.57v-.02zm0 0"/><path d="M70.307 530.865c-3.5 0-6.641-.476-9.422-1.422-2.774-.957-5.086-2.207-6.938-3.75-1.855-1.55-3.234-3.25-4.14-5.093l3.562-4.344h.953c3.457 5.812 8.785 8.719 15.985 8.719 4.187 0 7.3-.875 9.343-2.625 2.04-1.75 3.063-4.188 3.063-7.313 0-1.82-.34-3.367-1.016-4.64-.668-1.27-1.777-2.352-3.328-3.25-1.543-.907-3.648-1.688-6.312-2.344l-6.5-1.594c-4.844-1.176-8.418-3.035-10.72-5.578-2.292-2.55-3.437-5.781-3.437-9.688 0-2.77.707-5.238 2.125-7.406 1.426-2.164 3.508-3.86 6.25-5.078 2.739-1.219 6.008-1.828 9.813-1.828 4.187 0 7.719.594 10.594 1.781 2.882 1.18 5.187 2.945 6.906 5.297l-3.188 4.297h-.953c-1.605-1.945-3.496-3.379-5.672-4.297-2.18-.914-4.742-1.375-7.687-1.375-3.856 0-6.766.75-8.734 2.25-1.97 1.5-2.954 3.57-2.954 6.203 0 2.512.723 4.512 2.172 6 1.446 1.48 3.883 2.625 7.313 3.438l6.656 1.593c5.406 1.274 9.316 3.22 11.734 5.844 2.426 2.625 3.641 5.98 3.641 10.063 0 3.148-.703 5.933-2.11 8.36-1.406 2.429-3.546 4.335-6.421 5.718-2.867 1.375-6.39 2.062-10.578 2.062zM108.627 530.068h-6.547v-55.64h6.547zM167.154 530.068h-7l-5.14-15.265H131.31l-5.172 15.265h-6.859l19.406-55.64h9.063zm-24.469-48.906-9.547 28.172h20.016l-9.516-28.172zM183.829 530.068h-6.063v-55.64h9.703l16.86 47.11h.796l16.86-47.11h9.375v55.64h-6.203v-45.406l-.953-.14-16.454 45.546h-6.5l-16.484-45.546-.937.14zM270.31 530.865c-4.812 0-9.101-1.035-12.86-3.11-3.75-2.081-6.702-5.257-8.858-9.53-2.157-4.282-3.235-9.602-3.235-15.97 0-6.374 1.078-11.694 3.235-15.968 2.156-4.27 5.109-7.445 8.859-9.531 3.758-2.082 8.047-3.125 12.86-3.125 4.82 0 9.109 1.043 12.859 3.125 3.757 2.086 6.718 5.262 8.875 9.531 2.156 4.274 3.234 9.594 3.234 15.969 0 6.367-1.078 11.687-3.234 15.969-2.157 4.273-5.118 7.449-8.875 9.53-3.75 2.075-8.04 3.11-12.86 3.11zm0-6.047c5.79 0 10.235-1.804 13.328-5.421 3.094-3.614 4.641-9.329 4.641-17.141 0-7.82-1.547-13.54-4.64-17.156-3.094-3.614-7.54-5.422-13.329-5.422-11.968 0-17.953 7.527-17.953 22.578 0 15.043 5.985 22.562 17.953 22.562zM334.886 530.068h-6.547v-55.64h6.547zM358.132 530.068h-6.39v-55.64h8.03l27.141 42.515.953-.156v-42.36h6.344v55.641h-6.844L359.085 484.6l-.953.14zM471.839 530.068h-7l-5.14-15.265h-23.704l-5.172 15.265h-6.859l19.406-55.64h9.063zm-24.469-48.906-9.547 28.172h20.016l-9.516-28.172zm0 0"/><g><path d="M512.52 474.428v5.562h-17.438v50.078h-6.5V479.99H471.16v-5.562zM557.954 474.428v5.562h-17.437v50.078h-6.5V479.99h-17.422v-5.562zM574.92 503.85v20.812h28.36v5.406h-34.907v-55.64h34.297v5.406h-27.75v18.61h24.469v5.406zM631.274 530.865c-3.5 0-6.64-.476-9.422-1.422-2.773-.957-5.086-2.207-6.937-3.75-1.856-1.55-3.235-3.25-4.141-5.093l3.563-4.344h.953c3.457 5.812 8.785 8.719 15.984 8.719 4.188 0 7.3-.875 9.344-2.625 2.039-1.75 3.062-4.188 3.062-7.313 0-1.82-.34-3.367-1.015-4.64-.668-1.27-1.778-2.352-3.328-3.25-1.543-.907-3.649-1.688-6.313-2.344l-6.5-1.594c-4.844-1.176-8.418-3.035-10.719-5.578-2.293-2.55-3.437-5.781-3.437-9.688 0-2.77.707-5.238 2.125-7.406 1.426-2.164 3.508-3.86 6.25-5.078 2.738-1.219 6.008-1.828 9.812-1.828 4.188 0 7.719.594 10.594 1.781 2.883 1.18 5.188 2.945 6.906 5.297l-3.187 4.297h-.953c-1.606-1.945-3.496-3.379-5.672-4.297-2.18-.914-4.742-1.375-7.688-1.375-3.855 0-6.765.75-8.734 2.25-1.969 1.5-2.953 3.57-2.953 6.203 0 2.512.722 4.512 2.172 6 1.445 1.48 3.882 2.625 7.312 3.438l6.656 1.593c5.407 1.274 9.317 3.22 11.735 5.844 2.426 2.625 3.64 5.98 3.64 10.063 0 3.148-.703 5.933-2.109 8.36-1.406 2.429-3.547 4.335-6.422 5.718-2.867 1.375-6.39 2.062-10.578 2.062zM704.72 530.068h-7l-5.141-15.265h-23.704l-5.171 15.265h-6.86l19.406-55.64h9.063zm-24.47-48.906-9.546 28.172h20.015l-9.515-28.172zM756.777 530.865c-4.875 0-9.215-1.113-13.015-3.343-3.805-2.239-6.782-5.504-8.938-9.797-2.156-4.301-3.234-9.457-3.234-15.47 0-6.019 1.078-11.175 3.234-15.468 2.156-4.3 5.133-7.566 8.938-9.797 3.8-2.238 8.14-3.36 13.015-3.36 5.196 0 9.52.985 12.969 2.954 3.457 1.969 5.945 4.934 7.469 8.89l-4.188 2.766h-.953c-1.523-3.164-3.5-5.414-5.937-6.75-2.438-1.332-5.559-2-9.36-2-3.5 0-6.61.782-9.328 2.344-2.71 1.563-4.867 4.04-6.469 7.422-1.593 3.387-2.39 7.719-2.39 13 0 5.273.797 9.594 2.39 12.969 1.602 3.375 3.758 5.843 6.47 7.406 2.718 1.562 5.827 2.344 9.327 2.344 4.031 0 7.328-.907 9.89-2.72 2.563-1.82 4.462-4.757 5.704-8.812h.953l4.375 2.157c-1.312 4.93-3.758 8.703-7.328 11.328-3.563 2.625-8.094 3.937-13.594 3.937zM824.47 497.006v-22.578h6.515v55.64h-6.516v-27.515h-28.922v27.515h-6.546v-55.64h6.546v22.578zM854.376 503.85v20.812h28.36v5.406h-34.907v-55.64h34.297v5.406h-27.75v18.61h24.469v5.406zM936.27 530.865c-4.875 0-9.215-1.113-13.016-3.343-3.804-2.239-6.78-5.504-8.937-9.797-2.156-4.301-3.234-9.457-3.234-15.47 0-6.019 1.078-11.175 3.234-15.468 2.156-4.3 5.133-7.566 8.937-9.797 3.801-2.238 8.141-3.36 13.016-3.36 5.195 0 9.52.985 12.969 2.954 3.457 1.969 5.945 4.934 7.469 8.89l-4.188 2.766h-.953c-1.524-3.164-3.5-5.414-5.938-6.75-2.437-1.332-5.558-2-9.359-2-3.5 0-6.61.782-9.328 2.344-2.711 1.563-4.867 4.04-6.469 7.422-1.594 3.387-2.39 7.719-2.39 13 0 5.273.796 9.594 2.39 12.969 1.602 3.375 3.758 5.843 6.469 7.406 2.719 1.562 5.828 2.344 9.328 2.344 4.031 0 7.328-.907 9.89-2.72 2.563-1.82 4.462-4.757 5.704-8.812h.953l4.375 2.157c-1.313 4.93-3.758 8.703-7.328 11.328-3.563 2.625-8.094 3.937-13.594 3.937zM975.04 530.068h-6.547v-55.64h6.547zm0 0"/></g><g><path d="M14.777 638.722H8.714v-55.64h9.703l16.86 47.11h.797l16.859-47.11h9.375v55.64h-6.203v-45.406l-.953-.14-16.453 45.546h-6.5l-16.485-45.546-.937.14zM120.82 638.722h-7l-5.14-15.265H84.977l-5.172 15.265h-6.86l19.407-55.64h9.063zm-24.468-48.906-9.547 28.172h20.016l-9.516-28.172zM137.824 638.722h-6.391v-55.64h8.031l27.14 42.515.954-.156v-42.36h6.344v55.641h-6.844l-28.281-45.468-.953.14zM208.757 583.082c5.632 0 10.472 1.012 14.515 3.031 4.05 2.012 7.172 5.086 9.36 9.219 2.195 4.137 3.296 9.328 3.296 15.578 0 6.242-1.101 11.43-3.296 15.562-2.188 4.137-5.31 7.215-9.36 9.235-4.043 2.012-8.883 3.015-14.515 3.015h-18v-55.64zm-.641 50.078c4.644 0 8.488-.719 11.531-2.156 3.04-1.446 5.348-3.805 6.922-7.078 1.57-3.282 2.36-7.618 2.36-13.016 0-5.438-.79-9.785-2.36-13.047-1.574-3.258-3.883-5.61-6.922-7.047-3.043-1.445-6.887-2.172-11.531-2.172h-10.813v44.516zM256.437 638.722h-6.547v-55.64h6.547zM279.683 638.722h-6.391v-55.64h8.031l27.14 42.515.954-.156v-42.36h6.344v55.641h-6.844l-28.281-45.468-.953.14zM354.725 639.52c-4.813 0-9.102-1.036-12.86-3.11-3.75-2.082-6.703-5.258-8.859-9.531-2.156-4.282-3.234-9.602-3.234-15.97 0-6.374 1.078-11.694 3.234-15.968 2.156-4.27 5.11-7.445 8.86-9.531 3.757-2.082 8.046-3.125 12.859-3.125 4.82 0 9.11 1.043 12.86 3.125 3.757 2.086 6.718 5.262 8.874 9.531 2.157 4.274 3.235 9.594 3.235 15.969 0 6.367-1.078 11.687-3.235 15.969-2.156 4.273-5.117 7.449-8.875 9.53-3.75 2.075-8.039 3.11-12.859 3.11zm0-6.048c5.789 0 10.234-1.804 13.328-5.421 3.094-3.614 4.64-9.329 4.64-17.141 0-7.82-1.546-13.54-4.64-17.156-3.094-3.614-7.539-5.422-13.328-5.422-11.969 0-17.953 7.527-17.953 22.578 0 15.043 5.984 22.562 17.953 22.562zM419.3 583.082v50.234h26.798v5.406h-33.344v-55.64zM463.403 612.504v20.812h28.36v5.406h-34.907v-55.64h34.297v5.406h-27.75v18.61h24.469v5.406zM542.86 583.082c3.832 0 7.117.687 9.859 2.062 2.738 1.368 4.82 3.325 6.25 5.875 1.437 2.555 2.156 5.555 2.156 9 0 3.45-.719 6.446-2.156 8.985-1.43 2.53-3.512 4.492-6.25 5.875-2.742 1.386-6.027 2.078-9.86 2.078H529.5v21.765h-6.547v-55.64zm-.188 28.281c7.738 0 11.61-3.781 11.61-11.344 0-7.582-3.872-11.375-11.61-11.375H529.5v22.72zM580.224 583.082v50.234h26.797v5.406h-33.344v-55.64zM659.452 638.722h-7l-5.141-15.265h-23.703l-5.172 15.265h-6.86l19.407-55.64h9.062zm-24.47-48.906-9.546 28.172h20.016l-9.516-28.172zM676.454 638.722h-6.39v-55.64h8.03l27.141 42.515.954-.156v-42.36h6.343v55.641h-6.843l-28.282-45.468-.953.14zM735.934 638.722h-6.547v-55.64h6.547zM758.852 638.722h-6.063v-55.64h9.703l16.86 47.11h.797l16.86-47.11h9.374v55.64h-6.203v-45.406l-.953-.14-16.453 45.546h-6.5l-16.485-45.546-.937.14zM829.771 612.504v20.812h28.36v5.406h-34.907v-55.64h34.297v5.406h-27.75v18.61h24.469v5.406zM905.234 583.082v5.562h-17.437v50.078h-6.5v-50.078h-17.422v-5.562zM915.653 638.722v-55.64h20.219c3.727 0 6.86.617 9.39 1.844 2.54 1.23 4.442 2.968 5.704 5.218 1.27 2.25 1.906 4.907 1.906 7.97 0 3.46-.867 6.312-2.594 8.562-1.718 2.242-4.406 3.918-8.062 5.03v.798c1.8.71 3.27 1.824 4.406 3.343 1.145 1.524 2.203 3.793 3.172 6.813l5.14 16.062H948.2l-5.562-17.015c-.657-2-1.418-3.567-2.282-4.703a7.403 7.403 0 0 0-3.28-2.485c-1.313-.507-2.985-.765-5.016-.765h-9.86v24.968zm20.063-30.515c3.469 0 6.05-.805 7.75-2.422 1.707-1.613 2.562-4.066 2.562-7.36 0-3.3-.855-5.753-2.562-7.359-1.7-1.613-4.281-2.422-7.75-2.422H922.2v19.563zM973.723 638.722h-6.547v-55.64h6.547zM997.125 612.504v20.812h28.36v5.406h-34.907v-55.64h34.297v5.406h-27.75v18.61h24.469v5.406zm0 0"/></g><g><g clip-path="url(#c)" transform="translate(112 694)"><path d="M13.928 44.199c-1.835 0-3.48-.25-4.937-.75-1.45-.5-2.664-1.149-3.64-1.953-.97-.813-1.696-1.703-2.173-2.672l1.875-2.281h.5c1.813 3.043 4.602 4.562 8.375 4.562 2.188 0 3.813-.457 4.875-1.375 1.07-.914 1.61-2.191 1.61-3.828 0-.945-.18-1.754-.531-2.422-.344-.664-.922-1.234-1.735-1.703-.812-.469-1.918-.879-3.312-1.234l-3.407-.828c-2.53-.614-4.402-1.586-5.609-2.922-1.2-1.332-1.797-3.02-1.797-5.063 0-1.445.367-2.738 1.11-3.875.75-1.133 1.836-2.02 3.265-2.656 1.438-.645 3.149-.969 5.14-.969 2.196 0 4.048.313 5.548.938 1.508.617 2.718 1.539 3.625 2.765L21.038 20.2h-.5c-.836-1.031-1.824-1.781-2.969-2.25-1.148-.477-2.492-.719-4.031-.719-2.012 0-3.531.39-4.563 1.172-1.03.781-1.547 1.867-1.547 3.25 0 1.313.375 2.36 1.125 3.14.758.774 2.036 1.372 3.829 1.798l3.5.828c2.82.668 4.867 1.687 6.14 3.062 1.27 1.375 1.906 3.133 1.906 5.266 0 1.648-.37 3.105-1.109 4.375-.742 1.273-1.86 2.273-3.36 3-1.5.719-3.343 1.078-5.53 1.078zM33.978 30.058v10.89h14.844v2.829H30.556V14.652h17.938v2.828H33.978v9.75H46.79v2.828zM73.48 44.199c-1.836 0-3.48-.25-4.938-.75-1.45-.5-2.664-1.149-3.64-1.953-.97-.813-1.696-1.703-2.172-2.672l1.875-2.281h.5c1.812 3.043 4.601 4.562 8.375 4.562 2.187 0 3.812-.457 4.875-1.375 1.07-.914 1.609-2.191 1.609-3.828 0-.945-.18-1.754-.531-2.422-.344-.664-.922-1.234-1.735-1.703-.812-.469-1.918-.879-3.312-1.234l-3.406-.828c-2.532-.614-4.403-1.586-5.61-2.922-1.2-1.332-1.797-3.02-1.797-5.063 0-1.445.367-2.738 1.11-3.875.75-1.133 1.836-2.02 3.265-2.656 1.438-.645 3.149-.969 5.14-.969 2.196 0 4.048.313 5.548.938 1.508.617 2.719 1.539 3.625 2.765L80.589 20.2h-.5c-.836-1.031-1.824-1.781-2.969-2.25-1.148-.477-2.492-.719-4.031-.719-2.012 0-3.531.39-4.563 1.172-1.03.781-1.546 1.867-1.546 3.25 0 1.313.375 2.36 1.125 3.14.757.774 2.035 1.372 3.828 1.798l3.5.828c2.82.668 4.867 1.687 6.14 3.062 1.27 1.375 1.907 3.133 1.907 5.266 0 1.648-.372 3.105-1.11 4.375-.742 1.273-1.86 2.273-3.36 3-1.5.719-3.343 1.078-5.53 1.078zM93.529 43.777h-3.422V14.652h3.422zM105.778 30.058v10.89h14.844v2.829h-18.266V14.652h17.937v2.828h-14.515v9.75h12.812v2.828zM145.281 14.652v2.906h-9.125v26.219h-3.406V17.558h-9.125v-2.906zM154.156 30.058v10.89h14.843v2.829h-18.265V14.652h17.937v2.828h-14.515v9.75h12.812v2.828zM202.438 14.652v2.828h-13.687v10.594h12.312v2.86h-12.312v12.843h-3.422V14.652zM211.834 43.777h-3.421V14.652h3.421zM224.005 43.777h-3.344V14.652h4.203l14.204 22.25.5-.078V14.652h3.328v29.125h-3.594l-14.797-23.812-.5.093zM255.133 43.777h-3.421V14.652h3.421zM282.288 14.652v2.906h-9.125v26.219h-3.406V17.558h-9.125v-2.906zM291.163 43.777h-3.422V14.652h3.422zM329.004 50.574c-2.418 0-4.434-.559-6.047-1.672-1.618-1.117-2.746-2.727-3.39-4.828-2.188-.281-4.11-1.004-5.767-2.172-1.656-1.164-2.96-2.812-3.906-4.937-.937-2.133-1.406-4.72-1.406-7.75 0-3.333.562-6.118 1.687-8.36 1.133-2.238 2.68-3.898 4.641-4.984 1.969-1.094 4.211-1.64 6.734-1.64 2.532 0 4.774.546 6.735 1.64 1.969 1.086 3.515 2.746 4.64 4.984 1.133 2.242 1.704 5.027 1.704 8.36 0 4.554-1.032 8.027-3.094 10.421-2.055 2.387-4.867 3.793-8.438 4.22l-.125.421a4.941 4.941 0 0 0 2.313 2.484c1.07.563 2.328.844 3.765.844a7.22 7.22 0 0 0 2.047-.281l.407.078.5 2.656c-.805.344-1.805.516-3 .516zm-7.454-9.547c3.032 0 5.352-.941 6.97-2.828 1.624-1.895 2.437-4.89 2.437-8.984s-.813-7.083-2.438-8.97c-1.617-1.894-3.937-2.843-6.969-2.843-6.261 0-9.39 3.938-9.39 11.813s3.129 11.812 9.39 11.812zM352.544 44.199c-3.574 0-6.278-.906-8.11-2.719-1.836-1.812-2.75-4.5-2.75-8.062V14.652h3.407v18.734c0 2.543.613 4.454 1.843 5.735 1.227 1.273 3.098 1.906 5.61 1.906 4.969 0 7.453-2.547 7.453-7.64V14.651h3.406v18.766c0 3.562-.918 6.25-2.75 8.062-1.836 1.813-4.539 2.719-8.11 2.719zM375.37 43.777h-3.421V14.652h3.422zM402.524 44.199c-1.836 0-3.48-.25-4.937-.75-1.45-.5-2.665-1.149-3.641-1.953-.969-.813-1.695-1.703-2.172-2.672l1.875-2.281h.5c1.813 3.043 4.602 4.562 8.375 4.562 2.188 0 3.813-.457 4.875-1.375 1.07-.914 1.61-2.191 1.61-3.828 0-.945-.18-1.754-.532-2.422-.344-.664-.922-1.234-1.734-1.703-.813-.469-1.918-.879-3.313-1.234l-3.406-.828c-2.531-.614-4.402-1.586-5.61-2.922-1.199-1.332-1.796-3.02-1.796-5.063 0-1.445.367-2.738 1.11-3.875.75-1.133 1.835-2.02 3.265-2.656 1.437-.645 3.148-.969 5.14-.969 2.196 0 4.047.313 5.547.938 1.508.617 2.719 1.539 3.625 2.765l-1.672 2.266h-.5c-.836-1.031-1.824-1.781-2.968-2.25-1.149-.477-2.493-.719-4.032-.719-2.011 0-3.53.39-4.562 1.172-1.031.781-1.547 1.867-1.547 3.25 0 1.313.375 2.36 1.125 3.14.758.774 2.035 1.372 3.828 1.798l3.5.828c2.82.668 4.867 1.687 6.14 3.062 1.27 1.375 1.907 3.133 1.907 5.266 0 1.648-.371 3.105-1.11 4.375-.742 1.273-1.859 2.273-3.359 3-1.5.719-3.343 1.078-5.531 1.078zM440.964 43.777h-3.672l-2.687-7.984h-12.407l-2.718 7.984h-3.578l10.156-29.125h4.75zm-12.812-25.594-5 14.735h10.484l-4.984-14.735zM446.517 43.777V14.652h10.578c1.946 0 3.582.324 4.907.969 1.332.648 2.332 1.558 3 2.734.664 1.168 1 2.559 1 4.172 0 1.805-.454 3.293-1.36 4.469-.906 1.18-2.312 2.058-4.219 2.64v.422c.938.367 1.704.95 2.297 1.75.602.793 1.157 1.98 1.657 3.563l2.687 8.406h-3.516l-2.906-8.906c-.344-1.051-.746-1.875-1.203-2.469a3.784 3.784 0 0 0-1.719-1.281c-.687-.27-1.562-.406-2.625-.406h-5.156v13.062zm10.5-15.969c1.813 0 3.16-.422 4.047-1.265.895-.844 1.344-2.13 1.344-3.86 0-1.726-.45-3.015-1.344-3.86-.887-.843-2.234-1.265-4.047-1.265h-7.078v10.25zM495.297 43.777h-3.672l-2.687-7.984H476.53l-2.718 7.984h-3.579l10.157-29.125h4.75zm-12.813-25.594-5 14.735h10.485l-4.985-14.735zm1.688-5.625h-2.594l-4.89-5.156V6.98h4.156l3.328 5.156zM521.27 14.652c2 0 3.711.36 5.14 1.078 1.438.719 2.532 1.746 3.282 3.078.75 1.336 1.125 2.903 1.125 4.703 0 1.813-.375 3.387-1.125 4.72-.75 1.323-1.844 2.35-3.281 3.077-1.43.719-3.14 1.078-5.14 1.078h-7v11.391h-3.423V14.652zm-.11 14.797c4.052 0 6.079-1.977 6.079-5.938 0-3.968-2.027-5.953-6.078-5.953h-6.89v11.89zM540.82 30.058v10.89h14.843v2.829h-18.266V14.652h17.938v2.828h-14.516v9.75h12.813v2.828zM561.994 43.777V14.652h10.579c1.945 0 3.582.324 4.906.969 1.332.648 2.332 1.558 3 2.734.664 1.168 1 2.559 1 4.172 0 1.805-.453 3.293-1.36 4.469-.906 1.18-2.312 2.058-4.218 2.64v.422c.937.367 1.703.95 2.297 1.75.601.793 1.156 1.98 1.656 3.563l2.687 8.406h-3.515l-2.907-8.906c-.343-1.051-.746-1.875-1.203-2.469a3.784 3.784 0 0 0-1.718-1.281c-.688-.27-1.563-.406-2.625-.406h-5.157v13.062zm10.5-15.969c1.813 0 3.16-.422 4.047-1.265.895-.844 1.344-2.13 1.344-3.86 0-1.726-.45-3.015-1.344-3.86-.886-.843-2.234-1.265-4.047-1.265h-7.078v10.25zM600.65 44.199c-2.555 0-4.825-.582-6.813-1.75-1.992-1.176-3.555-2.89-4.688-5.14-1.125-2.25-1.687-4.946-1.687-8.094 0-3.145.562-5.844 1.687-8.094 1.133-2.25 2.696-3.957 4.688-5.125 1.988-1.176 4.258-1.766 6.812-1.766 2.719 0 4.977.516 6.781 1.547 1.813 1.031 3.118 2.586 3.922 4.656l-2.187 1.453h-.5c-.805-1.656-1.844-2.832-3.125-3.53-1.274-.696-2.902-1.048-4.89-1.048-1.837 0-3.466.407-4.891 1.219-1.418.813-2.543 2.11-3.375 3.89-.836 1.774-1.25 4.04-1.25 6.798 0 2.761.414 5.027 1.25 6.796.832 1.762 1.957 3.055 3.375 3.875 1.425.813 3.054 1.22 4.89 1.22 2.114 0 3.836-.474 5.172-1.423 1.344-.945 2.344-2.484 3-4.61h.5l2.281 1.142c-.687 2.574-1.964 4.546-3.828 5.921-1.867 1.375-4.242 2.063-7.125 2.063zM636.085 26.465V14.652h3.406v29.125h-3.406V29.371h-15.14v14.406h-3.423V14.652h3.422v11.813zM651.736 30.058v10.89h14.843v2.829h-18.265V14.652h17.937v2.828h-14.515v9.75h12.812v2.828zm7.03-17.5h-2.577v-.422l3.328-5.156h4.156v.422zM704.722 43.777h-3.672l-2.688-7.984h-12.406l-2.719 7.984h-3.578l10.156-29.125h4.75zm-12.813-25.594-5 14.735h10.484l-4.984-14.735zm0 0"/><g><path d="M719.975 43.777h-4.5l-10.11-29.125h3.657l8.547 24.844h.484l8.453-24.844h3.578zM739.15 30.058v10.89h14.844v2.829h-18.266V14.652h17.938v2.828H739.15v9.75h12.813v2.828zM778.654 14.652v2.906h-9.125v26.219h-3.407V17.558h-9.125v-2.906zM787.528 30.058v10.89h14.844v2.829h-18.266V14.652h17.938v2.828h-14.516v9.75h12.812v2.828zm0 0"/></g><g><path d="M159.316 101.069c-2.555 0-4.825-.582-6.813-1.75-1.992-1.176-3.555-2.89-4.687-5.14-1.125-2.25-1.688-4.946-1.688-8.095 0-3.144.563-5.843 1.688-8.093 1.132-2.25 2.695-3.957 4.687-5.125 1.988-1.176 4.258-1.766 6.813-1.766 2.718 0 4.976.516 6.78 1.547 1.813 1.031 3.118 2.586 3.923 4.656l-2.188 1.453h-.5c-.804-1.656-1.843-2.832-3.125-3.53-1.273-.696-2.902-1.048-4.89-1.048-1.836 0-3.465.406-4.891 1.219-1.418.812-2.543 2.11-3.375 3.89-.836 1.774-1.25 4.04-1.25 6.797 0 2.762.414 5.028 1.25 6.797.832 1.762 1.957 3.055 3.375 3.875 1.426.813 3.055 1.22 4.89 1.22 2.114 0 3.837-.474 5.173-1.423 1.343-.945 2.343-2.484 3-4.61h.5l2.28 1.141c-.687 2.575-1.964 4.547-3.827 5.922-1.868 1.375-4.243 2.063-7.125 2.063zM179.61 86.928v10.89h14.844v2.829H176.19V71.522h17.937v2.828h-14.515v9.75h12.812v2.828zM200.786 100.647V71.522h10.578c1.945 0 3.582.324 4.906.969 1.332.648 2.332 1.558 3 2.734.664 1.168 1 2.559 1 4.172 0 1.805-.453 3.293-1.359 4.469-.906 1.18-2.313 2.058-4.219 2.64v.422c.938.367 1.703.95 2.297 1.75.602.793 1.156 1.98 1.656 3.563l2.688 8.406h-3.516l-2.906-8.906c-.344-1.051-.746-1.875-1.203-2.469a3.784 3.784 0 0 0-1.719-1.281c-.687-.27-1.562-.407-2.625-.407h-5.156v13.063zm10.5-15.969c1.812 0 3.16-.422 4.047-1.265.894-.844 1.344-2.13 1.344-3.86 0-1.726-.45-3.015-1.344-3.86-.887-.843-2.235-1.265-4.047-1.265h-7.078v10.25zM239.44 101.069c-2.554 0-4.823-.582-6.812-1.75-1.992-1.176-3.554-2.89-4.687-5.14-1.125-2.25-1.688-4.946-1.688-8.095 0-3.144.563-5.843 1.688-8.093 1.133-2.25 2.695-3.957 4.687-5.125 1.989-1.176 4.258-1.766 6.813-1.766 2.718 0 4.976.516 6.781 1.547 1.812 1.031 3.117 2.586 3.922 4.656l-2.188 1.453h-.5c-.804-1.656-1.843-2.832-3.125-3.53-1.273-.696-2.902-1.048-4.89-1.048-1.836 0-3.465.406-4.89 1.219-1.419.812-2.544 2.11-3.376 3.89-.836 1.774-1.25 4.04-1.25 6.797 0 2.762.414 5.028 1.25 6.797.832 1.762 1.957 3.055 3.375 3.875 1.426.813 3.055 1.22 4.89 1.22 2.114 0 3.837-.474 5.173-1.423 1.343-.945 2.343-2.484 3-4.61h.5l2.28 1.141c-.687 2.575-1.964 4.547-3.827 5.922-1.867 1.375-4.242 2.063-7.125 2.063zM278.126 100.647h-3.672l-2.687-7.984h-12.406l-2.719 7.984h-3.578l10.156-29.125h4.75zm-12.812-25.594-5 14.735h10.484l-4.984-14.735zm0 0"/></g><g><path d="M299.418 71.522v2.906h-9.125v26.219h-3.406V74.428h-9.125v-2.906zm0 0"/></g><g><path d="M315.517 101.069c-2.523 0-4.765-.54-6.734-1.625-1.961-1.094-3.508-2.758-4.64-5-1.126-2.238-1.688-5.024-1.688-8.36 0-3.332.562-6.117 1.687-8.359 1.133-2.238 2.68-3.898 4.64-4.984 1.97-1.094 4.212-1.64 6.735-1.64 2.531 0 4.774.546 6.735 1.64 1.968 1.086 3.515 2.746 4.64 4.984 1.133 2.242 1.703 5.027 1.703 8.36 0 3.335-.57 6.12-1.703 8.359-1.125 2.242-2.672 3.906-4.64 5-1.961 1.086-4.204 1.625-6.735 1.625zm0-3.172c3.031 0 5.352-.941 6.969-2.828 1.625-1.895 2.437-4.89 2.437-8.985 0-4.093-.812-7.082-2.437-8.968-1.617-1.895-3.938-2.844-6.969-2.844-6.262 0-9.39 3.937-9.39 11.812s3.128 11.813 9.39 11.813zM364.915 107.444c-2.418 0-4.434-.559-6.047-1.672-1.617-1.117-2.746-2.727-3.39-4.828-2.188-.281-4.11-1.004-5.766-2.172-1.656-1.164-2.961-2.813-3.906-4.938-.938-2.132-1.407-4.718-1.407-7.75 0-3.332.563-6.117 1.688-8.359 1.133-2.238 2.68-3.898 4.64-4.984 1.97-1.094 4.211-1.64 6.735-1.64 2.531 0 4.773.546 6.734 1.64 1.969 1.086 3.516 2.746 4.64 4.984 1.134 2.242 1.704 5.027 1.704 8.36 0 4.554-1.031 8.027-3.094 10.421-2.054 2.387-4.867 3.793-8.437 4.22l-.125.421a4.941 4.941 0 0 0 2.312 2.484c1.07.563 2.328.844 3.766.844a7.22 7.22 0 0 0 2.047-.281l.406.078.5 2.656c-.805.344-1.805.516-3 .516zm-7.453-9.547c3.031 0 5.351-.941 6.969-2.828 1.625-1.895 2.437-4.89 2.437-8.985 0-4.093-.812-7.082-2.437-8.968-1.618-1.895-3.938-2.844-6.97-2.844-6.26 0-9.39 3.937-9.39 11.812s3.13 11.813 9.39 11.813zM388.455 101.069c-3.574 0-6.277-.906-8.11-2.719-1.835-1.812-2.75-4.5-2.75-8.062V71.522h3.407v18.734c0 2.543.613 4.453 1.844 5.735 1.226 1.273 3.097 1.906 5.61 1.906 4.968 0 7.452-2.547 7.452-7.64V71.521h3.407v18.766c0 3.562-.918 6.25-2.75 8.062-1.836 1.813-4.54 2.719-8.11 2.719zm0 0"/></g><g><path d="M428.836 100.647h-3.672l-2.687-7.984h-12.406l-2.719 7.984h-3.578l10.156-29.125h4.75zm-12.812-25.594-5 14.735h10.484l-4.984-14.735zM437.811 71.522v26.297h14.032v2.828h-17.454V71.522zm0 0"/></g><g><path d="M468.165 101.069c-2.555 0-4.825-.582-6.813-1.75-1.992-1.176-3.555-2.89-4.687-5.14-1.125-2.25-1.688-4.946-1.688-8.095 0-3.144.563-5.843 1.688-8.093 1.132-2.25 2.695-3.957 4.687-5.125 1.988-1.176 4.258-1.766 6.813-1.766 2.718 0 4.976.516 6.78 1.547 1.813 1.031 3.118 2.586 3.923 4.656l-2.188 1.453h-.5c-.804-1.656-1.844-2.832-3.125-3.53-1.273-.696-2.902-1.048-4.89-1.048-1.836 0-3.465.406-4.891 1.219-1.418.812-2.543 2.11-3.375 3.89-.836 1.774-1.25 4.04-1.25 6.797 0 2.762.414 5.028 1.25 6.797.832 1.762 1.957 3.055 3.375 3.875 1.426.813 3.055 1.22 4.89 1.22 2.114 0 3.837-.474 5.172-1.423 1.344-.945 2.344-2.484 3-4.61h.5l2.282 1.141c-.688 2.575-1.965 4.547-3.828 5.922-1.868 1.375-4.243 2.063-7.125 2.063zM495.647 101.069c-3.574 0-6.277-.906-8.11-2.719-1.835-1.812-2.75-4.5-2.75-8.062V71.522h3.407v18.734c0 2.543.613 4.453 1.844 5.735 1.226 1.273 3.097 1.906 5.61 1.906 4.968 0 7.452-2.547 7.452-7.64V71.521h3.406v18.766c0 3.562-.918 6.25-2.75 8.062-1.835 1.813-4.539 2.719-8.109 2.719zM518.396 100.647h-3.344V71.522h4.203l14.203 22.25.5-.078V71.522h3.329v29.125h-3.594l-14.797-23.813-.5.094zM557.665 101.069c-2.523 0-4.766-.54-6.734-1.625-1.961-1.094-3.508-2.758-4.641-5-1.125-2.238-1.688-5.024-1.688-8.36 0-3.332.563-6.117 1.688-8.359 1.133-2.238 2.68-3.898 4.64-4.984 1.97-1.094 4.212-1.64 6.735-1.64 2.531 0 4.773.546 6.734 1.64 1.97 1.086 3.516 2.746 4.64 4.984 1.134 2.242 1.704 5.027 1.704 8.36 0 3.335-.57 6.12-1.703 8.359-1.125 2.242-2.672 3.906-4.64 5-1.962 1.086-4.204 1.625-6.735 1.625zm0-3.172c3.031 0 5.352-.941 6.969-2.828 1.625-1.895 2.437-4.89 2.437-8.985 0-4.093-.812-7.082-2.437-8.968-1.617-1.895-3.938-2.844-6.97-2.844-6.26 0-9.39 3.937-9.39 11.812s3.13 11.813 9.39 11.813zM597.469 71.522c2.945 0 5.477.531 7.594 1.594 2.125 1.054 3.758 2.664 4.906 4.828 1.145 2.156 1.719 4.87 1.719 8.14 0 3.274-.574 5.993-1.719 8.157-1.148 2.156-2.781 3.765-4.906 4.828-2.117 1.055-4.649 1.578-7.594 1.578h-9.422V71.522zm-.344 26.219c2.426 0 4.438-.375 6.031-1.125 1.594-.758 2.801-1.992 3.625-3.703.82-1.72 1.235-3.993 1.235-6.829 0-2.843-.414-5.113-1.235-6.812-.824-1.707-2.03-2.941-3.625-3.703-1.593-.758-3.605-1.14-6.03-1.14h-5.657V97.74zM622.42 86.928v10.89h14.843v2.829h-18.265V71.522h17.937v2.828H622.42v9.75h12.812v2.828zM647.017 71.522v26.297h14.031v2.828h-17.453V71.522zm0 0"/></g><g><path d="M100.536 128.392c2.945 0 5.476.531 7.593 1.594 2.125 1.054 3.758 2.664 4.907 4.828 1.144 2.156 1.718 4.87 1.718 8.14 0 3.274-.574 5.993-1.718 8.157-1.149 2.156-2.782 3.765-4.907 4.828-2.117 1.054-4.648 1.578-7.593 1.578h-9.422v-29.125zm-.344 26.219c2.426 0 4.437-.375 6.031-1.125 1.594-.758 2.8-1.993 3.625-3.703.82-1.72 1.234-3.993 1.234-6.829 0-2.843-.414-5.113-1.234-6.812-.824-1.707-2.031-2.941-3.625-3.703-1.594-.758-3.605-1.14-6.031-1.14h-5.656v23.312zM125.486 157.517h-3.422v-29.125h3.422zM144.735 128.392c2 0 3.71.36 5.14 1.078 1.438.719 2.532 1.746 3.282 3.078.75 1.336 1.125 2.903 1.125 4.703 0 1.813-.375 3.387-1.125 4.72-.75 1.323-1.844 2.35-3.281 3.077-1.43.719-3.141 1.078-5.141 1.078h-7v11.39h-3.422v-29.124zm-.11 14.797c4.051 0 6.079-1.977 6.079-5.938 0-3.968-2.028-5.953-6.078-5.953h-6.891v11.89zm0 0"/></g><g><path d="M180.842 157.517h-3.672l-2.687-7.984h-12.406l-2.72 7.984h-3.577l10.156-29.125h4.75zm-12.812-25.594-5 14.735h10.484l-4.984-14.735zM186.395 157.517v-29.125h10.578c1.946 0 3.582.324 4.907.969 1.332.648 2.332 1.558 3 2.734.664 1.168 1 2.559 1 4.172 0 1.805-.453 3.293-1.36 4.469-.906 1.18-2.312 2.058-4.218 2.64v.422c.937.367 1.703.95 2.296 1.75.602.793 1.157 1.98 1.657 3.563l2.687 8.406h-3.515l-2.907-8.906c-.343-1.051-.746-1.875-1.203-2.47a3.784 3.784 0 0 0-1.719-1.28c-.687-.27-1.562-.407-2.625-.407h-5.156v13.063zm10.5-15.969c1.813 0 3.16-.422 4.047-1.265.895-.844 1.344-2.13 1.344-3.86 0-1.726-.45-3.015-1.344-3.86-.887-.843-2.234-1.265-4.047-1.265h-7.078v10.25zm0 0"/></g><g><path d="M231.352 128.392v2.906h-9.125v26.219h-3.406v-26.219h-9.125v-2.906zM240.226 157.517h-3.421v-29.125h3.421zM252.21 157.517h-3.157v-29.125h5.079l8.828 24.656h.406l8.828-24.656h4.906v29.125h-3.25V133.75l-.5-.078-8.61 23.844h-3.405l-8.625-23.844-.5.078zM289.341 143.798v10.89h14.844v2.829h-18.266v-29.125h17.938v2.828H289.34v9.75h12.813v2.828zM313.86 157.517h-3.344v-29.125h4.204l14.203 22.25.5-.078v-22.172h3.328v29.125h-3.594l-14.797-23.813-.5.094zM359.895 128.392v2.906h-9.125v26.219h-3.406v-26.219h-9.125v-2.906zm0 0"/></g><g><path d="M375.994 157.939c-2.524 0-4.766-.54-6.735-1.625-1.96-1.094-3.508-2.758-4.64-5-1.125-2.238-1.688-5.024-1.688-8.36 0-3.332.563-6.117 1.688-8.359 1.132-2.238 2.68-3.898 4.64-4.984 1.969-1.094 4.211-1.64 6.735-1.64 2.53 0 4.773.546 6.734 1.64 1.969 1.086 3.516 2.746 4.64 4.984 1.133 2.242 1.704 5.027 1.704 8.36 0 3.335-.57 6.12-1.703 8.359-1.125 2.242-2.672 3.906-4.641 5-1.961 1.086-4.203 1.625-6.734 1.625zm0-3.172c3.03 0 5.351-.941 6.968-2.828 1.625-1.895 2.438-4.89 2.438-8.985 0-4.093-.813-7.082-2.438-8.968-1.617-1.895-3.937-2.844-6.968-2.844-6.262 0-9.391 3.937-9.391 11.812s3.129 11.813 9.39 11.813zM415.798 128.392c2.945 0 5.476.531 7.593 1.594 2.125 1.054 3.758 2.664 4.907 4.828 1.144 2.156 1.718 4.87 1.718 8.14 0 3.274-.574 5.993-1.718 8.157-1.149 2.156-2.782 3.765-4.907 4.828-2.117 1.054-4.648 1.578-7.593 1.578h-9.422v-29.125zm-.344 26.219c2.426 0 4.437-.375 6.031-1.125 1.594-.758 2.8-1.993 3.625-3.703.82-1.72 1.235-3.993 1.235-6.829 0-2.843-.415-5.113-1.235-6.812-.824-1.707-2.031-2.941-3.625-3.703-1.594-.758-3.605-1.14-6.031-1.14h-5.656v23.312zM440.748 157.517h-3.422v-29.125h3.422zM462.73 157.517h-3.157v-29.125h5.079l8.828 24.656h.406l8.828-24.656h4.906v29.125h-3.25V133.75l-.5-.078-8.61 23.844h-3.405l-8.625-23.844-.5.078zM518.252 157.517h-3.672l-2.688-7.984h-12.406l-2.719 7.984h-3.578l10.157-29.125h4.75zm-12.813-25.594-5 14.735h10.485l-4.985-14.735zm0 0"/></g><g><path d="M539.544 128.392v2.906h-9.125v26.219h-3.406v-26.219h-9.125v-2.906zM548.418 143.798v10.89h14.844v2.829h-18.266v-29.125h17.938v2.828h-14.516v9.75h12.813v2.828zM572.75 157.517h-3.157v-29.125h5.079l8.828 24.656h.406l8.828-24.656h4.906v29.125h-3.25V133.75l-.5-.078-8.609 23.844h-3.406l-8.625-23.844-.5.078zM628.272 157.517H624.6l-2.688-7.984h-12.406l-2.719 7.984h-3.578l10.157-29.125h4.75zm-12.813-25.594-5 14.735h10.485l-4.985-14.735zm0 0"/></g><g><path d="M649.564 128.392v2.906h-9.125v26.219h-3.406v-26.219h-9.125v-2.906zM658.438 157.517h-3.422v-29.125h3.422zM678.953 157.939c-2.555 0-4.825-.582-6.813-1.75-1.992-1.176-3.555-2.89-4.687-5.14-1.125-2.25-1.688-4.946-1.688-8.095 0-3.144.563-5.843 1.688-8.093 1.132-2.25 2.695-3.957 4.687-5.125 1.988-1.176 4.258-1.766 6.813-1.766 2.718 0 4.976.516 6.78 1.547 1.813 1.031 3.118 2.586 3.923 4.656l-2.188 1.453h-.5c-.804-1.656-1.843-2.832-3.125-3.53-1.273-.696-2.902-1.048-4.89-1.048-1.836 0-3.465.406-4.89 1.219-1.419.812-2.544 2.11-3.376 3.89-.836 1.774-1.25 4.04-1.25 6.797 0 2.762.414 5.028 1.25 6.797.832 1.762 1.957 3.055 3.375 3.875 1.426.813 3.055 1.22 4.89 1.22 2.114 0 3.837-.474 5.173-1.423 1.343-.945 2.343-2.484 3-4.61h.5l2.28 1.141c-.687 2.575-1.964 4.547-3.827 5.922-1.868 1.375-4.243 2.063-7.125 2.063zM717.638 157.517h-3.672l-2.687-7.984h-12.406l-2.72 7.984h-3.577l10.156-29.125h4.75zm-12.812-25.594-5 14.735h10.484l-4.984-14.735zm0 0"/></g></g></g><g><g clip-path="url(#d)" transform="translate(156 899)"><path d="M13.31 44.017c-1.836 0-3.48-.25-4.937-.75-1.45-.5-2.664-1.148-3.64-1.953-.97-.813-1.696-1.703-2.173-2.672l1.875-2.281h.5c1.813 3.043 4.602 4.562 8.375 4.562 2.188 0 3.813-.457 4.875-1.375 1.07-.914 1.61-2.191 1.61-3.828 0-.945-.18-1.754-.532-2.422-.343-.664-.922-1.234-1.734-1.703-.813-.469-1.918-.879-3.313-1.234l-3.406-.828c-2.531-.614-4.402-1.586-5.61-2.922-1.198-1.332-1.796-3.02-1.796-5.063 0-1.445.367-2.738 1.11-3.875.75-1.133 1.835-2.02 3.265-2.656 1.437-.644 3.148-.969 5.14-.969 2.196 0 4.047.313 5.547.938 1.508.617 2.72 1.539 3.625 2.765l-1.671 2.266h-.5c-.836-1.031-1.825-1.781-2.97-2.25-1.148-.477-2.491-.719-4.03-.719-2.012 0-3.532.39-4.563 1.172-1.031.781-1.547 1.867-1.547 3.25 0 1.313.375 2.36 1.125 3.14.758.774 2.035 1.372 3.828 1.798l3.5.828c2.82.668 4.868 1.687 6.141 3.062 1.27 1.375 1.906 3.133 1.906 5.266 0 1.648-.37 3.105-1.11 4.375-.741 1.273-1.859 2.273-3.359 3-1.5.719-3.343 1.078-5.53 1.078zM33.36 29.876v10.891h14.843v2.828H29.938V14.47h17.937v2.828H33.36v9.75h12.812v2.828zM72.861 44.017c-1.836 0-3.48-.25-4.937-.75-1.45-.5-2.664-1.148-3.64-1.953-.97-.813-1.696-1.703-2.173-2.672l1.875-2.281h.5c1.813 3.043 4.602 4.562 8.375 4.562 2.188 0 3.813-.457 4.875-1.375 1.07-.914 1.61-2.191 1.61-3.828 0-.945-.18-1.754-.532-2.422-.343-.664-.921-1.234-1.734-1.703-.812-.469-1.918-.879-3.312-1.234l-3.407-.828c-2.531-.614-4.402-1.586-5.61-2.922-1.198-1.332-1.796-3.02-1.796-5.063 0-1.445.367-2.738 1.11-3.875.75-1.133 1.835-2.02 3.265-2.656 1.438-.644 3.148-.969 5.14-.969 2.196 0 4.048.313 5.548.938 1.507.617 2.718 1.539 3.625 2.765l-1.672 2.266h-.5c-.836-1.031-1.825-1.781-2.97-2.25-1.148-.477-2.491-.719-4.03-.719-2.012 0-3.532.39-4.563 1.172-1.031.781-1.547 1.867-1.547 3.25 0 1.313.375 2.36 1.125 3.14.758.774 2.035 1.372 3.828 1.798l3.5.828c2.82.668 4.868 1.687 6.141 3.062 1.27 1.375 1.906 3.133 1.906 5.266 0 1.648-.37 3.105-1.11 4.375-.741 1.273-1.858 2.273-3.358 3-1.5.719-3.344 1.078-5.532 1.078zM92.91 43.595H89.49V14.47h3.422zm-.296-31.219H90.02L85.13 7.22v-.422h4.156l3.328 5.157zM98.581 49.673c1.157-.761 2.13-1.64 2.922-2.64.801-.993 1.219-2.086 1.25-3.282-.781 0-1.398-.207-1.844-.625-.449-.425-.671-.992-.671-1.703 0-.687.21-1.254.64-1.703.438-.445 1.016-.672 1.735-.672.78 0 1.41.278 1.89.828.489.543.735 1.399.735 2.563 0 2.07-.45 3.812-1.344 5.219-.887 1.414-2.2 2.71-3.938 3.89zM134.004 43.595h-4.5l-10.11-29.125h3.657l8.546 24.844h.485l8.453-24.844h3.578zM153.179 43.595h-3.422V14.47h3.422zM175.426 43.595h-3.422V14.47h3.422zM187.596 43.595h-3.343V14.47h4.203l14.203 22.25.5-.078V14.47h3.328v29.125h-3.594l-14.797-23.812-.5.093zM226.756 43.595h-4.5l-10.11-29.125h3.657l8.547 24.844h.484l8.453-24.844h3.578zM245.931 43.595h-3.422V14.47h3.422zM273.086 14.47v2.906h-9.125v26.22h-3.406v-26.22h-9.125V14.47zM281.96 43.595h-3.421V14.47h3.421zM312.6 43.595h-3.672l-2.688-7.984h-12.406l-2.719 7.984h-3.578l10.157-29.125h4.75zm-12.813-25.594-5 14.735h10.485L300.287 18zM321.31 43.595h-3.157V14.47h5.078l8.828 24.656h.406l8.829-24.656h4.906v29.125h-3.25V19.83l-.5-.079-8.61 23.844h-3.406l-8.625-23.844-.5.079zM366.581 44.017c-2.523 0-4.765-.539-6.734-1.625-1.961-1.094-3.508-2.758-4.64-5-1.126-2.238-1.688-5.023-1.688-8.36 0-3.331.562-6.117 1.687-8.359 1.133-2.238 2.68-3.898 4.641-4.984 1.969-1.094 4.21-1.64 6.734-1.64 2.532 0 4.774.546 6.735 1.64 1.968 1.086 3.515 2.746 4.64 4.984 1.133 2.242 1.703 5.028 1.703 8.36 0 3.336-.57 6.12-1.703 8.359-1.125 2.242-2.672 3.906-4.64 5-1.961 1.086-4.203 1.625-6.735 1.625zm0-3.172c3.032 0 5.352-.941 6.97-2.828 1.624-1.894 2.437-4.89 2.437-8.984s-.813-7.082-2.438-8.97c-1.617-1.894-3.937-2.843-6.969-2.843-6.261 0-9.39 3.938-9.39 11.813s3.129 11.812 9.39 11.812zM418.776 43.595h-3.672l-2.687-7.984H400.01l-2.718 7.984h-3.579L403.87 14.47h4.75zm-12.813-25.594-5 14.735h10.485L406.463 18zM444.937 44.017c-3.575 0-6.278-.906-8.11-2.719-1.836-1.812-2.75-4.5-2.75-8.062V14.47h3.407v18.735c0 2.543.613 4.453 1.843 5.734 1.227 1.273 3.098 1.906 5.61 1.906 4.968 0 7.453-2.547 7.453-7.64V14.47h3.406v18.766c0 3.562-.918 6.25-2.75 8.062-1.836 1.813-4.539 2.719-8.11 2.719zM482.67 14.47v2.906h-9.125v26.22h-3.406v-26.22h-9.125V14.47zM491.544 43.595h-3.422V14.47h3.422zM503.793 14.47v26.297h14.031v2.828h-17.453V14.47zM526.877 43.595h-3.422V14.47h3.422zM552.844 43.595h-19.969v-3.094l15.985-22.78-.125-.423h-15.266V14.47h19.266v3.063L536.75 40.345l.125.422h15.97zM575.967 43.595H556v-3.094l15.984-22.78-.125-.423h-15.266V14.47h19.266v3.063l-15.984 22.812.125.422h15.968zM603.763 43.595h-3.672l-2.688-7.984h-12.406l-2.719 7.984H578.7l10.156-29.125h4.75zM590.95 18.001l-5 14.735h10.485L591.45 18zM609.316 43.595V14.47h10.578c1.945 0 3.582.324 4.906.969 1.332.648 2.332 1.559 3 2.734.664 1.168 1 2.559 1 4.172 0 1.805-.453 3.293-1.36 4.469-.905 1.18-2.312 2.059-4.218 2.64v.422c.938.368 1.703.95 2.297 1.75.601.793 1.156 1.98 1.656 3.563l2.688 8.406h-3.516l-2.906-8.906c-.344-1.05-.746-1.875-1.203-2.469a3.784 3.784 0 0 0-1.72-1.281c-.687-.27-1.562-.406-2.624-.406h-5.156v13.062zm10.5-15.969c1.812 0 3.16-.421 4.047-1.265.894-.844 1.343-2.13 1.343-3.86 0-1.726-.449-3.015-1.343-3.859-.887-.844-2.235-1.266-4.047-1.266h-7.078v10.25zM639.705 29.876v10.891h14.844v2.828h-18.266V14.47h17.938v2.828h-14.516v9.75h12.812v2.828zM674.3 14.47v26.297h14.032v2.828h-17.454V14.47zM715.774 43.595h-3.671l-2.688-7.984H697.01l-2.719 7.984h-3.578l10.156-29.125h4.75zm-12.812-25.594-5 14.735h10.484L703.462 18zm0 0"/><g><path d="M30.129 71.34v26.297h14.03v2.828H26.708V71.34zm0 0"/></g><g><path d="M60.357 100.887c-2.524 0-4.766-.54-6.735-1.625-1.96-1.094-3.507-2.758-4.64-5-1.125-2.238-1.688-5.023-1.688-8.36 0-3.331.563-6.117 1.688-8.359 1.133-2.238 2.68-3.898 4.64-4.984 1.97-1.094 4.211-1.64 6.735-1.64 2.531 0 4.773.546 6.734 1.64 1.969 1.086 3.516 2.746 4.64 4.984 1.134 2.242 1.704 5.028 1.704 8.36 0 3.336-.57 6.12-1.703 8.359-1.125 2.242-2.672 3.906-4.64 5-1.962 1.086-4.204 1.625-6.735 1.625zm0-3.172c3.031 0 5.351-.941 6.969-2.828 1.625-1.895 2.437-4.89 2.437-8.984s-.812-7.082-2.437-8.97c-1.618-1.894-3.938-2.843-6.97-2.843-6.26 0-9.39 3.938-9.39 11.813s3.13 11.812 9.39 11.812zM80.74 100.465V71.34H91.32c1.945 0 3.582.324 4.906.969 1.332.648 2.332 1.558 3 2.734.664 1.168 1 2.559 1 4.172 0 1.805-.453 3.293-1.36 4.469-.905 1.18-2.312 2.058-4.218 2.64v.422c.938.368 1.703.95 2.297 1.75.601.793 1.156 1.98 1.656 3.563l2.688 8.406h-3.516l-2.906-8.906c-.344-1.05-.746-1.875-1.203-2.469a3.784 3.784 0 0 0-1.72-1.281c-.687-.27-1.562-.406-2.624-.406h-5.156v13.062zm10.5-15.969c1.813 0 3.16-.421 4.048-1.265.894-.844 1.343-2.13 1.343-3.86 0-1.726-.449-3.015-1.343-3.859-.887-.844-2.235-1.266-4.047-1.266h-7.078v10.25zM119.27 100.887c-2.523 0-4.765-.54-6.734-1.625-1.96-1.094-3.508-2.758-4.64-5-1.125-2.238-1.688-5.023-1.688-8.36 0-3.331.563-6.117 1.688-8.359 1.132-2.238 2.68-3.898 4.64-4.984 1.969-1.094 4.211-1.64 6.735-1.64 2.53 0 4.773.546 6.734 1.64 1.969 1.086 3.516 2.746 4.64 4.984 1.133 2.242 1.704 5.028 1.704 8.36 0 3.336-.57 6.12-1.703 8.359-1.125 2.242-2.672 3.906-4.641 5-1.961 1.086-4.203 1.625-6.734 1.625zm0-3.172c3.032 0 5.352-.941 6.97-2.828 1.624-1.895 2.437-4.89 2.437-8.984s-.813-7.082-2.438-8.97c-1.617-1.894-3.937-2.843-6.968-2.843-6.262 0-9.391 3.938-9.391 11.813s3.129 11.812 9.39 11.812zM152.809 100.465h-3.156V71.34h5.078l8.828 24.656h.406l8.828-24.656h4.907v29.125h-3.25V76.7l-.5-.079-8.61 23.844h-3.406l-8.625-23.844-.5.079zM208.331 100.465h-3.672l-2.687-7.984h-12.407l-2.718 7.984h-3.578l10.156-29.125h4.75zM195.52 74.871l-5 14.735h10.484l-4.984-14.735zM224.306 71.34c2 0 3.711.36 5.14 1.078 1.438.719 2.532 1.746 3.282 3.078.75 1.336 1.125 2.903 1.125 4.704 0 1.812-.375 3.386-1.125 4.718-.75 1.324-1.844 2.352-3.281 3.078-1.43.72-3.14 1.079-5.14 1.079h-7v11.39h-3.423V71.34zm-.11 14.797c4.051 0 6.079-1.977 6.079-5.937 0-3.97-2.028-5.954-6.078-5.954h-6.89v11.891zM250.855 71.34c2 0 3.711.36 5.14 1.078 1.438.719 2.532 1.746 3.282 3.078.75 1.336 1.125 2.903 1.125 4.704 0 1.812-.375 3.386-1.125 4.718-.75 1.324-1.844 2.352-3.281 3.078-1.43.72-3.14 1.079-5.14 1.079h-7v11.39h-3.423V71.34zm-.11 14.797c4.051 0 6.079-1.977 6.079-5.937 0-3.97-2.028-5.954-6.078-5.954h-6.89v11.891zm0 0"/></g><g><path d="M286.962 100.465h-3.671l-2.688-7.984h-12.406l-2.719 7.984H261.9l10.156-29.125h4.75zM274.15 74.871l-5 14.735h10.484L274.65 74.87zM311.936 71.34c2.945 0 5.476.531 7.593 1.594 2.125 1.055 3.758 2.664 4.907 4.828 1.144 2.156 1.718 4.871 1.718 8.14 0 3.274-.574 5.993-1.718 8.157-1.149 2.156-2.782 3.766-4.907 4.828-2.117 1.055-4.648 1.578-7.593 1.578h-9.422V71.34zm-.344 26.219c2.426 0 4.437-.375 6.031-1.125 1.594-.758 2.8-1.992 3.625-3.703.82-1.719 1.234-3.992 1.234-6.828 0-2.844-.414-5.114-1.234-6.813-.824-1.707-2.031-2.941-3.625-3.703-1.594-.758-3.605-1.14-6.031-1.14h-5.656v23.312zM336.886 100.465h-3.422V71.34h3.422zM354.041 100.887c-1.836 0-3.48-.25-4.937-.75-1.45-.5-2.664-1.148-3.64-1.953-.97-.813-1.696-1.703-2.173-2.672l1.875-2.281h.5c1.813 3.043 4.602 4.562 8.375 4.562 2.188 0 3.813-.457 4.875-1.375 1.07-.914 1.61-2.191 1.61-3.828 0-.945-.18-1.754-.532-2.422-.343-.664-.922-1.234-1.734-1.703-.813-.469-1.918-.879-3.313-1.234l-3.406-.828c-2.531-.614-4.402-1.586-5.61-2.922-1.198-1.332-1.796-3.02-1.796-5.063 0-1.445.367-2.738 1.11-3.875.75-1.133 1.835-2.02 3.265-2.656 1.437-.645 3.148-.969 5.14-.969 2.196 0 4.047.313 5.547.938 1.508.617 2.72 1.539 3.625 2.765l-1.671 2.266h-.5c-.836-1.031-1.825-1.781-2.97-2.25-1.148-.477-2.491-.719-4.03-.719-2.012 0-3.532.39-4.563 1.172-1.031.781-1.547 1.867-1.547 3.25 0 1.313.375 2.36 1.125 3.14.758.774 2.035 1.372 3.828 1.798l3.5.828c2.82.668 4.868 1.687 6.141 3.062 1.27 1.375 1.906 3.133 1.906 5.266 0 1.648-.37 3.105-1.11 4.375-.741 1.273-1.859 2.273-3.359 3-1.5.719-3.343 1.078-5.53 1.078zM381.09 71.34c2 0 3.712.36 5.141 1.078 1.438.719 2.532 1.746 3.282 3.078.75 1.336 1.125 2.903 1.125 4.704 0 1.812-.375 3.386-1.125 4.718-.75 1.324-1.844 2.352-3.282 3.078-1.43.72-3.14 1.079-5.14 1.079h-7v11.39h-3.422V71.34zm-.109 14.797c4.051 0 6.078-1.977 6.078-5.937 0-3.97-2.027-5.954-6.078-5.954h-6.89v11.891zM408.78 100.887c-2.523 0-4.765-.54-6.734-1.625-1.961-1.094-3.508-2.758-4.64-5-1.126-2.238-1.688-5.023-1.688-8.36 0-3.331.562-6.117 1.687-8.359 1.133-2.238 2.68-3.898 4.64-4.984 1.97-1.094 4.212-1.64 6.735-1.64 2.532 0 4.774.546 6.735 1.64 1.968 1.086 3.515 2.746 4.64 4.984 1.133 2.242 1.703 5.028 1.703 8.36 0 3.336-.57 6.12-1.703 8.359-1.125 2.242-2.672 3.906-4.64 5-1.961 1.086-4.203 1.625-6.735 1.625zm0-3.172c3.032 0 5.352-.941 6.97-2.828 1.624-1.895 2.437-4.89 2.437-8.984s-.813-7.082-2.438-8.97c-1.617-1.894-3.937-2.843-6.969-2.843-6.261 0-9.39 3.938-9.39 11.813s3.129 11.812 9.39 11.812zM432.508 100.465h-3.344V71.34h4.203l14.204 22.25.5-.078V71.34h3.328v29.125h-3.594l-14.797-23.812-.5.093zM463.636 100.465h-3.422V71.34h3.422zM472.463 100.465V71.34h11.032c1.789 0 3.312.29 4.562.86 1.25.574 2.188 1.386 2.813 2.437.632 1.055.953 2.313.953 3.781 0 1.262-.344 2.403-1.032 3.422-.68 1.024-1.656 1.82-2.937 2.39v.423c1.937.48 3.406 1.351 4.406 2.609 1.008 1.262 1.516 2.844 1.516 4.75 0 2.719-.797 4.809-2.39 6.266-1.587 1.46-3.934 2.187-7.048 2.187zm10.875-16.89c1.602 0 2.848-.422 3.735-1.266.894-.844 1.343-2.004 1.343-3.484 0-1.551-.433-2.711-1.296-3.485-.856-.781-2.118-1.172-3.782-1.172h-7.453v9.407zm.735 14.062c4.144 0 6.218-1.875 6.218-5.625 0-3.738-2.074-5.61-6.218-5.61h-8.188v11.235zM503.908 100.465h-3.422V71.34h3.422zM516.157 71.34v26.297h14.031v2.828h-17.453V71.34zM539.24 86.746v10.891h14.844v2.828h-18.266V71.34h17.938v2.828H539.24v9.75h12.813v2.828zM573.758 100.465h-3.344V71.34h4.203l14.203 22.25.5-.078V71.34h3.328v29.125h-3.594l-14.796-23.812-.5.093zM604.886 86.746v10.891h14.844v2.828h-18.266V71.34h17.938v2.828h-14.516v9.75h12.812v2.828zM629.483 71.34v26.297h14.031v2.828h-17.453V71.34zM652.567 71.34v26.297h14.03v2.828h-17.452V71.34zM694.04 100.465h-3.671l-2.688-7.984h-12.406l-2.719 7.984h-3.578l10.156-29.125h4.75zm-12.812-25.594-5 14.735h10.485l-4.985-14.735zm0 0"/></g><g><path d="M283.927 157.757c-1.836 0-3.48-.25-4.938-.75-1.45-.5-2.664-1.148-3.64-1.953-.97-.813-1.696-1.703-2.172-2.672l1.875-2.281h.5c1.812 3.043 4.601 4.562 8.375 4.562 2.187 0 3.812-.457 4.875-1.375 1.07-.914 1.609-2.191 1.609-3.828 0-.945-.18-1.754-.531-2.422-.344-.664-.922-1.234-1.735-1.703-.812-.469-1.918-.879-3.312-1.234l-3.406-.828c-2.532-.614-4.403-1.586-5.61-2.922-1.199-1.332-1.797-3.02-1.797-5.063 0-1.445.368-2.738 1.11-3.875.75-1.133 1.836-2.02 3.265-2.656 1.438-.645 3.149-.969 5.141-.969 2.195 0 4.047.313 5.547.938 1.508.617 2.719 1.539 3.625 2.765l-1.672 2.266h-.5c-.836-1.031-1.824-1.781-2.969-2.25-1.148-.477-2.492-.719-4.031-.719-2.012 0-3.531.39-4.562 1.172-1.032.781-1.547 1.867-1.547 3.25 0 1.313.375 2.36 1.125 3.14.757.774 2.035 1.372 3.828 1.798l3.5.828c2.82.668 4.867 1.687 6.14 3.062 1.27 1.375 1.907 3.133 1.907 5.266 0 1.648-.371 3.105-1.11 4.375-.742 1.273-1.86 2.273-3.36 3-1.5.719-3.343 1.078-5.53 1.078zM303.976 157.335h-3.422V128.21h3.422zM322.225 128.21c2.945 0 5.476.531 7.594 1.594 2.125 1.055 3.757 2.664 4.906 4.828 1.144 2.156 1.719 4.871 1.719 8.14 0 3.274-.575 5.993-1.72 8.157-1.148 2.156-2.78 3.765-4.905 4.828-2.118 1.055-4.649 1.578-7.594 1.578h-9.422V128.21zm-.344 26.219c2.426 0 4.438-.375 6.031-1.125 1.594-.758 2.801-1.992 3.625-3.703.82-1.719 1.235-3.992 1.235-6.828 0-2.844-.414-5.114-1.235-6.813-.824-1.707-2.03-2.941-3.625-3.703-1.593-.758-3.605-1.14-6.03-1.14h-5.657v23.312zM347.175 143.616v10.891h14.844v2.828h-18.265V128.21h17.937v2.828h-14.516v9.75h12.813v2.828zM368.35 157.335V128.21h11.032c1.79 0 3.313.29 4.563.86 1.25.574 2.187 1.386 2.812 2.437.633 1.055.953 2.312.953 3.781 0 1.262-.344 2.403-1.031 3.422-.68 1.024-1.656 1.82-2.938 2.39v.423c1.938.48 3.407 1.351 4.407 2.609 1.007 1.262 1.515 2.844 1.515 4.75 0 2.719-.797 4.809-2.39 6.266-1.586 1.46-3.934 2.187-7.047 2.187zm10.876-16.89c1.601 0 2.847-.422 3.734-1.266.895-.844 1.344-2.004 1.344-3.485 0-1.55-.434-2.71-1.297-3.484-.855-.781-2.117-1.172-3.781-1.172h-7.453v9.406zm.734 14.062c4.145 0 6.219-1.875 6.219-5.625 0-3.738-2.074-5.61-6.219-5.61h-8.187v11.235zM418.186 157.335h-3.672l-2.687-7.984H399.42l-2.72 7.984h-3.577l10.156-29.125h4.75zm-12.812-25.594-5 14.735h10.484l-4.984-14.735zM423.74 157.335V128.21h10.577c1.946 0 3.582.324 4.907.969 1.332.648 2.332 1.558 3 2.734.664 1.168 1 2.559 1 4.172 0 1.805-.453 3.293-1.36 4.469-.906 1.18-2.312 2.058-4.218 2.64v.422c.937.368 1.703.95 2.296 1.75.602.793 1.157 1.98 1.657 3.563l2.687 8.406h-3.515l-2.907-8.906c-.343-1.05-.746-1.875-1.203-2.469a3.784 3.784 0 0 0-1.719-1.281c-.687-.27-1.562-.406-2.625-.406h-5.156v13.062zm10.5-15.969c1.812 0 3.16-.422 4.046-1.265.895-.844 1.344-2.13 1.344-3.86 0-1.726-.45-3.015-1.344-3.859-.887-.844-2.234-1.266-4.047-1.266h-7.078v10.25zm0 0"/></g></g></g><g clip-path="url(#e)"><g clip-path="url(#f)" transform="translate(263 1104)"><path d="M27.504 43.413h-3.672l-2.687-7.984H8.739l-2.72 7.984H2.443l10.156-29.125h4.75zM14.692 17.82l-5 14.734h10.484L15.192 17.82zM41.386 43.835c-1.836 0-3.48-.25-4.938-.75-1.45-.5-2.664-1.148-3.64-1.953-.97-.812-1.696-1.703-2.172-2.672l1.875-2.281h.5c1.812 3.043 4.601 4.562 8.375 4.562 2.187 0 3.812-.457 4.875-1.375 1.07-.914 1.609-2.191 1.609-3.828 0-.945-.18-1.754-.531-2.422-.344-.664-.922-1.234-1.735-1.703-.812-.468-1.918-.879-3.312-1.234l-3.406-.828c-2.532-.613-4.403-1.586-5.61-2.922-1.199-1.332-1.797-3.02-1.797-5.063 0-1.445.367-2.738 1.11-3.875.75-1.132 1.836-2.02 3.265-2.656 1.438-.644 3.149-.969 5.14-.969 2.196 0 4.048.313 5.548.938 1.508.617 2.719 1.539 3.625 2.766l-1.672 2.265h-.5c-.836-1.031-1.824-1.781-2.969-2.25-1.148-.476-2.492-.719-4.031-.719-2.012 0-3.531.391-4.563 1.172-1.03.782-1.546 1.868-1.546 3.25 0 1.313.375 2.36 1.125 3.141.757.773 2.035 1.371 3.828 1.797l3.5.828c2.82.668 4.867 1.687 6.14 3.062 1.27 1.375 1.907 3.133 1.907 5.266 0 1.649-.372 3.106-1.11 4.375-.742 1.274-1.86 2.274-3.36 3-1.5.719-3.343 1.078-5.53 1.078zM68.435 14.288c2 0 3.71.36 5.14 1.078 1.438.72 2.532 1.747 3.282 3.079.75 1.336 1.125 2.902 1.125 4.703 0 1.812-.375 3.386-1.125 4.718-.75 1.325-1.844 2.352-3.281 3.079-1.43.718-3.141 1.078-5.141 1.078h-7v11.39h-3.422V14.288zm-.11 14.797c4.051 0 6.079-1.976 6.079-5.937 0-3.969-2.028-5.953-6.078-5.953h-6.891v11.89zM87.984 29.695v10.89h14.844v2.828H84.562V14.288H102.5v2.828H87.984v9.75h12.813v2.829zM127.487 14.288v2.907h-9.125v26.218h-3.406V17.195h-9.125v-2.907zm0 0"/><g><path d="M152.163 43.413h-3.672l-2.687-7.984h-12.406l-2.72 7.984h-3.577l10.156-29.125h4.75zM139.351 17.82l-5 14.734h10.484l-4.984-14.734zM161.06 43.413h-3.344V14.288h4.203l14.204 22.25.5-.078V14.288h3.328v29.125h-3.594L161.56 19.601l-.5.094zM198.188 14.288c2.946 0 5.477.532 7.594 1.594 2.125 1.055 3.758 2.664 4.906 4.828 1.145 2.156 1.72 4.871 1.72 8.14 0 3.274-.575 5.993-1.72 8.157-1.148 2.156-2.78 3.766-4.906 4.828-2.117 1.055-4.648 1.578-7.594 1.578h-9.421V14.288zm-.343 26.22c2.425 0 4.437-.376 6.03-1.126 1.595-.758 2.802-1.992 3.626-3.703.82-1.719 1.234-3.992 1.234-6.828 0-2.844-.414-5.113-1.234-6.813-.824-1.707-2.031-2.941-3.625-3.703-1.594-.758-3.606-1.14-6.031-1.14h-5.657v23.312zM231.28 43.835c-2.524 0-4.766-.539-6.735-1.625-1.96-1.094-3.508-2.758-4.64-5-1.125-2.238-1.688-5.023-1.688-8.36 0-3.331.563-6.116 1.688-8.359 1.132-2.238 2.68-3.898 4.64-4.984 1.969-1.094 4.211-1.64 6.735-1.64 2.53 0 4.773.546 6.734 1.64 1.969 1.086 3.516 2.746 4.64 4.984 1.133 2.243 1.704 5.028 1.704 8.36 0 3.336-.57 6.12-1.703 8.36-1.125 2.241-2.672 3.905-4.641 5-1.96 1.085-4.203 1.624-6.734 1.624zm0-3.172c3.03 0 5.351-.941 6.968-2.828 1.625-1.894 2.438-4.89 2.438-8.984s-.813-7.082-2.438-8.969c-1.617-1.894-3.937-2.844-6.968-2.844-6.262 0-9.391 3.938-9.391 11.813s3.129 11.812 9.39 11.812zM271.084 14.288c2.945 0 5.476.532 7.593 1.594 2.125 1.055 3.758 2.664 4.907 4.828 1.144 2.156 1.718 4.871 1.718 8.14 0 3.274-.574 5.993-1.718 8.157-1.149 2.156-2.782 3.766-4.907 4.828-2.117 1.055-4.648 1.578-7.593 1.578h-9.422V14.288zm-.344 26.22c2.426 0 4.437-.376 6.031-1.126 1.594-.758 2.801-1.992 3.625-3.703.82-1.719 1.235-3.992 1.235-6.828 0-2.844-.415-5.113-1.235-6.813-.824-1.707-2.031-2.941-3.625-3.703-1.594-.758-3.605-1.14-6.031-1.14h-5.656v23.312zm0 0"/></g><g><path d="M313.768 43.413h-3.672l-2.688-7.984h-12.406l-2.719 7.984h-3.578l10.156-29.125h4.75zM300.955 17.82l-5 14.734h10.485l-4.985-14.734zM322.743 14.288v26.297h14.03v2.828h-17.452V14.288zM343.357 43.616c-.761 0-1.359-.21-1.796-.64-.438-.426-.657-.988-.657-1.688 0-.695.219-1.265.657-1.703.437-.445 1.035-.672 1.796-.672.77 0 1.375.215 1.813.641.437.418.656.98.656 1.687 0 .711-.226 1.282-.672 1.72-.437.437-1.039.655-1.797.655zm0-17.703c-.761 0-1.359-.21-1.796-.64-.438-.426-.657-.989-.657-1.688 0-.695.219-1.265.657-1.703.437-.445 1.035-.672 1.796-.672.77 0 1.375.215 1.813.64.437.419.656.981.656 1.688 0 .711-.226 1.282-.672 1.72-.437.437-1.039.655-1.797.655zM360.81 43.413v-2.828h7.937V18.32l-.453-.125c-1.293.636-2.422 1.125-3.39 1.468-.97.336-2.212.664-3.72.985V17.49c1.5-.312 2.985-.738 4.454-1.28a22.998 22.998 0 0 0 3.984-1.923h2.469v26.297h7.125v2.828zm0 0"/></g><g><path d="M384.822 47.57h-3.125l10.86-34.954h3.125zm0 0"/></g><g><path d="M397.954 43.413v-2.828h7.938V18.32l-.453-.125c-1.293.636-2.422 1.125-3.391 1.468-.969.336-2.211.664-3.719.985V17.49c1.5-.312 2.985-.738 4.453-1.28a22.998 22.998 0 0 0 3.985-1.923h2.468v26.297h7.125v2.828zM419.335 42.085c0-1.613.176-2.91.532-3.89.351-.977.953-1.895 1.796-2.75.852-.852 2.207-1.957 4.063-3.313l3.219-2.328c1.175-.863 2.133-1.66 2.875-2.39a8.8 8.8 0 0 0 1.765-2.376c.438-.851.657-1.812.657-2.875 0-1.726-.461-3.03-1.375-3.906-.918-.875-2.356-1.312-4.313-1.312-1.531 0-2.898.359-4.094 1.078-1.199.71-2.156 1.726-2.875 3.047l-.453.078-2.047-2.157a10.629 10.629 0 0 1 3.86-3.75c1.601-.914 3.472-1.375 5.61-1.375 2.07 0 3.788.356 5.155 1.063 1.375.7 2.383 1.672 3.032 2.922.656 1.242.984 2.68.984 4.312a8.162 8.162 0 0 1-.828 3.641c-.543 1.125-1.313 2.187-2.313 3.187-.992 1-2.234 2.047-3.734 3.141l-3.25 2.375c-1.211.899-2.14 1.656-2.797 2.281-.648.618-1.121 1.22-1.422 1.813-.293.594-.437 1.258-.437 1.984h14.781v2.828h-18.39zM443.597 47.57h-3.125l10.86-34.954h3.124zM457.476 42.085c0-1.613.176-2.91.531-3.89.352-.977.953-1.895 1.797-2.75.852-.852 2.207-1.957 4.063-3.313l3.218-2.328c1.176-.863 2.133-1.66 2.875-2.39a8.8 8.8 0 0 0 1.766-2.376c.437-.851.656-1.812.656-2.875 0-1.726-.46-3.03-1.375-3.906-.918-.875-2.355-1.312-4.312-1.312-1.532 0-2.899.359-4.094 1.078-1.2.71-2.156 1.726-2.875 3.047l-.453.078-2.047-2.157a10.629 10.629 0 0 1 3.86-3.75c1.6-.914 3.472-1.375 5.609-1.375 2.07 0 3.789.356 5.156 1.063 1.375.7 2.383 1.672 3.031 2.922.656 1.242.985 2.68.985 4.312a8.162 8.162 0 0 1-.829 3.641c-.543 1.125-1.312 2.187-2.312 3.187-.992 1-2.234 2.047-3.734 3.141l-3.25 2.375c-1.211.899-2.141 1.656-2.797 2.281-.649.618-1.121 1.22-1.422 1.813-.293.594-.438 1.258-.438 1.984h14.782v2.828h-18.391zM490.097 43.835c-2.72 0-4.89-.601-6.516-1.812-1.625-1.207-2.684-2.922-3.172-5.14l2.531-1.157.454.078c.332 1.125.765 2.047 1.296 2.766.54.718 1.25 1.261 2.125 1.625.875.367 1.97.546 3.282.546 1.968 0 3.5-.582 4.593-1.75 1.102-1.175 1.657-2.89 1.657-5.14 0-2.281-.543-4.016-1.625-5.203-1.075-1.188-2.559-1.782-4.453-1.782-1.45 0-2.625.293-3.532.875-.906.586-1.703 1.48-2.39 2.688l-2.75-.25.562-15.89h16.313v2.906h-13.328l-.344 9.671.422.079c.687-1.008 1.523-1.766 2.515-2.266.989-.5 2.176-.75 3.563-.75 1.738 0 3.254.39 4.547 1.172 1.3.773 2.304 1.902 3.015 3.39.707 1.493 1.063 3.278 1.063 5.36 0 2.074-.414 3.86-1.235 5.36-.812 1.5-1.96 2.648-3.437 3.437-1.48.789-3.2 1.187-5.156 1.187zm0 0"/></g></g></g></g></svg>