<svg xmlns="http://www.w3.org/2000/svg" width="800" height="600"><path d="m377.34 457.9-.38.38m.38-.96-.95.96m.95-1.54-1.53 1.54m1.53-2.11-2.11 2.11m2.11-2.69-2.68 2.69m2.68-3.26-1.92 1.92m1.92-2.5-1.92 1.93m1.92-2.5-1.92 1.92m1.92-2.5-1.92 1.92m1.92-2.5-1.92 1.93m1.92-2.5-1.92 1.92m-.05 2.94-1.29 1.28m.71-1.28-1.28 1.28m.7-1.28-1.28 1.28m.71-1.28-1.28 1.28m.7-1.28-1.28 1.28m.71-1.28-1.29 1.28m5.84-6.41-1.62 1.62m1.04-1.62-1.04 1.04m-3.51 4.09-.98.97m.41-.97-.41.4m4.96-5.53-.47.47m-13.2 5.72-.23.22m.23-.8-.8.8m12.72-13.3-.48.48m.48-1.05-1.05 1.05M362.12 457l-1.28 1.28m.71-1.28-1.28 1.28m13.87-14.45-1.63 1.63m1.63-2.21-2.2 2.21m2.2-2.78-2.78 2.78m-10.04 11.19-1.28 1.28m1.28-1.85-1.28 1.28m1.28-1.86-1.28 1.28m14.1-14.68-3.21 3.21m3.21-3.78-3.21 3.2m3.21-3.78-3.21 3.21m3.21-3.78-3.21 3.2m-9.61 11.34-1.28 1.29m1.28-1.86-1.28 1.28m1.28-1.86-1.28 1.29m1.28-1.86-1.28 1.28m14.1-14.68-3.21 3.21m3.21-3.79-3.21 3.21m-8.71 9.29-.15.15m.15-.72-.72.72m-.18.75-1.28 1.28m1.28-1.85-1.28 1.28m14.1-14.68-3.21 3.2m3.21-3.78-3.21 3.21m-8.71 9.29-1.3 1.3m1.3-1.87-1.88 1.87m.58 0-.88.88m.3-.88-.3.31m14.1-14.68-3.21 3.2m3.21-3.78-3.21 3.21m-8.71 9.29-2.45 2.45m2.45-3.02-3.03 3.02m14.95-15.52-3.21 3.2m3.21-3.78-3.21 3.21m3.21-3.79-3.21 3.21m3.21-3.78-3.21 3.2m3.21-3.78-3.21 3.21m3.21-3.78-3.21 3.2m3.21-3.78-3.21 3.21m3.21-3.78-3.21 3.2m3.21-3.78-3.21 3.21m3.21-3.79-3.21 3.21m-9.11 14.29-3.2 3.21m2.63-3.21-3.21 3.21m2.63-3.21-3.2 3.21m2.63-3.21-3.21 3.21m2.63-3.21-3.21 3.21m2.63-3.21-3.2 3.21m2.63-3.21-3.21 3.21m2.63-3.21-3.2 3.21m2.63-3.21-3.21 3.21m2.63-3.21-3.2 3.21m20.7-21.28-3.65 3.65m3.65-4.23-4.23 4.23m4.23-4.8-4.8 4.8m4.8-5.38-5.38 5.38m-12.69 14.42-3.21 3.21m2.63-3.21-3.21 3.21m2.63-3.21-3.2 3.21m2.63-3.21-3.21 3.21m23.01-23.58-3.21 3.2m3.21-3.78-3.21 3.21m3.21-3.79-3.21 3.21m3.21-3.78-3.21 3.2m3.21-3.78-3.21 3.21m3.21-3.78-3.21 3.2m3.21-3.78-3.21 3.21m3.21-3.78-3.21 3.2m3.21-3.78-3.21 3.21m3.21-3.79-3.21 3.21m3.21-3.78-3.21 3.2m3.21-3.78-3.21 3.21m3.21-3.78-3.21 3.2m3.21-3.78-3.21 3.21m3.21-3.78-3.21 3.2m3.21-3.78-3.21 3.21m3.21-3.79-3.21 3.21m3.21-3.78-3.21 3.2m3.21-3.78-3.21 3.21m-.18 10.54-2.56 2.57m1.99-2.57-2.57 2.57m1.99-2.57-2.56 2.57m1.98-2.57-2.56 2.57m1.99-2.57-2.57 2.57m1.99-2.57-2.56 2.57m1.99-2.57-2.57 2.57m1.99-2.57-2.56 2.57m1.99-2.57-2.57 2.57m1.99-2.57-2.56 2.57m1.98-2.57-2.56 2.57m1.99-2.57-2.57 2.57m1.99-2.57-2.56 2.57m1.99-2.57-2.57 2.57m1.99-2.57-2.56 2.57m1.99-2.57-2.57 2.57m1.99-2.57-2.56 2.57m1.98-2.57-2.56 2.57m1.99-2.57-2.57 2.57m-4.06 14.42-3.2 3.21m2.63-3.21-3.21 3.21m2.63-3.21-3.2 3.21m2.63-3.21-3.21 3.21m2.63-3.21-3.21 3.21m2.63-3.21-3.2 3.21m2.63-3.21-3.21 3.21m2.63-3.21-3.2 3.21m2.63-3.21-3.21 3.21m2.63-3.21-3.2 3.21m2.63-3.21-3.21 3.21m2.63-3.21-3.21 3.21m2.63-3.21-3.2 3.21m2.63-3.21-3.21 3.21m2.63-3.21-3.2 3.21m2.63-3.21-3.21 3.21m2.63-3.21-3.2 3.21m2.63-3.21-3.21 3.21m2.63-3.21-3.21 3.21m33.95-34.52-3.21 3.2m3.21-3.78-3.21 3.21m3.21-3.78-3.21 3.2m3.21-3.78-3.21 3.21m-11.12 12.84-2.56 2.57m1.99-2.57-2.57 2.57m1.99-2.57-2.56 2.57m1.99-2.57-2.57 2.57m-12.15 13.88-.55.54m.55-1.12-1.12 1.12m1.12-1.69-1.7 1.69m1.7-2.27-2.27 2.27m1.72 0-3.2 3.21m2.63-3.21-3.21 3.21m2.63-3.21-3.2 3.21m2.63-3.21-3.21 3.21m36.25-36.83-3.21 3.21m3.21-3.78-3.21 3.2m3.21-3.78-3.21 3.21m3.21-3.78-3.21 3.2m3.21-3.78-3.21 3.21m3.21-3.78-3.21 3.2m3.21-3.78-3.21 3.21m3.21-3.79-3.21 3.21m-13.42 17.45-2.56 2.57m1.98-2.57-2.56 2.57m1.99-2.57-2.57 2.57m1.99-2.57-2.56 2.57m1.99-2.57-2.57 2.57m1.99-2.57-2.56 2.57m1.99-2.57-2.57 2.57m1.99-2.57-2.56 2.57m-7.55 11.58-2.57 2.56m2.57-3.14-2.57 2.57m2.57-3.14-2.57 2.56m2.57-3.14-2.57 2.56m2.57-3.14-2.57 2.57m2.57-3.14-2.57 2.56m2.57-3.14-2.57 2.57m2.57-3.14-2.57 2.56m-.28 4.31-3.2 3.21m2.63-3.21-3.21 3.21m2.63-3.21-3.21 3.21m2.63-3.21-3.2 3.21m2.63-3.21-3.21 3.21m2.63-3.21-3.2 3.21m2.63-3.21-3.21 3.21m2.63-3.21-3.2 3.21m40.85-41.43-3.29 3.28m3.29-3.86-3.86 3.86m3.86-4.43-4.44 4.43m4.44-5.01-5.01 5.01m5.01-5.58-5.59 5.58m-15.65 17.95-2.56 2.57m1.99-2.57-2.57 2.57m1.99-2.57-2.56 2.57m1.99-2.57-2.57 2.57m1.99-2.57-2.56 2.57m-4.67 6.97-2.57 2.57m2.57-3.14-2.57 2.56m2.57-3.14-2.57 2.56m2.57-3.14-2.57 2.57m2.57-3.14-2.57 2.56m-4.89 7.19-3.2 3.21m2.63-3.21-3.21 3.21m2.63-3.21-3.2 3.21m2.63-3.21-3.21 3.21m2.63-3.21-3.2 3.21m43.73-44.31-3.21 3.21m3.21-3.79-3.21 3.21m3.21-3.78-3.21 3.2m3.21-3.78-3.21 3.21m-.39 2.12-2.56 2.56m1.98-2.56-2.56 2.56m1.99-2.56-2.57 2.56m1.99-2.56-2.56 2.56m-16.22 17.95-2.57 2.57m1.99-2.57-2.56 2.57m1.98-2.57-2.56 2.57m1.99-2.57-2.57 2.57m-2.36 4.09-2.57 2.57m2.57-3.14-2.57 2.56m2.57-3.14-2.57 2.57m2.57-3.14-2.57 2.56m-7.76 9.49-3.21 3.21m2.63-3.21-3.2 3.21m2.62-3.21-3.2 3.21m2.63-3.21-3.21 3.21m45.69-46.27-2.86 2.86m2.29-2.86-2.29 2.29m1.71-2.29-1.71 1.71m1.14-1.71-1.14 1.14m-2.69 4.42-2.57 2.56m1.99-2.56-2.56 2.56m1.99-2.56-2.57 2.56m1.99-2.56-2.56 2.56m-16.23 17.95-2.56 2.57m1.99-2.57-2.57 2.57m1.99-2.57-2.56 2.57m1.99-2.57-2.57 2.57m-.06 1.79-2.57 2.56m2.57-3.14-2.57 2.57m2.57-3.14-2.57 2.56m2.57-3.14-2.57 2.57m-10.07 11.79-3.2 3.21m2.63-3.21-3.21 3.21m2.63-3.21-3.2 3.21m2.63-3.21-3.21 3.21m45.69-46.27-.56.56m-5 5-2.56 2.56m-17.95 17.95-4.62 4.62m-12.37 12.37-3.2 3.21m40.13-40.71-2.57 2.56m1.99-2.56-2.56 2.56m1.99-2.56-2.57 2.56m-16.8 17.95-4.04 4.05m3.47-4.05-3.47 3.47m2.89-3.47-2.89 2.89m-12.95 14.1-3.2 3.21m2.63-3.21-3.21 3.21m2.63-3.21-3.2 3.21m40.13-40.71-2.56 2.56m1.99-2.56-2.57 2.56m1.99-2.56-2.56 2.56m1.98-2.56-2.56 2.56m1.99-2.56-2.57 2.56m1.99-2.56-2.56 2.56m1.99-2.56-2.57 2.56m1.99-2.56-2.56 2.56m1.99-2.56-2.57 2.56m1.99-2.56-2.56 2.56m1.98-2.56-2.56 2.56m1.99-2.56-2.57 2.56m1.99-2.56-2.56 2.56m1.99-2.56-2.57 2.56m1.99-2.56-2.56 2.56m1.99-2.56-2.57 2.56m1.99-2.56-2.56 2.56m1.98-2.56-2.56 2.56m1.99-2.56-2.57 2.56m-7.33 17.7-2.57 2.57m2.57-3.14-2.57 2.56m2.57-3.14-2.57 2.57m2.57-3.14-2.57 2.56m2.57-3.14-2.57 2.57m2.57-3.15-2.57 2.57m2.57-3.14-2.57 2.56m2.57-3.14-2.57 2.57m2.57-3.14-2.57 2.56m2.57-3.14-2.57 2.57m2.57-3.14-2.57 2.56m2.57-3.14-2.57 2.57m2.57-3.15-2.57 2.57m2.57-3.14-2.57 2.56m2.57-3.14-2.57 2.57m2.57-3.14-2.57 2.56m2.57-3.14-2.57 2.57m2.57-3.14-2.57 2.56m2.57-3.14-2.57 2.57m-14.67 25.03-3.21 3.21m2.63-3.21-3.2 3.21m2.63-3.21-3.21 3.21m2.63-3.21-3.2 3.21m2.62-3.21-3.2 3.21m2.63-3.21-3.21 3.21m2.63-3.21-3.2 3.21m2.63-3.21-3.21 3.21m2.63-3.21-3.2 3.21m2.63-3.21-3.21 3.21m2.63-3.21-3.2 3.21m2.62-3.21-3.2 3.21m2.63-3.21-3.21 3.21m2.63-3.21-3.2 3.21m2.63-3.21-3.21 3.21m2.63-3.21-3.2 3.21m2.63-3.21-3.21 3.21m2.63-3.21-3.2 3.21m2.62-3.21-3.2 3.21m61.58-62.16-.5.51m-20.95 20.94-2.56 2.56m-6.76 6.76-2.57 2.57m-25.61 25.61-3.21 3.21m61.61-62.19-.53.54m-.04-.54-.54.54m-.04-.54-.53.54m-.04-.54-.54.54m-19.21 20.94-2.57 2.56m1.99-2.56-2.56 2.56m1.99-2.56-2.57 2.56m1.99-2.56-2.56 2.56m-4.46 6.19-2.57 2.56m2.57-3.14-2.57 2.57m2.57-3.14-2.57 2.56m2.57-3.14-2.57 2.57m-26.19 27.91-3.2 3.21m2.63-3.21-3.21 3.21m2.63-3.21-3.2 3.21m2.63-3.21-3.21 3.21m61.61-62.19-.36.36m-21.12 21.12-2.56 2.56m-3.88 3.89-2.57 2.56m-28.49 28.49-3.21 3.21m40.14-40.71-2.57 2.56m1.99-2.56-2.56 2.56m1.99-2.56-2.57 2.56m1.99-2.56-2.56 2.56m1.99-2.56-2.57 2.56m1.99-2.56-2.56 2.56m-.43 3.31-2.57 2.56m2.57-3.14-2.57 2.57m2.57-3.14-2.57 2.56m2.57-3.14-2.57 2.57m2.57-3.14-2.57 2.56m2.57-3.14-2.57 2.57m-29.07 31.94-3.2 3.21m2.63-3.21-3.21 3.21m2.63-3.21-3.2 3.21m2.63-3.21-3.21 3.21m2.63-3.21-3.2 3.21m2.63-3.21-3.21 3.21m65.28-65.86-.46.47m.46-1.05-1.04 1.05m1.04-1.62-1.61 1.62m1.61-2.2-2.19 2.2m2.19-2.77-2.77 2.77m-22.38 24.68-4.98 4.98m4.41-4.98-4.41 4.4m3.83-4.4-3.83 3.83m3.26-3.83-3.26 3.25m2.68-3.25-2.68 2.68m-32.52 34.82-3.21 3.21m2.63-3.21-3.2 3.21m2.63-3.21-3.21 3.21m2.63-3.21-3.2 3.21m2.63-3.21-3.21 3.21m68.02-68.6-3.2 3.21m2.63-3.21-3.21 3.21m2.63-3.21-3.2 3.21m2.63-3.21-3.21 3.21m2.63-3.21-3.2 3.21m2.62-3.21-3.2 3.21m2.63-3.21-3.21 3.21m2.63-3.21-3.2 3.21m2.63-3.21-3.21 3.21m2.63-3.21-3.2 3.21m2.63-3.21-3.21 3.21m2.63-3.21-3.2 3.21m2.62-3.21-3.2 3.21m2.63-3.21-3.21 3.21m2.63-3.21-3.2 3.21m2.63-3.21-3.21 3.21m2.63-3.21-3.2 3.21m2.63-3.21-3.21 3.21m2.63-3.21-3.2 3.21m2.62-3.21-3.2 3.21m2.63-3.21-3.21 3.21m2.63-3.21-3.2 3.21m2.63-3.21-3.21 3.21m2.63-3.21-3.2 3.21m2.63-3.21-3.21 3.21m2.63-3.21-3.2 3.21m2.62-3.21-3.2 3.21m2.63-3.21-3.21 3.21m2.63-3.21-3.2 3.21m-8.1 24.22-2.57 2.56m2.57-3.14-2.57 2.57m2.57-3.14-2.57 2.56m2.57-3.14-2.57 2.56m2.57-3.14-2.57 2.57m2.57-3.14-2.57 2.56m2.57-3.14-2.57 2.57m2.57-3.14-2.57 2.56m2.57-3.14-2.57 2.57m2.57-3.14-2.57 2.56m2.57-3.14-2.57 2.56m2.57-3.14-2.57 2.57m2.57-3.14-2.57 2.56m2.57-3.14-2.57 2.57m2.57-3.14-2.57 2.56m2.57-3.14-2.57 2.57m2.57-3.14-2.57 2.56m2.57-3.14-2.57 2.56m2.57-3.14-2.57 2.57m2.57-3.14-2.57 2.56m2.57-3.14-2.57 2.57m2.57-3.14-2.57 2.56m2.57-3.14-2.57 2.57m2.57-3.14-2.57 2.56m2.57-3.14-2.57 2.56m2.57-3.14-2.57 2.57m2.57-3.14-2.57 2.56m2.57-3.14-2.57 2.57m2.57-3.14-2.57 2.56m-35.4 51.52-3.2 3.21m2.63-3.21-3.21 3.21m2.63-3.21-3.21 3.21m2.63-3.21-3.2 3.21m2.63-3.21-3.21 3.21m2.63-3.21-3.2 3.21m2.63-3.21-3.21 3.21m2.63-3.21-3.2 3.21m2.63-3.21-3.21 3.21m2.63-3.21-3.21 3.21m2.63-3.21-3.2 3.21m2.63-3.21-3.21 3.21m2.63-3.21-3.2 3.21m2.63-3.21-3.21 3.21m2.63-3.21-3.2 3.21m2.63-3.21-3.21 3.21m2.63-3.21-3.21 3.21m2.63-3.21-3.2 3.21m2.63-3.21-3.21 3.21m2.63-3.21-3.2 3.21m2.63-3.21-3.21 3.21m2.63-3.21-3.2 3.21m2.63-3.21-3.21 3.21m2.63-3.21-3.21 3.21m2.63-3.21-3.2 3.21m2.63-3.21-3.21 3.21m2.63-3.21-3.2 3.21m2.63-3.21-3.21 3.21m2.63-3.21-3.2 3.21m68.02-68.6-3.21 3.21m-7.52 7.52-2.57 2.57m-52.09 52.09-3.04 3.04m67.85-68.43-3.2 3.21m2.63-3.21-3.21 3.21m2.63-3.21-3.2 3.21m2.62-3.21-3.2 3.21m-5.22 6.95-2.57 2.56m2.57-3.14-2.57 2.56m2.57-3.14-2.57 2.57m2.57-3.14-2.57 2.56m-52.67 54.4-2.46 2.46m1.88-2.46-1.88 1.89m1.31-1.89-1.31 1.31m.73-1.31-.73.74m0 1.72-.1.11m.1-.68-.68.68m.68-1.26-1.26 1.26m1.26-1.83-1.83 1.83m67.38-67.96-3.21 3.21m-4.64 4.64-2.57 2.57m-54.97 54.97-.16.16m-.48.48-1.93 1.93m67.38-67.96-3.2 3.21m2.63-3.21-3.21 3.21m2.63-3.21-3.2 3.21m2.63-3.21-3.21 3.21m2.63-3.21-3.2 3.21m2.62-3.21-3.2 3.21m2.63-3.21-3.21 3.21m2.63-3.21-3.2 3.21m-.04 4.07-2.57 2.56m2.57-3.14-2.57 2.57m2.57-3.14-2.57 2.56m2.57-3.14-2.57 2.56m2.57-3.14-2.57 2.57m2.57-3.14-2.57 2.56m2.57-3.14-2.57 2.57m2.57-3.14-2.57 2.56m-56.19 60.22-1.92 1.93m1.34-1.93-1.92 1.93m1.35-1.93-1.92 1.93m1.34-1.93-1.92 1.93m1.35-1.93-1.93 1.93m1.35-1.93-1.92 1.93m1.35-1.93-1.93 1.93m1.35-1.93-1.92 1.93m67.38-67.96-5.24 5.24m4.66-5.24-4.66 4.66m4.09-4.66-4.09 4.08m3.51-4.08-3.51 3.51M280 449.3l-1.92 1.93m1.35-1.93-1.92 1.93m1.34-1.93-1.92 1.93m1.35-1.93-1.93 1.93m67.38-67.96-3.2 3.21m2.63-3.21-3.21 3.21m2.63-3.21-3.2 3.21m2.63-3.21-3.21 3.21m2.63-3.21-3.2 3.21m2.63-3.21-3.21 3.21m2.63-3.21-3.21 3.21m2.63-3.21-3.2 3.21m2.63-3.21-3.21 3.21m2.63-3.21-3.2 3.21m2.63-3.21-3.21 3.21m2.63-3.21-3.2 3.21m2.63-3.21-3.21 3.21m2.63-3.21-3.21 3.21m2.63-3.21-3.2 3.21m2.63-3.21-3.21 3.21m2.63-3.21-3.2 3.21m2.63-3.21-3.21 3.21m2.63-3.21-3.2 3.21m2.63-3.21-3.21 3.21m2.63-3.21-3.21 3.21m2.63-3.21-3.2 3.21m2.63-3.21-3.21 3.21m2.63-3.21-3.2 3.21m2.63-3.21-3.21 3.21m2.63-3.21-3.2 3.21m2.63-3.21-3.21 3.21m2.63-3.21-3.21 3.21m2.63-3.21-3.2 3.21m2.63-3.21-3.21 3.21m2.63-3.21-3.2 3.21M277.7 449.3l-1.92 1.93m1.35-1.93-1.93 1.93m1.35-1.93-1.92 1.93m1.34-1.93-1.92 1.93m1.35-1.93-1.92 1.93m1.34-1.93-1.92 1.93m1.35-1.93-1.93 1.93m1.35-1.93-1.92 1.93m1.35-1.93-1.93 1.93m1.35-1.93-1.92 1.93m1.34-1.93-1.92 1.93m1.35-1.93-1.92 1.93m1.34-1.93-1.92 1.93m1.35-1.93-1.93 1.93m1.35-1.93-1.92 1.93m1.35-1.93-1.93 1.93m1.35-1.93-1.92 1.93m1.34-1.93-1.92 1.93m1.35-1.93-1.92 1.93m1.34-1.93-1.92 1.93m1.35-1.93-1.93 1.93m1.35-1.93-1.92 1.93m1.35-1.93-1.93 1.93m1.35-1.93-1.92 1.93m1.34-1.93-1.92 1.93m1.35-1.93-1.92 1.93m1.34-1.93-1.92 1.93m1.35-1.93-1.93 1.93m1.35-1.93-1.92 1.93m1.35-1.93-1.93 1.93m1.35-1.93-1.92 1.93m67.38-67.96-3.21 3.21m2.63-3.21-3.2 3.21m2.63-3.21-3.21 3.21m2.63-3.21-3.21 3.21m-61.1 62.82-1.75 1.76m1.18-1.76-1.18 1.18m.6-1.18-.6.61m.03-.61-.03.03m65.48-66.06-3.2 3.21m2.63-3.21-3.21 3.21m2.63-3.21-3.2 3.21m2.63-3.21-3.21 3.21m2.63-3.21-3.2 3.21m2.63-3.21-3.21 3.21m2.63-3.21-3.21 3.21m2.63-3.21-3.2 3.21m2.63-3.21-3.21 3.21m2.63-3.21-3.2 3.21m2.63-3.21-3.21 3.21m2.63-3.21-3.2 3.21m2.63-3.21-3.21 3.21m2.63-3.21-3.21 3.21m2.63-3.21-3.2 3.21m2.63-3.21-3.21 3.21m2.63-3.21-3.2 3.21m2.63-3.21-3.21 3.21m2.63-3.21-3.2 3.21m2.63-3.21-3.21 3.21m2.63-3.21-3.21 3.21m2.63-3.21-3.2 3.21m2.63-3.21-3.21 3.21m2.63-3.21-3.2 3.21m2.63-3.21-3.21 3.21m2.63-3.21-3.2 3.21m2.63-3.21-3.21 3.21m2.63-3.21-3.21 3.21m2.63-3.21-3.2 3.21m2.63-3.21-3.21 3.21m2.63-3.21-3.2 3.21m2.63-3.21-3.21 3.21m2.63-3.21-3.2 3.21m2.63-3.21-3.21 3.21m2.63-3.21-3.21 3.21m2.63-3.21-3.2 3.21m2.63-3.21-3.21 3.21m2.63-3.21-3.2 3.21m2.63-3.21-3.21 3.21m2.63-3.21-3.2 3.21m2.63-3.21-3.21 3.21m2.63-3.21-3.21 3.21m2.63-3.21-3.2 3.21m2.63-3.21-3.21 3.21m2.63-3.21-3.2 3.21m2.63-3.21-3.21 3.21m2.63-3.21-3.2 3.21m2.63-3.21-3.21 3.21m2.63-3.21-3.21 3.21m2.63-3.21-3.2 3.21m2.63-3.21-3.21 3.21m2.63-3.21-3.2 3.21m2.63-3.21-3.21 3.21m2.63-3.21-3.2 3.21m2.63-3.21-3.21 3.21m2.63-3.21-3.21 3.21m2.63-3.21-3.2 3.21m2.63-3.21-3.21 3.21m2.63-3.21-3.2 3.21m2.63-3.21-3.21 3.21m2.63-3.21-3.2 3.21m2.63-3.21-2.8 2.8m2.22-2.8-2.22 2.22m1.64-2.22-1.64 1.65m1.07-1.65-1.07 1.07m.49-1.07-.49.5" fill="none" stroke="silver" stroke-width=".5"/><path d="M452.8 156.55h-11.59M452.8 158.48h-11.59M452.8 158.48v29.13M454.72 142.51v45.1M287.84 98.89h1.92M287.84 88.63h1.92M316.16 81.98v-1.93M305.9 81.98v-1.93M341.99 81.98v-1.93M331.73 81.98v-1.93M352.05 86.22v1.94M483.76 82.55v-1.56M473.5 82.53v-1.54M462.6 82.53v-1.54M452.34 82.55v-1.56M468.57 80.99V61.12M467.03 80.99V61.12M370.93 421.1v-7.38M374.14 445.46V405.6" fill="none" stroke="#000" stroke-width=".5"/><path d="M490.56 392.73v51.28M489.92 392.73v51.28" fill="none" stroke="#0ff" stroke-width=".5"/><path d="M493.38 392.73v194.09M489.28 392.73v189.99M497.23 56.25v526.47M504.28 56.25v526.47M508.13 56.25v526.47" fill="none" stroke="#000" stroke-width=".5"/><path d="M548.19 1.7v596.6" fill="none" stroke="silver" stroke-width=".5"/><path d="M370.93 421.1v2.56" fill="none" stroke="#000" stroke-width=".5"/><path d="M269.9 496.81h25.64m0 0v-25.65m0 0H269.9m0 0v25.65M269.9 562.2h25.64m0 0v-25.64m0 0H269.9m0 0v25.64" fill="none" stroke="#0ff" stroke-width=".5"/><path d="m448.79 489.27-.52-.51m0 0-.76-.26m0 0h-1.03m0 0-.77.26m0 0-.51.51m0 0v.51m0 0 .25.52m0 0 .26.25m0 0 .51.26m0 0 1.54.51m0 0 .51.26m0 0 .26.26m0 0 .26.51m0 0v.77m0 0-.52.51m0 0-.76.26m0 0h-1.03m0 0-.77-.26m0 0-.51-.51m5.13.77v-5.39m0 0h3.33m-3.33 2.57h2.05m-2.05 2.82h3.33m1.54 0v-5.39m0 0h2.31m0 0 .77.26m0 0 .25.26m0 0 .26.51m0 0v.51m0 0-.26.51m0 0-.25.26m0 0-.77.26m0 0h-2.31m1.79 0 1.8 2.82m1.79-5.39 2.06 5.39m0 0 2.05-5.39m1.02 5.39v-5.39m2.05 0h3.59m0 0-3.59 5.39m0 0h3.59m1.54 0v-5.39M448.24 475.23l-.52-.51m0 0-.77-.26m0 0h-1.02m0 0-.77.26m0 0-.51.51m0 0v.51m0 0 .25.52m0 0 .26.25m0 0 .51.26m0 0 1.54.51m0 0 .51.26m0 0 .26.26m0 0 .26.51m0 0v.77m0 0-.52.51m0 0-.77.26m0 0h-1.02m0 0-.77-.26m0 0-.51-.51m5.12.77v-5.39m0 0h3.34m-3.34 2.57h2.06m-2.06 2.82h3.34m1.54 0v-5.39m0 0h2.3m0 0 .77.26m0 0 .26.26m0 0 .26.51m0 0v.51m0 0-.26.51m0 0-.26.26m0 0-.77.26m0 0h-2.3m1.79 0 1.8 2.82m1.79-5.39 2.05 5.39m0 0 2.05-5.39m1.03 5.39v-5.39m2.05 0h3.59m0 0-3.59 5.39m0 0h3.59m1.54 0v-5.39M420.55 530.77v5.39m0 0h3.08m1.28 0 2.05-5.39m0 0 2.05 5.39m-3.33-1.8h2.56m2.31 1.8v-5.39m0 0h2.31m0 0 .77.26m0 0 .26.26m0 0 .25.51m0 0v.51m0 0-.25.52m0 0-.26.25m0 0-.77.26m-2.31 0h2.31m0 0 .77.25m0 0 .26.26m0 0 .25.51m0 0v.77m0 0-.25.52m0 0-.26.25m0 0-.77.26m0 0h-2.31m6.93-5.39-.52.26m0 0-.51.51m0 0-.26.52m0 0-.25.77m0 0v1.28m0 0 .25.77m0 0 .26.51m0 0 .51.51m0 0 .52.26m0 0h1.02m0 0 .51-.26m0 0 .52-.51m0 0 .25-.51m0 0 .26-.77m0 0v-1.28m0 0-.26-.77m0 0-.25-.52m0 0-.52-.51m0 0-.51-.26m0 0h-1.02m4.1 5.39v-5.39m0 0h2.31m0 0 .77.26m0 0 .25.26m0 0 .26.51m0 0v.51m0 0-.26.52m0 0-.25.25m0 0-.77.26m0 0h-2.31m1.79 0 1.8 2.82m1.79 0 2.05-5.39m0 0 2.06 5.39m-3.34-1.8h2.57m4.1-3.59v5.39m-1.79-5.39h3.59m2.56 0-.51.26m0 0-.52.51m0 0-.25.52m0 0-.26.77m0 0v1.28m0 0 .26.77m0 0 .25.51m0 0 .52.51m0 0 .51.26m0 0h1.03m0 0 .51-.26m0 0 .51-.51m0 0 .26-.51m0 0 .25-.77m0 0v-1.28m0 0-.25-.77m0 0-.26-.52m0 0-.51-.51m0 0-.51-.26m0 0h-1.03m4.1 5.39v-5.39m0 0h2.31m0 0 .77.26m0 0 .26.26m0 0 .25.51m0 0v.51m0 0-.25.52m0 0-.26.25m0 0-.77.26m0 0h-2.31m1.8 0 1.79 2.82m1.8 0v-5.39m3.59 0-.51.26m0 0-.52.51m0 0-.25.52m0 0-.26.77m0 0v1.28m0 0 .26.77m0 0 .25.51m0 0 .52.51m0 0 .51.26m0 0h1.02m0 0 .52-.26m0 0 .51-.51m0 0 .26-.51m0 0 .25-.77m0 0v-1.28m0 0-.25-.77m0 0-.26-.52m0 0-.51-.51m0 0-.52-.26m0 0h-1.02m8.97 5.39v-5.39m0 0h2.31m0 0 .77.26m0 0 .26.26m0 0 .25.51m0 0v.51m0 0-.25.52m0 0-.26.25m0 0-.77.26m-2.31 0h2.31m0 0 .77.25m0 0 .26.26m0 0 .25.51m0 0v.77m0 0-.25.52m0 0-.26.25m0 0-.77.26m0 0h-2.31M273.58 546.46v5.38m0 0h3.08m1.28 0 2.05-5.38m0 0 2.06 5.38m-3.34-1.79h2.57m2.31 1.79v-5.38m0 0h2.3m0 0 .77.25m0 0 .26.26m0 0 .26.51m0 0v.51m0 0-.26.52m0 0-.26.25m0 0-.77.26m-2.3 0h2.3m0 0 .77.26m0 0 .26.25m0 0 .26.52m0 0v.77m0 0-.26.51m0 0-.26.25m0 0-.77.26m0 0h-2.3m6.92-5.38-.51.25m0 0-.52.51m0 0-.25.52m0 0-.26.77m0 0v1.28m0 0 .26.77m0 0 .25.51m0 0 .52.51m0 0 .51.26m0 0h1.02m0 0 .52-.26m0 0 .51-.51m0 0 .26-.51m0 0 .25-.77m0 0v-1.28m0 0-.25-.77m0 0-.26-.52m0 0-.51-.51m0 0-.52-.25m0 0h-1.02m4.1 5.38v-5.38m0 0h2.31m0 0 .77.25m0 0 .26.26m0 0 .25.51m0 0v.51m0 0-.25.52m0 0-.26.25m0 0-.77.26m0 0h-2.31m1.8 0 1.79 2.82m1.8 0 2.05-5.38m0 0 2.05 5.38m-3.33-1.79h2.56m4.1-3.59v5.38m-1.79-5.38h3.59m2.56 0-.51.25m0 0-.51.51m0 0-.26.52m0 0-.26.77m0 0v1.28m0 0 .26.77m0 0 .26.51m0 0 .51.51m0 0 .51.26m0 0h1.03m0 0 .51-.26m0 0 .51-.51m0 0 .26-.51m0 0 .26-.77m0 0v-1.28m0 0-.26-.77m0 0-.26-.52m0 0-.51-.51m0 0-.51-.25m0 0h-1.03m4.11 5.38v-5.38m0 0h2.3m0 0 .77.25m0 0 .26.26m0 0 .26.51m0 0v.51m0 0-.26.52m0 0-.26.25m0 0-.77.26m0 0h-2.3m1.79 0 1.8 2.82m1.79 0v-5.38m3.59 0-.51.25m0 0-.51.51m0 0-.26.52m0 0-.26.77m0 0v1.28m0 0 .26.77m0 0 .26.51m0 0 .51.51m0 0 .51.26m0 0h1.03m0 0 .51-.26m0 0 .51-.51m0 0 .26-.51m0 0 .26-.77m0 0v-1.28m0 0-.26-.77m0 0-.26-.52m0 0-.51-.51m0 0-.51-.25m0 0h-1.03m8.98 5.38v-5.38m0 0h2.3m0 0 .77.25m0 0 .26.26m0 0 .26.51m0 0v.51m0 0-.26.52m0 0-.26.25m0 0-.77.26m-2.3 0h2.3m0 0 .77.26m0 0 .26.25m0 0 .26.52m0 0v.77m0 0-.26.51m0 0-.26.25m0 0-.77.26m0 0h-2.3M362.22 448.66v3.21M362.22 457v1.28M343.37 421.1v2.56M406.19 475.43h-3.2M406.19 490.81h-3.2M325.71 356.67l2.05-5.38m0 0 2.05 5.38m-3.33-1.79h2.56m4.1-3.59v5.38m-1.79-5.38h3.59m1.03 5.38v-5.38m0 0h2.3m0 0 .77.25m0 0 .26.26m0 0 .26.51m0 0v.51m0 0-.26.52m0 0-.26.25m0 0-.77.26m0 0h-2.3m1.79 0 1.8 2.82m1.79 0v-5.38m3.59 0-.51.25m0 0-.52.51m0 0-.25.52m0 0-.26.77m0 0v1.28m0 0 .26.77m0 0 .25.51m0 0 .52.51m0 0 .51.26m0 0h1.03m0 0 .51-.26m0 0 .51-.51m0 0 .26-.51m0 0 .25-.77m0 0v-1.28m0 0-.25-.77m0 0-.26-.52m0 0-.51-.51m0 0-.51-.25m0 0h-1.03M450.17 495.78v1.29M459.15 495.78v1.29M446.97 495.78v19.24M448.25 497.07v17.95M370.93 457v1.28M459.15 470.46v-1.28M450.17 470.46v-1.28M448.25 469.18v-17.95M446.97 470.46v-19.23" fill="none" stroke="#000" stroke-width=".5"/><path d="M490.56 526.3v48.72M489.92 526.3v48.72" fill="none" stroke="#0ff" stroke-width=".5"/><path d="M513.9 549.38v3.85" fill="none" stroke="#000" stroke-width=".5"/><path d="M490.56 472.22v8.98M489.92 472.22v8.98" fill="none" stroke="#0ff" stroke-width=".5"/><path d="M464.28 495.78v1.29M473.25 495.78v1.29M478.38 495.78v1.29M487.36 495.78v1.29" fill="none" stroke="#000" stroke-width=".5"/><path d="M490.56 485.04v8.98M489.92 485.04v8.98" fill="none" stroke="#0ff" stroke-width=".5"/><path d="M476.46 497.07v17.95M475.18 497.07v17.95M462.35 497.07v17.95M461.07 497.07v17.95" fill="none" stroke="#000" stroke-width=".5"/><path d="M490.56 497.87v8.97M489.92 497.87v8.97" fill="none" stroke="#0ff" stroke-width=".5"/><path d="M513.9 482.7v3.85M513.9 516.04v3.85" fill="none" stroke="#000" stroke-width=".5"/><path d="M489.92 431.19h.64M489.92 418.37h.64" fill="none" stroke="#0ff" stroke-width=".5"/><path d="M489.28 444.01h4.1" fill="none" stroke="#000" stroke-width=".5"/><path d="M489.92 459.4v8.98M490.56 459.4v8.98" fill="none" stroke="#0ff" stroke-width=".5"/><path d="M487.36 470.46v-1.28M478.38 470.46v-1.28M473.25 470.46v-1.28M464.28 470.46v-1.28M461.07 469.18v-17.95M462.35 469.18v-17.95M475.18 469.18v-18.91M476.46 469.18v-18.91M513.9 449.37v3.84M513.9 416.03v3.85" fill="none" stroke="#000" stroke-width=".5"/><path d="M364.51 460.15h3.98v.64h-3.98v-.64z" fill-rule="evenodd"/><path d="M364.51 460.47h3.98" fill="none" stroke="#000" stroke-width=".5"/><path d="M370.79 458.68h-3.2v.64h3.2v-.64zM362.46 458.68h3.21v.64h-3.21v-.64z" fill-rule="evenodd"/><path d="M362.46 459h3.21M483.68 586.82H249.13M361.32 457v-5.13M360.04 458.28v-6.41M361.32 457h.9M360.04 458.28h2.18M377.34 458.28v-6.41M375.42 457v-5.13M370.93 448.66v-14.42M374.14 419.49v-2.88M370.93 431.67v-8.01M370.93 457h4.49M370.93 458.28h6.41" fill="none" stroke="#000" stroke-width=".5"/><path d="M269.9 104.46h25.64m0 0V78.81m0 0H269.9m0 0v25.65M269.9 169.85h25.64m0 0v-25.64m0 0H269.9m0 0v25.64M269.9 235.24h25.64m0 0V209.6m0 0H269.9m0 0v25.64M269.9 366.03h25.64m0 0v-25.65m0 0H269.9m0 0v25.65M269.9 300.63h25.64m0 0v-25.64m0 0H269.9m0 0v25.64" fill="none" stroke="#0ff" stroke-width=".5"/><path d="M493.38 131.16v65.39" fill="none" stroke="#000" stroke-width=".5"/><path d="M490.56 131.16v51.29M489.92 131.16v51.29" fill="none" stroke="#0ff" stroke-width=".5"/><path d="M489.28 131.16v56.45M489.28 189.53v7.02M406.19 383.27h58.33M404.27 385.19h14.75M420.3 385.19h44.22M415.09 424.84v5.38m0 0h3.07m1.29 0 2.05-5.38m0 0 2.05 5.38m-3.33-1.79h2.56m2.31 1.79v-5.38m0 0h2.31m0 0 .76.26m0 0 .26.25m0 0 .26.51m0 0v.52m0 0-.26.51m0 0-.26.26m0 0-.76.25m-2.31 0h2.31m0 0 .76.26m0 0 .26.26m0 0 .26.51m0 0v.77m0 0-.26.51m0 0-.26.26m0 0-.76.25m0 0h-2.31m6.92-5.38-.51.26m0 0-.51.51m0 0-.26.51m0 0-.26.77m0 0v1.28m0 0 .26.77m0 0 .26.52m0 0 .51.51m0 0 .51.25m0 0h1.03m0 0 .51-.25m0 0 .51-.51m0 0 .26-.52m0 0 .26-.77m0 0v-1.28m0 0-.26-.77m0 0-.26-.51m0 0-.51-.51m0 0-.51-.26m0 0h-1.03m4.1 5.38v-5.38m0 0h2.31m0 0 .77.26m0 0 .26.25m0 0 .25.51m0 0v.52m0 0-.25.51m0 0-.26.26m0 0-.77.25m0 0h-2.31m1.8 0 1.79 2.82m1.8 0 2.05-5.38m0 0 2.05 5.38m-3.33-1.79h2.56m4.11-3.59v5.38m-1.8-5.38h3.59m2.57 0-.52.26m0 0-.51.51m0 0-.26.51m0 0-.25.77m0 0v1.28m0 0 .25.77m0 0 .26.52m0 0 .51.51m0 0 .52.25m0 0h1.02m0 0 .51-.25m0 0 .52-.51m0 0 .25-.52m0 0 .26-.77m0 0v-1.28m0 0-.26-.77m0 0-.25-.51m0 0-.52-.51m0 0-.51-.26m0 0h-1.02m4.1 5.38v-5.38m0 0h2.31m0 0 .77.26m0 0 .25.25m0 0 .26.51m0 0v.52m0 0-.26.51m0 0-.25.26m0 0-.77.25m0 0h-2.31m1.79 0 1.8 2.82m1.79 0v-5.38m3.59 0-.51.26m0 0-.51.51m0 0-.26.51m0 0-.25.77m0 0v1.28m0 0 .25.77m0 0 .26.52m0 0 .51.51m0 0 .51.25m0 0h1.03m0 0 .51-.25m0 0 .52-.51m0 0 .25-.52m0 0 .26-.77m0 0v-1.28m0 0-.26-.77m0 0-.25-.51m0 0-.52-.51m0 0-.51-.26m0 0h-1.03m8.98 5.38v-5.38m0 0h2.31m0 0 .77.26m0 0 .25.25m0 0 .26.51m0 0v.52m0 0-.26.51m0 0-.25.26m0 0-.77.25m-2.31 0h2.31m0 0 .77.26m0 0 .25.26m0 0 .26.51m0 0v.77m0 0-.26.51m0 0-.25.26m0 0-.77.25m0 0h-2.31M302.2 218.27v5.39m0 0h3.08m1.28 0 2.05-5.39m0 0 2.06 5.39m-3.34-1.8h2.57m2.3 1.8v-5.39m0 0h2.31m0 0 .77.26m0 0 .26.26m0 0 .26.51m0 0v.51m0 0-.26.51m0 0-.26.26m0 0-.77.26m-2.31 0h2.31m0 0 .77.25m0 0 .26.26m0 0 .26.51m0 0v.77m0 0-.26.52m0 0-.26.25m0 0-.77.26m0 0h-2.31m6.93-5.39-.51.26m0 0-.52.51m0 0-.25.52m0 0-.26.76m0 0v1.29m0 0 .26.77m0 0 .25.51m0 0 .52.51m0 0 .51.26m0 0h1.02m0 0 .52-.26m0 0 .51-.51m0 0 .26-.51m0 0 .25-.77m0 0v-1.29m0 0-.25-.76m0 0-.26-.52m0 0-.51-.51m0 0-.52-.26m0 0h-1.02m4.1 5.39v-5.39m0 0h2.31m0 0 .77.26m0 0 .26.26m0 0 .25.51m0 0v.51m0 0-.25.51m0 0-.26.26m0 0-.77.26m0 0h-2.31m1.8 0 1.79 2.82m1.8 0 2.05-5.39m0 0 2.05 5.39m-3.33-1.8h2.56m4.1-3.59v5.39m-1.79-5.39h3.59m2.56 0-.51.26m0 0-.51.51m0 0-.26.52m0 0-.26.76m0 0v1.29m0 0 .26.77m0 0 .26.51m0 0 .51.51m0 0 .51.26m0 0h1.03m0 0 .51-.26m0 0 .51-.51m0 0 .26-.51m0 0 .26-.77m0 0v-1.29m0 0-.26-.76m0 0-.26-.52m0 0-.51-.51m0 0-.51-.26m0 0h-1.03m4.11 5.39v-5.39m0 0h2.3m0 0 .77.26m0 0 .26.26m0 0 .26.51m0 0v.51m0 0-.26.51m0 0-.26.26m0 0-.77.26m0 0h-2.3m1.79 0 1.8 2.82m1.79 0v-5.39m3.59 0-.51.26m0 0-.51.51m0 0-.26.52m0 0-.26.76m0 0v1.29m0 0 .26.77m0 0 .26.51m0 0 .51.51m0 0 .51.26m0 0h1.03m0 0 .51-.26m0 0 .51-.51m0 0 .26-.51m0 0 .26-.77m0 0v-1.29m0 0-.26-.76m0 0-.26-.52m0 0-.51-.51m0 0-.51-.26m0 0h-1.03M420.3 261.21v-8.85M420.3 252.36v-5.64" fill="none" stroke="#000" stroke-width=".5"/><path d="M490.56 261.94v51.29M489.92 261.94v51.29" fill="none" stroke="#0ff" stroke-width=".5"/><path d="M489.28 261.94v65.4M493.38 261.94v65.4M493.38 327.34v65.39M489.28 327.34v65.39" fill="none" stroke="#000" stroke-width=".5"/><path d="M489.92 327.34v51.28M490.56 327.34v51.28M489.92 365.8h.64" fill="none" stroke="#0ff" stroke-width=".5"/><path d="M470.89 383.27h18.39M470.89 385.19h18.39" fill="none" stroke="#000" stroke-width=".5"/><path d="M489.92 405.55h.64" fill="none" stroke="#0ff" stroke-width=".5"/><path d="M489.28 378.62h4.1M513.9 382.69v3.85" fill="none" stroke="#000" stroke-width=".5"/><path d="M489.92 300.41h.64M489.92 352.98h.64M489.92 340.16h.64" fill="none" stroke="#0ff" stroke-width=".5"/><path d="M489.28 327.34h4.1M489.28 313.23h4.1M513.9 316.02v3.85M513.9 349.36v3.84" fill="none" stroke="#000" stroke-width=".5"/><path d="M490.56 196.55v51.29M489.92 196.55v51.29" fill="none" stroke="#0ff" stroke-width=".5"/><path d="M489.28 196.55v65.39M493.38 196.55v65.39M489.92 274.77h.64" fill="none" stroke="#000" stroke-width=".5"/><path d="M489.92 287.59h.64" fill="none" stroke="#0ff" stroke-width=".5"/><path d="M491.2 247.84v14.1M489.28 261.94h4.1M489.28 247.84h4.1M513.9 282.68v3.85M513.9 249.35v3.84M489.28 196.55h4.1M489.28 182.45h4.1" fill="none" stroke="#000" stroke-width=".5"/><path d="M489.92 235.02h.64M489.92 209.37h.64M489.92 222.2h.64" fill="none" stroke="#0ff" stroke-width=".5"/><path d="M513.9 182.67v3.85M513.9 216.01v3.85M454.72 124.14v8.11M452.8 124.14v8.11M302.2 154.65v5.38m0 0h3.08m1.28 0 2.05-5.38m0 0 2.06 5.38m-3.34-1.79h2.57m2.3 1.79v-5.38m0 0h2.31m0 0 .77.25m0 0 .26.26m0 0 .26.51m0 0v.52m0 0-.26.51m0 0-.26.25m0 0-.77.26m-2.31 0h2.31m0 0 .77.26m0 0 .26.25m0 0 .26.52m0 0v.77m0 0-.26.51m0 0-.26.26m0 0-.77.25m0 0h-2.31m6.93-5.38-.51.25m0 0-.52.52m0 0-.25.51m0 0-.26.77m0 0v1.28m0 0 .26.77m0 0 .25.51m0 0 .52.52m0 0 .51.25m0 0h1.02m0 0 .52-.25m0 0 .51-.52m0 0 .26-.51m0 0 .25-.77m0 0v-1.28m0 0-.25-.77m0 0-.26-.51m0 0-.51-.52m0 0-.52-.25m0 0h-1.02m4.1 5.38v-5.38m0 0h2.31m0 0 .77.25m0 0 .26.26m0 0 .25.51m0 0v.52m0 0-.25.51m0 0-.26.25m0 0-.77.26m0 0h-2.31m1.8 0 1.79 2.82m1.8 0 2.05-5.38m0 0 2.05 5.38m-3.33-1.79h2.56m4.1-3.59v5.38m-1.79-5.38h3.59m2.56 0-.51.25m0 0-.51.52m0 0-.26.51m0 0-.26.77m0 0v1.28m0 0 .26.77m0 0 .26.51m0 0 .51.52m0 0 .51.25m0 0h1.03m0 0 .51-.25m0 0 .51-.52m0 0 .26-.51m0 0 .26-.77m0 0v-1.28m0 0-.26-.77m0 0-.26-.51m0 0-.51-.52m0 0-.51-.25m0 0h-1.03m4.11 5.38v-5.38m0 0h2.3m0 0 .77.25m0 0 .26.26m0 0 .26.51m0 0v.52m0 0-.26.51m0 0-.26.25m0 0-.77.26m0 0h-2.3m1.79 0 1.8 2.82m1.79 0v-5.38m3.59 0-.51.25m0 0-.51.52m0 0-.26.51m0 0-.26.77m0 0v1.28m0 0 .26.77m0 0 .26.51m0 0 .51.52m0 0 .51.25m0 0h1.03m0 0 .51-.25m0 0 .51-.52m0 0 .26-.51m0 0 .26-.77m0 0v-1.28m0 0-.26-.77m0 0-.26-.51m0 0-.51-.52m0 0-.51-.25m0 0h-1.03M308.81 96.73v5.39m0 0h3.08m1.28 0 2.05-5.39m0 0 2.05 5.39m-3.33-1.8h2.56m2.31 1.8v-5.39m0 0h2.31m0 0 .77.26m0 0 .25.25m0 0 .26.52m0 0v.51m0 0-.26.51m0 0-.25.26m0 0-.77.26m-2.31 0h2.31m0 0 .77.25m0 0 .25.26m0 0 .26.51m0 0v.77m0 0-.26.51m0 0-.25.26m0 0-.77.26m0 0h-2.31m6.93-5.39-.52.26m0 0-.51.51m0 0-.26.51m0 0-.25.77m0 0v1.28m0 0 .25.77m0 0 .26.52m0 0 .51.51m0 0 .52.26m0 0h1.02m0 0 .51-.26m0 0 .52-.51m0 0 .25-.52m0 0 .26-.77m0 0v-1.28m0 0-.26-.77m0 0-.25-.51m0 0-.52-.51m0 0-.51-.26m0 0h-1.02m4.1 5.39v-5.39m0 0h2.31m0 0 .77.26m0 0 .25.25m0 0 .26.52m0 0v.51m0 0-.26.51m0 0-.25.26m0 0-.77.26m0 0h-2.31m1.79 0 1.8 2.82m2.05-.52-.26.26m0 0 .26.26m0 0 .26-.26M464.06 157.33v3.85m0 0 .26.77m0 0 .51.51m0 0 .77.26m0 0h.51m0 0 .77-.26m0 0 .51-.51m0 0 .26-.77m0 0v-3.85m2.05 5.39v-5.39m0 0h3.33m-3.33 2.57h2.05m2.57 2.82v-5.39m0 0h3.33m-3.33 2.57h2.05m2.82 2.3-.26.26m0 0 .26.26m0 0 .26-.26M397.83 56.25v-4.11M493.38 56.25v74.91M489.28 56.25v74.91M513.9 116v3.84" fill="none" stroke="#000" stroke-width=".5"/><path d="M489.92 143.98h.64M489.92 156.8h.64M489.92 169.63h.64" fill="none" stroke="#0ff" stroke-width=".5"/><path d="M489.28 131.16h4.1M513.9 149.33v3.85" fill="none" stroke="#000" stroke-width=".5"/><path d="M489.92 78.59h.64M489.92 91.41h.64M489.92 104.23h.64M489.92 65.77v51.29M490.56 65.77v51.29" fill="none" stroke="#0ff" stroke-width=".5"/><path d="M489.28 65.77h4.1M489.28 117.06h4.1M513.9 82.66v3.85M452.8 142.51v14.04" fill="none" stroke="#000" stroke-width=".5"/><path d="M275.97 387.42v1.28h-7.95v-1.28h7.95z" fill-rule="evenodd"/><path d="M275.97 388.06h-7.95" fill="none" stroke="#000" stroke-width=".5"/><path d="M263.4 384.47v1.28h6.41v-1.28h-6.41zM280.07 384.47v1.28h-6.41v-1.28h6.41z" fill-rule="evenodd"/><path d="M280.07 385.11h-6.41" fill="none" stroke="#000" stroke-width=".5"/><path d="M378.17 404.58v-7.95h1.28v7.95h-1.28z" fill-rule="evenodd"/><path d="M378.81 404.58v-7.95" fill="none" stroke="#000" stroke-width=".5"/><path d="M375.22 392.01v6.42h1.28v-6.42h-1.28zM375.22 408.68v-6.41h1.28v6.41h-1.28z" fill-rule="evenodd"/><path d="M375.86 408.68v-6.41M452.8 142.51h1.92M385.01 52.14H249.13M370.93 405.6h3.21M370.93 390.22h3.21M370.93 386.48v3.74M374.14 389.68v.54M370.93 411.16v-5.56M548.19 52.14H397.83M452.78 132.25h1.94M399.76 64.72h-1.93M489.28 122.22h-18.34M489.28 124.14h-18.34M406.19 448.02v-38.59" fill="none" stroke="#000" stroke-width=".5"/><path d="M331.99 395.29v44.56M323.17 386.48v62.18M321.25 406.03v23.08" fill="none" stroke="#0ff" stroke-width=".5"/><path d="M340.8 386.48v62.18M343.37 413.72v7.38M253.23 388.21v21.54M253.23 411.03v36.03M249.13 52.14v534.68M402.99 475.43V407.5M258.1 516.62h33.46M303.1 516.62h67.83M258.1 514.7h33.46M303.1 514.7h67.83M285.67 451.23h-27.61M285.67 449.3h-27.61M370.88 582.72h-9.56M360.04 582.72H258.07M253.23 518.86v58.98M251.69 584.25v-6.41M258.1 584.25h-6.41M258.1 577.84v6.41M251.69 577.84h6.41M253.23 453.47v58.98M251.69 518.86h6.41M258.1 518.86v-6.41M258.1 512.45h-6.41M251.69 512.45v6.41M251.69 453.47h6.41M258.1 453.47v-6.41M258.1 447.06h-6.41M251.69 447.06v6.41M464.49 451.23h-2.14M461.07 451.23h-12.82M446.97 451.23h-22.83M422.86 451.23h-16.67M464.46 448.02h-58.27M461.07 497.07h-1.92M461.07 495.78h-1.92M461.07 470.46h-1.92M461.07 469.18h-1.92M461.07 515.02h-12.82M464.43 582.72H420.3M419.02 582.72h-14.75M402.99 582.72h-25.78M464.46 516.3h-58.27M489.28 482.48h-65.14M489.28 483.76h-65.14M377.34 518.86v38.79M375.42 518.86v36.87M402.99 518.86v38.79M404.91 518.86v36.87M377.34 577.84v6.41M377.34 584.25h-6.41M370.93 584.25v-6.41M377.34 577.84v6.41M377.34 584.25h-6.41M370.93 584.25v-6.41M377.34 577.84v6.41M377.34 584.25h-6.41M370.93 584.25v-6.41M285.67 448.66v3.21M285.67 448.66v.64M360.04 476.61h15.38M360.04 476.61h15.38M360.04 474.69h17.3M360.04 476.61v-1.92" fill="none" stroke="#000" stroke-width=".5"/><path d="M287.23 439.85h44.76M287.23 431.03h35.94M287.23 429.11h34.02" fill="none" stroke="#0ff" stroke-width=".5"/><path d="M285.67 451.87h76.55M285.67 448.66h55.13" fill="none" stroke="#000" stroke-width=".5"/><path d="M315.48 431.03v17.63M311.63 431.03v17.63M323.17 417.57h17.63M323.17 421.42h17.63" fill="none" stroke="#0ff" stroke-width=".5"/><path d="M343.37 423.66v8.01M343.37 434.24v14.42M343.37 448.66h18.85" fill="none" stroke="#000" stroke-width=".5"/><path d="M319.33 431.03v17.63" fill="none" stroke="#0ff" stroke-width=".5"/><path d="M377.34 512.45v-37.76M406.19 475.43v-24.2M406.19 475.43v-24.2M422.86 515.02h-16.67M406.19 518.86h-1.28M406.19 518.86v-2.56M406.19 515.02v-24.21M402.99 518.86v-28.05M375.42 512.45v-35.84M450.17 495.78h-3.2M450.17 497.07h-1.92M424.14 482.48v-6.89M424.14 499.63h-1.28M424.14 475.59h-1.28M424.14 490.65h-1.28M422.86 490.65v-15.06M424.14 490.65v-6.89M422.86 515.02v-15.39M424.14 515.02v-15.39M446.97 515.02h-22.83M450.17 469.18h-1.92M450.17 470.46h-3.2M424.14 466.61h-1.28M424.14 466.61v-15.38M422.86 466.61v-15.38M548.19 586.82h-64.51M548.19 582.72h-54.81M504.28 537.84h-7.05M490.56 534.42h-.64M490.56 542.53h-.64M504.28 576.3h-7.05M504.28 569.89h-7.05M504.28 563.48h-7.05M504.28 557.07h-7.05M504.28 550.66h-7.05M504.28 544.25h-7.05M501.72 586.82h-8.34M489.28 582.72H470.9M464.53 577.84h6.41M470.94 577.84v6.41M470.94 584.25h-6.41M464.53 584.25v-6.41M490.56 550.65h-.64" fill="none" stroke="#000" stroke-width=".5"/><path d="M490.56 558.76h-.64M490.56 566.88h-.64" fill="none" stroke="#0ff" stroke-width=".5"/><path d="M491.42 586.82h-7.74M493.38 575.02h-4.1M548.19 553.23H513.9M548.19 549.38H513.9M504.28 499.37h-7.05M504.28 492.96h-7.05M504.28 486.55h-7.05M504.28 480.14h-7.05M504.28 531.43h-7.05M504.28 525.02h-7.05M504.28 518.61h-7.05M504.28 512.2h-7.05M504.28 505.78h-7.05M476.46 497.07h1.92M475.18 495.78h3.2M473.25 495.78h1.93M473.25 497.07h1.93M487.36 495.78h1.92M487.36 497.07h1.92M462.35 497.07h1.93M461.07 495.78h3.21M470.95 516.3h18.33M470.95 515.02h4.23M476.46 515.02h12.82M464.53 515.02h-2.18M493.38 526.3h-4.1M493.38 481.2h-4.1M493.38 485.04h-4.1M493.38 494.02h-4.1M493.38 497.87h-4.1M493.38 506.84h-4.1M548.19 516.04H513.9M548.19 519.89H513.9M548.19 482.7H513.9M548.19 486.55H513.9M504.28 416.03h-7.05M504.28 454.5h-7.05M504.28 448.09h-7.05M504.28 441.67h-7.05M504.28 435.26h-7.05M504.28 428.85h-7.05M504.28 422.44h-7.05M489.28 448.98h-18.36M489.28 450.27h-12.82M475.18 450.27h-4.26M504.28 473.73h-7.05M504.28 467.32h-7.05M504.28 460.91h-7.05M487.36 469.18h1.92M487.36 470.46h1.92M473.25 469.18h1.93M473.25 470.46h1.93M475.18 470.46h3.2M476.46 469.18h1.92M461.07 470.46h3.21M462.35 469.18h1.93M493.38 472.22h-4.1M493.38 468.38h-4.1M493.38 459.4h-4.1M548.19 449.37H513.9M548.19 453.21H513.9M548.19 416.03H513.9M548.19 419.88H513.9M467.03 77.44V61.12M362.31 86.24v3.99M287.84 84.19h-34.61M287.84 86.11h-34.61M370.88 56.25h-20.14M348.82 56.25h-23.48M323.42 56.25h-23.49M298.01 56.25h-39.94M258.1 255.69h85.91M258.1 252.49h85.91M370.93 187.74H258.1M370.93 189.66H258.1M360.04 122.34h-70.28M287.84 122.34H258.1M370.93 124.27H258.1M258.1 320.76h101.94M258.1 322.69h112.56M253.23 126.68v58.87M253.23 257.46v58.87M251.69 388.08h6.41M251.69 381.67v6.41M253.23 322.83v58.88M253.23 192v59.01M253.23 61.2v22.99M253.23 86.11v34.07M404.91 158.48v29.13M402.99 156.55v31.06M377.34 164.72v20.77M374.14 166v19.49M489.28 297.04h-47.83M464.46 320.76h-5.06M464.46 322.69h-5.06M464.46 189.53h-59.55M464.46 187.61h-9.74M452.8 187.61h-47.89M464.53 255.56h-17.82M445.17 255.56H420.3M464.53 252.36H420.3M489.28 295.12h-42.57M445.17 295.12h-40.26M441.45 320.76v-23.72M377.34 257.3v31.79M402.99 277.87v79.46M402.99 373.74v9.53M361.32 320.76h9.61M358.17 289.09h19.17M361.32 306.79h14.1M360.04 305.51h17.3M370.93 322.69H345.1M343.37 386.48h27.56M343.37 411.16h27.56M343.37 413.72h27.56M285.67 383.27h88.47" fill="none" stroke="#000" stroke-width=".5"/><path d="M297.35 395.29h10.44M307.79 395.29h24.2M287.23 404.11h28.25M315.48 404.11h7.69M287.23 406.03h29.93M317.16 406.03h4.09" fill="none" stroke="#0ff" stroke-width=".5"/><path d="M285.67 386.48h55.13" fill="none" stroke="#000" stroke-width=".5"/><path d="M296.25 396.36v7.75" fill="none" stroke="#0ff" stroke-width=".5"/><path d="M297.35 394.03v2.46" fill="none" stroke="gray" stroke-width=".5"/><path d="M296.25 386.48v7.69M300.09 386.48v17.63M303.94 386.48v4.4M303.94 390.88v13.23M307.79 386.48v8.81M307.79 395.29v8.82M311.63 386.48v13.22M311.63 399.7v4.41M315.48 386.48v17.63M292.4 395.91v8.2M288.55 386.48v17.63M292.4 386.48v8.17" fill="none" stroke="#0ff" stroke-width=".5"/><path d="M285.67 383.27v3.21" fill="none" stroke="#000" stroke-width=".5"/><path d="m291.84 395.84 1.29-1.28M291.23 395.77l1.12-1.12M290.63 395.69l.94-.94M290.02 395.62l.77-.77M289.41 395.55l.61-.61M288.8 395.48l.44-.44M288.2 395.41l.26-.27M287.59 395.33l.1-.1M292.45 395.91l1.45-1.45M293.06 395.98l1.62-1.62M293.67 396.06l1.79-1.8M294.27 396.13l1.96-1.96M294.88 396.2l2.13-2.13M295.49 396.27l1.86-1.86M296.1 396.35l1.25-1.26M296.7 396.42l.65-.65M297.31 396.49l.04-.04M287.23 395.29l10.12 1.2M287.23 395.29l10.12-1.26" fill="none" stroke="gray" stroke-width=".5"/><path d="M323.17 413.72h17.63" fill="none" stroke="#0ff" stroke-width=".5"/><path d="M343.37 386.48v24.68" fill="none" stroke="#000" stroke-width=".5"/><path d="M319.33 386.48v17.63" fill="none" stroke="#0ff" stroke-width=".5"/><path d="M360.04 305.51v15.25M361.32 306.79v13.97M406.19 383.27v-9.53M406.19 357.33v-34.64M406.19 320.12v-21.79M402.99 357.33h3.2M402.99 391.09v-7.82M404.27 389.81v-4.62M415.81 322.69h-9.62M415.81 320.12h-9.62M438.25 298.33h-32.06M377.34 305.51v10.77M375.42 306.79v9.49M438.25 320.12v-21.79M447.87 322.69v-1.93M459.4 322.69v-1.93M447.87 322.69h-6.42M447.87 320.76h-6.42M426.07 322.69v-2.57M415.81 322.69v-2.57M438.25 320.12h-12.18M441.45 322.69h-15.38M375.42 228.38h-15.38M377.34 230.31h-17.3M377.34 246.72h-17.3M375.42 248h-14.1M370.93 253.13h-9.61M370.93 255.05h-26.92M358.17 287.81h17.25M361.32 248v5.13M344.01 253.13v-.64M344.01 255.69v-.64M360.04 253.13h-16.03M360.04 246.72v6.41M360.04 228.38v1.93M404.91 248v12.18M402.99 246.72v14.74M375.42 248v2.88M377.34 246.72v4.16M375.42 257.3v30.51M404.91 279.8v15.32M441.45 255.56h-1.92M419.02 248v4.36M419.02 260.18v-7.82M420.3 252.36v9.1M420.3 246.72v5.64M420.3 246.72v5.64M402.99 198.35v31.96M404.91 198.35v30.03M402.99 187.61v10.74M404.91 189.53v8.82M375.42 191.9v36.48M377.34 191.9v38.41M504.28 371.15h-7.05M504.28 364.74h-7.05M504.28 358.33h-7.05M504.28 409.62h-7.05M504.28 403.21h-7.05M504.28 396.8h-7.05M504.28 390.39h-7.05M504.28 383.98h-7.05M504.28 377.56h-7.05M493.38 392.73h-4.1M548.19 386.54H513.9M548.19 382.69H513.9M504.28 326.28h-7.05M504.28 319.87h-7.05M504.28 313.46h-7.05M504.28 307.04h-7.05M504.28 300.63h-7.05M504.28 351.92h-7.05M504.28 345.51h-7.05M504.28 339.1h-7.05M504.28 332.69h-7.05M489.28 322.69h-18.37M489.28 320.76h-18.37M548.19 353.2H513.9M548.19 349.36H513.9M548.19 319.87H513.9M548.19 316.02H513.9M504.28 242.93h-7.05M504.28 287.81h-7.05M504.28 281.4h-7.05M504.28 274.99h-7.05M504.28 268.58h-7.05M504.28 262.17h-7.05M504.28 255.76h-7.05M504.28 249.35h-7.05M470.94 255.05h18.34M470.94 253.13h18.34M504.28 294.22h-7.05M548.19 286.53H513.9M548.19 282.68H513.9M548.19 253.19H513.9M548.19 249.35H513.9M504.28 204.47h-7.05M504.28 198.06h-7.05M504.28 191.65h-7.05M504.28 185.24h-7.05M504.28 178.83h-7.05M489.28 187.61h-18.45M489.28 189.53h-18.45M504.28 236.52h-7.05M504.28 230.11h-7.05M504.28 223.7h-7.05M504.28 217.29h-7.05M504.28 210.88h-7.05M548.19 219.86H513.9M548.19 216.01H513.9M548.19 186.52H513.9M548.19 182.67H513.9M430.95 156.55h-27.96M430.95 158.48h-26.04M441.21 158.48v-1.93M430.95 158.48v-1.93M464.43 56.25h-18.1M444.79 56.25h-39.88M464.53 124.14h-9.81M452.8 124.14h-32.5M419.02 124.14h-14.11M464.53 122.22H420.3M350.74 56.25v29.99M348.82 56.25v23.8M325.34 56.25v23.8M323.42 56.25v23.8M299.93 56.25v23.8M298.01 56.25v23.8M446.33 90.77v-8.24M446.33 80.99V56.25M444.79 89.23V56.25M397.83 54.07v10.65M385.01 52.14v12.58M399.76 56.25v8.47M383.09 56.25v8.47M402.99 90.77V56.25M404.91 89.23V56.25M377.34 90.23h-15.03M375.42 88.31h-11.19M375.42 107.93h-14.1M377.34 106.65h-17.3M374.14 147.03h-15.39M377.34 148.31h-18.59M370.93 122.34h-9.61M374.14 166h-15.39M377.34 164.72h-18.59M287.84 98.89v23.51M289.76 98.89v23.51M361.32 122.34v-14.41M360.04 122.34v-15.69M358.75 147.03v1.28M358.75 164.72V166M331.73 80.05h-6.39M323.42 80.05h-7.26M331.73 81.98h-15.57M305.9 80.05h-5.97M298.01 80.05h-10.17M305.9 81.98h-16.14M289.76 81.98v6.65M287.84 86.11v2.52M287.84 80.05v4.14M352.05 86.24h-1.31M352.05 88.16h-3.23M364.23 86.24v2.07M348.82 81.98v6.18M364.23 86.24h-1.92M348.82 81.98h-6.83M348.82 80.05h-6.83M375.42 120.1v-12.17M377.34 120.1v-13.45M402.99 140.14v-32.96M404.91 122.22v-13.76M420.3 122.22v-15.04M419.02 122.22v-13.76M419.02 122.22h-14.11M404.91 124.14v6.89M404.91 124.14v14.72M374.14 126.85v20.18M377.34 126.85v21.46M427.08 89.23h-22.17M427.08 90.77h-24.09M404.91 89.23h22.17M375.42 88.31V61.12M377.34 90.23V61.12M452.34 80.99h-6.01M452.34 80.99h-6.01M452.34 80.99h-6.01M452.34 82.53h-6.01M446.33 90.77h-9M444.79 89.23h-7.46M427.08 90.77v-1.54M437.33 90.77v-1.54M402.99 56.25h-3.23M383.09 56.25h-5.75M504.28 121.13h-7.05M504.28 159.59h-7.05M504.28 153.18h-7.05M504.28 146.77h-7.05M504.28 140.36h-7.05M504.28 133.95h-7.05M504.28 127.54h-7.05M504.28 172.41h-7.05M504.28 166h-7.05M548.19 119.84H513.9M548.19 153.18H513.9M548.19 149.33H513.9M473.5 80.99h-4.93M467.03 80.99h-4.43M473.5 82.53h-10.9M489.28 82.53h-5.52M464.43 80.99h-1.83M464.43 80.99h-1.83M489.28 80.99h-5.52M504.28 76.25h-7.05M504.28 69.84h-7.05M504.28 63.43h-7.05M504.28 114.72h-7.05M504.28 108.3h-7.05M504.28 101.89h-7.05M504.28 95.48h-7.05M504.28 89.07h-7.05M504.28 82.66h-7.05M548.19 116H513.9M548.19 82.66H513.9M548.19 86.51H513.9M548.19 56.25h-54.81M489.28 56.25H470.9" fill="none" stroke="#000" stroke-width=".5"/><path d="m370.9 411.16-27.53-24.68M343.1 411.16l27.83-24.68" fill="none" stroke="#0ff" stroke-width=".5"/><path d="M258.1 584.25h-6.41m6.41 0h-6.41M251.69 584.25v-6.41m0 6.41v-6.41M251.69 584.25v-6.41m0 6.41h6.41m-6.41-6.41h6.41m0 6.41v-6.41M258.1 453.47h-6.41m6.41 0h-6.41M251.69 453.47v-6.41m0 6.41v-6.41M251.69 453.47v-6.41m0 6.41h6.41m-6.41-6.41h6.41m0 6.41v-6.41M258.1 518.86h-6.41m6.41 0h-6.41M251.69 518.86v-6.41m0 6.41v-6.41M251.69 518.86v-6.41m0 6.41h6.41m-6.41-6.41h6.41m0 6.41v-6.41M258.1 388.08h-6.41m6.41 0h-6.41M251.69 388.08v-6.41m0 6.41v-6.41M251.69 388.08v-6.41m0 6.41h6.41m-6.41-6.41h6.41m0 6.41v-6.41M258.1 322.69h-6.41m6.41 0h-6.41M251.69 322.69v-6.41m0 6.41v-6.41M251.69 322.69v-6.41m0 6.41h6.41m-6.41-6.41h6.41m0 6.41v-6.41M377.34 584.25h-6.41m6.41 0h-6.41M370.93 584.25v-6.41m0 6.41v-6.41M370.93 584.25v-6.41m0 6.41h6.41m-6.41-6.41h6.41m0 6.41v-6.41M470.94 584.25h-6.41m6.41 0h-6.41M464.53 584.25v-6.41m0 6.41v-6.41M464.53 584.25v-6.41m0 6.41h6.41m-6.41-6.41h6.41m0 6.41v-6.41M377.34 518.86h-6.41m6.41 0h-6.41M370.93 518.86v-6.41m0 6.41v-6.41M370.93 518.86v-6.41m0 6.41h6.41m-6.41-6.41h6.41m0 6.41v-6.41M377.34 322.69h-6.41m6.41 0h-6.41M370.93 322.69v-6.41m0 6.41v-6.41M370.93 322.69v-6.41m0 6.41h6.41m-6.41-6.41h6.41m0 6.41v-6.41M470.94 453.47h-6.41m6.41 0h-6.41M464.53 453.47v-6.41m0 6.41v-6.41M464.53 453.47v-6.41m0 6.41h6.41m-6.41-6.41h6.41m0 6.41v-6.41M470.94 518.86h-6.41m6.41 0h-6.41M464.53 518.86v-6.41m0 6.41v-6.41M464.53 518.86v-6.41m0 6.41h6.41m-6.41-6.41h6.41m0 6.41v-6.41M470.94 388.08h-6.41m6.41 0h-6.41M464.53 388.08v-6.41m0 6.41v-6.41M464.53 388.08v-6.41m0 6.41h6.41m-6.41-6.41h6.41m0 6.41v-6.41M470.94 322.69h-6.41m6.41 0h-6.41M464.53 322.69v-6.41m0 6.41v-6.41M464.53 322.69v-6.41m0 6.41h6.41m-6.41-6.41h6.41m0 6.41v-6.41M377.34 451.87h-6.41m6.41 0h-6.41M370.93 451.87v-6.41m0 6.41v-6.41M370.93 451.87v-6.41m0 6.41h6.41m-6.41-6.41h6.41m0 6.41v-6.41M377.34 389.68h-6.41m6.41 0h-6.41M370.93 389.68v-6.41m0 6.41v-6.41M370.93 389.68v-6.41m0 6.41h6.41m-6.41-6.41h6.41m0 6.41v-6.41M258.1 191.9h-6.41m6.41 0h-6.41M251.69 191.9v-6.41m0 6.41v-6.41M251.69 191.9v-6.41m0 6.41h6.41m-6.41-6.41h6.41m0 6.41v-6.41M258.1 126.51h-6.41m6.41 0h-6.41M251.69 126.51v-6.41m0 6.41v-6.41M251.69 126.51v-6.41m0 6.41h6.41m-6.41-6.41h6.41m0 6.41v-6.41M258.1 61.12h-6.41m6.41 0h-6.41M251.69 61.12v-6.41m0 6.41v-6.41M251.69 61.12v-6.41m0 6.41h6.41m-6.41-6.41h6.41m0 6.41v-6.41M258.1 257.3h-6.41m6.41 0h-6.41M251.69 257.3v-6.42m0 6.42v-6.42M251.69 257.3v-6.42m0 6.42h6.41m-6.41-6.42h6.41m0 6.42v-6.42M377.34 191.9h-6.41m6.41 0h-6.41M370.93 191.9v-6.41m0 6.41v-6.41M370.93 191.9v-6.41m0 6.41h6.41m-6.41-6.41h6.41m0 6.41v-6.41M377.34 126.51h-6.41m6.41 0h-6.41M370.93 126.51v-6.41m0 6.41v-6.41M370.93 126.51v-6.41m0 6.41h6.41m-6.41-6.41h6.41m0 6.41v-6.41M377.34 61.12h-6.41m6.41 0h-6.41M370.93 61.12v-6.41m0 6.41v-6.41M370.93 61.12v-6.41m0 6.41h6.41m-6.41-6.41h6.41m0 6.41v-6.41M377.34 257.3h-6.41m6.41 0h-6.41M370.93 257.3v-6.42m0 6.42v-6.42M370.93 257.3v-6.42m0 6.42h6.41m-6.41-6.42h6.41m0 6.42v-6.42M470.94 257.3h-6.41m6.41 0h-6.41M464.53 257.3v-6.42m0 6.42v-6.42M464.53 257.3v-6.42m0 6.42h6.41m-6.41-6.42h6.41m0 6.42v-6.42M470.94 126.51h-6.41m6.41 0h-6.41M464.53 126.51v-6.41m0 6.41v-6.41M464.53 126.51v-6.41m0 6.41h6.41m-6.41-6.41h6.41m0 6.41v-6.41M470.94 191.9h-6.41m6.41 0h-6.41M464.46 191.9v-6.41m0 6.41v-6.41M464.46 191.9v-6.41m0 6.41h6.41m-6.41-6.41h6.41m0 6.41v-6.41M470.94 61.12h-6.41m6.41 0h-6.41M464.53 61.12v-6.41m0 6.41v-6.41M464.53 61.12v-6.41m0 6.41h6.41m-6.41-6.41h6.41m0 6.41v-6.41" fill="none" stroke="#000" stroke-width=".5"/><path d="m366.92 163.23-.32-1.53m0 0-.63-1.43m0 0-.91-1.27m0 0-1.16-1.05m0 0-1.36-.79m0 0-1.49-.48m0 0-1.55-.16M359.5 163.23h7.42M359.5 163.98h7.42M358.75 163.98v.74M359.5 163.98v.74M358.75 163.98h.75M366.92 163.23v.75M359.5 163.23v.75M359.5 149.8h7.42M359.5 149.06h7.42M366.92 149.8v-.74M359.5 148.31v.75M358.75 148.31v.75M358.75 149.06h.75M359.5 149.06v.74M358.75 156.52h5.73M359.5 156.52l1.55-.17m0 0 1.49-.48m0 0 1.36-.79m0 0 1.16-1.05m0 0 .91-1.27m0 0 .63-1.43m0 0 .32-1.53M368.2 245.23l-.32-1.54m0 0-.63-1.43m0 0-.91-1.27m0 0-1.16-1.05m0 0-1.36-.78m0 0-1.48-.48m0 0-1.56-.17M360.78 245.23h7.42M360.78 245.97h7.42M360.04 245.97v.75M360.78 245.97v.75M360.04 245.97h.74M368.2 245.23v.74M360.78 245.23v.74M360.78 231.8h7.42M360.78 231.05h7.42M368.2 231.8v-.75M360.78 230.31v.74M360.04 230.31v.74M360.04 231.05h.74M360.78 231.05v.75M360.04 238.51h5.73M360.78 238.51l1.56-.16m0 0 1.48-.49m0 0 1.36-.78m0 0 1.16-1.05m0 0 .91-1.27m0 0 .63-1.43m0 0 .32-1.53M368.2 304.01l-.32-1.53m0 0-.63-1.43m0 0-.91-1.27m0 0-1.16-1.05m0 0-1.36-.78m0 0-1.48-.49m0 0-1.56-.16M360.78 304.01h7.42M360.78 304.76h7.42M360.04 304.76v.75M360.78 304.76v.75M360.04 304.76h.74M368.2 304.01v.75M360.78 304.01v.75M360.78 290.59h7.42M360.78 289.84h7.42M368.2 290.59v-.75M360.78 289.09v.75M360.04 289.09v.75M360.04 289.84h.74M360.78 289.84v.75M360.04 297.3h5.73M360.78 297.3l1.56-.16m0 0 1.48-.49m0 0 1.36-.78m0 0 1.16-1.05m0 0 .91-1.27m0 0 .63-1.43m0 0 .32-1.53M370.47 105.15l-.31-1.53m0 0-.64-1.43m0 0-.91-1.27m0 0-1.16-1.05m0 0-1.36-.78m0 0-1.48-.49m0 0-1.56-.16M363.05 105.15h7.42M363.05 105.9h7.42M362.31 105.9v.75M363.05 105.9v.75M362.31 105.9h.74M370.47 105.15v.75M363.05 105.15v.75M363.05 91.73h7.42M363.05 90.98h7.42M370.47 91.73v-.75M363.05 90.23v.75M362.31 90.23v.75M362.31 90.98h.74M363.05 90.98v.75M362.31 98.44h5.73M363.05 98.44l1.56-.16m0 0 1.48-.49m0 0 1.36-.78m0 0 1.16-1.05m0 0 .91-1.27m0 0 .64-1.43m0 0 .31-1.53" fill="none" stroke="#0ff" stroke-width=".5"/><path d="M404.91 108.46h14.11M402.99 107.18h17.31" fill="none" stroke="#000" stroke-width=".5"/><path d="m410.45 105.69.32-1.53m0 0 .63-1.43m0 0 .91-1.27m0 0 1.16-1.05m0 0 1.36-.78m0 0 1.49-.49m0 0 1.55-.16M417.87 105.69h-7.42M417.87 106.44h-7.42M418.62 106.44v.74M417.87 106.44v.74M418.62 106.44h-.75M410.45 105.69v.75M417.87 105.69v.75M417.87 92.26h-7.42M417.87 91.52h-7.42M410.45 92.26v-.74M417.87 90.77v.75M418.62 90.77v.75M418.62 91.52h-.75M417.87 91.52v.74M418.62 98.98h-5.73M417.87 98.98l-1.55-.17m0 0-1.49-.48m0 0-1.36-.79m0 0-1.16-1.05m0 0-.91-1.26m0 0-.63-1.44m0 0-.32-1.53M410.45 155.06l.32-1.53m0 0 .63-1.43m0 0 .91-1.27m0 0 1.16-1.05m0 0 1.36-.78m0 0 1.49-.49m0 0 1.55-.16M417.87 155.06h-7.42M417.87 155.81h-7.42M418.62 155.81v.74M417.87 155.81v.74M418.62 155.81h-.75M410.45 155.06v.75M417.87 155.06v.75M417.87 141.63h-7.42M417.87 140.89h-7.42M410.45 141.63v-.74M417.87 140.14v.75M418.62 140.14v.75M418.62 140.89h-.75M417.87 140.89v.74M418.62 148.35h-5.73M417.87 148.35l-1.55-.17m0 0-1.49-.48m0 0-1.36-.79m0 0-1.16-1.05m0 0-.91-1.26m0 0-.63-1.43m0 0-.32-1.54" fill="none" stroke="#0ff" stroke-width=".5"/><path d="M402.99 140.14h17.31M404.91 138.86h14.11M420.3 140.14v-16M419.02 138.86v-14.72M404.91 228.38h15.39M402.99 230.31h17.31M402.99 246.72h17.31M404.91 248h14.11M420.3 228.38v1.93" fill="none" stroke="#000" stroke-width=".5"/><path d="m412.13 245.23.32-1.54m0 0 .63-1.43m0 0 .92-1.27m0 0 1.16-1.05m0 0 1.35-.78m0 0 1.49-.48m0 0 1.55-.17M419.55 245.23h-7.42M419.55 245.97h-7.42M420.3 245.97v.75M419.55 245.97v.75M420.3 245.97h-.75M412.13 245.23v.74M419.55 245.23v.74M419.55 231.8h-7.42M419.55 231.05h-7.42M412.13 231.8v-.75M419.55 230.31v.74M420.3 230.31v.74M420.3 231.05h-.75M419.55 231.05v.75M420.3 238.51h-5.73M419.55 238.51l-1.55-.16m0 0-1.49-.49m0 0-1.35-.78m0 0-1.16-1.05m0 0-.92-1.27m0 0-.63-1.43m0 0-.32-1.53" fill="none" stroke="#0ff" stroke-width=".5"/><path d="M404.91 279.8h15.39M402.99 277.87h17.31M402.99 261.46h17.31M404.91 260.18h14.11M420.3 279.8v-1.93" fill="none" stroke="#000" stroke-width=".5"/><path d="m412.13 262.95.32 1.54m0 0 .63 1.43m0 0 .92 1.27m0 0 1.16 1.05m0 0 1.35.78m0 0 1.49.48m0 0 1.55.17M419.55 262.95h-7.42M419.55 262.21h-7.42M420.3 262.21v-.75M419.55 262.21v-.75M420.3 262.21h-.75M412.13 262.95v-.74M419.55 262.95v-.74M419.55 276.38h-7.42M419.55 277.13h-7.42M412.13 276.38v.75M419.55 277.87v-.74M420.3 277.87v-.74M420.3 277.13h-.75M419.55 277.13v-.75M420.3 269.67h-5.73M419.55 269.67l-1.55.16m0 0-1.49.49m0 0-1.35.78m0 0-1.16 1.05m0 0-.92 1.27m0 0-.63 1.43m0 0-.32 1.53" fill="none" stroke="#0ff" stroke-width=".5"/><path d="M420.3 390.84v-5.65M419.02 389.81v-4.62M420.3 385.19v5.9M406.19 409.43h14.11M402.99 407.5h17.31M402.99 391.09h17.31M404.27 389.81h14.75M420.3 409.43v-1.93" fill="none" stroke="#000" stroke-width=".5"/><path d="m412.13 392.58.32 1.54m0 0 .63 1.43m0 0 .92 1.27m0 0 1.16 1.04m0 0 1.35.79m0 0 1.49.48m0 0 1.55.17M419.55 392.58h-7.42M419.55 391.84h-7.42M420.3 391.84v-.75M419.55 391.84v-.75M420.3 391.84h-.75M412.13 392.58v-.74M419.55 392.58v-.74M419.55 406.01h-7.42M419.55 406.76h-7.42M412.13 406.01v.75M419.55 407.5v-.74M420.3 407.5v-.74M420.3 406.76h-.75M419.55 406.76v-.75M420.3 399.3h-5.73M419.55 399.3l-1.55.16m0 0-1.49.49m0 0-1.35.78m0 0-1.16 1.05m0 0-.92 1.27m0 0-.63 1.43m0 0-.32 1.53" fill="none" stroke="#0ff" stroke-width=".5"/><path d="M420.3 582.72v-5.65M419.02 575.34v7.38M420.3 577.07v5.65M420.3 574.06v8.66M404.91 555.73h15.39M402.99 557.65h17.31M402.99 574.06h17.31M404.27 575.34h14.75M420.3 555.73v1.92" fill="none" stroke="#000" stroke-width=".5"/><path d="m412.13 572.57.32-1.53m0 0 .63-1.43m0 0 .92-1.27m0 0 1.16-1.05m0 0 1.35-.79m0 0 1.49-.48m0 0 1.55-.17M419.55 572.57h-7.42M419.55 573.31h-7.42M420.3 573.31v.75M419.55 573.31v.75M420.3 573.31h-.75M412.13 572.57v.74M419.55 572.57v.74M419.55 559.14h-7.42M419.55 558.39h-7.42M412.13 559.14v-.75M419.55 557.65v.74M420.3 557.65v.74M420.3 558.39h-.75M419.55 558.39v.75M420.3 565.85h-5.73M419.55 565.85l-1.55-.16m0 0-1.49-.48m0 0-1.35-.79m0 0-1.16-1.05m0 0-.92-1.27m0 0-.63-1.43m0 0-.32-1.53" fill="none" stroke="#0ff" stroke-width=".5"/><path d="M404.27 575.34v7.38M402.99 574.06v8.66M360.04 582.72v-5.65M361.32 575.34v7.38M360.04 577.07v5.65M360.04 574.06v8.66M375.42 555.73h-15.38M377.34 557.65h-17.3M377.34 574.06h-17.3M376.06 575.34h-14.74M360.04 555.73v1.92" fill="none" stroke="#000" stroke-width=".5"/><path d="m368.2 572.57-.32-1.53m0 0-.63-1.43m0 0-.91-1.27m0 0-1.16-1.05m0 0-1.36-.79m0 0-1.48-.48m0 0-1.56-.17M360.78 572.57h7.42M360.78 573.31h7.42M360.04 573.31v.75M360.78 573.31v.75M360.04 573.31h.74M368.2 572.57v.74M360.78 572.57v.74M360.78 559.14h7.42M360.78 558.39h7.42M368.2 559.14v-.75M360.78 557.65v.74M360.04 557.65v.74M360.04 558.39h.74M360.78 558.39v.75M360.04 565.85h5.73M360.78 565.85l1.56-.16m0 0 1.48-.48m0 0 1.36-.79m0 0 1.16-1.05m0 0 .91-1.27m0 0 .63-1.43m0 0 .32-1.53" fill="none" stroke="#0ff" stroke-width=".5"/><path d="M376.06 575.34v2.5M377.34 574.06v8.66" fill="none" stroke="#000" stroke-width=".5"/><path d="m368.2 473.2-.32-1.53m0 0-.63-1.43m0 0-.91-1.27m0 0-1.16-1.05m0 0-1.36-.79m0 0-1.48-.48m0 0-1.56-.17M360.78 473.2h7.42M360.78 473.94h7.42M360.04 473.94v.75M360.78 473.94v.75M360.04 473.94h.74M368.2 473.2v.74M360.78 473.2v.74M360.78 459.77h7.42M360.78 459.02h7.42M368.2 459.77v-.75M360.78 458.28v.74M360.04 458.28v.74M360.04 459.02h.74M360.78 459.02v.75M360.04 466.48h5.73M360.78 466.48l1.56-.16m0 0 1.48-.48m0 0 1.36-.79m0 0 1.16-1.05m0 0 .91-1.27m0 0 .63-1.43m0 0 .32-1.53" fill="none" stroke="#0ff" stroke-width=".5"/><path d="M385.01 64.72h-1.92" fill="none" stroke="#000" stroke-width=".5"/><path d="M397.59 64.72h.24M385.01 64.72h.25" fill="none" stroke="gray" stroke-width=".5"/><path d="M385.26 64.72V52.39M397.59 64.72l-.19-2.14m0 0-.56-2.08m0 0-.9-1.94m0 0-1.24-1.76m0 0-1.52-1.52m0 0-1.76-1.24m0 0-1.94-.91m0 0-2.08-.55m0 0-2.14-.19" fill="none" stroke="#0ff" stroke-width=".5"/><path d="M274.46 483.1v5.38m0 0h3.08m1.28 0 2.05-5.38m0 0 2.05 5.38m-3.33-1.79h2.56m2.31 1.79v-5.38m0 0h2.31m0 0 .77.25m0 0 .25.26m0 0 .26.51m0 0v.51m0 0-.26.52m0 0-.25.25m0 0-.77.26m-2.31 0h2.31m0 0 .77.26m0 0 .25.25m0 0 .26.52m0 0v.76m0 0-.26.52m0 0-.25.25m0 0-.77.26m0 0h-2.31m6.93-5.38-.52.25m0 0-.51.51m0 0-.26.52m0 0-.25.77m0 0v1.28m0 0 .25.77m0 0 .26.51m0 0 .51.51m0 0 .52.26m0 0h1.02m0 0 .51-.26m0 0 .52-.51m0 0 .25-.51m0 0 .26-.77m0 0v-1.28m0 0-.26-.77m0 0-.25-.52m0 0-.52-.51m0 0-.51-.25m0 0h-1.02m4.1 5.38v-5.38m0 0h2.31m0 0 .77.25m0 0 .25.26m0 0 .26.51m0 0v.51m0 0-.26.52m0 0-.25.25m0 0-.77.26m0 0h-2.31m1.79 0 1.8 2.82m1.79 0 2.05-5.38m0 0 2.06 5.38m-3.34-1.79h2.57m4.1-3.59v5.38m-1.8-5.38h3.6m2.56 0-.51.25m0 0-.52.51m0 0-.25.52m0 0-.26.77m0 0v1.28m0 0 .26.77m0 0 .25.51m0 0 .52.51m0 0 .51.26m0 0h1.03m0 0 .51-.26m0 0 .51-.51m0 0 .26-.51m0 0 .25-.77m0 0v-1.28m0 0-.25-.77m0 0-.26-.52m0 0-.51-.51m0 0-.51-.25m0 0h-1.03m4.1 5.38v-5.38m0 0h2.31m0 0 .77.25m0 0 .26.26m0 0 .25.51m0 0v.51m0 0-.25.52m0 0-.26.25m0 0-.77.26m0 0h-2.31m1.8 0 1.79 2.82m1.8 0v-5.38m3.59 0-.52.25m0 0-.51.51m0 0-.25.52m0 0-.26.77m0 0v1.28m0 0 .26.77m0 0 .25.51m0 0 .51.51m0 0 .52.26m0 0h1.02m0 0 .52-.26m0 0 .51-.51m0 0 .26-.51m0 0 .25-.77m0 0v-1.28m0 0-.25-.77m0 0-.26-.52m0 0-.51-.51m0 0-.52-.25m0 0h-1.02m8.97 5.38 2.05-5.38m0 0 2.06 5.38m-3.34-1.79h2.57M358.17 289.09v-1.28M287.23 409.75v38.91M285.95 411.03v37.63" fill="none" stroke="#000" stroke-width=".5"/><path d="M303.94 431.03v17.63M300.09 431.03v17.63M307.79 431.03v17.63M292.4 431.03v17.63M296.25 431.03v17.63" fill="none" stroke="#0ff" stroke-width=".5"/><path d="M287.23 409.75H276M263.18 409.75h-9.95M285.95 411.03H276M263.18 411.03h-9.95M276 411.03v-1.28M263.18 411.03v-1.28M261.99 432.42v-5.38m0 0h2.31m0 0 .77.25m0 0 .26.26m0 0 .25.51m0 0v.52m0 0-.25.51m0 0-.26.26m0 0-.77.25m0 0h-2.31m1.8 0 1.79 2.82m1.8 0v-5.38m2.05 5.38v-5.38m0 0h2.31m0 0 .77.25m0 0 .25.26m0 0 .26.51m0 0v.77m0 0-.26.52m0 0-.25.25m0 0-.77.26m0 0h-2.31m5.64 2.05-.25.26m0 0 .25.25m0 0 .26-.25M355.92 75.34v-5.38m5.13 1.79v3.59m0-2.82-.51-.51m0 0-.51-.26m0 0h-.77m0 0-.51.26m0 0-.52.51m0 0-.25.77m0 0v.52m0 0 .25.77m0 0 .52.51m0 0 .51.25m0 0h.77m0 0 .51-.25m0 0 .51-.51m4.62-2.06-.26-.51m0 0-.77-.26m0 0h-.77m0 0-.77.26m0 0-.25.51m0 0 .25.52m0 0 .52.25m0 0 1.28.26m0 0 .51.26m0 0 .26.51m0 0v.26m0 0-.26.51m0 0-.77.25m0 0h-.77m0 0-.77-.25m0 0-.25-.51m4.36-1.29h3.08m0 0v-.51m0 0-.26-.51m0 0-.26-.26m0 0-.51-.26m0 0h-.77m0 0-.51.26m0 0-.52.51m0 0-.25.77m0 0v.52m0 0 .25.77m0 0 .52.51m0 0 .51.25m0 0h.77m0 0 .51-.25m0 0 .52-.51m1.53.76v-3.59m0 1.54.26-.77m0 0 .51-.51m0 0 .52-.26m0 0h.77M436.95 337.49v4.12m0 0 .27.82m0 0 .55.55m0 0 .83.28m0 0h.55m0 0 .82-.28m0 0 .55-.55m0 0 .27-.82m0 0v-4.12m2.2 5.77v-5.77m0 0h3.57m-3.57 2.75h2.2m2.75 3.02v-5.77m0 0h3.57m-3.57 2.75h2.2m2.74 3.02v-5.77m6.32 1.37-.27-.55m0 0-.55-.55m0 0-.55-.27m0 0h-1.1m0 0-.55.27m0 0-.55.55m0 0-.27.55m0 0-.28.83m0 0v1.37m0 0 .28.82m0 0 .27.55m0 0 .55.55m0 0 .55.28m0 0h1.1m0 0 .55-.28m0 0 .55-.55m0 0 .27-.55m1.65 1.38v-5.77m3.85 0-.55.27m0 0-.55.55m0 0-.28.55m0 0-.27.83m0 0v1.37m0 0 .27.82m0 0 .28.55m0 0 .55.55m0 0 .55.28m0 0h1.1m0 0 .55-.28m0 0 .55-.55m0 0 .27-.55m0 0 .28-.82m0 0v-1.37m0 0-.28-.83m0 0-.27-.55m0 0-.55-.55m0 0-.55-.27m0 0h-1.1m-47.26 15.38v-5.77m0 0 2.2 5.77m0 0 2.2-5.77m0 0v5.77m2.19 0 2.2-5.77m0 0 2.2 5.77m-3.57-1.92h2.75m2.47 1.92v-5.77m0 0 3.85 5.77m0 0v-5.77m2.19 0v4.13m0 0 .28.82m0 0 .55.55m0 0 .82.27m0 0h.55m0 0 .83-.27m0 0 .55-.55m0 0 .27-.82m0 0v-4.13m4.12 0v5.77m-1.92-5.77h3.85m1.09 5.77v-5.77m0 0h3.58m-3.58 2.75h2.2m-2.2 3.02h3.58m1.64 0v-5.77m0 0 3.85 5.77m0 0v-5.77m2.2 0h3.85m0 0-3.85 5.77m0 0h3.85m1.64 0v-5.77m3.85 0-.55.28m0 0-.55.55m0 0-.27.55m0 0-.28.82m0 0v1.38m0 0 .28.82m0 0 .27.55m0 0 .55.55m0 0 .55.27m0 0h1.1m0 0 .55-.27m0 0 .55-.55m0 0 .27-.55m0 0 .28-.82m0 0v-1.38m0 0-.28-.82m0 0-.27-.55m0 0-.55-.55m0 0-.55-.28m0 0h-1.1m4.4 5.77v-5.77m0 0 3.84 5.77m0 0v-5.77m2.2 5.77v-5.77m7.42 1.1.55-.27m0 0 .82-.83m0 0v5.77" fill="none" stroke="#000" stroke-width=".5"/><path d="M406.19 358.07v-.74M405.45 358.07v-.74M406.19 358.07h-.74M405.45 372.25h-14.16M405.45 372.99h-14.16M391.29 372.25v.74M405.45 373.74v-.75M406.19 373.74v-.75M406.19 372.99h-.74M405.45 372.99v-.74M405.45 358.07l-2.22.17m0 0-2.16.52m0 0-2.06.85m0 0-1.89 1.16m0 0-1.69 1.45m0 0-1.45 1.69m0 0-1.15 1.9m0 0-.85 2.05m0 0-.52 2.17m0 0-.17 2.22" fill="none" stroke="#0ff" stroke-width=".5"/><path d="M406.19 373.74h-3.2M450.26 297.88v5.77m0-3.02-.55-.55m0 0-.54-.27m0 0h-.83m0 0-.55.27m0 0-.55.55m0 0-.27.82m0 0v.55m0 0 .27.83m0 0 .55.55m0 0 .55.27m0 0h.83m0 0 .54-.27m0 0 .55-.55m1.93-1.38h3.29m0 0v-.55m0 0-.27-.54m0 0-.27-.28m0 0-.55-.27m0 0h-.83m0 0-.55.27m0 0-.55.55m0 0-.27.82m0 0v.55m0 0 .27.83m0 0 .55.55m0 0 .55.27m0 0h.83m0 0 .55-.27m0 0 .54-.55m1.65-3.02v5.77m0-4.95.55-.55m0 0 .55-.27m0 0h.83m0 0 .55.27m0 0 .55.55m0 0 .27.82m0 0v.55m0 0-.27.83m0 0-.55.55m0 0-.55.27m0 0h-.83m0 0-.55-.27m0 0-.55-.55m6.6-3.02-.55.27m0 0-.55.55m0 0-.28.82m0 0v.55m0 0 .28.83m0 0 .55.55m0 0 .55.27m0 0h.82m0 0 .55-.27m0 0 .55-.55m0 0 .28-.83m0 0v-.55m0 0-.28-.82m0 0-.55-.55m0 0-.55-.27m0 0h-.82m6.87.82-.28-.55m0 0-.82-.27m0 0h-.83m0 0-.82.27m0 0-.28.55m0 0 .28.55m0 0 .55.27m0 0 1.37.28m0 0 .55.27m0 0 .28.55m0 0v.28m0 0-.28.55m0 0-.82.27m0 0h-.83m0 0-.82-.27m0 0-.28-.55m4.67-4.67.28.27m0 0 .27-.27m0 0-.27-.28m0 0-.28.28m.28 1.65v3.84m2.75-5.77v4.67m0 0 .27.83m0 0 .55.27m0 0h.55m-2.2-3.84h1.93m3.29 0-.55.27m0 0-.55.55m0 0-.27.82m0 0v.55m0 0 .27.83m0 0 .55.55m0 0 .55.27m0 0h.83m0 0 .55-.27m0 0 .55-.55m0 0 .27-.83m0 0v-.55m0 0-.27-.82m0 0-.55-.55m0 0-.55-.27m0 0h-.83m-45.19 13.46v-3.85m0 1.1.82-.82m0 0 .55-.28m0 0h.82m0 0 .55.28m0 0 .28.82m0 0v2.75m0-2.75.82-.82m0 0 .55-.28m0 0h.83m0 0 .55.28m0 0 .27.82m0 0v2.75m5.5-3.85v3.85m0-3.02-.55-.55m0 0-.55-.28m0 0h-.83m0 0-.55.28m0 0-.55.55m0 0-.27.82m0 0v.55m0 0 .27.82m0 0 .55.55m0 0 .55.28m0 0h.83m0 0 .55-.28m0 0 .55-.55m2.74-4.94v4.67m0 0 .28.82m0 0 .55.28m0 0h.55m-2.2-3.85h1.92m1.93 1.65h3.29m0 0v-.55m0 0-.27-.55m0 0-.28-.27m0 0-.55-.28m0 0h-.82m0 0-.55.28m0 0-.55.55m0 0-.27.82m0 0v.55m0 0 .27.82m0 0 .55.55m0 0 .55.28m0 0h.82m0 0 .55-.28m0 0 .55-.55m1.65.83v-3.85m0 1.65.28-.82m0 0 .55-.55m0 0 .54-.28m0 0h.83m1.65 3.3-.28.27m0 0 .28.28m0 0 .27-.28m10.72-5.49v5.77m0-3.02-.55-.55m0 0-.55-.28m0 0h-.83m0 0-.55.28m0 0-.54.55m0 0-.28.82m0 0v.55m0 0 .28.82m0 0 .54.55m0 0 .55.28m0 0h.83m0 0 .55-.28m0 0 .55-.55m1.92-4.67.28.28m0 0 .27-.28m0 0-.27-.27m0 0-.28.27m.28 1.65v3.85m5.22-5.77v5.77m0-3.02-.55-.55m0 0-.55-.28m0 0h-.83m0 0-.55.28m0 0-.55.55m0 0-.27.82m0 0v.55m0 0 .27.82m0 0 .55.55m0 0 .55.28m0 0h.83m0 0 .55-.28m0 0 .55-.55m5.22-3.02v3.85m0-3.02-.55-.55m0 0-.55-.28m0 0h-.83m0 0-.55.28m0 0-.55.55m0 0-.27.82m0 0v.55m0 0 .27.82m0 0 .55.55m0 0 .55.28m0 0h.83m0 0 .55-.28m0 0 .55-.55m2.74-4.94v4.67m0 0 .28.82m0 0 .55.28m0 0h.55m-2.2-3.85h1.92m2.75-1.92v4.67m0 0 .28.82m0 0 .54.28m0 0h.55m-2.19-3.85h1.92m2.2 3.3-.28.27m0 0 .28.28m0 0 .27-.28M430.3 266.59v4.12m0 0 .28.82m0 0 .55.55m0 0 .82.28m0 0h.55m0 0 .83-.28m0 0 .54-.55m0 0 .28-.82m0 0v-4.12m2.2 5.77v-5.77m0 0h3.57m-3.57 2.75h2.2m2.74 3.02v-5.77m0 0h3.57m-3.57 2.75h2.2m2.75 3.02v-5.77m6.32 1.37-.28-.55m0 0-.55-.55m0 0-.55-.27m0 0h-1.09m0 0-.55.27m0 0-.55.55m0 0-.28.55m0 0-.27.83m0 0v1.37m0 0 .27.82m0 0 .28.55m0 0 .55.55m0 0 .55.28m0 0h1.09m0 0 .55-.28m0 0 .55-.55m0 0 .28-.55m1.65 1.38v-5.77m3.84 0-.55.27m0 0-.55.55m0 0-.27.55m0 0-.28.83m0 0v1.37m0 0 .28.82m0 0 .27.55m0 0 .55.55m0 0 .55.28m0 0h1.1m0 0 .55-.28m0 0 .55-.55m0 0 .28-.55m0 0 .27-.82m0 0v-1.37m0 0-.27-.83m0 0-.28-.55m0 0-.55-.55m0 0-.55-.27m0 0h-1.1M419.1 200.92v5.77m0 0h3.3m1.37 0 2.2-5.77m0 0 2.2 5.77m-3.58-1.92h2.75m2.47 1.92v-5.77m0 0h2.48m0 0 .82.28m0 0 .28.27m0 0 .27.55m0 0v.55m0 0-.27.55m0 0-.28.28m0 0-.82.27m-2.48 0h2.48m0 0 .82.28m0 0 .28.27m0 0 .27.55m0 0v.82m0 0-.27.55m0 0-.28.28m0 0-.82.27m0 0h-2.48m6.05-.55-.28.28m0 0 .28.27m0 0 .27-.27m9.35-5.5v5.77m-1.93-5.77h3.85m1.1 5.77v-5.77m0 0h3.57m-3.57 2.75h2.2m-2.2 3.02h3.57m5.77-4.39-.28-.55m0 0-.55-.55m0 0-.54-.28m0 0h-1.1m0 0-.55.28m0 0-.55.55m0 0-.28.55m0 0-.27.82m0 0v1.38m0 0 .27.82m0 0 .28.55m0 0 .55.55m0 0 .55.27m0 0h1.1m0 0 .54-.27m0 0 .55-.55m0 0 .28-.55m1.65 1.37v-5.77m0 0 3.84 5.77m0 0v-5.77m2.2 5.77v-5.77m6.32 1.38-.27-.55m0 0-.55-.55m0 0-.55-.28m0 0h-1.1m0 0-.55.28m0 0-.55.55m0 0-.27.55m0 0-.28.82m0 0v1.38m0 0 .28.82m0 0 .27.55m0 0 .55.55m0 0 .55.27m0 0h1.1m0 0 .55-.27m0 0 .55-.55m0 0 .27-.55m1.65 1.37v-5.77m3.85 0v5.77m-3.85-3.02h3.85m2.19 3.02v-5.77m0 0h3.58m-3.58 2.75h2.2m-2.2 3.02h3.58m-61.27 9.62 2.19-5.77m0 0 2.2 5.77m-3.57-1.92h2.75m6.32-3.03-.55-.54m0 0-.83-.28m0 0h-1.1m0 0-.82.28m0 0-.55.54m0 0v.55m0 0 .28.55m0 0 .27.28m0 0 .55.27m0 0 1.65.55m0 0 .55.28m0 0 .27.27m0 0 .28.55m0 0v.83m0 0-.55.55m0 0-.83.27m0 0h-1.1m0 0-.82-.27m0 0-.55-.55m7.42-4.95v5.77m-1.92-5.77h3.84m1.1 5.77v-5.77m0 0h2.47m0 0 .83.28m0 0 .27.27m0 0 .28.55m0 0v.55m0 0-.28.55m0 0-.27.27m0 0-.83.28m0 0h-2.47m1.92 0 1.93 3.02m3.57-5.77-.55.28m0 0-.55.54m0 0-.27.55m0 0-.28.83m0 0v1.37m0 0 .28.83m0 0 .27.55m0 0 .55.55m0 0 .55.27m0 0h1.1m0 0 .55-.27m0 0 .55-.55m0 0 .27-.55m0 0 .28-.83m0 0v-1.37m0 0-.28-.83m0 0-.27-.55m0 0-.55-.54m0 0-.55-.28m0 0h-1.1m4.4 5.77v-5.77m0 0h3.57m-3.57 2.75h2.19m2.75 3.02v-5.77m6.05.82-.55-.54m0 0-.83-.28m0 0h-1.1m0 0-.82.28m0 0-.55.54m0 0v.55m0 0 .27.55m0 0 .28.28m0 0 .55.27m0 0 1.65.55m0 0 .55.28m0 0 .27.27m0 0 .28.55m0 0v.83m0 0-.55.55m0 0-.83.27m0 0h-1.1m0 0-.82-.27m0 0-.55-.55m5.49.82v-5.77m6.32 1.37-.27-.55m0 0-.55-.54m0 0-.55-.28m0 0h-1.1m0 0-.55.28m0 0-.55.54m0 0-.27.55m0 0-.28.83m0 0v1.37m0 0 .28.83m0 0 .27.55m0 0 .55.55m0 0 .55.27m0 0h1.1m0 0 .55-.27m0 0 .55-.55m0 0 .27-.55m1.65 1.37v-5.77m3.85 0v5.77m-3.85-3.02h3.85m2.2 3.02v-5.77m0 0h3.57m-3.57 2.75h2.2m-2.2 3.02h3.57M405.8 175.49v-3.59m0 1.03.77-.77m0 0 .51-.26m0 0h.77m0 0 .51.26m0 0 .26.77m0 0v2.56m0-2.56.77-.77m0 0 .51-.26m0 0h.77m0 0 .51.26m0 0 .26.77m0 0v2.56m5.13-3.59v3.59m0-2.82-.51-.51m0 0-.52-.26m0 0h-.77m0 0-.51.26m0 0-.51.51m0 0-.26.77m0 0v.52m0 0 .26.77m0 0 .51.51m0 0 .51.25m0 0h.77m0 0 .52-.25m0 0 .51-.51m1.79.76v-3.59m0 1.03.77-.77m0 0 .52-.26m0 0h.77m0 0 .51.26m0 0 .26.77m0 0v2.56m2.05-3.59v2.57m0 0 .25.77m0 0 .52.25m0 0h.77m0 0 .51-.25m0 0 .77-.77m0-2.57v3.59m2.82-5.38v4.36m0 0 .25.77m0 0 .52.25m0 0h.51m-2.05-3.59h1.79m1.8 1.54h3.08m0 0v-.51m0 0-.26-.51m0 0-.26-.26m0 0-.51-.26m0 0h-.77m0 0-.51.26m0 0-.51.51m0 0-.26.77m0 0v.52m0 0 .26.77m0 0 .51.51m0 0 .51.25m0 0h.77m0 0 .51-.25m0 0 .52-.51m1.54.76v-3.59m0 1.03.76-.77m0 0 .52-.26m0 0h.77m0 0 .51.26m0 0 .26.77m0 0v2.56m2.05-3.59h2.82m0 0-2.82 3.59m0 0h2.82m1.54-5.12.25.25m0 0 .26-.25m0 0-.26-.26m0 0-.25.26m.25 1.53v3.59m3.08-3.59-.51.26m0 0-.52.51m0 0-.25.77m0 0v.52m0 0 .25.77m0 0 .52.51m0 0 .51.25m0 0h.77m0 0 .51-.25m0 0 .52-.51m0 0 .25-.77m0 0v-.52m0 0-.25-.77m0 0-.52-.51m0 0-.51-.26m0 0h-.77m3.59 3.59v-3.59m0 1.03.77-.77m0 0 .51-.26m0 0h.77m0 0 .52.26m0 0 .25.77m0 0v2.56m2.05-5.12.26.25m0 0 .26-.25m0 0-.26-.26m0 0-.26.26m.26 1.53v3.59M409.99 71.27v-5.39m5.12 1.8v3.59m0-2.82-.51-.51m0 0-.51-.26m0 0h-.77m0 0-.51.26m0 0-.52.51m0 0-.25.77m0 0v.51m0 0 .25.77m0 0 .52.51m0 0 .51.26m0 0h.77m0 0 .51-.26m0 0 .51-.51m1.8-2.82 1.54 3.59m0 0 1.54-3.59m4.1 0v3.59m0-2.82-.51-.51m0 0-.52-.26m0 0h-.77m0 0-.51.26m0 0-.51.51m0 0-.26.77m0 0v.51m0 0 .26.77m0 0 .51.51m0 0 .51.26m0 0h.77m0 0 .52-.26m0 0 .51-.51m4.87-2.82v4.1m0 0-.25.77m0 0-.26.26m0 0-.51.25m0 0h-.77m0 0-.52-.25m2.31-4.36-.51-.51m0 0-.51-.26m0 0h-.77m0 0-.52.26m0 0-.51.51m0 0-.26.77m0 0v.51m0 0 .26.77m0 0 .51.51m0 0 .52.26m0 0h.77m0 0 .51-.26m0 0 .51-.51m4.87-2.82v4.1m0 0-.25.77m0 0-.26.26m0 0-.51.25m0 0h-.77m0 0-.51-.25m2.3-4.36-.51-.51m0 0-.51-.26m0 0h-.77m0 0-.51.26m0 0-.52.51m0 0-.25.77m0 0v.51m0 0 .25.77m0 0 .52.51m0 0 .51.26m0 0h.77m0 0 .51-.26m0 0 .51-.51m1.8-4.36.26.26m0 0 .25-.26m0 0-.25-.26m0 0-.26.26m.26 1.54v3.59m3.07-3.59-.51.26m0 0-.51.51m0 0-.26.77m0 0v.51m0 0 .26.77m0 0 .51.51m0 0 .51.26m0 0h.77m0 0 .52-.26m0 0 .51-.51m0 0 .25-.77m0 0v-.51m0 0-.25-.77m0 0-.51-.51m0 0-.52-.26m0 0h-.77M426.88 97.13v5.77m0 0h3.3m1.37 0 2.2-5.77m0 0 2.2 5.77m-3.58-1.92h2.75m2.47 1.92v-5.77m0 0h2.48m0 0 .82.28m0 0 .28.27m0 0 .27.55m0 0v.55m0 0-.27.55m0 0-.28.28m0 0-.82.27m-2.48 0h2.48m0 0 .82.28m0 0 .28.27m0 0 .27.55m0 0v.82m0 0-.27.55m0 0-.28.28m0 0-.82.27m0 0h-2.48m6.05-.55-.28.28m0 0 .28.27m0 0 .27-.27m9.07-5.5-.55.28m0 0-.55.55m0 0-.27.55m0 0-.28.82m0 0v1.38m0 0 .28.82m0 0 .27.55m0 0 .55.55m0 0 .55.27m0 0h1.1m0 0 .55-.27m0 0 .55-.55m0 0 .27-.55m0 0 .28-.82m0 0v-1.38m0 0-.28-.82m0 0-.27-.55m0 0-.55-.55m0 0-.55-.28m0 0h-1.1m6.32 0v5.77m-1.92-5.77h3.84m3.03 0v5.77m-1.93-5.77h3.85m1.1 5.77v-5.77m6.32 1.38-.28-.55m0 0-.55-.55m0 0-.55-.28m0 0h-1.1m0 0-.54.28m0 0-.55.55m0 0-.28.55m0 0-.27.82m0 0v1.38m0 0 .27.82m0 0 .28.55m0 0 .55.55m0 0 .54.27m0 0h1.1m0 0 .55-.27m0 0 .55-.55m0 0 .28-.55m1.65 1.37 2.19-5.77m0 0 2.2 5.77m-3.57-1.92h2.75m-50.97 5.77-.55.27m0 0-.55.55m0 0-.27.55m0 0-.28.83m0 0v1.37m0 0 .28.83m0 0 .27.55m0 0 .55.55m0 0 .55.27m0 0h1.1m0 0 .55-.27m0 0 .55-.55m0 0 .27-.55m0 0 .28-.83m0 0v-1.37m0 0-.28-.83m0 0-.27-.55m0 0-.55-.55m0 0-.55-.27m0 0h-1.1m.83 4.67 1.64 1.65m1.93-6.32v4.12m0 0 .27.83m0 0 .55.55m0 0 .83.27m0 0h.54m0 0 .83-.27m0 0 .55-.55m0 0 .27-.83m0 0v-4.12m2.2 5.77 2.2-5.77m0 0 2.2 5.77m-3.57-1.92h2.74m2.48 1.92v-5.77m0 0 3.84 5.77m0 0v-5.77m4.12 0v5.77m-1.92-5.77h3.85m1.1 5.77v-5.77m6.04.82-.55-.55m0 0-.82-.27m0 0h-1.1m0 0-.83.27m0 0-.55.55m0 0v.55m0 0 .28.55m0 0 .27.28m0 0 .55.27m0 0 1.65.55m0 0 .55.28m0 0 .28.27m0 0 .27.55m0 0v.83m0 0-.55.55m0 0-.82.27m0 0h-1.1m0 0-.83-.27m0 0-.55-.55m7.42-4.95v5.77m-1.92-5.77h3.85m1.1 5.77v-5.77m6.31 1.37-.27-.55m0 0-.55-.55m0 0-.55-.27m0 0h-1.1m0 0-.55.27m0 0-.55.55m0 0-.27.55m0 0-.28.83m0 0v1.37m0 0 .28.83m0 0 .27.55m0 0 .55.55m0 0 .55.27m0 0h1.1m0 0 .55-.27m0 0 .55-.55m0 0 .27-.55m1.65 1.37 2.2-5.77m0 0 2.2 5.77m-3.57-1.92h2.74M445.17 273.61h1.54M445.17 263.35h1.54M446.71 273.61v21.51M445.17 273.61v21.51M446.71 255.56v7.79M445.17 255.56v7.79M287.23 409.75v-5.64M302.2 277.09v5.39m0 0h3.08m1.28 0 2.05-5.39m0 0 2.06 5.39m-3.34-1.8h2.57m2.3 1.8v-5.39m0 0h2.31m0 0 .77.26m0 0 .26.25m0 0 .26.52m0 0v.51m0 0-.26.51m0 0-.26.26m0 0-.77.25m-2.31 0h2.31m0 0 .77.26m0 0 .26.26m0 0 .26.51m0 0v.77m0 0-.26.51m0 0-.26.26m0 0-.77.26m0 0h-2.31m6.93-5.39-.51.26m0 0-.52.51m0 0-.25.51m0 0-.26.77m0 0v1.28m0 0 .26.77m0 0 .25.52m0 0 .52.51m0 0 .51.26m0 0h1.02m0 0 .52-.26m0 0 .51-.51m0 0 .26-.52m0 0 .25-.77m0 0v-1.28m0 0-.25-.77m0 0-.26-.51m0 0-.51-.51m0 0-.52-.26m0 0h-1.02m4.1 5.39v-5.39m0 0h2.31m0 0 .77.26m0 0 .26.25m0 0 .25.52m0 0v.51m0 0-.25.51m0 0-.26.26m0 0-.77.25m0 0h-2.31m1.8 0 1.79 2.83m1.8 0 2.05-5.39m0 0 2.05 5.39m-3.33-1.8h2.56m4.1-3.59v5.39m-1.79-5.39h3.59m2.56 0-.51.26m0 0-.51.51m0 0-.26.51m0 0-.26.77m0 0v1.28m0 0 .26.77m0 0 .26.52m0 0 .51.51m0 0 .51.26m0 0h1.03m0 0 .51-.26m0 0 .51-.51m0 0 .26-.52m0 0 .26-.77m0 0v-1.28m0 0-.26-.77m0 0-.26-.51m0 0-.51-.51m0 0-.51-.26m0 0h-1.03m4.11 5.39v-5.39m0 0h2.3m0 0 .77.26m0 0 .26.25m0 0 .26.52m0 0v.51m0 0-.26.51m0 0-.26.26m0 0-.77.25m0 0h-2.3m1.79 0 1.8 2.83m1.79 0v-5.39m3.59 0-.51.26m0 0-.51.51m0 0-.26.51m0 0-.26.77m0 0v1.28m0 0 .26.77m0 0 .26.52m0 0 .51.51m0 0 .51.26m0 0h1.03m0 0 .51-.26m0 0 .51-.51m0 0 .26-.52m0 0 .26-.77m0 0v-1.28m0 0-.26-.77m0 0-.26-.51m0 0-.51-.51m0 0-.51-.26m0 0h-1.03" fill="none" stroke="#000" stroke-width=".5"/><path d="m368.63 30.47.02-.61m0 0-.02-.61m0 0-.05-.6m0 0-.1-.6m0 0-.14-.6m0 0-.17-.58m0 0-.22-.57m0 0-.25-.56m0 0-.28-.54m0 0-.32-.52m0 0-.36-.49m0 0-.38-.47m0 0-.42-.45m0 0-.44-.42m0 0-.47-.39m0 0-.5-.35m0 0-.52-.32m0 0-.53-.29m0 0-.56-.25m0 0-.57-.22m0 0-.58-.18m0 0-.6-.13m0 0-.6-.1m0 0-.6-.06m0 0-.61-.02M359.36 47.14h14.74M359.36 47.78h14.1M317.04 39.13h21.79M340.12 39.13h19.24M359.36 20.54h-42.32M317.04 31.11v-2.56M317.04 20.54l-.6.02m0 0-.61.06m0 0-.6.09m0 0-.59.14m0 0-.58.18m0 0-.57.21m0 0-.56.25m0 0-.53.29m0 0-.52.32m0 0-.5.36m0 0-.47.38m0 0-.44.42m0 0-.42.44m0 0-.38.47m0 0-.36.5m0 0-.32.51m0 0-.28.54m0 0-.25.55m0 0-.22.57m0 0-.18.59m0 0-.13.59m0 0-.1.6m0 0-.06.6m0 0-.02.61m0 0 .02.61m0 0 .06.61m0 0 .1.6m0 0 .13.59m0 0 .18.58m0 0 .22.57m0 0 .25.55m0 0 .28.54m0 0 .32.52m0 0 .36.49m0 0 .38.47m0 0 .42.45m0 0 .44.41m0 0 .47.39m0 0 .5.35m0 0 .52.32m0 0 .53.29m0 0 .56.25m0 0 .57.21m0 0 .58.18m0 0 .59.14m0 0 .6.1m0 0 .61.06m0 0 .6.02" fill="none" stroke="#0ff" stroke-width=".5"/><path d="M356.33 37.72v2.64M359.36 39.13l-3.03-1.41" fill="none" stroke="gray" stroke-width=".5"/><path d="M374.1 47.14v5M373.46 47.78v4.36" fill="none" stroke="#0ff" stroke-width=".5"/><path d="M452.94 30.3v-5.12m0 0h2.2m0 0 .73.24m0 0 .24.24m0 0 .25.49m0 0v.49m0 0-.25.49m0 0-.24.24m0 0-.73.25m-2.2 0h2.2m0 0 .73.24m0 0 .24.25m0 0 .25.49m0 0v.73m0 0-.25.49m0 0-.24.24m0 0-.73.24m0 0h-2.2m5.13 0 1.95-5.12m0 0 1.96 5.12m-3.18-1.7h2.44m2.2-3.42v5.12m0 0h2.93m1.22-5.12v5.12m0 0h2.93m1.22 0 1.96-5.12m0 0 1.95 5.12m-3.17-1.7h2.44m3.91-3.42v5.12m-1.71-5.12h3.42m2.44 0-.49.24m0 0-.49.49m0 0-.24.49m0 0-.25.73m0 0v1.22m0 0 .25.73m0 0 .24.49m0 0 .49.49m0 0 .49.24m0 0h.98m0 0 .48-.24m0 0 .49-.49m0 0 .25-.49m0 0 .24-.73m0 0v-1.22m0 0-.24-.73m0 0-.25-.49m0 0-.49-.49m0 0-.48-.24m0 0h-.98m3.91 5.12v-5.12m3.42 0-.49.24m0 0-.49.49m0 0-.24.49m0 0-.25.73m0 0v1.22m0 0 .25.73m0 0 .24.49m0 0 .49.49m0 0 .49.24m0 0h.97m0 0 .49-.24m0 0 .49-.49m0 0 .24-.49m0 0 .25-.73m0 0v-1.22m0 0-.25-.73m0 0-.24-.49m0 0-.49-.49m0 0-.49-.24m0 0h-.97m11.96.73-.49-.49m0 0-.73-.24m0 0h-.97m0 0-.74.24m0 0-.49.49m0 0v.49m0 0 .25.49m0 0 .24.24m0 0 .49.24m0 0 1.47.49m0 0 .48.25m0 0 .25.24m0 0 .24.49m0 0v.73m0 0-.49.49m0 0-.73.24m0 0h-.97m0 0-.74-.24m0 0-.49-.49m6.35-4.39-.48.24m0 0-.49.49m0 0-.25.49m0 0-.24.73m0 0v1.22m0 0 .24.73m0 0 .25.49m0 0 .49.49m0 0 .48.24m0 0h.98m0 0 .49-.24m0 0 .49-.49m0 0 .24-.49m0 0 .25-.73m0 0v-1.22m0 0-.25-.73m0 0-.24-.49m0 0-.49-.49m0 0-.49-.24m0 0h-.98m5.62 0v5.12m-1.71-5.12h3.42m2.69 0v5.12m-1.71-5.12h3.42m2.44 0-.49.24m0 0-.49.49m0 0-.24.49m0 0-.25.73m0 0v1.22m0 0 .25.73m0 0 .24.49m0 0 .49.49m0 0 .49.24m0 0h.98m0 0 .48-.24m0 0 .49-.49m0 0 .25-.49m0 0 .24-.73m0 0v-1.22m0 0-.24-.73m0 0-.25-.49m0 0-.49-.49m0 0-.48-.24m0 0h-.98m7.33.73-.49-.49m0 0-.74-.24m0 0h-.97m0 0-.73.24m0 0-.49.49m0 0v.49m0 0 .24.49m0 0 .25.24m0 0 .48.24m0 0 1.47.49m0 0 .49.25m0 0 .24.24m0 0 .25.49m0 0v.73m0 0-.49.49m0 0-.74.24m0 0h-.97m0 0-.73-.24m0 0-.49-.49m6.59-4.39v5.12m-1.71-5.12h3.42m.98 5.12 1.95-5.12m0 0 1.96 5.12m-3.18-1.7h2.44m2.2 1.7v-5.12m0 0 3.42 5.12m0 0v-5.12m3.66 0v5.12m-1.71-5.12h3.42m.98 5.12v-5.12m0 0h3.17m-3.17 2.44h1.95m-1.95 2.68h3.17" fill="none" stroke="#000" stroke-width=".5"/><path d="m374.1 19.59-.48-.66m0 0-.52-.64m0 0-.54-.62m0 0-.58-.6m0 0-.59-.56m0 0-.63-.54m0 0-.65-.51m0 0-.67-.48m0 0-.69-.44m0 0-.71-.42m0 0-.73-.38m0 0-.75-.35m0 0-.76-.31m0 0-.78-.28m0 0-.78-.24m0 0-.8-.21m0 0-.81-.17m0 0-.81-.13m0 0-.82-.09m0 0-.82-.06m0 0-.82-.02M374.1 20.77l-.43-.68m0 0-.47-.65m0 0-.5-.63m0 0-.52-.61m0 0-.55-.58m0 0-.58-.55m0 0-.61-.53m0 0-.63-.5m0 0-.65-.47m0 0-.67-.44m0 0-.69-.41m0 0-.71-.37m0 0-.72-.34m0 0-.74-.31m0 0-.76-.27m0 0-.76-.24m0 0-.78-.21m0 0-.78-.16m0 0-.8-.13m0 0-.79-.09m0 0-.8-.06m0 0-.8-.02M317.04 31.11h30.78M347.82 31.11h11.54M359.36 31.11h15.68M317.04 30.47h31.39M348.43 30.47h10.93M359.36 30.47h14.78M317.04 12.52h38.76M359.36 47.14h-26.93M332.43 47.14h-15.39M317.04 29.19h42.32M317.04 28.55h42.32M317.04 11.88h38.76M359.36 47.78h-27.55M331.81 47.78h-14.77M317.04 12.52v16.03M317.04 47.14V31.11M317.04 12.52l-.82.02m0 0-.82.06m0 0-.82.1m0 0-.81.14m0 0-.81.17m0 0-.79.21m0 0-.79.25m0 0-.77.29m0 0-.76.33m0 0-.74.36m0 0-.72.39m0 0-.7.43m0 0-.69.46m0 0-.66.5m0 0-.63.52m0 0-.61.55m0 0-.58.59m0 0-.56.61m0 0-.52.63m0 0-.5.66m0 0-.46.68m0 0-.43.71m0 0-.39.72m0 0-.36.74m0 0-.33.76m0 0-.28.77m0 0-.25.79m0 0-.22.79m0 0-.17.81m0 0-.14.81m0 0-.1.82m0 0-.06.82m0 0-.02.82m0 0 .02.83m0 0 .06.82m0 0 .1.82m0 0 .14.81m0 0 .17.8m0 0 .22.8m0 0 .25.78m0 0 .28.78m0 0 .33.75m0 0 .36.74m0 0 .39.73m0 0 .43.7m0 0 .46.68m0 0 .5.66m0 0 .52.64m0 0 .56.61m0 0 .58.58m0 0 .61.55m0 0 .63.53m0 0 .66.49m0 0 .69.46m0 0 .7.43m0 0 .72.4m0 0 .74.36m0 0 .76.32m0 0 .77.29m0 0 .79.25m0 0 .79.21m0 0 .81.18m0 0 .81.14m0 0 .82.09m0 0 .82.06m0 0 .82.02M317.04 11.88l-.84.02m0 0-.84.06m0 0-.83.1m0 0-.83.14m0 0-.83.17m0 0-.81.22m0 0-.8.25m0 0-.79.29m0 0-.78.33m0 0-.76.36m0 0-.74.4m0 0-.72.43m0 0-.7.46m0 0-.68.5m0 0-.66.53m0 0-.63.56m0 0-.6.59m0 0-.57.61m0 0-.55.65m0 0-.51.66m0 0-.48.69m0 0-.45.71m0 0-.41.74m0 0-.39.75m0 0-.34.77m0 0-.31.78m0 0-.27.8m0 0-.23.8m0 0-.2.82m0 0-.16.83m0 0-.11.83m0 0-.08.84m0 0-.04.84m0 0v.84m0 0 .04.84m0 0 .08.84m0 0 .11.83m0 0 .16.83m0 0 .2.82m0 0 .23.81m0 0 .27.8m0 0 .31.78m0 0 .34.77m0 0 .39.75m0 0 .41.73m0 0 .45.71m0 0 .48.69m0 0 .51.67m0 0 .55.64m0 0 .57.62m0 0 .6.58m0 0 .63.56m0 0 .66.53m0 0 .68.5m0 0 .7.47m0 0 .72.43m0 0 .74.4m0 0 .76.36m0 0 .78.32m0 0 .79.29m0 0 .8.26m0 0 .81.21m0 0 .83.18m0 0 .83.14m0 0 .83.09m0 0 .84.06m0 0 .84.02M359.36 12.52v16.03M355.51 12.52v16.03M351.66 12.52v16.03M355.65 12.52h3.71M359.36 30.47v-1.92M355.8 11.88h3.56M347.82 12.52v16.03M343.97 12.52v16.03M340.12 12.52v16.03M336.28 12.52v16.03M332.43 12.52v16.03M328.58 12.52v16.03M324.74 12.52v16.03M359.36 47.14V31.11M324.74 47.14V31.11M328.58 47.14V31.11M332.43 47.14V31.11M336.28 47.14v-4.01M336.28 43.13V31.11M340.12 47.14v-8.01M340.12 39.13v-8.02M343.97 47.14V30.47M347.82 47.14V31.11M351.66 47.14V31.11M355.51 47.14V31.11M320.89 12.52v16.03M320.89 47.14V31.11M359.36 30.47v.64" fill="none" stroke="#0ff" stroke-width=".5"/><path d="M359.36 47.14v.64" fill="none" stroke="#000" stroke-width=".5"/><path d="M435.59 52.14V12.87M436.49 52.14V11.97M435.59 12.87h-60.55M436.49 11.97h-62.35M375.04 12.87v18.24M374.14 11.97v18.5" fill="none" stroke="#0ff" stroke-width=".5"/><path d="m419.69 39.96.18-.56m0 0 .48-.35m0 0h.6m0 0 .48.35m0 0 .18.56m0 0-.18.57m0 0-.48.35m0 0h-.6m0 0-.48-.35m0 0-.18-.57" fill="none" stroke="#000" stroke-width=".5"/><path d="M420.65 40.93v9.23M420.65 50.16l1.93-.19m0 0 1.86-.54m0 0 1.72-.89m0 0 1.53-1.2m0 0 1.26-1.46m0 0 .97-1.68m0 0 .64-1.83m0 0 .27-1.92m0 0-.09-1.94m0 0-.46-1.88m0 0-.8-1.76m0 0-1.12-1.58m0 0-1.41-1.34m0 0-1.63-1.05m0 0-1.8-.72m0 0-1.9-.36m0 0h-1.94m0 0-1.9.36m0 0-1.8.72m0 0-1.63 1.05m0 0-1.4 1.34m0 0-1.13 1.58M420.65 50.54l2-.19m0 0 1.93-.57m0 0 1.79-.92m0 0 1.58-1.24m0 0 1.32-1.52m0 0 1-1.74m0 0 .66-1.9m0 0 .29-1.99m0 0-.1-2.01m0 0-.47-1.96m0 0-.84-1.83m0 0-1.16-1.63m0 0-1.46-1.39m0 0-1.69-1.09m0 0-1.87-.75m0 0-1.97-.38m0 0h-2.01m0 0-1.98.38m0 0-1.87.75m0 0-1.69 1.09m0 0-1.45 1.39m0 0-1.17 1.63M421.61 39.96h9.24M425.75 48.79l-4.62-7.99M429.48 45.06l-8-4.62M425.75 31.14l-4.62 7.99M429.48 34.87l-8 4.61M420.65 39v-9.23M415.55 31.14l4.62 7.99M411.82 34.87l8 4.61M411.82 34.87l-.33-.2M420.65 45.54l1.45-.19m0 0 1.34-.56m0 0 1.16-.88m0 0 .88-1.16m0 0 .56-1.34m0 0 .19-1.45m0 0-.19-1.44m0 0-.56-1.34m0 0-.88-1.16m0 0-1.16-.89m0 0-1.34-.55m0 0-1.45-.19m0 0-1.44.19m0 0-1.35.55m0 0-1.15.89m0 0-.89 1.16M415.82 37.18l4.27-1.03M415.82 37.18l1.29-4.2" fill="none" stroke="#0ff" stroke-width=".5"/><path d="m359.33 28.55.01-.02m0 0 .02-.01m0 0 .01.01m0 0 .01.02m0 0-.01.02m0 0-.01.01m0 0-.02-.01m0 0-.01-.02" fill="none" stroke="#000" stroke-width=".5"/><path d="M436.49 11.97h111.7" fill="none" stroke="#0ff" stroke-width=".5"/></svg>