<svg xmlns="http://www.w3.org/2000/svg" width="800" height="600"><path d="m235.41 468.56 38.54-22.25M377.16 502.33l-103.21-59.59M374.07 504.11l-100.12-57.8" fill="none" stroke="#ff0" stroke-width=".5"/><path d="M584.95 384.73 402.13 490.29" fill="none" stroke="gray" stroke-width=".5"/><path d="m584.95 384.73-2.06-1.19" fill="none" stroke="#0ff" stroke-width=".5"/><path d="m301.81 429.17-2.76 1.6" fill="none" stroke="gray" stroke-width=".5"/><path d="m241.81 411.61-3.09 1.78m0 0 9.78 5.65m0 0 3.09-1.78m0 0-9.78-5.65M218.38 425.13l-3.09 1.79m0 0 9.78 5.65m0 0 3.09-1.79m0 0-9.78-5.65" fill="none" stroke="#000" stroke-width=".5"/><path d="m235.41 464.99-33.25-19.19M235.41 468.56l-39.43-22.76" fill="none" stroke="#ff0" stroke-width=".5"/><path d="m204.73 444.31-9.78-5.65M201.64 446.09l3.09-1.78M185.68 444.01l3.6 2.08M63.58 312.35l-8.24-4.76M38.93 326.58l-8.24-4.75M55.41 307.55l3.02-1.74M27.6 323.61l3.09-1.78M66.67 310.56l-8.24-4.75M35.84 328.37l-8.24-4.76M13.94 334.46l5.4 3.12m0 0-5.4 3.12m0 0-5.41-3.12m0 0 5.41-3.12M192.37 444.31l3.09 1.78M198.55 444.31l3.09 1.78M198.55 444.31l-3.09 1.78M192.37 444.31l-3.09 1.78M165.6 421.72l3.09 1.78m0 0-9.27 5.35m0 0-3.09-1.78m0 0 9.27-5.35M99.69 394.36l-3.09-1.78m0 0 9.27-5.35m0 0 3.09 1.78m0 0-9.27 5.35M69.82 377.12l-3.09-1.78m0 0 9.27-5.35m0 0 3.09 1.78m0 0-9.27 5.35M39.96 359.88l-3.09-1.78m0 0 9.27-5.36m0 0 3.08 1.79m0 0-9.26 5.35" fill="none" stroke="#000" stroke-width=".5"/><path d="m296.04 419.61.25-.15M296.81 419.76l.11-.15m0 0-.11-.15m0 0-.26-.06m0 0-.26.06M296.81 419.76l-.26.15M275.18 407.57l.26-.15M275.44 407.42l.1-.15m0 0-.1-.15m0 0-.26-.06m0 0-.26.06M274.92 407.12l-.26.15M296.81 419.46l-21.37-12.34" fill="none" stroke="#0ff" stroke-width=".5"/><path d="m291.14 426.59-28-16.23M265.91 408.76l-2.77 1.6M294.23 424.81l-3.09 1.78" fill="none" stroke="gray" stroke-width=".5"/><path d="m235.41 464.99 38.54-22.25" fill="none" stroke="#ff0" stroke-width=".5"/><path d="m632.7 354.79 162.98-94.1M795.68 260.69l-5.26-3.03M641.35 217.1 427.1 93.4M627.45 351.76l162.97-94.1M681.82 195.52l-40.98 23.66M732.8 227.33l-160.75 92.81M429.16 96.97l-121.8 70.35M302.47 164.8 427.1 92.84M429.16 96.97l211.68 122.21M785.84 257.95 625.4 350.58M680.76 194.35l109.66 63.31M316.54 164.13l107.24-61.91M319.08 165.59l107.23-61.91M423.78 102.22l2.53 1.46M319.08 165.59l-2.54-1.46M641.84 216.82 427.1 92.84M731.26 226.44 570.5 319.25M684.91 199.68l-44.33 25.6M434.31 99.94l-122.06 70.5M737.95 230.3 577.2 323.11M681.82 195.52l108.12 62.42M684.91 199.68l102.97 59.45M304.63 166.04l-2.16-1.24" fill="none" stroke="gray" stroke-width=".5"/><path d="m232.39 214.89 63.2-36.49" fill="none" stroke="#0ff" stroke-width=".5"/><path d="m185.68 444.01 9.27-5.35" fill="none" stroke="#000" stroke-width=".5"/><path d="m194.88 438.7-26.26-15.16M194.37 439l-26.26-15.17M165.08 422.01l-26.77-15.46M165.6 421.72l-26.78-15.46M135.22 404.77l-26.78-15.46M105.35 387.53l-26.77-15.46M75.49 370.28l-26.78-15.46M188.04 435.34l.52-.29M187.73 435.17l.52-.3M181.43 431.52l.51-.29M181.12 431.35l.51-.3M174.81 427.7l.52-.29M174.5 427.52l.52-.29M168.42 424.01l.51-.29M194.06 438.82l.52-.3M164.77 421.83l.52-.29M122.27 397.3l.52-.3M121.97 397.12l.51-.3M115.66 393.48l.51-.3M115.35 393.3l.51-.3M108.84 389.54l.51-.3M99.03 383.87l.51-.29M98.72 383.7l.51-.3M92.41 380.05l.51-.29M92.1 379.88l.52-.3M85.79 376.23l.52-.29M85.48 376.06l.52-.3M79 372.31l.52-.29M105.04 387.35l.52-.3M69.16 366.63l.52-.3M68.85 366.45l.52-.29M62.54 362.81l.52-.3M62.23 362.63l.52-.29M55.93 358.99l.51-.3M55.62 358.81l.51-.29M49.1 355.05l.51-.3M75.18 370.11l.51-.3M185.68 444.01l-26.26-15.16M96.6 392.58l-27.04-15.61M126.46 409.82l-26.77-15.46M156.33 427.07l-26.78-15.46M66.99 375.49l-27.03-15.61M185.68 444.01l-26.26-15.16M96.6 392.58l-27.04-15.61M126.46 409.82l-26.77-15.46M156.33 427.07l-26.78-15.46M66.99 375.49l-27.03-15.61M68.87 366.46l.51-.29M68.56 366.29l.52-.3M75.18 370.11l.51-.3M61.94 362.47l.52-.3M55.64 358.82l.51-.29M55.33 358.65l.51-.3M49.02 355l.51-.29M98.74 383.71l.51-.3M98.43 383.53l.51-.3M105.04 387.35l.52-.3M92.12 379.89l.51-.3M91.81 379.71l.51-.3M85.5 376.07l.52-.3M85.19 375.89l.52-.3M78.88 372.25l.52-.3M121.98 397.13l.52-.3M121.68 396.95l.51-.3M115.37 393.31l.51-.3M115.06 393.13l.51-.3M108.75 389.49l.52-.3M164.77 421.83l.52-.29M188.04 435.34l.52-.29M187.73 435.17l.52-.3M181.43 431.52l.51-.29M181.12 431.35l.51-.3M174.81 427.7l.52-.29M174.5 427.52l.52-.29M168.42 424.01l.51-.29M194.06 438.82l.52-.3M38.86 326.54l24.65-14.23M30.69 321.83l24.71-14.27M38.34 326.25 63 312.01M56.6 315.7l.52.3M56.91 315.53l.52.29M63.2 312.49l-.51-.3M50.52 319.22l.51.3M50.83 319.04l.51.3M44.43 322.73l.52.3M44.74 322.55l.51.3M38.65 326.07l.52.3M57 316.07l-.31-.29m-.15-.14-.3-.27m-.15-.14-.3-.28m-.15-.14-.29-.27m-.15-.14-.3-.28m-.15-.13-.3-.28m-.15-.14-.29-.27m-.15-.14-.3-.28m-.15-.14-.3-.27m-.15-.14-.31-.29M45.37 322.78l-.5-.18m-.24-.09-.48-.17m-.23-.08-.48-.17m-.24-.09-.48-.17m-.24-.09-.48-.17m-.24-.09-.47-.17m-.24-.08-.48-.18m-.24-.08-.48-.17m-.24-.09-.47-.17m-.24-.09-.51-.18M38.39 320.27l.41-.23m.19-.12.4-.23m.2-.11.4-.23m.2-.11.4-.23m.2-.12.39-.23m.2-.11.4-.23m.2-.12.4-.23m.2-.11.4-.23m.2-.12.39-.23m.2-.11.4-.23m.2-.12.4-.23m.2-.11.39-.23m.2-.12.4-.23m.2-.11.4-.23m.2-.12.4-.23m.2-.11.39-.23m.2-.12.4-.23m.2-.11.4-.23m.2-.12.4-.23m.19-.11.4-.23m.2-.12.4-.23m.2-.11.4-.23m.2-.12.39-.23m.2-.11.4-.23M224.52 427.54l.31.25m.17.13.33.26m.17.13.33.26m.16.13.34.27m.16.13.33.26m.17.13.33.27m.17.13.33.26m.16.13.34.26m.16.14.33.26m.17.13.31.25M229.29 431.32l.45-.26m.2-.11.4-.23m.2-.12.4-.23m.2-.11.39-.23m.2-.12.4-.23m.2-.11.4-.23m.2-.12.4-.23m.19-.11.4-.23m.2-.12.4-.23m.2-.11.4-.23m.2-.12.39-.23m.2-.11.4-.23m.2-.12.4-.23m.2-.11.4-.23m.19-.12.4-.23m.2-.11.4-.23m.2-.12.4-.23m.2-.11.39-.23m.2-.12.45-.26M233.56 422.31l.5.19m.24.08.48.17m.24.09.48.17m.24.09.48.17m.23.09.48.17m.24.08.48.17m.24.09.48.17m.23.09.48.17m.24.09.48.17m.24.08.5.18M223.53 428.11l20.34-11.75M224.04 428.4l20.34-11.74M229.28 425.38l-.51-.3M229.57 425.22l-.52-.3M234.21 422.54l-.52-.3M234.49 422.37l-.52-.29M238.89 419.83l-.52-.29M239.17 419.67l-.52-.3M243.81 416.99l-.52-.29M224.64 428.06l-.51-.3M219.39 430.5l.42.18m.22.1.46.19m.22.1.45.19m.23.1.45.2m.23.09.45.2m.22.1.45.19m.23.1.45.19m.23.1.45.19m.22.1.45.19m.23.1.42.18M225.87 433.29l-.38.23m-.2.11-.4.23m-.2.12-.4.23m-.2.11-.39.23m-.2.12-.4.23m-.2.11-.4.23m-.2.12-.4.23m-.19.11-.4.23m-.2.11-.4.23m-.2.12-.4.23m-.2.11-.39.23m-.2.12-.4.23m-.2.11-.4.23m-.2.12-.4.23m-.19.11-.4.23m-.2.12-.4.23m-.2.11-.4.23m-.2.12-.39.23m-.2.11-.39.22M210.4 435.68l.32.29m.15.14.29.28m.15.14.3.27m.15.14.3.28m.15.13.29.28m.15.14.3.27m.15.14.3.28m.15.14.29.27m.15.14.3.28m.15.13.31.29M220.44 429.89l-20.34 11.74M220.95 430.19l-20.34 11.74M215.71 433.21l-.51-.29M215.43 433.38l-.52-.3M210.79 436.06l-.52-.3M210.51 436.22l-.52-.3M206.11 438.76l-.52-.3M205.83 438.92l-.52-.29M201.19 441.6l-.52-.3M220.35 430.54l-.51-.3M204.73 444.31l43.77-25.27" fill="none" stroke="#0ff" stroke-width=".5"/><path d="m576.44 322.67 153.54-88.64M727.45 232.56l2.53 1.47M580.5 316.52l146.19-84.4M583.04 317.99l146.18-84.4M583.04 317.99l-2.54-1.47" fill="none" stroke="gray" stroke-width=".5"/><path d="m390.59 483.62-22.92 13.23M299.4 430.98l-22.87 13.25M386.98 481.54l-22.91 13.23M383.38 479.46l-22.92 13.23M379.77 477.38l-22.91 13.23M376.17 475.3l-22.92 13.23M372.56 473.22l-22.91 13.23M368.96 471.13l-22.92 13.23M365.35 469.05l-22.91 13.23M361.75 466.97l-22.92 13.23M358.15 464.89l-22.92 13.23M354.54 462.81l-22.91 13.23M350.94 460.73l-22.92 13.23M303.01 433.06l-22.88 13.25M306.65 435.16l-22.91 13.23M310.25 437.24l-22.91 13.23M313.86 439.32l-22.92 13.23M317.46 441.4l-22.91 13.23M321.07 443.48l-22.92 13.23M324.67 445.57l-22.91 13.23M328.28 447.65l-22.92 13.23M331.88 449.73l-22.91 13.23M335.49 451.81l-22.92 13.23M374.07 504.11l3.09-1.78M324.57 458.42l-34.79-20.08" fill="none" stroke="#ff0" stroke-width=".5"/><path d="m428.9 103.06 211.68 122.22M641.84 216.82l38.92-22.47M630.47 354.76v.41m-.93-.94v1.48m-.93-2.02v2.56m-.93-3.1v3.63m-.93-4.16v4.7m-.93-5.83v1.01m-.92-1.55v2.09m.92-.54v4.93m-.92-4.39v3.86m.92.53v1.02m-.92-1.55v2.09m-.93-8.58v2.98m-.93-3.51v2.97m.93.73v2.78m-.93-2.25v1.71m.93.73v2.97m-.93-2.43v2.97m-.93-10.72v2.97m0 1.55v.79m0 0v.64m0 0v.79m0 1.54v2.98m-.93-11.8v2.98m-.93-3.51v2.97m-.93-3.51v2.97m-.93-3.5v2.97m-.93-3.51v2.97m-.93-3.51v2.98m-.93-3.51v2.97m-.92-3.51v2.97m-.93-3.51v2.98m-.93-3.51v2.97m-.93-3.51v2.97m-.93-3.51v2.98m-.93-3.51v2.97m-.93-3.51v2.97m-.93-3.5v2.97m-.93-3.51v2.97m-.93-3.51v2.98m-.92-3.51v2.97m-.93-3.51v2.97m-.93-3.51v2.98m-.93-3.51v2.97m-.93-3.51v2.97m-.93-3.51v2.98m-.93-3.51v2.97m-.93-3.51v2.97m-.93-3.5v2.97m-.93-3.51v2.97m-.92-3.51v2.98m-.93-3.51v2.97m-.93-3.51v2.97m-.93-3.51v2.98m-.93-3.51v2.97m-.93-3.51v2.97m29.73 18.71v1.43m-.93-1.96v1.42m-.93-1.96v1.43m-.93-1.97v1.43m-.93-1.96v1.43m-.93-1.97v1.43m-.93-1.96v1.42m-.92-1.96V351m-.93-1.97v1.43m-.93-1.96v1.42m-.93-1.96v1.43m-.93-1.97v1.43m-.93-1.96v1.42m-.93-1.96v1.43m-.93-1.97v1.43m-.93-1.96v1.42m-.93-1.96v1.43m-.92-1.96v1.42m-.93-1.96v1.43m-.93-1.97v1.43m-.93-1.96v1.42m-.93-1.96v1.43m-.93-1.97v1.43m-.93-1.96v1.42m-.93-1.96v1.43m-.93-1.97v1.43m-.93-1.96v1.42m-.92-1.96v1.43m-.93-1.97v1.43m-.93-1.96v1.43m-.93-1.97v1.43m-.93-1.96v1.42m-.93-1.96v1.43m29.73 17.6v1.42m-.93-.89v1.43m-.93-.89v1.43m-.93-.89v1.42m-.93-.89v1.43m-.93-.89v1.43m-.93-.9v1.43m-.92-.89v1.43m-.93-.89v1.42m-.93-.89v1.43m-.93-.89v1.43m-.93-.89v1.42m-.93-.89v1.43m-.93-.89v1.43m-.93-.89v1.42m-.93-.89v1.43m-.93-.89v1.43m-.92-.89v1.42m-.93-.89v1.43m-.93-.89v1.42m-.93-.89v1.43m-.93-.89v1.43m-.93-.89v1.42m-.93-.89v1.43m-.93-.89v1.43m-.93-.89v1.42m-.93-.89v1.43m-.92-.89v1.43m-.93-.89v1.42m-.93-.89v1.43m-.93-.89v1.42m-.93-.89v1.43m-.93-.89v1.43m29.73-15.62v2.97m-.93-2.43v2.97m-.93-2.44v2.98m-.93-2.44v2.97m-.93-2.43v2.97m-.93-2.44v2.97m-.93-2.43v2.97m-.92-2.44v2.98m-.93-2.44v2.97m-.93-2.43v2.97m-.93-2.44v2.98m-.93-2.44v2.97m-.93-2.43v2.97m-.93-2.44v2.98m-.93-2.44v2.97m-.93-2.43v2.97m-.93-2.44v2.97m-.92-2.43v2.97m-.93-2.44v2.98m-.93-2.44v2.97m-.93-2.43v2.97m-.93-2.44v2.98m-.93-2.44v2.97m-.93-2.43v2.97m-.93-2.44v2.98m-.93-2.44v2.97m-.93-2.43v2.97m-.92-2.44v2.97m-.93-2.43v2.97m-.93-2.44v2.98m-.93-2.44v2.97m-.93-2.43v2.97m-.93-2.44v2.98m-.93-47.2v2.98m-.93-3.51v2.97m-.93-3.51V333m1.86 2.62v1.43m-.93-1.96v1.42m-.93-1.96v1.43m1.86 36.91v1.42m-.93-.89v1.43m-.93-.89v1.43m1.86.47v2.22m-.93-1.68v1.14m-.93-.61v.07m1.86 1.08v.16m-.93-.7v1.23m-.93-1.77v2.31m-.93-49.81v2.97m0 1.54v1.43m0 39.06v1.42m0 .55v3.38m-.93-50.89v2.97m0 1.55v1.42m0 40.13v.9m0 0v4.45m-.92-51.96v2.98m-.93-3.51v2.97m-.93-3.51v2.97m1.86 2.62v1.43m-.93-1.97v1.43m-.93-1.96v1.43m1.86 42.27v5.18m-.93-4.64v4.1m-.93-3.57v3.03m1.86 1.08v.76m-.93-1.3v1.84m-.93-2.38v2.92m-.93-55.78v2.98m0 1.54v1.43m0 44.42v1.96m0 1.01v2.97m-.93-56.84v2.97m0 1.55v1.42m0 45.49v.89m0 0v.54m0 1.55v2.97m-.93-57.92v2.97m-.93-3.51v2.98m-.93-3.51v2.97m1.86 2.62v1.43m-.93-1.97v1.43m-.93-1.96v1.42m1.86 47.64v1.43m-.93-.89v1.42m-.93-.89v1.43m1.86.47v2.98m-.93-2.44v2.97m-.93-2.43v2.97m-.93-60.71v2.54m0 1.55v1.43m0 49.78v1.43m0 1.54v2.98m-.93-61.62v.91m-.92-1.45v1.99m.92-.54v1.47m-.92-.93v.39m.92 2.08v1.43m-.92-1.96V329m.92 51.4v1.42m-.92-.89v1.43m.92 1.01v2.97m-.92-2.43v2.97m-.93-63.76v3.05m0 .87v1.43m0 53v1.43m0 1.54v2.98m-.93-64.84v4.13m0 0v1.22m0 54.08v1.42m0 1.55v2.97m-.93-66.5v.44m0 .15v5.21m0 0v.15m0 55.14v1.43m0 1.54v2.98m-.93-67.58v1.52m-.93-2.05v2.59m.93-.54v4.43m-.93-3.89v3.35m.93 56.76v1.43m-.93-.9v1.43m.93 1.01v2.97m-.93-2.43v2.97m-.93-69.72v2.97m0 .69v2.29m0 58.36v1.43m0 1.54v2.98m-.93-70.8v2.98m-.93-3.51v2.97m.93 2.08v.22m-.93-.75v1.29m.93-.54v1.21m-.93-.67v.13m.93 59.98v1.42m-.93-.89v1.43m.93 1.01v2.97m-.93-2.43v2.97m-.93-72.94v2.97m-.93-3.51v2.98m-.92-3.51v2.97m-.93-3.51v2.97m-.93-3.5v2.97m-.93-3.51v2.97m-.93-3.51v2.98m-.93-3.51v2.97m-.93-3.51v2.97m-.93-3.51v2.98m-.93-3.51v2.97m-.93-3.51v2.97m-.92-3.51v2.98m-.93-3.51v2.97m-.93-3.51v2.97m-.93-3.5v2.97m-.93-3.51v2.97m-.93-3.51v2.98m-.93-3.51v2.97m-.93-3.51v2.97m-.93-3.51v2.98m-.93-3.51v2.97m-.92-3.51v2.97m-.93-3.51v2.98m-.93-3.51v2.97m-.93-3.51v2.97m23.22 14.96v1.43m-.93-1.97v1.43m-.92-1.96v1.42m-.93-1.96v1.43m-.93-1.97v1.43m-.93-1.96v1.42m-.93-1.96v1.43m-.93-1.96v1.42m-.93-1.96v1.43m-.93-1.97v1.43m-.93-1.96v1.42m-.93-1.96v1.43m-.92-1.97v1.43m-.93-1.96v1.42m-.93-1.96v1.43m-.93-1.97v1.43m-.93-1.96v1.42m-.93-1.96v1.43m-.93-1.96v1.42m-.93-1.96v1.43m-.93-1.97v1.43m-.93-1.96v1.42m-.92-1.96v1.43m-.93-1.97v1.43m-.93-1.96v1.42m-.93-1.96v1.43m23.22 74.99v1.43m-.93-.89v1.42m-.92-.89v1.43m-.93-.89v1.43m-.93-.89v1.42m-.93-.89v1.43m-.93-.89v1.43m-.93-.9v1.43m-.93-.89v1.43m-.93-.89v1.42m-.93-.89v1.43m-.93-.89v1.43m-.92-.89v1.42m-.93-.89v1.43m-.93-.89v1.43m-.93-.89v1.42m-.93-.89v1.43m-.93-.89v1.43m-.93-.89v1.42m-.93-.89v1.43m-.93-.89v1.42m-.93-.89v1.43m-.92-.89v1.43m-.93-.89v1.42m-.93-.89v1.43m-.93-.89v1.43m23.22-11.87v2.98m-.93-2.44v2.97m-.92-2.43v2.97m-.93-2.44v2.98m-.93-2.44v2.97m-.93-2.43v2.97m-.93-2.44v2.97m-.93-2.43v2.97m-.93-2.44V396m-.93-2.44v2.97m-.93-2.43v2.97m-.93-2.44v2.98m-.92-2.44v2.97m-.93-2.43v2.97m-.93-2.44v2.98m-.93-2.44v2.97m-.93-2.43v2.97m-.93-2.44v2.97m-.93-2.43v2.97m-.93-2.44v2.98m-.93-2.44v2.97m-.93-2.43v2.97m-.92-2.44v2.98m-.93-2.44v2.97m-.93-2.43v2.97m-.93-2.44v2.98m-.93-100.83v2.97m0 1.54v1.43m0 89.48v1.42m0 1.55v2.68m-.93-101.61v2.97m-.93-3.51v2.98m.93 2.08v1.42m-.93-1.96v1.43m.93 91.08v1.43m-.93-.89v1.43m.93 1.01v1.61m-.93-1.08v.54m.93.54v.76m-.93-1.3v1.84m-.93-103.45v2.97m0 1.54v1.43m0 92.7v1.42m0 1.02v2.91m-.93-104.53v2.97m0 1.55v1.43m0 93.76v1.37m0 0v3.98m-.93-105.6v2.98m0 1.54v1.43m0 94.84v.29m0 0v5.06m0 .29v.3m-.93-107.26v2.97m-.92-3.51v2.97m.92 2.09v1.42m-.92-1.96v1.43m.92 96.44v4.58m-.92-4.04v3.5m.92.54v1.37m-.92-1.91v2.45m-.93-109.42v2.98m0 1.54v1.43m0 98.06v2.42m0 .55v2.97m-.93-110.48v2.97m-.93-3.51v2.97m.93 2.09v1.42m-.93-1.96v1.43m.93 99.66v1.36m-.93-.82v.28m.93.54v.07m-.93-.61v1.15m.93 1.01v2.97m-.93-2.44v2.98m-.93-112.64v2.98m-.93-3.51v2.97m-.93-3.51v2.98m-.93-3.51v2.97m-.93-3.51v2.97m-.93-3.51v2.98m-.92-3.51v2.97m-.93-3.51v2.97m-.93-3.51v2.98m7.43 5.83v1.43m-.93-1.96v1.42m-.93-1.96v1.43m-.93-1.97v1.43m-.93-1.96v1.43m-.93-1.97v1.43m-.92-1.96v1.42m-.93-1.96v1.43m-.93-1.97v1.43m7.43 105.57v1.42m-.93-.89v1.43m-.93-.89v1.43m-.93-.89v1.42m-.93-.89v1.43m-.93-.89v1.43m-.92-.9v1.43m-.93-.89v1.43m-.93-.89v1.42m7.43-2.74v2.97m-.93-2.43v2.97m-.93-2.44v2.97m-.93-2.43v2.97m-.93-2.44v2.98m-.93-2.44v2.97m-.92-2.43v2.97m-.93-2.44v2.98m-.93-2.44v2.97m-.93-121.69v.34m-.93-.87v1.41m.93-.54v2.04m-.93-1.5v.96m.93 2.09v1.42m-.93-1.96v1.43m.93 111.46v1.43m-.93-.89v1.43m.93 1.01v2.97m-.93-2.44v2.98m-.93-123.84v2.48m-.93-3.02v3.56m.93.9v1.43m-.93-1.96v1.42m.93 113.62v1.42m-.93-.89v1.43m.93 1.01v2.97m-.93-2.43v2.97m-.93-125.98v4.63m0 0v.72m0 115.22v1.43m0 1.54v2.98m-.93-127.65v.94m-.93-1.48v2.02m.93-.54v5m-.93-4.46v3.93m.93 116.83v1.42m-.93-.89v1.43m.93 1.01v2.97m-.93-2.44v2.98m-.93-129.8v2.98m-.92-3.51v2.97m.92.65v2.86m-.92-2.32v1.78m.92 118.98v1.43m-.92-.9v1.43m.92 1.01v2.97m-.92-2.43v2.97m-.93-131.94v2.97m0 1.55v.72m0 0v.71m0 120.58v1.43m0 1.54v2.98m-.93-133.02v2.98m-.93-3.51v2.97m-.93-3.51v2.97m-.93-3.51v2.98m-.93-3.51v2.97m-.93-3.51v2.97m-.93-3.5v2.97m-.93-3.51v2.97m-.92-3.51v2.98m-.93-3.51v2.97m-.93-3.51v2.97m-.93-3.51v2.98m-.93-3.51v2.97m-.93-3.51v2.97m-.93-3.51v2.98m-.93-3.51v2.97m-.93-3.51v2.97m-.93-3.5v2.97m-.92-3.51v2.97m-.93-3.51v2.98m-.93-3.51v2.97m18.58 12.27v1.43m-.93-1.96v1.42m-.93-1.96v1.43m-.93-1.97v1.43m-.93-1.96v1.42m-.93-1.96v1.43m-.93-1.97v1.43m-.93-1.96v1.42m-.92-1.96v1.43m-.93-1.96v1.42m-.93-1.96v1.43m-.93-1.97v1.43m-.93-1.96v1.42m-.93-1.96v1.43m-.93-1.97v1.43m-.93-1.96v1.42m-.93-1.96v1.43m-.93-1.97v1.43m-.92-1.96v1.42m-.93-1.96v1.43m-.93-1.97v1.43M516.2 415.8v1.42m-.93-.89v1.43m-.93-.89v1.43m-.93-.89v1.42m-.93-.89v1.43m-.93-.89v1.43m-.93-.89v1.42m-.93-.89v1.43m-.92-.89v1.43m-.93-.9v1.43m-.93-.89v1.43m-.93-.89v1.42m-.93-.89v1.43m-.93-.89v1.43m-.93-.89v1.42m-.93-.89v1.43m-.93-.89v1.43m-.93-.89v1.42m-.92-.89v1.43m-.93-.89v1.43m-.93-.89v1.42m18.58-9.18v2.97m-.93-2.43v2.97m-.93-2.44v2.98m-.93-2.44v2.97m-.93-2.43v2.97m-.93-2.44v2.98m-.93-2.44v2.97m-.93-2.43v2.97m-.92-2.44v2.97m-.93-2.43v2.97m-.93-2.44v2.98m-.93-2.44v2.97m-.93-2.43v2.97m-.93-2.44v2.98m-.93-2.44v2.97m-.93-2.43v2.97m-.93-2.44v2.98m-.93-2.44v2.97m-.92-2.43v2.97m-.93-2.44v2.97m-.93-2.43v2.97m-.93-155.54v2.97m-.93-3.51v2.98m.93 2.08v1.43m-.93-1.97v1.43m.93 144.72v1.43m-.93-.89v1.42m.93 1.01v2.09m-.93-1.55v1.01m.93.54v.29m-.93-.83v1.37m-.93-157.09v2.97m-.93-3.51v2.97m.93 2.09v1.42m-.93-1.96v1.43m.93 146.86v1.43m-.93-.89v1.43m.93.94v2.45m-.93-2.98v3.51m-.93-159.24v2.98m0 1.54v1.43m0 148.48v.76m0 0v4.59m-.93-160.31v2.97m-.93-3.51v2.97m.93 2.09v1.42m-.93-1.96v1.43m.93 150.08v5.05m-.93-4.51v3.97m.93.54v.9m-.93-1.44v1.98m-.93-163.05v2.97m-.92-3.51v2.97m.92 2.08v1.43m-.92-1.96v1.42m.92 152.24v2.89m-.92-2.36v1.83m.92.61v2.97m-.92-2.43v2.97m-.93-165.2v2.98m0 1.54v1.43m0 153.84v.75m0 0v.68m0 1.54v2.97m-.93-166.26v2.97m0 1.54v1.43m0 154.92v1.42m0 1.55v2.97m-.93-167.14v2.98m0 1.34v1.43m0 155.98v1.43m0 1.54v2.98m-.93-167.14v2.97m0 .27v1.43m0 .3v.38m0 156.38v1.43m0 1.54v2.97m-.93-167.13v2.97m0 0v.62m0 .33v1.43m0 156.37v1.43m0 1.55v2.97m-.93-167.14v2.53m-.93-1.99v1.45m.93 1.94v1.42m-.93-.89v1.43m.93 155.84V436m-.93-.89v1.42m.93 1.01v2.98m-.93-2.44v2.97m-.93-167.13v.37m0 .3v.75m0 2.5v1.43m0 156.37v1.43m0 1.55v2.97m-.93-167.14v1.43m-.92-.89v1.43m.92 1.24v1.19m-.92-1.73v1.19m.92.54v.06m-.92-.6v1.14m.92 156.73v1.43m-.92-.89v1.42m.92 1.01v2.98m-.92-2.44v2.97m-.93-167.13v2.24m-.93-1.71v1.18m-.93-.64v.1m1.86 1.07v2.21m-.93-2.74v3.28m-.93-3.82v4.36m1.86 156.19v1.43m-.93-.89v1.43m-.93-.89v1.42m1.86.48v2.97m-.93-2.44v2.98m-.93-2.44v2.97m-.93-167.14v4.46m-.93-3.92v4.46m-.93-3.92v4.46m-.93-3.93v4.46m-.93-3.92v4.46m-.93-3.92v4.46m-.93-3.93v4.46m5.58 154.05v1.43m-.93-.89v1.43m-.93-.9v1.43m-.93-.89v1.43m-.93-.89v1.42m-.93-.89v1.43m-.93-.89v1.43m5.58-1.68v2.98m-.93-2.44v2.97m-.93-2.43v2.97m-.93-2.44v2.98m-.93-2.44v2.97m-.93-2.43v2.97m-.93-2.44v2.98m-.92-186.06v.49m-.93-1.03v1.56m-.93-2.09v2.63m-.93-3.17v3.71m2.79 16.82v4.46m-.93-3.92v4.46m-.93-3.93v4.46m-.93-3.92v4.46m2.79 155.66v1.42m-.93-.89v1.43m-.93-.89v1.43m-.93-.89v1.42m2.79-.06v2.97m-.93-2.43v2.97m-.93-2.44v2.98m-.93-2.44v2.97m-.93-190.35v4.78m0 18.43v4.46m0 157.27v1.43m0 1.55v2.97m-.93-190.92v4.85m0 18.93v4.46m0 157.27v1.43m0 1.54v2.97m-.93-190.92v3.78m0 20.01v4.46m0 157.26v1.43m0 1.55v2.97m-.93-190.92v2.71m-.93-2.17v1.63m.93 21.61v4.46m-.93-3.92v4.46m.93 156.73v1.43m-.93-.89v1.42m.93 1.01v2.98m-.93-2.44v2.97m-.93-190.92v.56m0 23.23v4.46m0 157.26v1.43m0 1.55v2.97m-.92-167.14v4.46m-.93-3.92v4.46m-.93-3.92v4.46m-.93-3.93v4.46m-.93-3.92v4.46m-.93-3.93v4.46m-.93-3.92v4.46m-.93-3.92v4.46m-.93-3.93V295m7.44 152.98v1.43m-.93-.89v1.42m-.93-.89v1.43m-.93-.89v1.43m-.93-.89v1.42m-.93-.89v1.43m-.93-.89v1.43m-.93-.89v1.42m-.93-.89v1.43m7.44-2.75v2.98m-.93-2.44v2.97m-.93-2.43V455m-.93-2.44v2.98m-.93-2.44v2.97m-.93-2.43v2.97m-.93-2.44v2.97m-.93-2.43v2.97m-.93-2.44v2.98m-.93-167.14v4.46m-.92-3.92v4.46m.92 156.73v1.42m-.92-.89v1.43m.92 1.01v2.32m-.92-1.78v1.24m.92.54v.06m-.92-.6v1.14m-.93-208.59v.14m0 41.9v4.46m0 .47v.42m0 156.38v1.43m0 1.54v.18m0 0v2.2m-.93-209.66v1.21m0 41.91v3.86m0 0v1.49m0 156.38v1.42m0 .65v3.28m-.93-210.73v2.28m0 41.91v2.78m0 0v2.57m0 156.37v1m0 0v4.35m-.93-211.8v3.35m-.93-3.88v4.42m.93 41.37v1.71m-.93-1.17v.64m.93.53v3.64m-.93-4.17v4.71m.93 155.84v5.28m-.93-4.74v4.2m.93.54v.67m-.93-1.21v1.74m-.93-214.54v5.5m0 41.91v4.91m0 0v.44m0 156.37v3.14m0 0v2.81m-.93-215.62v2.98m0 .31v2.66m0 42.53v3.85m0 .08v1.42m0 156.38v2.06m0 .91v2.97m-.93-216.68v2.97m0 1.39v1.58m0 43.61v2.77m0 1.15v1.43m0 156.38v.98m0 0v.44m0 1.55v2.97m-.93-217.76v2.97m0 2.47v.51m0 44.67v1.7m0 2.23v1.43m0 156.37v1.43m0 1.54v2.98m-.93-218.84v2.98m0 3.27v.86m0 44.59v.63m0 0v.8m0 2.49v1.43m0 156.38v1.43m0 1.54v2.97m-.92-219.9v2.97m-.93-3.51v2.97m.93 3.96v1.78m-.93-1.24v1.78m.93 44.06v1.42m-.93-.89v1.43m.93 1.16v1.19m-.93-1.73v1.19m.93.54v.15m-.93-.69v1.22m.93 156.73v1.43m-.93-.89v1.43m.93 1.01v2.97m-.93-2.44v2.98m-.93-222.06v2.98m-.93-3.51v2.97m-.93-3.51v2.97m1.86 6.64V254m-.93-1.25v1.78m-.93-1.25v1.79m1.86 43.52v2.16m-.93-1.62v1.09m-.93-.56v.02m1.86 1.07v2.3m-.93-2.83v3.37m-.93-3.91v4.44m1.86 156.2v1.42m-.93-.89v1.43m-.93-.89v1.43m1.86.47v2.97m-.93-2.43v2.97m-.93-2.44v2.98m-.93-225.28v2.98m-.93-3.51v2.97m-.93-3.51v2.98m1.86 9.85v1.79m-.93-1.25v1.78m-.93-1.25v1.79m1.86 43.52v4.46m-.93-3.92v4.45m-.93-3.92v4.46m1.86 156.2v1.42m-.93-.89v1.43m-.93-.89v1.43m1.86.47v2.97m-.93-2.43v2.97m-.93-2.44v2.97m-.93-227.51v2.97m-.93-2.43v2.97m.93 10.49v1.78m-.93-1.24v1.78m.93 44.06v4.46m-.93-3.93v4.46m.93 156.74v1.42m-.93-.89v1.43m.93 1.01v2.97m-.93-2.44v2.98m-.92-227.52v2.83m-.93-2.29v1.75m-.93-1.21v.68m1.86 12.24v1.79m-.93-1.25v1.78m-.93-1.24v1.78m1.86 43.52v4.46m-.93-3.92v4.46m-.93-3.93v4.46m1.86 156.2v1.43m-.93-.9v1.43m-.93-.89v1.43m1.86.47v2.97m-.93-2.43v2.97m-.93-2.44v2.98m-.93-213.52v1.79m-.93-1.25v1.78m-.93-1.24v1.78m-.93-1.25v1.79m-.93-1.25v1.78m-.93-1.25v1.79m-.93-1.25v1.78m-.93-1.24v1.78m-.92-1.25v1.79m-.93-1.25v1.78m-.93-1.24v1.78m-.93-1.25v1.79m-.93-1.25v1.78m11.15 38.16v4.46m-.93-3.92v4.46m-.93-3.93v4.46m-.93-3.92v4.46m-.93-3.92v4.45m-.93-3.92v4.46m-.93-3.92v4.46m-.93-3.93v4.46m-.92-3.92v4.46m-.93-3.92v4.46m-.93-3.93v4.46m-.93-3.92v4.46m-.93-3.92v4.46m11.15 150.83v1.42m-.93-.89v1.43m-.93-.89v1.43m-.93-.89v1.42m-.93-.89v1.43m-.93-.89v1.43m-.93-.89v1.42m-.93-.89v1.43m-.92-.89v1.43m-.93-.9v1.43m-.93-.89v1.43m-.93-.89v1.42m-.93-.89v1.43m11.15-4.89v2.97m-.93-2.43v2.97m-.93-2.44v2.98m-.93-2.44v2.97m-.93-2.43v2.97m-.93-2.44v2.98m-.93-2.44v2.97m-.93-2.44v2.98m-.92-2.44v2.97m-.93-2.43v2.97m-.93-2.44v2.98m-.93-2.44v2.97m-.93-2.43v2.97m-.93-247.2v.98m-.93-1.52v2.06m-.93-2.6v3.14m-.93-3.67v4.2m-.93-4.74v5.28m3.72 30.56v1.78m-.93-1.25v1.79m-.93-1.25v1.78m-.93-1.25v1.79m-.93-1.25v1.78m3.72 42.45v4.46m-.93-3.92v4.46m-.93-3.92V317m-.93-3.93v4.46m-.93-3.92v4.46m3.72 155.12v1.43m-.93-.89v1.42m-.93-.89v1.43m-.93-.89v1.43m-.93-.89v1.42m3.72-.6v2.98m-.93-2.44v2.97m-.93-2.43v2.97m-.93-2.44v2.98m-.93-2.44v2.97m-.92-251.57v4.35m0 33.71v1.78m0 44.59v4.46m0 157.27v1.43m0 1.55v2.97m-.93-251.57v3.28m0 34.77v1.58m0 44.8v4.46m0 157.27v1.43m0 1.54v2.97m-.93-251.56v2.2m0 35.85v.5m0 45.88v4.46m0 .39v.5m0 156.37v1.43m0 1.55v2.97m-.93-251.57v1.14m0 83.29v3.78m0 0v1.58m0 156.37v1.43m0 1.54v2.98m-.93-251.57v.06m0 84.37v2.7m0 0v1.19m0 .03v1.43m0 156.38v1.42m0 1.55v2.97m-.93-167.13v1.63m0 0v1.19m0 1.1v1.43m0 156.37v1.43m0 1.55v2.73m-.93-166.9v.56m0 0v1.19m0 2.18v1.42m0 156.38v1.43m0 1.54v1.66m0 0v.72m-.93-166.54v1.43m0 2.49v1.43m0 156.38v1.42m0 1.55v.59m0 0v1.79m-.93-166.54v1.42m0 2.5v1.43m0 156.37v1.43m0 1.06v2.86m-.93-166.54v1.43m0 2.5v1.42m0 156.38v1.42m0 0v3.93m-.92-211.49v.35m0 44.6v1.43m0 2.49v.4m0 0v1.03m0 156.38v.34m0 0v5.01m-.93-212.56v1.42m0 44.6v1.42m0 1.83v2.1m0 155.64v.73m0 0v4.62M401 274.2v1.79m0 44.59v1.43m0 .75v3.17m0 154.58v1.42m0 .38v3.55m-.93-211.12v1.78m0 44.6v1.11m0 0v4.24m0 153.5v1.43m0 1.45v2.47m-.93-210.04v1.78m0 44.03v.56m0 0v.04m0 0v5.32m0 152.42v1.43m0 1.55v.97m0 0v1.4m-.93-208.97v1.79m0 42.96v1.63m0 0v4.31m0 0v1.04m0 151.36v1.42m0 1.55v2.05m0 0v.33m-.93-207.9v1.78m0 41.89v1.79m0 .92v3.24m0 .68v1.43m0 150.28v1.43m0 1.54v2.98m-.93-264.71v.58m0 56.71v1.78m0 40.82v1.78m0 1.99v2.17m0 1.76v1.42m0 149.21v1.43m0 1.55v2.97m-.93-264.71v1.66m-.93-2.2v2.73m.93 56.17v1.79m-.93-1.25v1.78m.93 39.21v1.78m-.93-2.32v1.79m.93 3.51v.09m-.93-.63v1.17m.93-.54v1.1m-.93-.56v.02m.93.54v.68m-.93-1.22v1.76m.93 1.6v1.43m-.93-.89v1.43m.93 147.6v1.43m-.93-1.97v1.43m.93 2.08v2.97m-.93-3.51v2.98m-.93-264.71v2.97m0 0v.83m0 56.7v1.79m0 37.6v1.78m0 2.97v1.79m0 .45v1.79m0 2.14v1.42m0 146v1.42m0 1.55v2.97m-.92-264.71v2.97m0 .48v1.43m0 56.7v1.78m0 36.53v1.78m0 2.98v1.78m0 1.53v1.78m0 2.14v1.43m0 144.92v1.43m0 1.54v2.97m-.93-264.71v2.98m0 1.25v1.43m0 57v1.78m0 35.45v1.79m0 2.97v1.78m0 2.61v1.78m0 2.14v1.43m0 143.84v1.43m0 1.55v2.97m-.93-264.22v2.48m0 1.25v1.43m0 58.07v1.79m0 34.38v1.78m0 2.97v1.79m0 3.67v1.79m0 2.14v1.42m0 142.78v1.42m0 1.55v2.97m-.93-263.14v1.4m0 0v.38m0 .88v1.42m0 0v.88m0 58.27v1.78m0 33.31v1.78m0 2.98v1.78m0 4.75v1.78m0 2.14v1.43m0 141.7v1.43m0 1.54v2.98m-.93-262.07v.33m0 0v2.68m0 .16v1.79m0 58.27v1.78m0 32.23v1.79m0 2.97v1.79m0 5.81v1.79m0 2.14v1.43m0 140.62v1.43m0 1.55v2.97m-.93-261v1.94m-.93-1.4v.87m.93 1.77v1.78m-.93-1.24v1.78m.93 57.73v1.79m-.93-1.25v1.78m.93 30.63v1.78m-.93-2.32v1.79m.93 3.5v1.79m-.93-2.32v1.78m.93 7.43v1.78m-.93-1.24v1.78m.93 1.61v1.42m-.93-.89v1.43m.93 139.02v1.42m-.93-1.96v1.43m.93 2.08v2.97m-.93-3.51v2.98m-.93-255.68v1.79m0 58.27v1.78m0 29.02v1.78m0 2.97v1.79m0 9.03v1.79m0 2.14v1.42m0 137.41v1.43m0 1.55v2.97m-.93-254.6v1.78m-.93-1.24v1.78m-.92-1.25v1.79m-.93-1.25v1.78m-.93-1.25v1.79m3.71 55.58v1.79m-.93-2.32v1.78m-.92-2.32v1.79m-.93-2.32v1.78m-.93-2.32v1.78m3.71 30.63v1.78m-.93-2.32v1.79m-.92-2.32v1.78m-.93-2.32v1.78m-.93-2.32v1.79m3.71 5.12v1.78m-.93-2.32v1.78m-.92-2.32v1.79m-.93-2.32v1.78m-.93-2.32v1.78m3.71 12.26v1.78m-.93-1.24v1.78m-.92-1.25v1.79m-.93-1.25v1.78m-.93-1.24v1.78m3.71-.01v1.43m-.93-.89v1.43m-.92-.89v1.42m-.93-.89v1.43m-.93-.89v1.43m3.71 134.19v1.42m-.93-1.96v1.43m-.92-1.96v1.42m-.93-1.96v1.43m-.93-1.97v1.43m3.71 3.69v2.97m-.93-3.51v2.98m-.92-3.51v2.97m-.93-3.51v2.97m-.93-3.5v2.97m-.93-249.24v1.78m0 52.37v1.79m0 28.48v1.78m0 2.97v1.79m0 15.47v1.79m0 2.14v1.42m0 130.98v1.42m0 1.55v2.97m-.93-248.16v1.78m-.93-1.25v1.79m.93 50.76v2.21m-.93-2.75v3.29m.93 27.51v1.78m-.93-2.32v1.79m.93 3.51v1.78m-.93-2.32v1.78m.93 17.09v1.78m-.93-1.25v1.79m.93 1.6v1.43m-.93-.89v1.43m.93 129.36v1.43m-.93-1.97v1.43m.93 2.08v2.98m-.93-3.51v2.97m-.93-246.02v1.78m0 49.15v1.79m0 .79v1.79m0 25.9v1.78m0 2.97v1.79m0 18.69v1.78m0 2.15v1.42m0 127.76v1.42m0 1.55v2.97M375.91 207.2v1.08m.93 19.82v1.78m-.93-1.25v1.79m.93 47.54v1.78m-.93-2.32v1.78m.93 2.41v1.7m-.93-1.16v.62m.93 25.45v1.79m-.93-2.32v1.78m.93 3.51v1.78m-.93-2.32v1.79m.93 20.3v1.78m-.93-1.25v1.79m.93 1.6v1.43m-.93-.89v1.42m.93 126.15v1.43m-.93-1.97v1.43m.93 2.08v2.98m-.93-3.51v2.97m-.93-265.31v2.15m0 20.36v1.78m0 45.93v1.79m0 28.48v1.78m0 2.98v1.78m0 21.91v1.78m0 2.14v1.43m0 124.54v1.42m0 1.55v2.97m-.92-265.3v2.97m-.93-3.51v2.97m.93.54v.25m-.93-.79v1.32m.93 19.83v1.78m-.93-1.25v1.79m.93 44.32v1.78m-.93-2.32v1.79m.93 29.01v1.79m-.93-2.32v1.78m.93 3.51v1.78m-.93-2.32v1.79m.93 23.52v1.78m-.93-1.25v1.79m.93 1.6v1.43m-.93-.89v1.42m.93 122.93v1.43m-.93-1.96v1.42m.93 2.08v2.98m-.93-3.51v2.97m-.93-265.3v2.97m0 .61v1.78m0 20.36v1.78m0 42.72v1.78m0 28.48v1.78m0 2.98v1.78m0 25.13v1.78m0 2.14v1.43m0 121.32v1.43m0 1.54v2.97m-.93-265.3v2.97m-.93-3.51v2.98m.93 2.08v1.42m-.93-1.96v1.43m.93 21.38v1.79m-.93-1.25v1.78m.93 41.11v1.78m-.93-2.32v1.79m.93 29.01v1.79m-.93-2.32v1.78m.93 3.51v1.78m-.93-2.32v1.79m.93 26.74v1.78m-.93-1.25v1.79m.93 1.6v1.43m-.93-.89v1.42m.93 119.71v1.43m-.93-1.96v1.42m.93 2.09v2.97m-.93-3.51v2.97m-.93-265.3v2.97m-.93-3.51v2.97m.93 2.08v1.43m-.93-1.96v1.43m.93 23.53v1.78m-.93-1.25v1.79m.93 39v1.74m-.93-1.2v.66m.93 29.02v1.78m-.93-2.32v1.79m.93 3.51v1.78m-.93-2.32v1.78m.93 28.89v1.78m-.93-1.25v1.79m.93 1.6v1.43m-.93-.89v1.43m.93 117.56v1.43m-.93-1.97v1.43m.93 2.08v2.98m-.93-3.51v2.97m-.93-265.31v2.98m0 1.54v1.43m0 25.14v1.78m0 53.41v.11m0 14.1v1.78m0 2.97v1.79m0 30.49v1.78m0 2.15v1.42m0 115.96v1.42m0 1.55v2.97m-.93-265.3v2.97m0 1.55v1.42m0 25.27v2.73m0 52.33v1.18m0 13.03v1.79m0 2.97v1.78m0 31.57v1.78m0 2.14v1.43m0 114.88v1.43m0 1.54v2.98m-.93-265.31v2.97m0 1.55v1.43m0 25.27v1.78m0 .23v1.79m0 51.73v1.78m0 11.96v1.78m0 2.97v1.79m0 32.63v1.79m0 2.14v1.43m0 113.8v1.43m0 1.55v2.97m-.93-264.71v.41m0 0v1.97m0 1.54v1.43m0 25.27v1.78m0 1.31v.85m0 52.66v1.79m0 10.88v1.78m0 2.98v1.78m0 33.71v1.78m0 2.14v1.43m0 112.74v1.42m0 1.55v2.97m-.92-264.71v1.49m0 0v.89m0 1.55v1.42m0 26.26v.8m0 55.89v1.78m0 9.81v1.79m0 2.97v1.78m0 34.79v1.78m0 2.14v1.43m0 111.66v1.43m0 1.54V465m-.93-264.71v2.56m-.93-3.1v3.63m.93.83v1.43m-.93-1.97v1.43m.93 84.55v1.79m-.93-1.25v1.79m.93 8.2v1.78m-.93-2.32v1.78m.93 3.51v1.79m-.93-2.32v1.78m.93 36.39v1.79m-.93-1.25v1.78m.93 1.61v1.42m-.93-.89v1.43m.93 110.05v.01m-.93-.54v1.07m.93-.53v1.42m-.93-.89v.36m.93 2.08v2.97m-.93-3.51v2.97m-.93-264.71v4.71m0 0v.64m0 86.17v1.78m0 6.59v1.79m0 2.97v1.78m0 38.01v1.78m0 2.14V349m0 108.44v2.15m0 .83v2.97m-.93-265.31v1.02m0 0v4.93m0 87.23v1.79m0 5.52v1.78m0 2.97v1.79m0 39.07v1.79m0 2.14v1.42m0 107.38v3.22m0 0v2.72m-.93-265.3v2.09m0 0v3.85m0 88.31v1.78m0 4.76v1.47m0 2.98v1.78m0 40.15v1.78m0 2.14v1.43m0 106.3v4.29m0 0v1.66m-.93-265.31v2.97m0 .2v2.77m0 89.39v1.78m0 3.97v.5m0 .29v.4m0 2.97v1.78m0 41.22v1.79m0 2.14v1.43m0 105.22v.02m0 0v5.33m0 .02v.58m-.93-265.31v2.98m0 1.26v1.71m0 90.45v1.79m0 2.89v1.58m0 2.58v1.79m0 42.29v1.79m0 2.14v1.42m0 104.16v1.08m0 0v4.27m-.93-264.71v2.97m0 1.55v.79m0 0v.63m0 91.53v1.78m0 1.83v2.64m0 1.52v1.78m0 43.37v1.78m0 2.14v.87m0 0v.56m0 103.08v1.43m0 .73v3.19m-.93-264.71v2.97m0 1.55v1.43m0 39.91v.96m0 51.73v1.78m0 .75v3.72m0 .44v1.79m0 44.43v1.79m0 1.94v1.63m0 102v1.43m0 1.55v.26m0 0v2.12m-.92-264.72v2.98m0 1.54v1.43m0 11v.02m0 29.14v1.78m0 51.73v.87m0 .59v4.8m0 .28v.87m0 45.51v1.78m0 .87v2.7m0 100.94v1.42m0 1.55v1.33m0 0v1.05m-.93-264.71v2.97m0 1.55v1.42m0 11v1.1m0 29.14v1.78m0 52.12v5.86m0 46.67v1.57m0 0v3.78m0 99.86v1.43m0 1.54v2.41m-.93-264.74v2.97m0 1.55v1.43m0 11.38v1.79m0 29.13v1.79m0 52.03v4.96m0 47.65v.51m0 0v4.84m0 98.79v1.43m0 1.55v2.97m-.93-265.3v2.97m0 1.54v1.43m0 12.46v1.78m0 29.14v1.78m0 52.04v3.88m0 48.73v4.78m0 0v.57m0 97.72v1.43m0 1.54v2.97m-.93-265.3v2.97m0 1.55v1.42m0 13.54v1.78m0 29.14v1.78m0 18.04v.09m0 33.91v2.8m0 49.81v3.71m0 .21v1.43m0 96.64v1.43m0 1.54v2.98m-.93-265.31v2.98m0 1.54v1.43m0 14.6v1.79m0 8.88v.19m0 20.06v1.79m0 16.96v1.17m0 33.9v1.74m0 50.87v2.64m0 1.29v1.42m0 95.58v1.42m0 1.55v2.97m-.93-265.3v2.97m0 1.54v1.43m0 15.68v1.78m0 7.81v1.27m0 20.06v1.78m0 15.9v1.78m0 34.36v.66m0 51.95v1.56m0 0v.22m0 2.14v1.43m0 94.5v1.43m0 1.54v2.97m-.93-265.3v2.97m0 1.55v1.42m0 16.76v1.78m0 6.73v1.79m0 20.61v1.79m0 14.82v1.78m0 88.05v.49m0 0v1.29m0 2.14v1.43m0 93.42v1.43m0 1.55v2.97m-.93-265.31v2.98m-.93-3.51v2.97m-.93-3.51v2.97m-.92-3.51v2.98m2.78 3.15v1.43m-.93-1.97v1.43m-.93-1.96v1.43m-.92-1.97v1.43m2.78 19.43v1.79m-.93-1.25v1.78m-.93-1.25v1.79m-.92-1.25v1.79m2.78 4.05v1.78m-.93-2.32v1.79m-.93-2.32v1.78m-.92-2.32v1.78m2.78 23.3v1.78m-.93-1.24v1.78m-.93-1.25v1.79m-.92-1.25v1.78m2.78 12.14v1.79m-.93-2.32v1.78m-.93-2.32v1.78m-.92-2.32v1.79m2.78 90.72v1.79m-.93-1.25v1.78m-.93-1.25v1.79m-.92-1.25v1.78m2.78.54v1.42m-.93-.89v1.43m-.93-.89v1.43m-.92-.9v1.43m2.78 90.75v1.42m-.93-1.96v1.43m-.93-1.97v1.43m-.92-1.96v1.42m2.78 3.16v2.97m-.93-3.51v2.98m-.93-3.51v2.97m-.92-3.51v2.97m-.93-265.3v2.97m-.93-3.51v2.97m.93 2.09v1.42m-.93-1.96v1.43m.93.83v.47m-.93-1.01v1.55m.93 20.81v1.78m-.93-1.25v1.79m.93.83v1.79m-.93-2.32v1.78m.93 26.52v1.78m-.93-1.25v1.79m.93 8.92v1.78m-.93-2.32v1.78m.93 93.95v1.78m-.93-1.25v1.79m.93 1.6v1.43m-.93-.89v1.42m.93 87.53v1.43m-.93-1.97v1.43m.93 2.08v2.98m-.93-3.51v2.97m-.93-265.3v2.97m0 1.54v1.43m0 1.13v1.78m0 21.35v2.79m0 28.13v1.78m0 7.31v1.79m0 95.55v1.78m0 2.14v1.43m0 85.92v1.43m0 1.54v2.97m-.93-265.3v2.97m0 1.55v1.42m0 2.21v1.78m0 21.28v1.79m0 29.2v1.78m0 6.24v1.78m0 96.63v1.78m0 2.14v1.43m0 84.84v1.43m0 1.54v2.98m-.93-265.31v2.98m0 1.54v1.43m0 3.27v1.79m0 20.21v1.78m0 30.27v1.79m0 5.16v1.79m0 97.69v1.79m0 2.14v1.42m0 83.78v1.42m0 1.55v2.97m-.93-265.3v2.97m-.93-3.51v2.97m.93 2.08v1.43m-.93-1.96v1.42m.93 4.89v1.78m-.93-1.24v1.78m.93 18.6v1.78m-.93-2.32v1.79m.93 31.88v1.78m-.93-1.25v1.79m.93 3.56v1.85m-.93-2.39v2.92m.93 98.17v1.78m-.93-1.24v1.78m.93 1.6v1.43m-.93-.89v1.43m.93 82.16V446m-.93-1.97v1.43m.93 2.08v2.97m-.93-3.5v2.97m-.93-265.31v2.98m-.93-3.51v2.97m.93 2.08v1.43m-.93-1.97v1.43m.93 7.03v1.79m-.93-1.25v1.78m.93 16.46v1.78m-.93-2.32v1.79m.93 34.02v1.78m-.93-1.24v1.78m.93 1.41v4m-.93-4.53v5.07m.93 98.16v1.79m-.93-1.25v1.78m.93 1.61v1.42m-.93-.89v1.43m.93 80.02v1.42m-.93-1.96v1.43m.93 2.08v2.97m-.93-3.51v2.98m-.92-265.31v2.97m-.93-3.5v2.97m.93 2.08v1.43m-.93-1.97v1.43m.93 9.18v1.78m-.93-1.25v1.79m.93 14.31v1.78m-.93-2.32v1.78m.93 36.17v6.94m-.93-6.4v5.86m.93 100.03v1.79m-.93-1.25v1.78m.93 1.61v1.43m-.93-.89v1.42m.93 77.87v1.43m-.93-1.96v1.42m.93 2.09v2.97m-.93-3.51v2.97m-.93-265.3v2.97m-.93-3.51v2.98m-.93-3.51v2.97m-.93-3.51v2.97m2.79 3.16v1.42m-.93-1.96v1.43m-.93-1.97v1.43m-.93-1.96v1.42m2.79 12.4v1.78m-.93-1.25v1.79m-.93-1.25v1.79m-.93-1.25v1.78m2.79 11.09v1.79m-.93-2.32v1.78m-.93-2.32v1.78m-.93-2.32v1.79m2.79 17.09v.01m-.93-.55v1.09m-.93-1.63v2.16m-.93-2.69v3.23m2.79 20.68v4.79m-.93-4.26v3.72m-.93-3.18v2.65m-.93-2.11v1.57m2.79 103.25v1.78m-.93-1.25v1.79m-.93-1.25v1.78m-.93-1.24v1.78m2.79.53v1.43m-.93-.89v1.42m-.93-.89v1.43m-.93-.89v1.43m2.79 74.65v1.43m-.93-1.97v1.43m-.93-1.96v1.42m-.93-1.96v1.43m2.79 3.15v2.98m-.93-3.51v2.97m-.93-3.51v2.97m-.93-3.51v2.98m-.93-265.31v2.98m0 1.54v1.43m0 15.07v1.79m0 8.41v1.78m0 15.48v1.78m0 .74v1.79m0 22.28v.5m0 105.93v1.79m0 2.14v1.42m0 71.98v1.42m0 1.55v2.97m-.93-265.3v2.97m0 1.54v1.43m0 16.15v1.78m0 7.34v1.78m0 15.48v1.79m0 1.81v1.78m0 128.72v1.78m0 2.14v1.43m0 70.9v1.43m0 1.54v2.97m-.93-265.3v2.97m0 1.55v1.42m0 17.23v1.78m0 6.26v2.66m0 14.61v1.78m0 2.88v1.79m0 128.72v1.78m0 2.14v1.43m0 69.82v1.43m0 1.55v2.97m-.93-265.3v2.97m0 1.54v1.43m0 18.29v1.79m0 5.19v1.78m0 .16v1.79m0 13.53v1.78m0 3.96v1.78m0 128.72v1.79m0 2.14v1.42m0 68.76v1.42m0 1.55v2.97m-.92-265.3v2.97m0 1.54v1.43m0 19.37v1.78m0 4.12v1.79m0 1.23v1.15m0 13.09v1.79m0 5.03v1.78m0 29.2v.82m0 98.7v1.78m0 2.14v1.43m0 67.68v1.43m0 1.54v2.98m-.93-265.31v2.98m0 1.54v1.43m0 20.44v1.78m0 3.05v1.78m0 2.3v.09m0 13.84v1.03m0 6.1v1.79m0 28.26v1.75m0 98.7v1.79m0 2.14v1.43m0 66.6v1.43m0 1.55v2.97m-.93-265.3v2.97m-.93-3.51v2.97m.93 2.08v1.43m-.93-1.96v1.42m.93 22.05v1.79m-.93-1.25v1.78m.93 1.44v1.78m-.93-2.32v1.79m.93 24.97v1.78m-.93-1.24v1.78m.93 27.7v1.78m-.93-1.25v1.79m.93 98.16v1.78m-.93-1.24v1.78m.93 1.61v1.42m-.93-.89v1.43m.93 65v1.42m-.93-1.96v1.43m.93 2.08v2.97m-.93-3.51v2.98m-.93-265.31v2.98m-.93-3.51v2.97m-.93-3.51v2.97m-.93-3.51v2.98m2.79 3.15v1.43m-.93-1.97v1.43m-.93-1.96v1.42m-.93-1.96v1.43m2.79 25.27v3.39m-.93-2.86v2.32m-.93-1.78v1.25m-.93-.72v.18m2.79 28.19v1.79m-.93-1.25v1.78m-.93-1.24v1.78m-.93-1.25v1.79m2.79 26.62v1.78m-.93-1.24v1.78m-.93-1.25v1.79m-.93-1.25v1.78m2.79 97.09v1.79m-.93-1.25v1.78m-.93-1.24v1.78m-.93-1.25v1.79m2.79.53v1.43m-.93-.9v1.43m-.93-.89v1.43m-.93-.89v1.42m2.79 61.78v1.43m-.93-1.96v1.42m-.93-1.96v1.43m-.93-1.97v1.43m2.79 3.16v2.97m-.93-3.51v2.97m-.93-3.51v2.98m-.93-3.51v2.97m-.93-265.3v2.97m-.93-3.51v2.97m.93 2.08v1.43m-.93-1.96v1.42m.93 58.47v1.78m-.93-1.25v1.79m.93 27.69v1.79m-.93-1.25v1.78m.93 98.17v1.78m-.93-1.24v1.78m.93 1.6v1.43m-.93-.89v1.43m.93 58.56v1.43m-.93-1.97v1.43m.93 2.08v2.97m-.93-3.5v2.97m-.93-265.3v2.97m0 1.54v1.43m0 40.14v.66m0 19.27v1.78m0 28.24v1.78m0 98.7v1.79m0 2.14v1.42m0 56.96v1.42m0 1.55v2.97m-.92-265.3v2.97m0 1.54v1.43m0 40.15v1.72m0 .66v.78m0 17.84v1.78m0 28.23v1.79m0 98.7v1.78m0 2.14v1.43m0 55.88v1.43m0 1.54v2.98m-.93-265.31v2.98m0 1.54v1.43m0 41.15v3.16m0 17.9v1.79m0 28.23v1.78m0 98.7v1.79m0 2.14v1.43m0 54.8v1.43m0 1.55v2.97m-.93-265.3v2.97m0 1.54v1.43m0 42.23v2.09m0 18.97v1.78m0 28.24v1.23m0 99.25v1.78m0 2.15v1.42m0 53.74v1.42m0 1.55v2.97m-.93-265.3v2.97m0 1.55v1.42m0 42.54v1.78m0 20.05v1.78m0 28.23v.16m0 .6v.74m0 98.99v1.78m0 2.14v1.43m0 52.66v1.43m0 1.54v2.98m-.93-265.31v2.98m0 1.54v1.43m0 42.53v1.78m0 21.12v1.79m0 27.91v1.82m0 98.98v1.79m0 2.14v1.11m0 0v.32m0 51.58v1.43m0 1.55v2.97m-.93-265.3v2.97m0 1.54v1.43m0 42.53v1.79m0 22.19v1.78m0 26.84v2.89m0 98.99v1.78m0 2.14v.04m0 0v1.39m0 50.52v.62m0 0v.8m0 1.55v2.97m-.93-265.22v2.89m0 1.55v1.42m0 42.54v1.78m0 23.27v1.78m0 25.77v3.96m0 98.99v1.78m0 1.1v2.47m0 49.44v1.69m0 1.28v2.98m-.93-264.71v.56m0 0v1.82m0 1.54v1.43m0 42.53v1.78m0 24.34v1.79m0 24.69v5.03m0 98.99v1.79m0 .03v3.53m0 48.37v2.77m0 .21v2.97m-.93-264.71v1.64m0 0v.74m0 1.54v1.43m0 42.53v1.79m0 25.41v1.78m0 23.79v5.78m0 49.66v1.61m0 47.88v.74m0 0v4.61m0 47.3v3.84m0 0v2.1m-.93-264.71v2.71m0 1.22v1.42m0 42.54v1.78m0 26.48v1.79m0 23.78v4.71m0 49.95v2.08m0 48.2v5.02m0 0v.33m0 46.22v4.91m0 0v1.04m-.92-264.71v3.78m0 .14v1.43m0 42.53v1.78m0 27.56v1.78m0 22.55v.93m0 .31V274m0 50.58v1.9m0 48.81v3.95m0 0v1.4m0 45.16v.63m0 0v4.72m-.93-264.12v4.86m0 0v.49m0 42.53v1.79m0 28.63v1.78m0 21.48v2m0 .3v2.57m0 51.65v.83m0 49.89v2.87m0 1.05v1.43m0 44.08v1.43m0 .27v3.65m-.93-263.54v4.77m0 0v.58m0 41.96v1.78m0 29.7v1.79m0 20.4v3.07m0 .31v1.49m0 103.44v1.81m0 2.12v1.43m0 43v1.43m0 1.35v2.57m-.93-262.46v3.7m0 .22v1.43m0 40.88v1.79m0 30.77v1.78m0 19.33v3.81m0 0v.34m0 .31v.42m0 104.51v.73m0 0v1.06m0 2.13v1.43m0 41.94v1.42m0 1.55v.88m0 0v1.5m-.93-261.4v2.63m0 1.3v1.42m0 39.81v1.79m0 31.85v1.78m0 18.26v3.8m0 0v1.07m0 105.59v1.78m0 2.14v1.43m0 40.86v1.43m0 1.54v1.95m0 0v.43m-.93-260.32v1.56m-.93-1.02v.48m.93.54v.82m-.93-1.36v1.9m.93 1v1.43m-.93-.89v1.43m.93 38.2v1.78m-.93-2.32v1.79m.93 33.45v1.79m-.93-1.25v1.78m.93 16.65v3.81m-.93-4.35v3.81m.93.54v1.07m-.93-1.61v1.07m.93 107.19v1.79m-.93-1.25v1.78m.93 1.61v1.42m-.93-.89v1.43m.93 39.25v1.43m-.93-1.96V424m.93 2.09v2.97m-.93-3.51v2.97m-.93-259.36v2.98m0 1.54v1.42m0 36.6v1.78m0 35.07v1.78m0 15.04v3.8m0 0v1.07m0 108.81v1.78m0 2.14v1.43m0 37.64v1.43m0 1.54v2.98m-.93-258.29v2.97m-.93-2.44v2.98m-.93-2.44v2.98m1.86.46v1.43m-.93-.89v1.43m-.93-.89v1.42m1.86 34.45v1.78m-.93-2.32v1.79m-.93-2.32v1.78m1.86 37.21v1.79m-.93-1.25v1.78m-.93-1.25v1.79m1.86 12.89v3.81m-.93-4.35v3.81m-.93-4.34v3.8m1.86 1.08v1.07m-.93-1.61v1.07m-.93-1.61v1.07m1.86 110.95v1.79m-.93-1.25v1.78m-.93-1.24v1.78m1.86 1.07v1.42m-.93-.89v1.43m-.93-.89v1.43m1.86 35.49v1.43m-.93-1.96v1.43m-.93-1.97v1.43m1.86 2.62v2.97m-.93-3.51v2.97m-.93-3.51v2.98m-.92-255.07v2.98m0 1.53v1.28m0 0v1.05m0 31.4v1.78m0 39.36v1.78m0 10.75v3.81m0 0v1.07m0 113.09v1.79m0 2.14v1.42m0 33.36v1.42m0 1.55v2.97m-.93-253.99v2.97m0 1.54v.2m0 0v1.55m0 30.9v1.79m0 40.43v1.78m0 9.67v3.81m0 0v1.07m0 114.17v1.78m0 2.14v1.43m0 32.28v1.43m0 1.54v2.97m-.93-252.91v2.97m0 .67v1.54m0 30.91v1.78m0 41.5v1.79m0 8.6v3.8m0 0v1.07m0 115.25v1.78m0 2.14v1.43m0 31.2v1.43m0 1.55v2.97m-.93-251.85v2.57m-.93-2.03v1.49m-.93-.95v.42m1.86 1.07v1.55m-.93-2.09v1.55m-.93-2.08v1.54m1.86 31.98v1.78m-.93-2.32v1.79m-.93-2.32v1.78m1.86 43.65v1.78m-.93-1.24v1.78m-.93-1.25v1.79m1.86 6.45v3.81m-.93-4.34v3.8m-.93-4.34v3.8m1.86 1.08v1.07m-.93-1.61v1.07m-.93-1.61v1.08m1.86 117.38v1.79m-.93-1.25v1.78m-.93-1.25v1.79m1.86 1.07v1.42m-.93-.89v1.43m-.93-.89v1.42m1.86 29.07v1.42m-.93-1.96v1.43m-.93-1.97v1.43m1.86 2.62v2.97m-.93-3.51v2.98m-.93-3.51v2.97m-.93-249.28v1.55m0 30.9v1.79m0 45.79v1.78m0 4.31v3.81m0 0v1.07m0 119.53v1.78m0 2.14v1.43m0 26.92v1.42m0 1.55v2.97m-.93-249.04v1.31m-.93-.77v.23m.93 31.45v1.78m-.93-2.32v1.78m.93 47.41v1.78m-.93-1.25v1.79m.93 2.7v3.8m-.93-4.34v3.81m.93.53v1.07m-.93-1.6v1.07m.93 121.14v1.78m-.93-1.25v1.79m.93 1.6v1.43m-.93-.89v1.42m.93 25.31v1.43m-.93-1.97v1.43m.93 2.08v2.98m-.93-3.51v2.97m-.93-216.83v1.79m0 49.01v1.78m0 1.09v3.81m0 0v1.07m0 122.75v1.78m0 2.14v1.43m0 23.7v1.43m0 1.54v2.97m-.92-216.82v1.78m0 50.08v1.79m0 .15v3.67m0 0v1.07m0 123.83v1.78m0 2.14v1.43m0 22.62v1.43m0 1.54v2.98m-.93-216.83v1.78m0 51.16v.73m0 .24v3.57m0 0v1.07m0 124.89v1.79m0 2.14v1.42m0 21.56v1.42m0 1.55v2.97m-.93-216.83v1.79m0 52.37v3.32m0 0v1.07m0 125.97v1.78m0 2.14v1.43m0 20.48v1.43m0 1.54v2.97m-.93-216.82v1.78m0 52.13v1.13m0 .14v2.29m0 0v1.07m0 127.05v1.78m0 2.14v1.43m0 19.4v1.43m0 1.55v2.97m-.93-216.83v1.78m0 52.13v2.21m0 .14v.98m0 .24v1.07m0 128.11v1.79m0 2.14v1.42m0 18.34v1.42m0 1.55v2.97m-.93-216.83v1.79m0 52.13v3.19m0 .37v1.07m0 129.19v1.78m0 2.14v1.43m0 17.26v1.43m0 1.54v2.98m-.93-216.83v1.78m0 52.13v3.32m0 .24v1.07m0 130.26v1.79m0 2.14v1.43m0 16.18v1.43m0 1.55v2.97m-.93-216.83v1.79m-.93-2.32v1.78m-.93-2.32v1.78m1.86 53.2v3.32m-.93-3.85v3.31m-.93-3.85v3.32m1.86 1.32v1.07m-.93-1.61v1.07m-.93-1.6v1.07m1.86 132.4v1.78m-.93-1.24v1.78m-.93-1.25v1.79m1.86 1.06v1.43m-.93-.89v1.43m-.93-.89v1.42m1.86 14.05v1.42m-.93-1.96v1.43m-.93-1.97v1.43m1.86 2.62v2.97m-.93-3.51v2.98m-.93-3.51v2.97m-.92-216.83v.82m0 0v.97m0 52.12v3.32m0 .25v1.07m0 134.55v1.78m0 2.14v1.43m0 11.9v1.42m0 1.55v2.97m-.93-216.82v1.78m-.93-2.32v1.78m-.93-2.32V199m-.93-2.32v1.78m-.93-2.32v1.78m-.93-2.32v1.79m-.93-2.32v1.78m5.58 55.35v3.31m-.93-3.85v3.32m-.93-3.85v3.31m-.93-3.85v3.31m-.93-3.85v3.32m-.93-3.85v3.31m-.93-3.85v3.32m5.58 3.46v1.07m-.93-1.6v1.07m-.93-1.61v1.07m-.93-1.61v1.07m-.93-1.6v1.07m-.93-1.61v1.07m-.93-1.61v1.07m5.58 138.85v1.78m-.93-1.25v1.79m-.93-1.25v1.78m-.93-1.24v1.78m-.93-1.25v1.79m-.93-1.25v1.78m-.93-1.25v1.79m5.58-1.08v1.43m-.93-.89v1.42m-.93-.89v1.43m-.93-.89v1.43m-.93-.89v1.42m-.93-.89v1.43m-.93-.89v1.43m5.58 7.6v1.43m-.93-1.96v1.42m-.93-1.96v1.43m-.93-1.97v1.43m-.93-1.96v1.42m-.93-1.96v1.43m-.93-1.97v1.43m5.58 4.76v2.98m-.93-3.51v2.97m-.93-3.51v2.97m-.93-3.5v2.97m-.93-3.51v2.97m-.93-3.51v2.98m-.93-3.51v2.97M270 194.82v1.5m-.93-.96v.42m.93 52.66v3.32m-.93-3.85v3.31m.93.79v1.07m-.93-1.61v1.07m.93 143.67v1.78m-.93-1.24v1.78m.93 1.6v1.43m-.93-.89v1.43m.93 2.78v1.42m-.93-1.96v1.43m.93 2.08v2.97m-.93-3.51v2.98m-.93-162.92v3.32m0 .25v1.07m0 145.27v1.79m0 2.14v1.42m0 .4v.2m0 .57v1.43m0 1.55v2.97m-.92-164.23v.99m0 .32v3.32m0 .25v1.07m0 146.35v1.78m0 2.14v.75m0 0v1.28m0 0v.92m0 1.55v2.97m-.93-164.22v2.05m-.93-2.59v3.13m.93-.25v2.28m-.93-1.74v1.21m.93.78v1.07m-.93-1.6v1.07m.93 147.96v1.78m-.93-1.25v1.79m.93 1.28v2.34m-.93-2.88v3.42m.93.86v2.98m-.93-3.51v2.97m-.93-164.23v4.21m0 .28v.14m0 .25v1.07m0 149.57v1.45m0 0v4.5m0 0v2.22m-.93-164.22v5.27m0 .29v.38m0 101.11v1.65m0 47.89v.38m0 0v5.56m0 0v1.16m-.93-164.82v.69m0 .3v5.55m0 49.66v1.24m0 50.52v2.08m0 47.62v6.44m0 0v.1m0 0v.08m-.93-164.82v1.67m0 .4v4.47m0 49.84v1.99m0 50.23v1.89m0 48.24v5.38m0 0v1.16m-.93-165.81v1.67m0 1.48v3.39m0 50.35v2.03m0 50.78v.72m0 49.39v4.3m0 0v2.24m-.93-166.88v1.66m0 2.55v2.33m0 51.19v1.39m0 101.76v3.22m0 .34v2.98m-.93-167.96v1.67m0 3.62v1.25m0 155.41v2.16m0 1.41v2.97m-.92-169.03v1.67m0 3.81v.58m0 .31v.18m0 156.48v1.08m0 0v.35m0 2.14v2.97m-.93-170.1v1.66m0 3.81v1.07m0 157.56v1.42m0 2.14v2.98m-.93-171.18v1.67m-.93-2.2v1.66m-.93-2.2v1.66m-.93-2.2v1.67m-.93-2.2v1.66m3.72 5.95v1.07m-.93-1.6v1.07m-.93-1.61v1.07m-.93-1.61v1.07m-.93-1.6v1.07m3.72 160.77v1.43m-.93-.89v1.43m-.93-.9v1.43m-.93-.89v1.43m-.93-.89v1.42m3.72 0v2.97m-.93-2.43v2.97m-.93-2.44v2.98m-.93-2.44v2.97m-.93-2.43v2.97m-.93-176.54v1.67m-.93-2.21v1.67m-.93-2.2v1.66m-.93-2.2v1.67m2.79 5.41v1.07m-.93-1.61v1.07m-.93-1.6v1.07m-.93-1.61v1.07m2.79 165.6v1.43m-.93-.89v1.43m-.93-.89v1.42m-.93-.89v1.43m2.79.53v2.97m-.93-2.43v2.97m-.93-2.44v2.98m-.93-2.44v2.97m2.79 2.67v.19m-.93-.73v1.27m-.93-1.8v2.34m-.93-2.88v3.41m-.92-185.3v1.67m-.93-2.2v1.66m-.93-2.2v1.67m1.86 4.87v1.08m-.93-1.61v1.07m-.93-1.61v1.07m1.86 169.36v1.43m-.93-.89v1.42m-.93-.89v1.43m1.86 1.07v2.95m-.93-2.42v1.89m-.93-1.35v.81m1.86 1.07v3.57m-.93-4.1v3.56m-.93-4.1v3.57m-.93-185.45v1.66m-.93-2.2v1.66m.93 4.35v1.07m-.93-1.61v1.07m.93 172.04v1.43m-.93-.89v1.42m.93 1.34v3.57m-.93-4.1v3.57m-.93-185.46v1.67m-.93-2.2v1.66m.93 4.34v1.07m-.93-1.6v1.07m.93 174.18v1.16m-.93-.62v.09m.93.53v3.57m-.93-4.1v3.56m-.93-185.45v1.66m-.93-2.2v1.67m-.93-2.2v1.66m1.86 4.88v1.07m-.93-1.61v1.07m-.93-1.6v1.07m1.86 176.58v2.87m-.93-2.34v1.8m-.93-1.26v.72m-.92-185.45v1.67m-.93-2.21v1.67m-.93-2.2v1.66m-.93-2.2v1.67m-.93-2.2v1.66m-.93-2.2v1.66m-.93-2.2v1.67m5.58 7.02v1.07m-.93-1.61v1.08m-.93-1.61v1.07m-.93-1.61v1.07m-.93-1.6v1.07m-.93-1.61v1.07m-.93-1.61v1.07m-.93-16.92v.46m-.93-.99v1.53m.93 8.85v1.66m-.93-2.2v1.66m.93 4.35v1.07m-.93-1.61v1.07m-.93-16.92v1.55m0 0v.75m0 7.54v1.67m0 3.8v1.07m-.92-16.92v1.55m-.93-2.08v1.54m.93.94v1.42m-.93-.89V217m.93 5.94v1.66m-.93-2.2v1.67m.93 4.34v1.07m-.93-1.61v1.07m-.93-16.92v1.55m0 2.54v1.43m0 4.32v1.67m0 3.8v1.07m0 201.87v1.03m-.93-219.82v1.55m-.93-2.08v1.54m.93.54v.88m-.93-1.42v1.95m.93 2.21v1.42m-.93-.89v1.43m.93 2.72v1.66m-.93-2.2v1.67m.93 4.34v1.07m-.93-1.61v1.07m.93 202.4v2.11m-.93-2.65v3.18m-.93-221.24v.83m0 .05v2.97m0 2.74v1.43m0 1.11v1.66m0 3.81v1.07m0 201.86v3.57m-.93-219.69v2.98m0 2.73v1.43m0 .3v1.4m0 3.81v1.07m0 201.86v3.57m-.93-218.61v2.97m0 2.74v.39m0 0v1.04m0 .3v.33m0 3.8v1.07m0 201.86v3.57m-.93-217.53v2.97m-.93-2.44v2.98m.93 1.52v2.1m-.93-2.64v3.18m.93 2.83v1.07m-.93-1.61v1.07m.93 202.4v3.57m-.93-4.11v3.57m-.93-215.39v2.88m0 0v4.26m0 1.21v1.07m0 201.87v3.56m-.92-214.31v1.81m0 0v5.32m0 .3v.92m0 201.86v3.57m-.93-213.25v.74m0 0v6.4m0 202.47v3.1m-.93-211.57v5.6m0 0v.94m0 202.46v2.03m-.93-210.5v4.54m0 .58v1.42m0 202.47v.96m-.93-209.43v3.46m-.93-2.92v2.39m.93 2.18v1.43m-.93-.89v1.43m-.93-6.01v1.32m-.93-.78v.24m.93.54v1.06m-.93-1.6v2.14m.93 2.19v1.43m-.93-.89v1.43m-.93-6.6v2.97m-.93-2.43v2.97m-.92-2.44v2.98m-.93-2.44v2.97m-.93-2.43v2.97m-.93-2.44v2.97m-.93-2.43v2.97m-.93-2.44v2.98m6.5-1.02v1.42m-.93-.89v1.43m-.92-.89v1.43m-.93-.89v1.42m-.93-.89v1.43m-.93-.89v1.43m-.93-.89v1.42m-.93-.89v1.43m-.93-6.6v2.97m-.93-2.43v2.97m-.93-2.44v2.98m1.86 1.66v1.43m-.93-.89v1.42m-.93-.89v1.43m1.86 211.89v.8m-.93-1.34v1.88m-.93-2.41v2.94m-.93-220.36v2.97m-.93-2.43v2.97m-.92-2.44v2.98m1.85 1.66v1.42m-.93-.89v1.43m-.92-.89v1.43m1.85 208.67v3.57m-.93-4.1v3.56m-.92-4.1v3.57m-.93-217.77V230m-.93-2.43v2.97m-.93-2.44v2.97m-.93-2.43v2.97m2.79 1.13v1.42m-.93-.89v1.43m-.93-.89v1.43m-.93-.89v1.42m2.79 204.92v3.67m-.93-4.2v4.74m-.93-5.28v5.81m-.93-6.35v6.89m-.93-216.8v2.98m-.93-2.44v2.97m-.93-2.43v2.97m1.86 1.66v1.43m-.93-.89v1.43m-.93-.89v1.42m1.86 201.4v6.9m-.93-6.37v5.84m-.93-5.3v4.76m-.93-213.83v2.98m-.93-2.44v2.97m-.92-2.43v2.97m1.85 1.66v1.43m-.93-.89v1.43m-.92-.9v1.43m1.85 201.4v4.16m-.93-3.63v4.16m-.92-3.62v4.16m-.93-213.23v2.98m-.93-2.44v2.97m-.93-2.43v2.97m-.93-2.44v2.97m2.79 1.13v1.43m-.93-.89v1.42m-.93-.89v1.43m-.93-.89v1.43m2.79 200.85v4.04m-.93-3.5v2.96m-.93-2.42v1.89m-.93-1.36v.82m-.93-209.88v2.97m-.93-2.44v2.98m-.93-2.44v2.97m-.93-2.43v2.97m-.93-2.44v2.98m-.92-2.44v2.97m-.93-2.43v2.97m-.93-2.44v2.98m-.93-2.44v2.97m-.93-2.43v2.97m8.36-2.09v1.42m-.93-.89v1.43m-.93-.89v1.43m-.93-.89v1.42m-.93-.89v1.43m-.92-.89v1.43m-.93-.9v1.43m-.93-.89v1.43m-.93-.89v1.42m-.93-.89v1.43m-.93-6.6v2.98m0 2.73v.86m0 0v.57m-.93-6.6v2.97m-.93-2.44v2.98m-.93-2.44v2.97m1.86 1.45v1.64m-.93-2.17v2.71m-.93-3.25v3.79m-.93-6.6v2.28m-.93-1.75v1.21m.93.54v4.85m-.93-5.39v5.93m-.92-6.6v.13m0 .47v6.07m0 0v.47m-.93-6.01v5.01m-.93-4.47v3.93m.93.64v1.43m-.93-.89v1.43m-.93-6.01v2.86m0 2.26v1.42m0 171.13v1.02m-.93-178.15v1.79m-.93-1.25v.71m.93.54v.59m-.93-1.13v1.67m.93 2.19v1.43m-.93-.89v1.43m.93 169.52v2.08m-.93-2.62v3.16m-.93-178.5v2.73m0 2.74v1.42m0 168.58v3.57m-.93-178.74v2.97m-.93-2.44v2.97m-.93-2.43v2.97m-.92-2.44v2.98m-.93-2.44v2.97m-.93-2.43v2.97m4.64.05v1.43m-.93-.89v1.43m-.93-.89v1.42m-.92-.89v1.43m-.93-.89v1.43m-.93-.89v1.42m4.64 165.9v3.56m-.93-3.03v3.57m-.93-3.03v3.57m-.92-3.04v3.57m-.93-3.03v3.57m-.93-3.03v3.56m-.93-178.74v2.98m-.93-2.44v2.97m-.93-2.43v2.97m1.86 1.66v1.43m-.93-.89v1.42m-.93-.89v1.43m1.86 167.5v2.53m-.93-1.99v1.45m-.93-.91v.38m-.93-175.56v2.98m-.93-2.44v2.97m-.93-2.43v2.97m-.93-2.44v2.97m-.93-2.43v2.97m-.92-2.44v2.98m-.93-2.44v2.97m-.93-2.43v2.97m-.93-2.44v2.98m-.93-2.44v2.97m-.93-2.43v2.97m-.93-2.44v2.98m-.93-2.44v2.97m-.93-2.43v2.97m-.93-2.44v2.97m-.92-2.43v2.97m-.93-2.44v2.98m-.93-2.44v2.97m-.93-2.43v2.97m16.72-6.92v1.43m-.93-.89v1.42m-.93-.89v1.43m-.93-.89v1.43m-.93-.89v1.42m-.92-.89v1.43m-.93-.89v1.43m-.93-.89v1.42m-.93-.89v1.43m-.93-.89v1.42m-.93-.89v1.43m-.93-.89v1.43m-.93-.89v1.42m-.93-.89v1.43m-.93-.89v1.43m-.92-.89v1.42m-.93-.89v1.43m-.93-.89v1.43m-.93-.89v1.42m-.93-6.6v2.98m-.93-2.44v2.97m-.93-2.43v2.97m1.86 1.66v1.43m-.93-.89v1.43m-.93-.9v1.43m1.86 135.73v.86m-.93-1.4v1.93m-.93-2.46v3m-.93-144.26v2.98m-.93-2.44v2.97m-.93-2.43v2.97m-.92-2.44v2.97m2.78 1.13v1.43m-.93-.89v1.42m-.93-.89v1.43m-.92-.89v1.43m2.78 132.48v3.56m-.93-3.03v3.57m-.93-3.03v3.57m-.92-3.03v3.56m-.93-144.25v2.97m-.93-2.44v2.98m.93 2.2v1.09m-.93-.56v.03m.93.53v.33m-.93-.86v1.4m.93 133.55v3.57m-.93-3.03v3.57m-.93-144.26v2.97m0 1.69v2.48m0 134.09v3.56m-.93-144.25v2.97m0 .61v3.55m0 134.09v2.69m-.93-143.38v2.52m-.93-1.98v1.44m.93.54v4.62m-.93-5.16v5.7m.93 133.55v1.61m-.93-1.08v.54M126 268.87v.37m0 .22v6.32m0 0v.22m-.93-6v5.24m0 0v1.3m-.93-6.01v4.17m-.93-3.63v3.1m.93 1.48v1.42m-.93-.89v1.43m-.92-6v2.02m-.93-1.49v.95m.93.54v.36m-.93-.9v1.43m.93 2.2v1.43m-.93-.89v1.42m-.93-6.12v2.5m0 2.73v1.43m-.93-6.6v2.97m-.93-2.43v2.97m-.93-2.44v2.98m-.93-2.44v2.97m-.93-2.43v2.97m-.93-2.44v2.98m-.93-2.44v2.97m-.92-2.43v2.97m-.93-2.44v2.98m-.93-2.44v2.97m-.93-2.43v2.97m-.93-2.44v2.97m10.22-3.16v1.43m-.93-.89v1.42m-.93-.89v1.43m-.93-.89v1.43m-.93-.9v1.43m-.93-.89v1.43m-.93-.89v1.42m-.92-.89v1.43m-.93-.89v1.43m-.93-.89v1.42m-.93-.89v1.43m-.93-.89v1.43m-.93-6.6v2.97m-.93-2.44v2.98m-.93-2.44v2.97m1.86 1.67v1.42m-.93-.89v1.43m-.93-.89v1.43m1.86 101.39v.7m-.93-1.23v1.77m-.93-2.31v2.85m-.93-109.77v2.97m-.93-2.44v2.98m-.93-2.44v2.97m-.92-2.43v2.97m-.93-2.44v2.98m-.93-2.44v2.97m-.93-2.43v2.97m5.57-.48v1.42m-.93-.89v1.43m-.93-.89v1.42m-.92-.89v1.43m-.93-.89v1.43m-.93-.89v1.42m-.93-.89v1.43m5.57 96.39v3.56m-.93-3.03v3.57m-.93-3.03v3.57m-.92-3.04v3.57m-.93-3.03v3.57m-.93-3.03v3.56m-.93-3.03v3.57m-.93-109.77v2.97m-.93-2.43v2.97m-.93-2.44v2.98m1.86 1.66v1.43m-.93-.89v1.42m-.93-.89v1.43m1.86 98.53V394m-.93-2.3v1.77m-.93-1.24v.7m-.93-106.9V289m-.93-2.43v2.97m-.93-2.44v2.98m-.92-2.44v2.97m-.93-2.43v2.97m-.93-2.44v2.98m-.93-2.44v2.97m-.93-2.43v2.97m-.93-2.44v2.97m-.93-2.43v2.97m8.36-2.09v1.43m-.93-.89v1.42m-.93-.89v1.43m-.92-.89v1.43m-.93-.9v1.43m-.93-.89v1.43m-.93-.89v1.42m-.93-.89v1.43m-.93-.89v1.43m-.93-.89v1.42m-.93-6.6v2.98m-.93-2.44v2.97m.93 2.2v1.34m-.93-.8v.26m.93.54v.09m-.93-.63v1.17m-.93-6.6v2.97M84.2 293v2.98m.92 1.38v2.24m-.92-2.77v3.31m-.93-6.6v2.75m-.93-2.21v1.67m-.93-1.14v.61m1.86 1.07v4.39m-.93-4.93v5.46m-.93-5.99v6.53m-.93-6.01v5.48m0 0v1.06m-.93-6v4.41m0 .7v1.43m-.93-6v3.33m0 1.78v1.43m0 68.14v.54m-.93-74.69v2.26m-.93-1.72v1.19m.93.53v.12m-.93-.65v1.19m.93 2.2v1.42m-.93-.89v1.43m.93 66.53v1.62m-.93-2.15v2.68m-.93-74.68v.11m0 0v2.26m0 2.74v1.43m0 65.11v3.57m-.93-75.28v2.97m-.92-2.44v2.98m-.93-2.44v2.97m-.93-2.43v2.97m-.93-2.44v2.98m-.93-2.44v2.97m4.64.06v1.42m-.92-.89v1.43m-.93-.89v1.43m-.93-.9v1.43m-.93-.89v1.43m-.93-.89v1.42m4.64 62.44v3.57m-.92-3.03v3.56m-.93-3.03v3.57m-.93-3.03v3.57m-.93-3.03v3.56m-.93-3.03v3.57m-.93-75.28v2.97m-.93-2.44v2.98m-.93-2.44v2.97m1.86 1.66v1.43m-.93-.89v1.43m-.93-.89v1.42m1.86 64.05v3m-.93-2.47v1.93m-.93-1.39v.86m-.93-72.57v2.97m0 2.73v1.43m0 .16v.15m-.93-6.91v2.97m0 2.74v.51m0 0v1.22m-.92-6.9v2.97m-.93-2.44v2.98m.93 1.64v2.29m-.93-2.83v3.37m-.93-6.91v2.97m0 .03v3.57m-.93-6.03v1.93m-.93-1.4v.86m.93.54v3.57m-.93-4.11v3.57m-.93-4.1v3.56m-.93-4.1v3.57m-.93-3.82v3.28m-.93-2.74v2.2m-.93-1.67v1.14m-.93-.6v.06m-6.5 46.72v.38m-.93-.92v1.46m-.93-2v2.53m-.93-3.03v3.57m-.92-3.83v.8m0 0v3.57m-.93-4.91v1.43m-.93-1.97v1.43m-.93-1.96v1.43m1.86 1.51v3.57m-.93-3.03v3.57m-.93-3.03v3.56m-.93-8.12v1.43m-.93-1.96v1.42m.93 3.27v.93m-.93-1.46v2m.93-.54v3.57m-.93-3.03v3.57m-.93-10.27v1.43m0 2.73v2.97m0 .11v3.15m-.93-33.23v.29m-.93-.83v1.37m.93 21.47v1.43m-.93-1.96v1.42m.93 3.27v2.98m-.93-3.51v2.97m.93 1.71v2.09m-.93-1.55v1.01m-.93-33.24v2.44m-.92-2.97v3.51m.92 19.33v1.43m-.92-1.97v1.43m.92 3.27v2.97m-.92-3.5v2.97m-.93-29.98v3.57m0 0v.71m0 18.03v1.42m0 2.74v2.97m-.93-29.98v3.57m-.93-4.1v3.56m-.93-4.1v3.57m1.86 1.43v1.42m-.93-.89v1.43m-.93-.89v1.43m1.86 15.88v1.43m-.93-1.97v1.43m-.93-1.96v1.42m1.86 3.81v2.98m-.93-3.51v2.97m-.93-3.51v2.97m-.93-29.98v3.57m0 0v.84m0 2.74v1.42m0 13.74v1.43m0 2.73v2.98m-.93-29.55v3.14m0 0v1.91m0 2.73v1.43m0 12.67v1.42m0 2.74v2.97m-.93-28.47v2.06m-.93-1.52v.98m.93.55v2.97m-.93-2.43v2.97m.93 2.2v1.43m-.93-.9v1.43m.93 11.06v1.43m-.93-1.97v1.43m.93 3.27v2.97m-.93-3.51v2.98m-.93-24.26v2.98m-.93-2.44v2.97m-.92-2.43v2.97m-.93-2.44v2.98m-.93-2.44v2.97m-.93-2.44v2.98m-.93-2.44v2.97m-.93-2.43v2.97m-.93-2.44v2.98m7.43-1.56v1.43m-.93-.89v1.42m-.92-.89v1.43m-.93-.89v1.43m-.93-.89V335m-.93-.89v1.43m-.93-.89v1.43m-.93-.89v1.42m-.93-.89v1.43m7.43 5.16v1.42m-.93-1.96v1.43m-.92-1.97v1.43m-.93-1.96v1.42m-.93-1.96v1.43m-.93-1.97v1.43m-.93-1.96v1.42m-.93-1.96v1.43m-.93-1.97v1.43m7.43 7.03v2.97m-.93-3.51v2.97m-.92-3.5v2.97m-.93-3.51v2.97m-.93-3.51v2.98m-.93-3.51v2.97m-.93-3.51v2.97m-.93-3.51v2.98m-.93-3.51v2.97m-.93-14.6v2.97m-.93-2.43v2.97m.93 2.2v1.22m-.93-.69v.15m.93.54v.21m-.93-.75v1.28m.93-.53v1.22m-.93-.69v.15m.93 3.27v2.97m-.93-3.51v2.98m-.93-12.46v2.98m-.92-2.44v2.97m.92 1.28v2.35m-.92-2.89v3.42m.92 1.28v2.97m-.92-3.51V343m-.93-10.3v2.63m-.93-2.1v1.57m.93.53v4.5m-.93-5.03v5.57m.93-.54v2.64m-.93-2.1v1.56m-.93-8.16v.49m0 .4v5.84m0 .4v.5m-.93-6.2v4.76m-.93-4.22v3.69m-.93-3.16v2.62m-.93-2.08v1.55m-.93-1.01v.47" fill="none" stroke="gray" stroke-width=".5"/><path d="m379.13 490.24-38.15-22.03" fill="none" stroke="#ff0" stroke-width=".5"/><path d="m358.7 298.34-5.15-2.97m0 0-5.15 2.97m0 0 5.15 2.97m0 0 5.15-2.97M313.38 272.18l-5.15-2.98m0 0-5.15 2.98m0 0 5.15 2.97m0 0 5.15-2.97M268.07 246.02l-5.15-2.98m0 0-5.15 2.98m0 0 5.15 2.97m0 0 5.15-2.97M223.76 211.54l7.21 4.17M289.72 173.46l7.21 4.17M304.89 165.89l-14.14 8.17M223.76 211.54l1.34-.77M225.1 210.77l7.21 4.16M289.72 173.46l-1.34.78M288.38 174.24l7.21 4.16" fill="none" stroke="#000" stroke-width=".5"/><path d="m225.1 210.77 63.28-36.53M232.31 214.93l63.28-36.53M231.79 214.63l63.28-36.53M240.68 209.5l.52.3M240.99 209.33l.51.29M232.92 214.58l-.51-.3" fill="none" stroke="#0ff" stroke-width=".5"/><path d="m480.99 274.11 5.66-3.27" fill="none" stroke="#000" stroke-width=".5"/><path d="m392.74 222.57 15.39 8.88M371.69 211.01l.48.27M372.17 210.73l.48.28M372.65 211.01l-.48.27M385.56 219.02l.51-.3M386.07 218.72l.5.29M385.56 219.02l.51.29M413.53 235.16l15.16 8.76M414.05 234.87l15.16 8.75M465.79 265.04l15.46 8.92M466.31 264.74l15.45 8.92" fill="none" stroke="#0ff" stroke-width=".5"/><path d="m445.2 253.15 5.15-2.97M450.35 250.18l-15.99-9.24" fill="none" stroke="#000" stroke-width=".5"/><path d="m460.38 262.21-15.06-8.69M460.9 261.92l-15.06-8.7" fill="none" stroke="#0ff" stroke-width=".5"/><path d="m266.52 245.12 1.55.9M418.94 232.04l-5.92-3.42M413.53 235.16l5.41-3.12M407.62 231.75l5.4-3.13M428.69 243.92l5.67-3.27M392.22 222.86l5.41-3.12M263.85 248.45l16.4 9.47M267.14 246.55l16.4 9.47M283.54 259.83l-3.29-1.91M286.84 257.92l-3.3-1.9M283.33 256.14l1.29.75M283.75 259.7l-1.29-.74M282.34 258.55l2.28-1.32M282.46 258.62l2.29-1.32M283.54 259.83l.21-.13M280.25 257.92l.21-.12M285.34 257.3l1.29.74M281.75 258.55l-1.29-.75M282.46 258.62l-.12.17m0 0 .12.17M281.75 258.55l.29.07m0 0 .3-.07M285.34 257.3l-.3-.07m0 0-.29.07M284.62 257.23l.13-.17m0 0-.13-.17M283.33 256.14l.21-.12M286.63 258.04l.21-.12M267.35 246.67l-3.3 1.9M266.93 246.67l16.4 9.47M264.06 248.33l16.4 9.47M286.84 257.92l20.47 11.82M283.54 259.83l20.47 11.81" fill="none" stroke="#000" stroke-width=".5"/><path d="M260.88 320.81 248 313.37M263.97 319.02l-12.88-7.43M267.06 317.24l-12.88-7.44M270.15 315.46l-12.91-7.43M273.24 313.67l-12.88-7.44M276.33 311.89l-12.88-7.44M279.42 310.1l-12.88-7.43M329.35 304.58l20.08-11.59M286.78 307.46l21.46-12.39M286.78 310.13l18.54 10.7M309.95 320.83l21.46-12.38M331.41 305.77l-18.54-10.7M328.83 304.29l20.08-11.6" fill="none" stroke="#ff0" stroke-width=".5"/><path d="m262.67 297-1.54-.9m0 0-5.15 2.98m0 0 5.15 2.97m0 0 1.54-.89M310.56 324.64l1.55.9m0 0-5.15 2.97m0 0-5.15-2.97m0 0 1.54-.9" fill="none" stroke="gray" stroke-width=".5"/><path d="m258.71 299.08.18-.54m0 0 .53-.45m0 0 .78-.3m0 0 .93-.11m0 0 .92.11m0 0 .79.3m0 0 .52.45m0 0 .19.54m0 0-.19.53m0 0-.52.45m0 0-.79.31m0 0-.92.1m0 0-.93-.1m0 0-.78-.31m0 0-.53-.45m0 0-.18-.53" fill="none" stroke="#ff0" stroke-width=".5"/><path d="m259.29 299.08.18-.46m0 0 .51-.37m0 0 .74-.21m0 0h.82m0 0 .73.21m0 0 .51.37m0 0 .18.46m0 0-.18.46m0 0-.51.36m0 0-.73.21m0 0h-.82m0 0-.74-.21m0 0-.51-.36m0 0-.18-.46" fill="none" stroke="#000" stroke-width=".5"/><path d="m304.54 325.54.18-.54m0 0 .53-.45m0 0 .78-.3m0 0 .93-.11m0 0 .92.11m0 0 .79.3m0 0 .52.45m0 0 .18.54m0 0-.18.53m0 0-.52.45m0 0-.79.3m0 0-.92.11m0 0-.93-.11m0 0-.78-.3m0 0-.53-.45m0 0-.18-.53" fill="none" stroke="#ff0" stroke-width=".5"/><path d="m305.12 325.54.18-.46m0 0 .51-.37m0 0 .74-.21m0 0h.81m0 0 .74.21m0 0 .51.37m0 0 .18.46m0 0-.18.45m0 0-.51.37m0 0-.74.21m0 0h-.81m0 0-.74-.21m0 0-.51-.37m0 0-.18-.45" fill="none" stroke="#000" stroke-width=".5"/><path d="m314.93 296.26 20.08-11.6M315.44 296.56l20.08-11.6M282.51 308.32l-12.88-7.44M349.43 292.99l-.52-.3M335.52 284.96l-.51-.3M329.85 281.69l-.51-.3M285.6 306.54l-12.88-7.44M288.64 304.72l-12.83-7.4M291.73 302.94l-12.83-7.41M309.68 294.5l.87-.5m0 0 1.86 1.07m0 0-.88.5M311.43 295.63l-.88.51m0 0-1.85-1.07m0 0 .87-.51M309.58 294.56l1.85 1.07M309.68 294.5l1.85 1.07M330.53 306.54l.88-.5m0 0 1.85 1.07m0 0-.88.5M332.28 307.67l-.87.51m0 0-1.86-1.07m0 0 .88-.51M330.43 306.6l1.86 1.07M330.53 306.54l1.86 1.07M285.91 308.23l.87-.51m0 0 1.86 1.07m0 0-.88.51M287.66 309.36l-.88.5m0 0-1.85-1.07m0 0 .87-.5M285.81 308.28l1.85 1.08M285.91 308.23l1.85 1.07M306.76 320.27l.88-.51m0 0 1.85 1.07m0 0-.88.51M308.51 321.4l-.87.5m0 0-1.86-1.07m0 0 .88-.5M306.66 320.33l1.86 1.07M306.77 320.27l1.85 1.07M287.94 308.12l21.45-12.38M313.18 300.24l9.26 5.35M322.99 305.27l-9.26-5.34M326.37 307.86l-3.35-1.93M323.57 305.61l2.9 1.67M310.26 297.92l2.89 1.67M312.6 299.91l-3.35-1.94M311.41 298.59h.01M292.73 308.04l16.21 9.36M310.26 297.92l-17.53 10.12M326.47 307.28l-17.53 10.12M326.37 307.87l-17.42 10.06M291.81 308.04l17.13 9.89M309.24 297.97l-17.43 10.06M326.37 307.86v.01M309.25 297.97h-.01M312.6 299.91l10.42 6.02M323.57 305.61l-10.42-6.02M326.37 307.86l-3.35-1.93M310.26 297.92l2.89 1.67M312.6 299.91l-3.35-1.94M311.41 298.59h.01M292.73 308.04l16.21 9.36M310.26 297.92l-17.53 10.12M326.47 307.28l-17.53 10.12M326.37 307.87l-17.42 10.06M291.81 308.04l17.13 9.89M309.24 297.97l-17.43 10.06M326.37 307.86v.01M309.25 297.97h-.01M323.57 305.61l2.9 1.67M312.87 295.07l-2.32-1.34m0 0-2.31 1.34m0 0 2.31 1.34m0 0 2.32-1.34M289.1 308.79l18.54 10.71M323.02 305.93l.55-.32M312.6 299.91l.55-.32M324.34 305.84l-5.79-3.35M323.87 306.1l-3.24-1.87M323.87 306.1l.47-.26M321.79 304.37l.46-.27M318.55 302.49l.46-.26M320.63 304.23l.46-.27M322.25 304.1l-3.24-1.87M312.76 299.15l5.79 3.34M312.29 299.42l3.25 1.87M312.29 299.42l.47-.27M315.31 300.62l.46-.27M318.55 302.49l.46-.26M315.54 301.29l.46-.27M315.77 300.35l3.24 1.88M326.37 307.86l1.2-.69M309.24 297.97l1.2-.69M322.25 304.1l5.32 3.07M315.77 300.35l-5.33-3.07M327.4 307.95l.11-.06M327.51 307.89l-.41-.25M327.63 307.82l-.42-.24M327.1 307.64l.11-.06M327.63 307.82l-.91.53M327.51 308.02l-.11-.07M326.83 308.41l-.11-.06M309.25 297.97h-.01M309.25 297.97h-.01M309.09 297.38l.12-.06M309.21 297.32l.42.24M309.32 297.25l.42.24M309.63 297.56l.11-.07M309.32 297.25l-.91.53M308.98 297.32l.11.06M308.29 297.71l.12.07M310.26 297.92l-1.32 19.48M326.47 307.28l-33.74.76M286.78 310.13l-2.31-1.34m0 0 2.31-1.33m0 0 2.32 1.33m0 0-2.32 1.34M331.41 305.77l2.31 1.34m0 0-2.31 1.34m0 0-2.32-1.34m0 0 2.32-1.34M305.32 320.83l2.32 1.34m0 0 2.31-1.34m0 0-2.31-1.33m0 0-2.32 1.33M289.1 308.79l21.45-12.38M307.64 319.5l21.45-12.39M329.09 307.11l-18.54-10.7M305.41 316.76l-5.79-3.34M305.88 316.49l-3.25-1.87M305.88 316.49l-.47.27M302.87 315.29l-.47.27M299.62 313.42l-.46.27M302.63 314.62l-.46.27M302.4 315.56l-3.24-1.87M293.83 310.08l5.79 3.34M294.3 309.81l3.24 1.87M294.3 309.81l-.47.27M296.38 311.55l-.46.26M299.62 313.42l-.46.27M297.54 311.68l-.46.27M295.92 311.81l3.24 1.88M308.92 317.94l-1.2.69M291.8 308.04l-1.21.7M302.4 315.56l5.32 3.07M295.92 311.81l-5.33-3.07M310.11 317.93l-.12.07M309.99 318l-.41-.24M309.88 318.07l-.42-.24M309.58 317.76l-.12.07M309.88 318.07l-.12.06M310.23 318l-.12-.07M309.88 318.2l-.12-.07M291.8 307.37l-.11.06M291.69 307.43l.41.24M291.57 307.5l.42.24M292.1 307.67l-.11.07M291.57 307.5l-.11.07M291.69 307.3l.11.07M291.34 307.5l.12.07M288.29 308.32l21.45-12.38M287.77 309.56l18.54 10.7M288.12 309.36l18.53 10.7M306.76 320.27l-.1.06M311.54 295.84l4.06 2.34M311.89 295.64l4.05 2.34M308.79 320.16l21.46-12.38M308.45 319.96l21.45-12.38" fill="none" stroke="#ff0" stroke-width=".5"/><path d="m390.18 219-1.09.63" fill="none" stroke="#000" stroke-width=".5"/><path d="M267.38 194.09" fill="none" stroke="#f0f" stroke-width=".5"/><path d="m258.76 199.07.51.29M259.07 198.89l.51.3M294.76 178.28l.52.3M295.07 178.1l.52.3M249.72 204.29l.51.29M250.03 204.11l.51.29M267.8 193.85l.51.29M268.11 193.67l.51.3M276.84 188.63l.51.3M277.15 188.45l.51.3M285.88 183.41l.51.3M286.19 183.23l.51.3" fill="none" stroke="#0ff" stroke-width=".5"/><path d="m264.73 299.97 1.55-.89m0 0-1.55-.9M305.41 323.45l1.55-.89m0 0 1.54.89" fill="none" stroke="gray" stroke-width=".5"/><path d="m453.91 256.82-3.38 1.95M475.79 268.42l-3.38 1.95" fill="none" stroke="#0ff" stroke-width=".5"/><path d="m371.69 211.01 5.67-3.27M259.99 351.26l.18-.54m0 0 .52-.45m0 0 .79-.3m0 0 .92-.11m0 0 .93.11m0 0 .78.3m0 0 .53.45m0 0 .18.54m0 0-.18.53m0 0-.53.45m0 0-.78.31m0 0-.93.1m0 0-.92-.1m0 0-.79-.31m0 0-.52-.45m0 0-.18-.53M260.57 351.26l.18-.46m0 0 .51-.37m0 0 .74-.21m0 0h.81m0 0 .74.21m0 0 .51.37m0 0 .18.46m0 0-.18.46m0 0-.51.37m0 0-.74.2m0 0H262m0 0-.74-.2m0 0-.51-.37m0 0-.18-.46M417.12 368.91l-1.65 2.13m0 0 3.69-.95m.51.29-1.91 1.1m0 0-.25.3m0 0v.29m0 0 .25.3m0 0 .26.14m0 0 .51.15m0 0h.51m0 0 .51-.15m0 0 1.91-1.1m1.78 1.03-.38-.07m0 0h-.51m0 0-.38.07m0 0-.51.15m0 0-.64.37m0 0-.25.29m0 0-.13.22m0 0v.3m0 0 .13.22m0 0 .51.29m0 0 .38.08m0 0h.51m0 0 .38-.08m0 0 .51-.15m0 0 .64-.36m0 0 .25-.3m0 0 .13-.22m0 0v-.29m0 0-.13-.22m0 0-.51-.3m2.94 1.69-2.68 1.55m1.78-2.06 1.79 1.03m1.27.74-.38-.08m0 0h-.51m0 0-.38.08m0 0-.51.14m0 0-.64.37m0 0-.25.3m0 0-.13.22m0 0v.29m0 0 .13.22m0 0 .51.3m0 0 .38.07m0 0h.51m0 0 .38-.07m0 0 .51-.15m0 0 .64-.37m0 0 .25-.29m0 0 .13-.22m0 0v-.3m0 0-.13-.22m0 0-.51-.29m5.87 3.82v-.29m0 0-.25-.3m0 0-.51-.29m0 0-.51-.15m0 0h-.51m0 0-.26.15m0 0-.13.22m0 0v.15m0 0 .13.22m0 0 .51.59m0 0 .13.22m0 0v.15m0 0-.13.22m0 0-.38.22m0 0h-.51m0 0-.51-.15m0 0-.51-.29m0 0-.26-.3m0 0v-.29m4.85.14-1.91 1.11m0 0-.26.29m0 0v.3m0 0 .26.29m0 0 .25.15m0 0 .51.15m0 0h.51m0 0 .51-.15m0 0 1.91-1.1m1.02.58-2.67 1.55m0 0 1.53.88m3.31-1.17-2.68 1.54m0 0 1.53.88m3.96-1.25h-.26m0 0v-.14m0 0h.26m0 0v.14m0 0-.26.15m0 0-.38.07m0 0h-.26m-1.27 2.07 3.7-.96m0 0-1.66 2.13m-.77-1.47 1.28.74m2.93-.37-1.91 1.1m0 0-.26.3m0 0v.29m0 0 .26.3m0 0 .25.14m0 0 .51.15m0 0h.51m0 0 .51-.15m0 0 1.92-1.1m1.02.59-2.68 1.54m0 0 1.53.89m.64.37 3.69-.96m0 0-1.65 2.13m-.77-1.47 1.28.74m2.67 2.57 2.68-1.54m0 0-1.66 2.13m0 0 3.7-.95m0 0-2.68 1.54m1.02.59 3.7-.96m0 0-1.66 2.14m-.76-1.47 1.27.73m4.21 1.11.13-.22m0 0v-.3m0 0-.13-.22m0 0-.51-.29m0 0-.38-.08m0 0h-.51m0 0-.38.08m0 0-.51.14m0 0-.64.37m0 0-.26.3m0 0-.12.22m0 0v.29m0 0 .12.22m0 0 .51.3m0 0 .39.07m0 0h.51m0 0 .38-.07m0 0 .38-.22m0 0-.64-.37m.39 1.4 2.67-1.55m0 0-.89 2.58m0 0 2.68-1.55m-1.66 2.14 3.7-.96m0 0-1.66 2.13m-.76-1.47 1.27.74" fill="none" stroke="#000" stroke-width=".5"/><path d="m49.22 318.3 3.38 1.94M60.6 363.46l4.39-2.54M90.33 380.63l4.4-2.54M120.2 397.87l4.39-2.53M179.48 432.17l4.39-2.53M216.53 433.85l-4.81-2.78M230.38 425.85l-4.81-2.78" fill="none" stroke="#0ff" stroke-width=".5"/><path d="m311.62 270.56 1.25.73M311.62 270.56l2.28 1.32" fill="none" stroke="#000" stroke-width=".5"/><path d="m326.02 304.2.35-.2M315.6 298.18l.34-.2M326.02 304.2l4.06 2.34M326.37 304l4.05 2.34M254.65 324.34l-12.83-7.4M257.74 322.56l-12.83-7.41" fill="none" stroke="#ff0" stroke-width=".5"/><path d="m481.5 274.1 5.15-2.97M258.76 351.26l.2-.69m0 0 .57-.6m0 0 .88-.47m0 0 1.1-.28m0 0 1.2-.06m0 0 1.16.17m0 0 1 .38m0 0 .74.55m0 0 .39.65m0 0v.69m0 0-.39.66m0 0-.74.54m0 0-1 .38m0 0-1.16.17m0 0-1.2-.05m0 0-1.1-.28m0 0-.88-.47m0 0-.57-.61m0 0-.2-.68" fill="none" stroke="#000" stroke-width=".5"/><path d="m402.13 490.29-103.08-59.52" fill="none" stroke="gray" stroke-width=".5"/><path d="m251.61 326.16-12.78-7.38" fill="none" stroke="#ff0" stroke-width=".5"/><path d="m626.19 357.64.52.3M626.71 357.94l-35.53 20.51M624.13 356.46l-35.53 20.51M621.56 354.97l-35.53 20.51M622.79 355.68l-35.53 20.52M632.37 354.97 402.56 487.65M621.04 354.97 402.56 481.11M626.19 352.29l.52-.29M626.71 352l-47.89-27.65M624.13 353.48l-47.89-27.65M621.56 354.97l-47.89-27.65M622.79 354.26l-47.89-27.65M632.37 354.97l-145.72-84.13M621.04 354.97l-140.05-80.86M590.66 378.16l.52.29M578.3 324.64l.52-.29M544.32 405.51l42.22-24.38M541.74 404.02l42.23-24.38M539.17 402.54l42.22-24.38M540.4 403.25l42.23-24.38M586.03 380.83l.51.3M543.8 405.21l.52.3M539.68 408.18l-42.22 24.38M537.11 406.7l-42.23 24.38M534.53 405.21l-42.22 24.38M535.77 405.92l-42.22 24.38M539.17 407.89l.51.29M496.94 432.26l.52.3M452.66 458.43l40.17-23.19M450.09 456.94l40.16-23.19M447.51 455.45l40.17-23.19M448.75 456.17l40.16-23.19M492.31 434.94l.52.3M452.15 458.13l.51.3M448.03 461.1l-40.32 23.28M445.45 459.62l-40.32 23.27M442.88 458.13l-40.32 23.28M444.11 458.84l-40.32 23.28M447.51 460.8l.52.3M407.19 484.08l.52.3M357.76 461.49l39.65 22.89M360.33 460l39.65 22.89M362.91 458.52l39.65 22.89M361.67 459.23l39.65 22.89M397.92 484.08l-.51.3M262.5 406.79l140.06 80.86M358.27 461.19l-.51.3M353.13 458.81l-46.86-27.05M355.7 457.33l-46.86-27.06M358.27 455.84l-46.85-27.05M357.04 456.55l-46.86-27.05M353.64 458.52l-.51.29M267.9 403.37l134.66 77.74M306.78 431.46l-.51.3" fill="none" stroke="#000" stroke-width=".5"/><path d="m441.58 210.04 159.04 91.82M542.8 302.36l26.77-15.46M539.71 300.58l26.77-15.46M536.62 298.79l26.77-15.46M533.53 297.01l26.77-15.46M530.44 295.23l26.77-15.46M527.35 293.44l26.77-15.46M524.26 291.66l26.78-15.46M565.45 299.98l-26.26-15.16M436.96 215.43l-20.08-11.6M415.62 213.48l.15-.09M418.71 215.26l.15-.08M409.44 209.91l.2-.12M412.53 211.7l.15-.09M406.15 208.25l.2-.12M408.72 206.76l.18-.1M569.83 318.86l27.55-15.9" fill="none" stroke="#ff0" stroke-width=".5"/><path d="m391.93 216.45 17.68-10.21" fill="none" stroke="#000" stroke-width=".5"/><path d="m603 300.49-159.05-91.82M433.95 206.46l-11.98 6.92M437.04 208.25l-11.98 6.91M545.89 304.15l26.77-15.46M548.98 305.93l26.77-15.46M552.06 307.71l26.78-15.46" fill="none" stroke="#ff0" stroke-width=".5"/><path d="m376.08 206.94 30.06-17.36M393.17 215.74l12.51-7.22" fill="none" stroke="#000" stroke-width=".5"/><path d="m399.86 219.01 12-6.93M396.77 217.23l12-6.93M406.04 222.58l12.67-7.32M412.22 226.14l12-6.92M409.13 224.36l12-6.93M415.31 227.93l12-6.93" fill="none" stroke="#ff0" stroke-width=".5"/><path d="m392.45 216.75 17.68-10.21" fill="none" stroke="#000" stroke-width=".5"/><path d="m414.92 210.32.36-.21M411.83 208.53l.36-.2M418.01 212.1l.36-.21M452.22 250.07 479 234.61M449.13 248.28l26.78-15.46M446.04 246.5l26.78-15.46M442.95 244.72l26.78-15.46M439.86 242.93l26.78-15.46M465.61 242.34l-10.81-6.24" fill="none" stroke="#ff0" stroke-width=".5"/><path d="m435.82 240.6-.77.45" fill="none" stroke="gray" stroke-width=".5"/><path d="m425.04 218.74-.15.09M402.95 220.79l12-6.92M409.28 210l.16-.09M412.37 211.79l.16-.09M405.99 208.34l.16-.09M415.46 213.57l.16-.09" fill="none" stroke="#ff0" stroke-width=".5"/><path d="m376.8 207.35 29.34-16.94" fill="none" stroke="#000" stroke-width=".5"/><path d="m443.22 211.82-11.98 6.91M440.13 210.03l-11.98 6.92M406.71 208.52l21.49 12.4M406.19 208.81l22.01 12.71" fill="none" stroke="#ff0" stroke-width=".5"/><path d="m313.28 169.85 63.52 36.67" fill="none" stroke="gray" stroke-width=".5"/><path d="m407.07 208.31 21.11 12.19M409.25 207.05l21.11 12.19" fill="none" stroke="#ff0" stroke-width=".5"/><path d="m406.14 189.58 53.25 30.74" fill="none" stroke="#000" stroke-width=".5"/><path d="m435.82 240.6 135.46 78.2" fill="none" stroke="gray" stroke-width=".5"/><path d="m430.04 237.26 29.35-16.94M406.14 190.41l51.8 29.91" fill="none" stroke="#000" stroke-width=".5"/><path d="m551.04 276.2 47.01 27.14M441.58 210.04l2.37-1.37M409.61 206.84l21.49 12.41" fill="none" stroke="#ff0" stroke-width=".5"/><path d="m430.04 236.43 27.9-16.11" fill="none" stroke="#000" stroke-width=".5"/><path d="m418.88 211.6 11.98-6.92M412.7 208.03l11.98-6.92M415.79 209.81l11.98-6.91M409.61 206.24l11.98-6.91M427.64 217.24l-.36.21M424.55 215.46l-.36.21M421.46 213.68l-.36.21M428.2 221.52l3.93-2.27M428.2 220.92l2.9-1.67M421.64 217.14l.36-.21M424.73 218.92l.15-.09M427.82 220.71l.36-.21" fill="none" stroke="#ff0" stroke-width=".5"/><path d="m393.48 216.16 36.56 21.1" fill="none" stroke="#000" stroke-width=".5"/><path d="m430.73 219.03-.37.21M428.18 220.5l2.18-1.26" fill="none" stroke="#ff0" stroke-width=".5"/><path d="m394.15 215.77 35.84 20.69M526.3 294.02l47.88 27.65M523.72 295.51l47.89 27.65M521.15 297l47.88 27.64M522.38 296.28l47.89 27.65M573.67 321.97l.51-.3M525.78 294.32l.52-.3M521.66 291.35l-35.01-20.22M519.09 292.83l-32.44-18.73M516.51 294.32l-35.26-20.36M517.75 293.61l-32.44-18.73M521.15 291.65l.51-.3M262.5 406.49l39.13 22.59M265.07 405l39.14 22.6M267.65 403.52l39.13 22.59M266.41 404.23l39.14 22.59M302.15 428.79l-.52.29M262.65 406.4l-14.93 8.62M256.99 403.13l-14.93 8.62M241.81 411.61l.25.14M260.08 404.91l-14.93 8.63M258.22 403.84l-14.93 8.63M262.5 406.79l-14.52 8.38M484.07 275.59l2.58-1.49M471.2 261.92l-5.67 3.27M465.53 265.19l-5.15-2.98M460.38 262.21l5.67-3.27M471.2 261.92l-5.15-2.98M434.36 243.92l10.58 6.1M442.36 251.51l2.58-1.49M428.69 243.92l16.54 9.54M429.21 243.92l15.99 9.23M433.02 244.69l10.58 6.11M450.89 250.19l-5.66 3.27M429.21 243.92l5.15-2.98M450.89 250.19l-16.53-9.54M431.78 245.4l2.58-1.48M392.22 222.86l-6.17-3.56M386.05 219.3l5.41-3.12M391.46 216.18l6.17 3.56M397.63 219.74l-5.41 3.12M396.86 219.89l-5.65-3.26M394.28 221.37l-5.65-3.26M391.96 222.71l4.9-2.82M386.31 219.45l4.9-2.82M391.96 221.29l1.09-.63M391.96 221.29l-2.87-1.66M365.12 201.57l.52-.3M365.64 201.27l11.2 6.47M360.49 204.24l11.21 6.47M363.06 202.75l11.21 6.47M361.72 203.53l9.67 5.58M304.89 165.89l72.47 41.85M371.7 210.71l5.14-2.97M360.49 198.89l.51-.3M361 198.59l-50.98-29.43M355.85 201.57l-50.97-29.44M358.43 200.08l-50.98-29.43M357.09 200.85l-50.98-29.43M309.51 169.46l.52-.3M300.24 169.46l-.51-.3M299.73 169.16l-8.72 5.05M304.88 172.13l-8.73 5.04M303.64 171.42l-8.73 5.04M302.31 170.64l-8.72 5.05M217.85 216.43l-.51-.3M217.34 216.13l7.18-4.15M223.52 219.7l7.18-4.15M222.28 218.99l7.19-4.15M219.92 217.62l7.18-4.15M230.97 215.71l1.34-.78M171 243.48l-.52-.29M170.48 243.19l41.2-23.79M212.19 219.7l-.51-.3M173.06 244.67l41.19-23.78M176.66 246.75l41.19-23.78M175.42 246.04l41.2-23.78M131.86 272.62l39.14-22.6M165.33 246.75l-.51-.29M126.2 269.35l-.52-.3M125.68 269.05l39.14-22.59M128.26 270.54l39.13-22.6M130.63 271.9l39.13-22.59M120.53 272.62l-.51-.3M120.02 272.32l-39.14 22.6M81.4 295.21l-.52-.29M122.59 273.81 83.46 296.4M126.2 275.89l-39.14 22.59M124.96 275.18l-39.13 22.59M60.23 306.84l14.99-8.65M75.73 298.48l-.51-.29M62.8 308.33l14.99-8.66M66.41 310.41l14.99-8.66M65.17 309.7l14.99-8.66M63.58 312.35l3.09-1.79M29.45 324.61l-16.29 9.41M32.03 326.1l-16.29 9.4M35.63 328.18l-16.29 9.4M34.4 327.46l-16.3 9.41M35.84 328.37l3.09-1.79M13.94 334.46l-.79-.45M46.14 352.74l-26.27-15.16M35.84 328.37l-15.97 9.21M39.69 356.47l-26.53-15.32M42.26 354.98l-26.52-15.32M45.87 352.9l-26.53-15.32M44.63 353.61 18.11 338.3M13.94 340.7l-.78.45M29.2 324.46 6.47 337.58M39.43 356.61 6.47 337.58M66.66 310.56l164.3-94.86M59.97 306.69l164.3-94.85M304.88 172.43l-8.48 4.89M371.69 211.01l-66.81-38.58" fill="none" stroke="#000" stroke-width=".5"/><path d="m246.07 313.41-65.81 37.99M197.26 357.64l-12.88-7.43M200.35 355.86l-12.88-7.43M203.44 354.08l-12.88-7.44M206.53 352.29l-12.88-7.43M209.62 350.51l-12.88-7.43M212.71 348.73l-12.88-7.44M215.79 346.94l-12.87-7.43M218.88 345.16l-12.87-7.43M221.97 343.37l-12.87-7.43M225.06 341.59l-12.87-7.43M228.15 339.81l-12.87-7.44M231.24 338.02l-12.87-7.43M226.24 333.46l-38.51 22.25M194.17 359.43 181.29 352M180.78 351.7l-1.85-1.07M189.53 362.1l139.81-80.71M176.66 354.67l139.8-80.71M329.85 281.69l-139.8 80.71M315.95 273.66l-139.8 80.71M234.2 336.32l-12.94-7.4M190.05 362.4l-.52-.3M176.15 354.37l.51.3" fill="none" stroke="#ff0" stroke-width=".5"/><path d="m399.11 327.02-42.23 24.38M397.87 326.31l-42.22 24.38M352.25 354.08l-40.16 23.19M307.45 379.94l-39.65 22.89M351.01 353.36l-40.16 23.19M306.22 379.23l-39.65 22.89" fill="none" stroke="#000" stroke-width=".5"/><path d="M394.16 221.74" fill="none" stroke="#f0f" stroke-width=".5"/><path d="m479 234.61-12.36-7.14M479 234.61l2.37-1.37" fill="none" stroke="#ff0" stroke-width=".5"/><path d="m105.87 387.23-56.65-32.7M238.72 413.39l-20.34 11.74M215.29 426.92l-20.34 11.74M135.73 404.47l-26.77-15.46" fill="none" stroke="#0ff" stroke-width=".5"/><path d="m316.46 273.96-.51-.3" fill="none" stroke="#ff0" stroke-width=".5"/><path d="m351.99 295.96-3.85-2.23M349.93 297.15l-3.85-2.23M328.56 282.43l5.16 2.98M326.5 283.62l5.16 2.98M314.67 274.41l-2.33-1.35M312.61 275.6l-2.33-1.35" fill="none" stroke="gray" stroke-width=".5"/><path d="m312.18 274.33.09-.12m0 0 .2-.05m0 0 .21.05m0 0 .08.12m0 0-.08.12m0 0-.21.05m0 0-.2-.05m0 0-.09-.12M328.54 283.77l.08-.12m0 0 .21-.05m0 0 .21.05m0 0 .08.12m0 0-.08.12m0 0-.21.05m0 0-.21-.05m0 0-.08-.12M329.83 284.52l.08-.12m0 0 .21-.05m0 0 .2.05m0 0 .09.12m0 0-.09.11m0 0-.2.05m0 0-.21-.05m0 0-.08-.11M331.11 285.26l.09-.12m0 0 .21-.05m0 0 .2.05m0 0 .09.12m0 0-.09.12m0 0-.2.05m0 0-.21-.05m0 0-.09-.12M348.1 295.07l.09-.12m0 0 .2-.05m0 0 .21.05m0 0 .09.12m0 0-.09.12m0 0-.21.05m0 0-.2-.05m0 0-.09-.12M349.39 295.81l.08-.12m0 0 .21-.05m0 0 .2.05m0 0 .09.12m0 0-.09.12m0 0-.2.05m0 0-.21-.05m0 0-.08-.12" fill="none" stroke="#000" stroke-width=".5"/><path d="m304.56 325.34-25.16-14.53M306.62 324.15l-25.16-14.52M309.35 325.34l42.91-24.77M307.29 324.15l42.91-24.77M304.37 272.92l-42.91 24.77M306.43 274.11l-42.91 24.77M265.5 302.79l-4.04-2.33M267.56 301.6l-4.04-2.33" fill="none" stroke="gray" stroke-width=".5"/><path d="m417.65 231.89-4.64-2.68m0 0-4.63 2.68m0 0 4.63 2.67m0 0 4.64-2.67M417.65 231.89l-4.64-2.68m0 0-4.63 2.68m0 0 4.63 2.67m0 0 4.64-2.67" fill="none" stroke="#000" stroke-width=".5"/><path d="m392.22 222.86 15.39 8.89" fill="none" stroke="#0ff" stroke-width=".5"/><path d="m412.97 234.54.82.48M408.38 231.89l-.51-.29M302.82 272.02l-39.65-22.89M217.85 222.97l39.65 22.89M394.47 324.35l-42.22 24.38M396.02 325.24l-42.22 24.38M399.62 321.37l-18.53-10.7M393.96 324.64l-40.16-23.18M398.08 322.27l-40.17-23.19M395.5 323.75l-40.16-23.19M381.09 310.67l-21.63-12.48M371.39 209.11l1.34-.78M452.15 458.13l-4.64-2.68m0 0-4.63 2.68m0 0 4.63 2.67m0 0 4.64-2.67" fill="none" stroke="#000" stroke-width=".5"/><path d="m407.19 484.08-4.63-2.67m0 0-4.64 2.67m0 0 4.64 2.68m0 0 4.63-2.68M362.91 458.52l-4.64-2.68m0 0-4.63 2.68m0 0 4.63 2.67m0 0 4.64-2.67" fill="none" stroke="RGB(91,91,91)" stroke-width=".5"/><path d="m311.42 428.79-4.64-2.68m0 0-4.63 2.68m0 0 4.63 2.67m0 0 4.64-2.67M312.09 377.27l-4.64-2.68m0 0-4.63 2.68m0 0 4.63 2.67m0 0 4.64-2.67M268.32 403.13l-5.67-3.27m0 0-5.66 3.27m0 0 5.66 3.27m0 0 5.67-3.27M131.86 272.62l-5.66-3.27m0 0-5.67 3.27m0 0 5.67 3.27m0 0 5.66-3.27M81.4 295.21l5.66 3.27m0 0-5.66 3.27m0 0-5.67-3.27m0 0 5.67-3.27M403.74 324.35l-4.63-2.68m0 0-4.64 2.68m0 0 4.64 2.67m0 0 4.63-2.67M356.88 351.4l-4.63-2.67m0 0-4.63 2.67m0 0 4.63 2.68m0 0 4.63-2.68M359.46 298.19l-5.66-3.27m0 0-5.67 3.27m0 0 5.67 3.27m0 0 5.66-3.27M268.83 245.86l-5.66-3.27m0 0-5.67 3.27m0 0 5.67 3.27m0 0 5.66-3.27M314.15 272.02l-5.67-3.27m0 0-5.66 3.27m0 0 5.66 3.27m0 0 5.67-3.27M223.52 219.7l-5.67-3.27m0 0-5.66 3.27m0 0 5.66 3.27m0 0 5.67-3.27M176.66 246.75l-5.66-3.27m0 0-5.67 3.27m0 0 5.67 3.27m0 0 5.66-3.27M630.83 354.97l-4.64-2.68m0 0-4.63 2.68m0 0 4.63 2.67m0 0 4.64-2.67M578.3 324.64l-4.63-2.67m0 0-4.64 2.67m0 0 4.64 2.68m0 0 4.63-2.68M525.78 294.32l-4.63-2.67m0 0-4.64 2.67m0 0 4.64 2.68m0 0 4.63-2.68M590.66 378.16l-4.63-2.68m0 0-4.64 2.68m0 0 4.64 2.67m0 0 4.63-2.67M543.8 405.21l-4.63-2.67m0 0-4.64 2.67m0 0 4.64 2.68m0 0 4.63-2.68M496.94 432.26l-4.63-2.67m0 0-4.63 2.67m0 0 4.63 2.68m0 0 4.63-2.68M365.12 201.57l-4.63-2.68m0 0-4.64 2.68m0 0 4.64 2.67m0 0 4.63-2.67M309.51 169.46l-4.63-2.68m0 0-4.64 2.68m0 0 4.64 2.67m0 0 4.63-2.67M417.65 231.89l-4.64-2.68m0 0-4.63 2.68m0 0 4.63 2.67m0 0 4.64-2.67M470.17 262.21l-4.64-2.67m0 0-4.63 2.67m0 0 4.63 2.68m0 0 4.64-2.68" fill="none" stroke="#000" stroke-width=".5"/><path d="m465.69 242.39-10.81-6.25" fill="none" stroke="#ff0" stroke-width=".5"/><path d="m434.36 240.65-15.42-8.61M413.02 228.62l-15.39-8.88" fill="none" stroke="gray" stroke-width=".5"/><path d="m450.59 297.3.01-.01M449.36 296.59l.01-.01M445.97 299.97l-4.12 2.38M444.73 299.26l-3.09 1.78M399.11 321.67l6.98-4.03M400.34 322.39l5.95-3.44M477.09 276.65l4.15-2.4M479.35 276.77l3.13-1.8M481.72 279.33l-4.63-2.68M481.52 278.02l3.12-1.8M481.72 279.33l4.15-2.4M481.52 278.02l-2.17-1.25M441.85 302.35l-4.64-2.68M410.72 320.32l-4.63-2.68M437.21 299.67l8.76-5.05M410.72 320.32l-6.98 4.03M408.46 320.2l-5.95 3.43M439.48 299.79l3.09-1.78M441.64 301.04l-2.16-1.25M408.46 320.2l-2.17-1.25M450.6 297.29l14.28-8.24M445.97 294.62l31.12-17.97M449.83 296.85l14.28-8.25M480.95 279.77l-.77-.44m0 0 .77-.45m0 0 .77.45m0 0-.77.44M450.6 297.29l-.77-.44m0 0 .77-.45m0 0 .77.45m0 0-.77.44M461.61 285.59l15.48-8.94M464.49 288.38l1.55-.89M464.19 287.61l.46-.27M410.72 320.32l31.13-17.97M409.95 319.87l31.13-17.97M441.08 302.79l-.78-.44m0 0 .78-.45m0 0 .77.45m0 0-.77.44M425.24 311.94l-.77-.45m0 0 .77-.45m0 0 .77.45m0 0-.77.45M410.72 320.32l-.77-.45m0 0 .77-.44m0 0 .77.44m0 0-.77.45M427.56 310.6l-.77-.45m0 0-.78.45m0 0 .78.44m0 0 .77-.44M426.01 311.49l-.77-.45m0 0 .77-.44m0 0 .78.44m0 0-.78.45M424.85 311.27l1.55-.9M424.55 310.5l.51-.3M450.6 297.29l-4.63-2.67m0 0-4.64 2.67m0 0 4.64 2.68m0 0 4.63-2.68M465.27 287.94l-.83-.48M425.63 310.82l-.82-.47M467.2 287.71l14.52-8.38M466.43 287.27l14.52-8.39M466.43 288.16l-.78-.45M465.65 287.71l.78-.44M466.43 287.27l.77.44M467.2 287.71l-.77.45M465.65 288.6l-.77-.44M464.88 288.16l.77-.45M465.65 287.71l.78.45M466.43 288.16l-.78.44M467.2 287.71l-.77-.44M466.43 287.27l-.78.44M465.65 287.71l.78.45M466.43 288.16l.77-.45M464.88 289.05l-.77-.45M464.11 288.6l.77-.44M464.88 288.16l.77.44M465.65 288.6l-.77.45M406.09 317.64l31.12-17.97" fill="none" stroke="#000" stroke-width=".5"/><path d="m481.72 279.33 135.17 78.03M482.96 278.61l135.17 78.04" fill="none" stroke="gray" stroke-width=".5"/><path d="m140.77 343.23-45.29-26.15m0 0L149 285.86m0 0-1.09-1.05m0 0-.74-1.16m0 0-.37-1.21m0 0 .02-1.23m0 0 .41-1.2m0 0 .78-1.15m0 0 1.12-1.04m0 0 1.44-.91m0 0 1.69-.74m0 0 1.9-.55m0 0 2.05-.35m0 0 2.12-.12m0 0 2.12.1m0 0 2.05.32m0 0 1.93.53m0 0 1.72.72m0 0 5.66-3.19m0 0 8.36 4.82m0 0 17.98-10.37m0 0-3.71-2.14m0 0 7.38-4.27m0 0 25.47-14.7m0 0 31.27 18.1m0 0-50.99 29.44m0 0 8.13 4.69m0 0-74.93 44.03" fill="none" stroke="#000" stroke-width=".5"/><path d="M257.93 264.7v.73m-.93-1.26v1.8m-.93-2.34v2.88m-.93-3.42v3.95m-.93-4.49v5.03m-.93-5.56v6.1m-.93-6.64v7.17m-.93-7.71v8.25m-.93-8.79v9.32m-.93-9.86v10.4m-.93-10.93v11.47m-.92-12.01v12.54m-.93-13.08v13.62m-.93-14.16v14.7m-.93-15.23v15.76m-.93-16.3v16.84m-.93-17.38v17.92m-.93-18.46v18.99m-.93-19.53v20.07m-.93-20.6v21.13m-.93-21.67v22.21m-.92-22.75v23.29m-.93-23.83v24.36m-.93-24.9v25.44m-.93-25.97v26.51m-.93-27.05v27.58m-.93-28.12v28.66m-.93-29.2v29.74m-.93-30.27v30.8m-.93-31.34v31.88m-.93-32.42v32.95m-.92-33.49v34.03m-.93-34.57v35.11m-.93-35.62v36.15m-.93-35.61v36.15m-.93-35.61v36.15m-.93-35.62v36.15m-.93-35.61v36.15m-.93-35.62v36.16m-.93-35.62v36.15m-.93-35.61v36.15m-.93-35.62v36.15m-.92-35.61v36.15m-.93-35.61v36.15m-.93-35.62v36.15m-.93-35.61v36.15m-.93-35.61v36.15m-.93-35.62v36.15m-.93-35.61v36.15m-.93-35.61v36.15m-.93-35.62v36.15m-.93-35.61v36.15m-.92-35.62v36.16m-.93-35.62v36.15m-.93-35.61v36.15m7.43 4.51v.59m-.93-1.13v1.67m-.93-2.21v2.76m-.93-3.29v3.84m-.93-4.38v4.92m-.93-5.46v6.01m-.92-6.54v7.08m-.93-7.62v8.17m-.93-8.7v9.25m-.93-45.09v45.63m-.93-45.09v45.64m-.93-45.1v45.64m-.93-45.11v45.66m-.93-45.12v45.67m-.93-45.13v45.67m-.93-45.14v45.69m-.93-45.15v45.69m-.92-45.16v45.71m-.93-45.17v45.71m-.93-45.17v3.58m-.93-3.05v2.51m-.93-1.97v1.43m-.93-.89v.36m2.79 2.31v41.44m-.93-40.91v41.46m-.93-40.92v41.46m-.93-40.92v41.47m-.93-40.94v41.48m-.93-40.94v41.49m-.93-40.95v41.5m-.93-40.97v41.51m-.92-40.97v41.52m-.93-40.98v41.52m-.93-40.99v41.54m-.93-41v41.55m-.93-41.02v41.56m-.93-41.02v41.57m-.93-41.03v41.57m-.93-41.04v41.59m-.93-41.05v41.59m-.93-41.05v41.6m-.92-41.07v41.62m-.93-41.41v41.95m-.93-42.49v43.04m-.93-43.58v44.12m-.93-44.65v45.2m-.93-45.74v46.29m-.93-46.83v47.37m-.93-47.9v48.45m-.93-48.99v49.53m-.93-50.06v50.61m-.93-50.82v51.37m-.92-50.85v51.39m-.93-50.86v51.41m-.93-50.89v51.43m-.93-50.91v51.46m-.93-50.93v51.47m-.93-51.14v51.69m-.93-52.08v52.63m-.93-52.97v53.51m-.93-53.77v54.32m-.93-54.54v55.08m-.92-55.23v55.78m-.93-55.92v56.47m-.93-56.51v57.05m-.93-57.09v57.64m-.93-57.61v58.15m-.93-58.09v58.64m-.93-58.54v59.09m-.93-58.93v59.47m-.93-59.28v59.83m-.93-59.56v60.1m-.93-59.79v60.34m-.92-59.94v60.48m-.93-59.99v60.54m-.93-59.95v60.5m-.93-59.67v6.6m0 1.08v52.53m-.93-59v4.17m0 2.84v52.54m-.93-52v52.54m-.93-52v52.55m-.93-52v52.55m-.93-52.01v52.55m-.93-52.01v52.56m-.92-52.02v52.56m-.93-52.02v52.57m-.93-52.02v51.59m-.93-51.05v50.52m-.93-49.98v49.44m-.93-48.9v48.37m-.93-47.83v47.29m-.93-46.74v46.2m-.93-45.66v45.13m-.93-44.59v44.05m-.92-43.51v42.97m-.93-42.43v41.9m-.93-41.35v40.81m-.93-40.27v39.73m-.93-39.19v38.66m-.93-38.12v37.58m-.93-37.04v36.51m-.93-35.96v35.42m-.93-34.88v34.34m-.93-33.8v33.27m-.93-32.73v32.19m-.92-31.65v31.11m-.93-30.57v30.04m-.93-29.49v28.95m-.93-28.41v27.87m-.93-27.33v26.8m-.93-26.26v25.72m-.93-25.18v24.65m-.93-24.1v23.56m-.93-23.02v22.48m-.93-21.94v21.41m-.92-20.87v20.33m-.93-19.79v19.25m-.93-18.7v18.17m-.93-17.63v17.09m-.93-16.55v16.01m-.93-15.47v14.94m-.93-14.4v13.86m-.93-13.31v12.78m-.93-12.24v11.7m-.93-11.16v10.62m-.93-10.08v9.55m-.92-9.01v8.47m-.93-7.92v7.38m-.93-6.84v6.31m-.93-5.77v5.23m-.93-4.69v4.15m-.93-3.61v3.08m-.93-2.54v2m-.93-1.45v.91" fill="none" stroke="silver" stroke-width=".5"/><path d="m347.87 351.26-40.58 23.43M349.16 352.29 309 375.48M302.82 377.27l-39.65 22.89M304.36 378.16l-39.65 22.89" fill="none" stroke="#000" stroke-width=".5"/><path d="m525.78 294.32-4.63-2.67m0 0-4.64 2.67m0 0 4.64 2.68m0 0 4.63-2.68" fill="none" stroke="RGB(91,91,91)" stroke-width=".5"/><path d="m401.35 226.78-3.37 1.95M423.23 238.37l-3.37 1.95" fill="none" stroke="#0ff" stroke-width=".5"/><path d="m539.19 284.82 1.79-1.03M540.98 283.79l-3.33.14M539.19 284.82l-1.79 1.03M537.4 285.85l.25-1.92M454.88 236.14l1.79-1.03M456.67 235.11l-3.34.14M454.88 236.14l-1.79 1.04M453.09 237.18l.24-1.93M416.88 203.83l1.79-1.03M418.67 202.8l-3.33.14M416.88 203.83l-1.79 1.04M415.09 204.87l.25-1.93M261.88 322.47l-69.17 39.94M261.06 322l-65.86 38.02M245.25 312.93l-65.81 38M242.96 331.85l17.58-10.15M261.88 322.47l-.82-.47M262.4 322.77l-69.18 39.94M244.74 312.63l-65.81 38M246.07 313.41l.18-.24m0 0-.18-.24m0 0-.41-.1m0 0-.41.1M246.59 313.7l.34-.34m0 0v-.39m0 0-.34-.34m0 0-.59-.19m0 0h-.67m0 0-.59.19M246.07 313.41l-.82-.48M261.83 322.5l.17-.23m0 0-.17-.24m0 0-.41-.1m0 0-.41.1M262.35 322.8l.34-.34m0 0v-.39m0 0-.34-.34m0 0-.59-.2m0 0h-.68m0 0-.59.2M191.88 362.41l.42.1m0 0 .41-.1M191.37 362.71l.58.2m0 0h.68m0 0 .59-.2M191.88 362.41l-.51.3M195.2 360.02l-.52-.29" fill="none" stroke="#ff0" stroke-width=".5"/><path d="m225.1 210.77 63.28-36.53" fill="none" stroke="#0ff" stroke-width=".5"/><path d="m268.71 195.57 1.54-.89" fill="none" stroke="#000" stroke-width=".5"/><path d="m268.2 194.21 1.43.83M267.89 194.39l1.43.83" fill="none" stroke="#0ff" stroke-width=".5"/><path d="m223.52 219.7 39.65 22.89M340.94 272.9l2.06-1.18m-1.28 1.64 2.06-1.19m0 0-.69 1.98m0 0 2.06-1.19m1.77 1.59.1-.17m0 0v-.23m0 0-.1-.17m0 0-.39-.23m0 0-.3-.05m0 0h-.39m0 0-.29.05m0 0-.4.12m0 0-.49.28m0 0-.19.23m0 0-.1.17m0 0v.22m0 0 .1.17m0 0 .39.23m0 0 .29.06m0 0h.4m0 0 .29-.06m0 0 .29-.17m0 0-.49-.28m.3 1.07 2.06-1.19m0 0 .88.51m0 0 .2.23m0 0v.11m0 0-.1.17m0 0-.2.12m0 0-.29.05m0 0h-.2m0 0-.39-.11m0 0-.88-.51m.68.4-.39 1.01m.69.4 2.06-1.19m0 0 1.27.74m-2.25-.17.78.45m-1.86.17 1.27.74m3.73.11v-.23m0 0-.2-.22m0 0-.39-.23m0 0-.39-.11m0 0h-.39m0 0-.2.11m0 0-.1.17m0 0v.11m0 0 .1.17m0 0 .39.46m0 0 .1.17m0 0v.11m0 0-.1.17m0 0-.29.17m0 0h-.39m0 0-.4-.11m0 0-.39-.23m0 0-.19-.23m0 0v-.22m4.8 1.07v-.22m0 0-.19-.23m0 0-.4-.23m0 0-.39-.11m0 0h-.39m0 0-.2.11m0 0-.1.17m0 0v.12m0 0 .1.17m0 0 .4.45m0 0 .09.17m0 0v.11m0 0-.09.17m0 0-.3.17m0 0h-.39m0 0-.39-.11m0 0-.4-.23m0 0-.19-.22m0 0v-.23m4.31.45-.29-.05m0 0h-.39m0 0-.3.05m0 0-.39.12m0 0-.49.28m0 0-.2.23m0 0-.09.17m0 0v.22m0 0 .09.17m0 0 .4.23m0 0 .29.06m0 0h.39m0 0 .3-.06m0 0 .39-.11m0 0 .49-.29m0 0 .2-.22m0 0 .09-.17m0 0v-.23m0 0-.09-.17m0 0-.4-.23M391.91 245.23l-1.47.85m0 0-.2.23m0 0v.22m0 0 .2.23m0 0 .19.11m0 0 .4.12m0 0h.39m0 0 .39-.12m0 0 1.47-.84m-1.27 1.64 2.06-1.19m0 0 1.27.73m-2.26-.17.79.46m-.1 1.19 2.06-1.19m0 0 1.28.73m-2.26-.17.78.46m-.09 1.19 2.06-1.19m1.76 1.58.1-.17m0 0v-.22m0 0-.1-.17m0 0-.39-.23m0 0-.29-.06m0 0h-.4m0 0-.29.06m0 0-.39.11m0 0-.49.29m0 0-.2.22m0 0-.1.17m0 0v.23m0 0 .1.17m0 0 .39.23m0 0 .3.05m0 0h.39m0 0 .29-.05m.1.62 2.06-1.19m1.37.79-.29-.05m0 0h-.39m0 0-.3.05m0 0-.39.11m0 0-.49.29m0 0-.2.22m0 0-.09.17m0 0v.23m0 0 .09.17m0 0 .4.23m0 0 .29.05m0 0h.39m0 0 .3-.05m0 0 .39-.12m0 0 .49-.28m0 0 .2-.23m0 0 .09-.17m0 0v-.22m0 0-.09-.17m0 0-.4-.23M385.67 284.84l17.49-10.1M385.67 284.84l-5.67-3.27M385.67 283.05l15.94-9.2M385.67 283.05l-5.67-3.27M353.8 294.92l12.3-7.11M355.34 295.81l12.31-7.11M340.36 256.89l10.55 6.1M314.15 272.02l12.3-7.1M312.6 271.13l12.31-7.1M376.92 283.35l-1.55-.89M376.92 283.35l3.08-1.78M375.37 282.46l3.09-1.78M367.65 288.7l-1.55-.89M329.03 255.7l6.69 3.87M324.91 264.03l1.54.89M286.71 257.85l46.48-26.84M285.16 256.96l44.94-25.95M330.1 231.01l-6.18-3.56M333.19 231.01l-7.72-4.46M314.95 220.48l2.07-1.19M313.41 219.59l2.07-1.19M303.81 214.05l-33.56-19.37M319.09 207.39l23.09-13.33M322.18 207.39l21.63-12.48M325.47 226.55l-1.55.9M316.2 221.2l-1.55.89M314.65 222.09l-45.94-26.52M316.2 221.2l-1.25-.72M338.81 257.78l-3.09 1.79M340.36 250.95l15.94-9.21M337.27 250.95l17.49-10.1M340.66 218.07l9.81-5.67M365.9 234.42l-2.76-1.59M353.02 210.93l1.55.89M367.44 233.52l21.63-12.48M350.07 223.49l-1.55.9M364.69 231.94l-1.55.89M364.69 231.94l2.75 1.58M272.29 220.76l-1.47.85m0 0-.2.23m0 0v.22m0 0 .2.23m0 0 .19.11m0 0 .4.12m0 0h.39m0 0 .39-.12m0 0 1.47-.85m-1.27 1.64 2.06-1.18m0 0 1.27.73m-2.25-.17.78.45m-.1 1.19 2.06-1.19m0 0 1.28.74m-2.26-.17.79.45m-.1 1.19 2.06-1.19m1.76 1.59.1-.17m0 0v-.23m0 0-.1-.17m0 0-.39-.22m0 0-.29-.06m0 0h-.4m0 0-.29.06m0 0-.39.11m0 0-.49.28m0 0-.2.23m0 0-.1.17m0 0v.23m0 0 .1.17m0 0 .39.22m0 0 .3.06m0 0h.39m0 0 .29-.06m.1.63 2.06-1.19m1.37.79-.29-.06m0 0h-.39m0 0-.3.06m0 0-.39.11m0 0-.49.29m0 0-.2.22m0 0-.09.17m0 0v.23m0 0 .09.17m0 0 .4.22m0 0 .29.06m0 0h.39m0 0 .3-.06m0 0 .39-.11m0 0 .49-.28m0 0 .2-.23m0 0 .09-.17m0 0v-.22m0 0-.09-.17m0 0-.4-.23M354.76 240.85l1.54.89M364.03 235.5l1.54.89M364.03 235.5l1.87-1.08M365.57 236.39l25.04-14.46" fill="none" stroke="#000" stroke-width=".5"/><path d="m349.59 223.77.48.28M350.07 223.49l.48.28M350.55 223.77l-.48.28M364.19 231.65l.5.29M363.68 231.95l.49.28" fill="none" stroke="#0ff" stroke-width=".5"/><path d="m350.47 212.4 2.55-1.47M305.5 191.62l-1.48.85m0 0-.19.23m0 0v.22m0 0 .19.23m0 0 .2.11m0 0 .39.12m0 0h.4m0 0 .39-.12m0 0 1.47-.85m-1.28 1.65 2.06-1.19m0 0 1.28.73m-2.26-.17.79.46m-.1 1.19 2.06-1.19m0 0 1.27.73m-2.25-.17.78.46m-.1 1.19 2.06-1.19m1.77 1.58.1-.17m0 0v-.22m0 0-.1-.17m0 0-.39-.23m0 0-.3-.06m0 0h-.39m0 0-.29.06m0 0-.4.11m0 0-.49.29m0 0-.19.22m0 0-.1.17m0 0v.23m0 0 .1.17m0 0 .39.22m0 0 .29.06m0 0h.4m0 0 .29-.06m.1.63 2.06-1.19m1.37.79-.29-.06m0 0h-.39m0 0-.3.06m0 0-.39.11m0 0-.49.29m0 0-.2.22m0 0-.1.17m0 0v.23m0 0 .1.17m0 0 .39.23m0 0 .3.05m0 0h.39m0 0 .3-.05m0 0 .39-.12m0 0 .49-.28m0 0 .19-.23m0 0 .1-.17m0 0v-.22m0 0-.1-.17m0 0-.39-.23M342.26 194.01l-8.47 4.9M348.52 224.39l-20.16-11.65M350.07 223.49l-7.86-4.53M340.66 218.07l-18.48-10.68M313.41 219.59l2.07-1.19M305.36 214.94l-1.55-.89M326.81 211.85l-7.72-4.46M324.74 213.05l1.55.89M315.48 218.4l1.54.89M326.29 213.94l2.07-1.2M324.74 213.05l2.07-1.2M313.41 219.59l-8.05-4.65M342.21 218.96l12.36-7.14M338.81 257.78l10.56 6.1M385.67 283.05l15.94-9.2M424.03 278.64l-1.48.85m0 0-.19.23m0 0v.22m0 0 .19.23m0 0 .2.11m0 0 .39.12m0 0h.4m0 0 .39-.12m0 0 1.47-.85m-1.28 1.65 2.06-1.19m0 0 1.28.73m-2.26-.17.79.46m-.1 1.19 2.06-1.19m0 0 1.27.73m-2.25-.17.78.46m-.1 1.18 2.06-1.18m1.77 1.58.1-.17m0 0v-.23m0 0-.1-.17m0 0-.39-.22m0 0-.3-.06m0 0h-.39m0 0-.29.06m0 0-.4.11m0 0-.49.28m0 0-.19.23m0 0-.1.17m0 0v.23m0 0 .1.17m0 0 .39.22m0 0 .29.06m0 0h.4m0 0 .29-.06m.1.63 2.06-1.19m1.37.79-.29-.06m0 0h-.39m0 0-.3.06m0 0-.39.11m0 0-.49.29m0 0-.2.22m0 0-.1.17m0 0v.23m0 0 .1.17m0 0 .39.23m0 0 .3.05m0 0h.39m0 0 .3-.05m0 0 .39-.12m0 0 .49-.28m0 0 .19-.23m0 0 .1-.17m0 0v-.22m0 0-.1-.17m0 0-.39-.23M401.61 273.85l1.55.89M409.85 269.09l1.55.89M411.4 269.98l31.22-18.02M409.85 269.09l31.23-18.03M369.45 273.69l-1.55.89M350.91 262.99l-1.54.89M369.45 273.69l10.55 6.09M367.9 274.58l10.56 6.1" fill="none" stroke="#000" stroke-width=".5"/><path d="m369.45 273.69-18.54-10.7M349.37 263.88l18.53 10.7M368.93 273.99l-18.53-10.71M349.88 263.58l18.54 10.7" fill="none" stroke="#0ff" stroke-width=".5"/><path d="m340.25 215.41 2.51 1.45M342.76 216.86l6.23-3.6M348.99 213.26l-2.58-1.49M340.18 215.37l-.54-.64m0 0-.23-.7m0 0 .12-.71m0 0 .45-.67m0 0 .74-.56m0 0 .99-.43m0 0 1.15-.26m0 0 1.23-.07m0 0 1.21.13m0 0 1.11.31M341.97 215.89l5.39-3.11M347.36 212.78l-1.55-.89M341.97 215.89l-1.55-.89M347.36 212.78l-5.39 3.11M341.97 215.89l-1.55-.89M340.42 215l-.38-.61m0 0-.07-.65m0 0 .24-.63m0 0 .54-.57m0 0 .8-.46m0 0 .98-.31m0 0 1.1-.14m0 0 1.12.04m0 0 1.06.22M343.92 214.24l-.12-.17m0 0 .12-.16m0 0 .29-.07m0 0 .28.07m0 0 .12.16m0 0-.12.17m0 0-.28.06m0 0-.29-.06" fill="none" stroke="gray" stroke-width=".5"/><path d="m337.27 250.95-8.24 4.75M340.36 250.95l-5.15 2.97M340.36 256.89l-5.15-2.97M258.44 245.33l-16.4-9.47M261.74 243.43l-16.41-9.47M238.74 233.96l3.3 1.9M242.04 232.06l3.29 1.9M245.13 234.08l-1.29-.74M238.95 233.84l1.29.75M240.96 234.66l2.28-1.32M240.84 234.59l2.28-1.32M238.74 233.96l.21-.12M242.04 235.86l.21-.12M243.12 232.92l-1.29-.74M240.96 235l1.29.74M240.24 234.59l.3.07m0 0 .3-.07M240.96 234.66l-.13.17m0 0 .13.17M243.12 233.27l.12-.18m0 0-.12-.17M243.84 233.34l-.3-.08m0 0-.3.08M245.13 234.08l.2-.12M241.83 232.18l.21-.12M261.53 243.31l-3.3 1.9M261.53 243.55l-16.4-9.47M258.66 245.21l-16.41-9.47M242.04 232.06l-19.7-11.37M238.74 233.96l-19.69-11.37" fill="none" stroke="#000" stroke-width=".5"/><path d="m409.61 206.24 22.52 13.01" fill="none" stroke="#ff0" stroke-width=".5"/><path d="m295.59 178.4 1.34-.77M129.55 411.61l-3.09-1.79m0 0 9.27-5.35m0 0 3.09 1.79m0 0-9.27 5.35" fill="none" stroke="#000" stroke-width=".5"/><path d="m379.98 207.55.97.83m0 0 .69.92m0 0 .39.98m0 0 .08 1m0 0-.25.99m0 0-.56.96m0 0-.84.87m0 0-1.11.77M373.32 211.39l6.66-3.84M372.65 211.01l6.66-3.85M379.98 207.55l-.67-.39M373.32 211.39l-.67-.38M385.37 218.35l6.66-3.84M386.04 218.74l6.66-3.85M392.03 214.51l.67.38M386.04 218.74l-.67-.39M378.68 215.26l5.14-2.97M379.35 214.87l1.33-.64m0 0 1.52-.49m0 0 1.65-.32m0 0 1.72-.14m0 0 1.73.04m0 0 1.7.23m0 0 1.59.39m0 0 1.44.57M365.22 277.67l-1.21 1.02m0 0-.91 1.11m0 0-.59 1.19m0 0-.24 1.23m0 0 .11 1.23m0 0 .45 1.21m0 0 .79 1.15m0 0 1.1 1.06m0 0 1.38.94M374.44 282.99l-9.22-5.32M375.37 282.46l-9.22-5.33M365.22 277.67l.93-.54M374.44 282.99l.93-.53M371.66 285.67l-7.12-4.11M344.02 265.43l-1.77.7m0 0-1.93.52m0 0-2.06.34m0 0-2.12.14m0 0-2.14-.06m0 0-2.09-.26m0 0-1.99-.46m0 0-1.84-.63m0 0-1.63-.8M334.79 260.1l9.23 5.33M335.72 259.57l9.22 5.32M344.02 265.43l.92-.54M334.79 260.1l.93-.53M330.16 261.71l7.12 4.11M394.24 268.64l1.77-.69m0 0 1.97-.49m0 0 2.08-.28m0 0 2.14-.05m0 0 2.12.17m0 0 2.02.4m0 0 1.87.6m0 0 1.64.79M402.44 273.37l-8.2-4.73M401.61 273.85l-8.19-4.74M394.24 268.64l-.82.47M402.44 273.37l-.83.48M406.56 271.94l-6.33-3.65M366.45 246.53l1.21-1.02m0 0 .92-1.12m0 0 .58-1.18m0 0 .24-1.23m0 0-.1-1.23m0 0-.46-1.21m0 0-.79-1.15m0 0-1.1-1.06m0 0-1.38-.94M357.23 241.2l9.22 5.33M356.3 241.74l9.22 5.32M366.45 246.53l-.93.53M357.23 241.2l-.93.54M360.01 238.53l7.12 4.11M313.77 232.23l-1.21-1.01m0 0-.91-1.12m0 0-.59-1.19m0 0-.24-1.23m0 0 .11-1.23m0 0 .45-1.21m0 0 .79-1.15m0 0 1.1-1.05m0 0 1.38-.95M322.99 226.91l-9.22 5.32M323.92 227.45l-9.22 5.32M313.77 232.23l.93.54M322.99 226.91l.93.54M320.21 224.23l-7.12 4.11M307.18 212.54l1.76-.7m0 0 1.94-.53m0 0 2.06-.34m0 0 2.12-.14m0 0 2.14.07m0 0 2.09.26m0 0 1.99.45m0 0 1.83.64m0 0 1.63.8M316.4 217.86l-9.22-5.32M315.48 218.4l-9.23-5.33M307.18 212.54l-.93.53M316.4 217.86l-.92.54M321.04 216.26l-7.12-4.11M364.19 231.65l-.51.3M358.02 220.24l.99.85m0 0 .7.94m0 0 .4 1m0 0 .07 1.02m0 0-.25 1.01m0 0-.56.97m0 0-.87.89m0 0-1.13.79M351.23 224.16l6.79-3.92M350.55 223.77l6.78-3.92M358.02 220.24l-.69-.39M351.23 224.16l-.68-.39M363.51 231.25l6.79-3.91M364.19 231.65l6.79-3.92M370.3 227.34l.68.39M364.19 231.65l-.68-.4M356.69 228.1l5.24-3.02M357.37 227.71l1.36-.65m0 0 1.55-.5m0 0 1.68-.33m0 0 1.75-.15m0 0 1.77.05m0 0 1.72.23m0 0 1.63.4m0 0 1.47.58" fill="none" stroke="#0ff" stroke-width=".5"/><path d="m341.79 201.41-.72-.03m0 0-.66.17m0 0-.43.33m0 0-.11.41m0 0 .24.39m0 0 .54.28m0 0 .7.09m0 0 .7-.11M343.22 200.75l.25.15m0 0-1.49.86m0 0h-.51m0 0 1.75-1.01m-1.75 1.01h.51m0 0 .96.56m0 0-.41.05m0 0-1.06-.61m1.06.61.41-.05m0 0-.49.8m0 0-.47.16m0 0 .55-.91m-.55.91.47-.16m0 0 .55.07m0 0-.07.2m0 0-.95-.11M342.47 204.4v-.11m0 0 3.91-2.26m0 0h.2m0 0-4.11 2.37m4.11-2.37h-.2m0 0-3.92-2.27m0 0v-.11m0 0 4.12 2.38m-4.12-2.38v.11m0 0-3.91 2.26m0 0h-.21m0 0 4.12-2.37m-4.12 2.37h.21m0 0 3.92 2.27m0 0v.11m0 0-4.13-2.38M342.47 201.5l.25-.14m0 0 .95.54m0 0-.25.15m0 0-.95-.55M343.25 200.74l-.11.15h.38l-.27-.15m-.11.15.11.16.27-.16h-.38m.11.16.27.06v-.22l-.27.16m.27.06.27-.06-.27-.16v.22m.27-.06.11-.16h-.38l.27.16m.11-.16-.11-.15-.27.15h.38m-.11-.15-.27-.07v.22l.27-.15m-.27-.07-.27.07.27.15v-.22" fill="none" stroke="gray" stroke-width=".5"/><path d="m409.61 206.24.52.3" fill="none" stroke="#000" stroke-width=".5"/></svg>